<svg  viewBox="0 0 206 48" fill="none" xmlns="http://www.w3.org/2000/svg">
<path d="M0.0996094 37H8.49961L11.1996 29.05H22.2496L24.9996 37H33.3996L20.4496 1.5H13.0496L0.0996094 37ZM12.4996 23.4L16.7496 10.85L20.8996 23.4H12.4996Z" fill="#007A33"/>
<path d="M56.0457 10.75H37.8457V37H45.7957V17.55H56.0457V10.75Z" fill="#007A33"/>
<path d="M77.6742 37.5C84.2742 37.5 89.0242 31.6 89.0242 23.8C89.0242 16.2 83.8742 10.25 76.8242 10.25C72.8742 10.25 69.9242 12.05 68.0242 15V10.75H61.0742V47.65H69.0742V32.75C70.6742 35.7 73.7242 37.5 77.6742 37.5ZM74.9742 30.75C72.5242 30.75 70.1242 28.7 69.0742 26.05V20.65C70.1242 18.45 72.3742 17.05 74.5742 17.05C78.2242 17.05 80.8742 19.9 80.8742 23.75C80.8742 27.5 78.4242 30.75 74.9742 30.75Z" fill="#007A33"/>
<path d="M107.005 37.5C115.955 37.5 121.055 31.1 121.055 23.9C121.055 16.65 115.905 10.25 107.005 10.25C98.0555 10.25 92.9555 16.65 92.9555 23.9C92.9555 31.1 98.0555 37.5 107.005 37.5ZM101.155 23.9C101.155 19.85 103.705 17.05 107.005 17.05C110.305 17.05 112.805 19.8 112.805 23.9C112.805 27.95 110.305 30.75 107.005 30.75C103.655 30.75 101.155 28 101.155 23.9Z" fill="#007A33"/>
<path fill-rule="evenodd" clip-rule="evenodd" d="M206 45H126V43H206V45Z" fill="#007A33"/>
<path fill-rule="evenodd" clip-rule="evenodd" d="M118 6H38V4H118V6Z" fill="black"/>
<path d="M154.173 27.8C154.173 23.6 151.623 20 147.573 18.8C150.723 17.4 152.673 14.1 152.673 10.55C152.673 6.1 149.573 1.5 144.573 1.5H128.023V37H144.623C149.873 37 154.173 33 154.173 27.8ZM151.623 27.45C151.623 31.15 148.573 34.7 144.623 34.7H130.573V20.15H144.973C148.773 20.15 151.623 23.65 151.623 27.45ZM143.873 3.8C147.573 3.8 150.173 7.05 150.173 10.9C150.173 14.55 147.423 18 143.573 18H130.573V3.8H143.873Z" fill="black"/>
<path d="M164.878 37V11H162.378V37H164.878ZM164.878 5.1V0.5H162.378V5.1H164.878Z" fill="black"/>
<path d="M180.878 22.65H176.728V11H174.278V37H176.728V24.65H181.078L190.478 37H193.328L182.828 23.5L192.378 11H189.478L180.878 22.65Z" fill="black"/>
<path d="M201.716 37V11H199.216V37H201.716ZM201.716 5.1V0.5H199.216V5.1H201.716Z" fill="black"/>
</svg>
