<svg width="44" height="17" viewBox="0 0 44 17" fill="none" xmlns="http://www.w3.org/2000/svg">
<g clip-path="url(#clip0)">
<path d="M37.8095 2.60693L36.1096 2.60942L30.1221 16.3181H31.9098L34.5567 10.1408H39.4147L42.1605 16.2766H43.9347L37.8095 2.60693ZM35.1481 8.64827L36.9646 4.55797L38.7667 8.64827H35.1481Z" fill="#00874B"/>
<path d="M37.8095 2.60693L36.1096 2.60942L30.1221 16.3181H31.9098L34.5567 10.1408H39.4147L42.1605 16.2766H43.9347L37.8095 2.60693ZM35.1481 8.64827L36.9646 4.55797L38.7667 8.64827H35.1481Z" stroke="#00853F" stroke-width="0.0763428"/>
<path d="M24.1382 4.10352L24.1855 4.0745L24.1432 4.03802C24.1204 4.01729 24.0934 3.99324 24.0621 3.96505C23.7487 3.6823 23.0136 3.02063 21.9888 2.57453L21.9297 2.54883V4.53055L21.9728 4.52972C22.0345 4.52889 23.4918 4.49904 24.1382 4.10352Z" fill="#00853F"/>
<path d="M24.3634 4.00166L24.3837 4.02653L24.4428 4C24.8906 3.801 25.6408 3.4685 26.0143 2.95276L26.0489 2.9055L25.9914 2.88891C25.3088 2.69572 24.7191 2.52822 22.6306 2.60202L22.4785 2.60699L22.6112 2.67913C22.6238 2.68659 23.8058 3.33335 24.3634 4.00166Z" fill="#00853F"/>
<path d="M24.6524 4.13754L24.584 4.15826L24.6355 4.20719C25.8217 5.33071 26.5686 6.97496 26.9699 7.85802L26.9986 7.92021L27.0366 7.90528C28.1197 7.47412 29.1674 6.45672 29.861 5.72871L29.8838 5.70467L29.8652 5.6773C28.788 4.08115 27.3188 3.37221 26.3075 2.97753L26.2771 2.96509L26.2577 2.99162C25.6502 3.83074 24.6626 4.13505 24.6524 4.13754Z" fill="#00853F"/>
<path d="M26.7035 8.06945L26.7356 8.05204L26.723 8.01804C26.5219 7.49152 25.759 5.66818 24.3903 4.31331L24.3726 4.2959L24.3489 4.30253C24.2653 4.32492 24.1732 4.35145 24.0718 4.38047C23.5446 4.53304 22.8214 4.74282 21.9639 4.72541L21.9199 4.72624V9.14323L21.963 9.1424C21.9926 9.14157 24.8879 9.04787 26.7035 8.06945Z" fill="#00853F"/>
<path d="M26.834 8.28931L26.7926 8.30589C26.7385 8.32745 26.6785 8.35149 26.6126 8.37803C25.8159 8.70058 24.1583 9.37137 21.971 9.38049H21.9287V14.261L21.9693 14.2626C21.9735 14.2626 22.0242 14.2643 22.1163 14.2643C22.7499 14.2643 25.3056 14.1988 27.438 13.2021L27.4609 13.1914L27.4617 13.1665C27.5293 11.2926 27.3223 9.66573 26.8466 8.33159L26.834 8.28931Z" fill="#00853F"/>
<path d="M27.4293 13.5039L27.3532 13.5346C25.6846 14.2029 23.8724 14.5221 21.963 14.4807L21.9199 14.4798V16.3529L21.9579 16.3571C21.9715 16.3587 22.5392 16.4135 23.3123 16.4135C24.3869 16.4135 25.8587 16.3073 26.788 15.8032L26.7973 15.7982L26.8032 15.7891C26.821 15.7609 26.8395 15.7335 26.8581 15.7062C27.0499 15.4226 27.267 15.1009 27.4217 13.5736L27.4293 13.5039Z" fill="#00853F"/>
<path d="M27.7447 13.3074L27.7135 13.3165V13.348C27.7135 13.3621 27.7219 14.7269 27.2412 15.4956L27.2995 15.5528L27.3156 15.5428C28.4646 14.8555 30.3875 13.7046 30.9654 10.6466L30.8902 10.6143C30.1298 11.6035 28.9757 12.96 27.7447 13.3074Z" fill="#00853F"/>
<path d="M33.3919 0.0248751L33.3606 0L33.3293 0.0232168C32.9213 0.326693 32.6518 0.527352 32.182 0.833316C31.5839 1.2222 30.0521 2.37226 29.7691 2.80757C29.1287 3.79345 29.2554 4.69642 30.124 5.35064L30.1561 5.37468L30.1822 5.344C30.3698 5.12013 30.6731 4.61682 30.9418 4.17238C31.1344 3.85315 31.3008 3.57704 31.3642 3.50739C31.4749 3.38467 31.5771 3.26196 31.6641 3.15333C31.3634 3.7437 31.2992 3.84072 31.2949 3.84818C31.2873 3.8631 30.5202 5.31084 30.3428 5.51232C30.3149 5.54383 30.2819 5.59358 30.2363 5.6624C29.9693 6.06621 29.2605 7.13833 27.1036 8.15489L27.0664 8.1723L27.0833 8.20879C27.0901 8.22454 27.7972 9.80079 27.7414 12.9724L27.7398 13.0478L27.8048 13.0089C27.8809 12.9632 27.9577 12.9185 28.0355 12.8737C28.8913 12.3745 29.862 11.809 31.044 9.8721L31.0499 9.86215V9.71207C31.0516 8.84725 31.0541 7.868 30.3377 6.42607L30.8624 5.63421C31.0786 5.61846 32.8089 5.43936 33.6504 3.78848C33.9875 3.12846 34.3052 1.05139 33.3919 0.0248751Z" fill="#00853F"/>
<path d="M14.7786 10.2287H20.6757L20.6732 8.67732L14.7499 8.6823V4.17741L20.8312 4.16746V2.59204L12.2592 2.59453L7.4224 13.7535L2.4656 2.59536H0.0585938V16.3596H1.80492V5.29514L6.70849 16.3073L6.71947 16.3314H8.15489L12.9757 5.21719L12.9681 16.3563H20.9224L20.9275 14.8082L14.7786 14.8132V10.2287Z" fill="#00853F"/>
</g>
<defs>
<clipPath id="clip0">
<rect width="43.9412" height="16.4118" fill="white" transform="translate(0.0585938)"/>
</clipPath>
</defs>
</svg>
