<?xml version="1.0" encoding="utf-8"?>
<!-- Generator: Adobe Illustrator 24.0.1, SVG Export Plug-In . SVG Version: 6.00 Build 0)  -->
<svg version="1.1" id="Layer_1" xmlns="http://www.w3.org/2000/svg" xmlns:xlink="http://www.w3.org/1999/xlink" x="0px" y="0px"
	 width="60px" height="60px" viewBox="0 0 60 60" enable-background="new 0 0 60 60" xml:space="preserve">
<g>
	<path fill="#414241" d="M31.2,44.3c0,0.1,0.2,0.2,0.3,0.2c0.2,0,0.2-0.2,0.2-0.3c0,0,0-0.1,0-0.1c0-0.1-0.2-0.2-0.3-0.2
		C31.2,43.9,31.1,44,31.2,44.3C31.1,44.2,31.2,44.2,31.2,44.3z M32.7,25.7c0.1,0,0.1,0.1,0.2,0.1c0.3,0.2,0.6-0.3,0.3-0.5L33,25.2
		C32.7,25.1,32.4,25.5,32.7,25.7z M35,30.7c-0.3-0.2-0.7,0.2-0.4,0.4c0,0,0.1,0.1,0.1,0.1c0.3,0.2,0.7-0.2,0.4-0.4
		C35.1,30.8,35,30.7,35,30.7z M34.8,31.5c-0.2-0.3-0.7,0-0.5,0.3c0,0,0,0.1,0.1,0.1C34.6,32.2,35.1,31.9,34.8,31.5
		C34.9,31.6,34.8,31.6,34.8,31.5z M40.1,23.8c-0.4,0-0.4,0.5,0,0.6l0.1,0C40.6,24.4,40.6,23.8,40.1,23.8L40.1,23.8z M44.6,26.1
		c0,0.1,0.1,0.3,0.3,0.3c0.1,0,0.1,0,0.2,0c0.1,0,0.3-0.1,0.3-0.3c0-0.1-0.1-0.3-0.3-0.3c-0.1,0-0.1,0-0.2,0
		C44.7,25.8,44.6,25.9,44.6,26.1z M44.7,25.3C44.8,25.3,44.8,25.3,44.7,25.3c0.4-0.3,0-0.7-0.3-0.5c0,0-0.1,0-0.1,0.1
		C44.1,25.1,44.5,25.5,44.7,25.3z M30.7,44.4c0,0,0-0.1,0-0.1c0-0.2-0.1-0.3-0.3-0.3c-0.2,0-0.3,0.1-0.3,0.3c0,0,0,0.1,0,0.1
		c0,0.2,0.1,0.3,0.3,0.3C30.6,44.7,30.7,44.6,30.7,44.4z M28.8,42.6c-0.1,0-0.1,0.1-0.2,0.1c-0.3,0.2,0,0.6,0.3,0.5
		c0.1,0,0.1-0.1,0.2-0.1C29.4,43,29.1,42.5,28.8,42.6z M28.1,31.8c0,0.1-0.1,0.1-0.1,0.2c-0.2,0.3,0.3,0.6,0.5,0.3
		c0-0.1,0.1-0.1,0.1-0.2C28.8,31.8,28.3,31.5,28.1,31.8z M40,23.3l0.2-0.1c0.3-0.2,0-0.7-0.3-0.5l-0.2,0.1
		C39.5,23,39.7,23.5,40,23.3z M39,22.6c0.1,0.1,0.3,0,0.4-0.1l0-0.1c0.1-0.1,0-0.3-0.1-0.4c-0.1-0.1-0.3,0-0.4,0.1c0,0,0,0.1,0,0.1
		C38.9,22.3,38.9,22.5,39,22.6z M28.9,32.6c0,0,0,0.1,0,0.1c-0.1,0.3,0.4,0.5,0.5,0.1c0,0,0-0.1,0-0.1C29.6,32.4,29,32.2,28.9,32.6z
		 M39.4,28.6c0.2,0.3,0.7,0,0.5-0.3c0-0.1-0.1-0.1-0.1-0.2c-0.2-0.3-0.6,0-0.5,0.3C39.3,28.5,39.4,28.6,39.4,28.6z M28.8,36.8
		C28.8,36.8,28.8,36.8,28.8,36.8c0.4,0.2,0.6-0.3,0.3-0.4c0,0,0,0-0.1,0C28.7,36.1,28.5,36.6,28.8,36.8z M35.9,40.7L35.9,40.7
		c0-0.4-0.5-0.4-0.5-0.1v0.1C35.4,41.1,35.9,41.1,35.9,40.7z M29.3,43.4l-0.1,0c-0.1,0.1-0.2,0.2-0.2,0.3c0,0.1,0.2,0.3,0.3,0.2
		c0,0,0.1,0,0.1,0c0.1-0.1,0.2-0.2,0.2-0.3C29.6,43.5,29.4,43.4,29.3,43.4z M39,28.8C39,28.8,39,28.8,39,28.8
		c-0.1-0.4-0.7-0.3-0.6,0.1c0,0,0,0.1,0,0.1C38.6,29.3,39.1,29.1,39,28.8z M28.9,35.9c0.1,0,0.1,0,0.2,0c0.1,0,0.3,0,0.3-0.2
		c0-0.1,0-0.3-0.2-0.3c-0.1,0-0.1,0-0.2,0c-0.1,0-0.3,0-0.3,0.2C28.7,35.7,28.8,35.9,28.9,35.9z M36.5,40.7c0.1,0.1,0.2,0.2,0.4,0.1
		c0.1-0.1,0.2-0.3,0.1-0.4l-0.1-0.2c-0.1-0.1-0.2-0.2-0.4-0.1c-0.1,0.1-0.2,0.3-0.1,0.4L36.5,40.7z M29.8,32.8
		c-0.2,0.3,0.2,0.7,0.4,0.4c0,0,0-0.1,0.1-0.1C30.5,32.8,30.1,32.4,29.8,32.8C29.8,32.7,29.8,32.8,29.8,32.8z M37.2,39.9
		c0,0,0.1,0,0.1,0c0.3,0.1,0.5-0.4,0.1-0.5c0,0-0.1,0-0.1,0C37.1,39.2,36.9,39.7,37.2,39.9z M32.6,26.1
		C32.6,26.1,32.6,26.1,32.6,26.1c-0.4,0-0.4,0.5,0,0.6c0,0,0,0,0,0C32.9,26.7,32.9,26.1,32.6,26.1z M37.4,38.8c0.1,0,0.1,0,0.2,0.1
		c0.3,0.1,0.5-0.4,0.1-0.5c-0.1,0-0.1,0-0.2-0.1C37.2,38.1,37.1,38.7,37.4,38.8z M24,39.6c0.1,0,0.1,0,0.2,0c0.1,0,0.3-0.1,0.3-0.3
		c0-0.2-0.1-0.3-0.3-0.3c-0.1,0-0.1,0-0.2,0c-0.1,0-0.3,0.1-0.3,0.3C23.7,39.5,23.8,39.6,24,39.6z M38.8,43.6c0,0-0.1,0-0.1,0
		c-0.1,0-0.3,0.1-0.3,0.3c0,0.2,0.1,0.3,0.3,0.3c0,0,0.1,0,0.1,0c0.1,0,0.3-0.1,0.3-0.3C39.1,43.7,39,43.6,38.8,43.6z M32.4,50.9
		c0,0.1,0,0.1,0,0.2c0,0.4,0.6,0.4,0.5,0c0-0.1,0-0.1,0-0.2C32.9,50.6,32.3,50.6,32.4,50.9z M33.7,50.7c0-0.1-0.2-0.2-0.3-0.2
		c-0.2,0-0.2,0.2-0.2,0.3c0,0.1,0,0.1,0.1,0.2C33.4,51.4,33.9,51.1,33.7,50.7C33.7,50.8,33.7,50.7,33.7,50.7z M38.8,44.6
		c-0.2-0.3-0.6,0-0.5,0.3c0,0,0,0,0,0.1C38.5,45.2,39,44.9,38.8,44.6C38.8,44.6,38.8,44.6,38.8,44.6z M34.1,50.4
		c0,0.1,0.1,0.1,0.2,0.1c0.1,0,0.3-0.1,0.3-0.3c0-0.1,0-0.2-0.1-0.2C34.2,49.8,33.8,50.2,34.1,50.4z M25.8,52.5c0.4,0,0.4-0.6,0-0.6
		h-0.3c-0.4,0-0.4,0.6,0,0.6H25.8z M26.6,54.6c-0.1,0-0.2,0.2-0.2,0.3c0,0.2,0.1,0.3,0.3,0.3c0.1,0,0.1,0,0.2,0
		c0.1-0.1,0.2-0.2,0.1-0.4C26.8,54.6,26.7,54.6,26.6,54.6z M25.6,52.8c-0.3,0.1-0.3,0.6,0.1,0.5c0.1,0,0.1,0,0.2-0.1
		C26.1,53.1,25.9,52.6,25.6,52.8z M34.1,20.9c-0.2,0.3,0.3,0.6,0.5,0.3c0,0,0,0,0,0C34.8,20.9,34.4,20.6,34.1,20.9
		C34.1,20.9,34.1,20.9,34.1,20.9z M46.6,28c0.3-0.5,0.4-1.1,0.4-1.7c0-2.1-1.6-3.8-3.6-3.8c-0.3,0-0.6,0-0.9,0.1
		c-0.5-1.7-2-2.9-3.8-2.9c-0.9,0-1.8,0.3-2.5,0.9c-0.2-0.7-0.6-1.3-1.1-1.8c0,0,0-0.1,0.1-0.1c0,0,0,0,0,0c0.5-0.7,2-2.7,3.9-2.7
		c0,0.1,0,0.2,0.1,0.3c0.3,1.5,1.4,2.8,2.3,2.9c0,0,0.1,0,0.1,0c0.4,0,0.8-0.3,1-0.8c0.2-0.4,0.1-0.9-0.1-1.3
		c-0.5-0.9-1.8-1.6-2.6-1.8c0,0,0,0-0.1,0c0-0.9,0.2-1.9,1.3-2.8c0.3,0.7,0.8,1.3,1.3,1.8c0.8,0.8,1.8,1,2.6,0.7
		c0.8-0.3,1-0.9,1-1.2c0.1-0.7-0.4-1.5-1.3-2c-0.8-0.5-2.1-0.9-3.3-0.4c-0.3-1-0.4-2-0.2-2.7c0.2-0.7,0.7-1.1,1.4-1.2
		C42.9,7.4,43,7.2,43,7c0-0.2-0.2-0.3-0.4-0.3c-1,0.1-1.7,0.7-1.9,1.7c-0.3,0.9-0.2,2.2,0.2,3.3c-1.2,0.8-1.8,2-1.8,3.4
		c-1.3,0-2.5,0.9-3.3,1.7c0.7-3.1,0-6.8-1.2-9.4c-0.1-0.2-0.2-0.3-0.4-0.3c-1.1-0.1-2.3,0.4-2.9,1.2c-0.1,0.2-0.1,0.4,0,0.5
		c0.8,1.3,1.3,2.7,1.5,4.1c-0.9-1.5-2.1-2.6-3.5-3.4c0.5-1.7,0.2-3.1-0.7-4.3c-2-2.5-6.7-3-9.2-2.6c-0.2,0-0.3,0.2-0.3,0.3
		c0,0.2,0.1,0.3,0.2,0.4c0.7,0.3,0.8,0.7,1.1,1.3c0.1,0.2,0.1,0.3,0.2,0.5c-3.6-0.4-5.4,1.6-6.8,3.1c-0.7,0.8-1.3,1.4-2,1.7
		c-0.2,0.1-0.3,0.2-0.2,0.4c0,0.2,0.2,0.3,0.3,0.3c1.1,0.1,1.8,0.5,2.5,1c1.4,0.9,3,1.9,7.4,1.6c-0.2,0.1-0.3,0.2-0.5,0.3
		c-0.9,0.4-1.8,1-2.2,2c0,0.1,0,0.2,0,0.3c0.1,0.1,0.2,0.2,0.3,0.2c0.8,0,1.5,0.1,2.1,0.2c0.6,0.1,1.2,0.1,1.8,0.1
		c0.9,0,1.9-0.2,3.3-0.7c1.2-0.4,2.7-1.5,3.1-3.1c0.2-0.6,0.2-1.3,0-1.9c1.4,1,2.5,2.4,3.2,4.1c0,1-0.2,1.9-0.5,2.9
		c-0.9,0-1.8,0.4-2.4,1c-0.3-0.4-0.8-0.7-1.3-0.9c-1.2-0.5-2.6-0.4-3.6,0.5c-0.4,0.3-0.7,0.7-0.9,1.1c-1.6-0.4-3.3,0.1-4.3,1.5
		c-0.6,0.9-0.9,2-0.8,3c0.1,1.1,0.7,2,1.5,2.7c0.1,0.1,0.3,0.2,0.4,0.3c-0.6,0.7-0.9,1.6-0.9,2.6c0,1.2,0.5,2.4,1.4,3.1
		c-0.4,0.7-0.7,1.5-0.7,2.3c0,1.2,0.6,2.4,1.5,3.2c-0.5,0.7-0.8,1.5-0.8,2.5c0,1.1,0.4,2.2,1.2,2.9c-0.9,0.8-1.5,1.9-1.5,3.2
		c0,1.8,1.1,3.3,2.7,3.9c-0.3,0.7-0.5,1.4-0.5,2.3c0,2.6,1.9,4.7,4.3,4.7c2.2,0,4.1-1.9,4.3-4.3c0.4,0.1,0.7,0.2,1.1,0.2
		c2.2,0,4-1.8,4-4.1c0-0.2,0-0.4,0-0.6c2.1-0.1,3.8-1.9,3.8-4.1c0-0.1,0-0.2,0-0.2c0.1,0,0.3,0,0.4,0c1.8,0,3.4-1.6,3.4-3.5
		c0-1.2-0.6-2.3-1.5-2.9c0.6-0.6,1.1-1.4,1.2-2.3c0.1,0,0.3,0,0.4,0c2,0,3.7-1.5,3.9-3.6C48.7,30.4,48,28.8,46.6,28z M41.8,17.3
		c0.1,0.2,0.1,0.5,0.1,0.7c-0.1,0.3-0.3,0.3-0.3,0.3c-0.5,0-1.3-1-1.6-2.3c0,0,0,0,0,0C40.5,16.1,41.5,16.7,41.8,17.3z M44.4,12.3
		c0.6,0.4,1,0.9,0.9,1.3c0,0.2-0.2,0.4-0.6,0.6c-0.7,0.3-1.4-0.1-1.9-0.5c-0.5-0.4-0.8-1-1.1-1.7C42.7,11.6,43.7,11.9,44.4,12.3z
		 M29,12.4c-0.4,1.2-1.6,2.2-2.7,2.6c-2,0.8-3.2,0.7-4.8,0.5c-0.5-0.1-1-0.1-1.6-0.1c0.4-0.5,1-0.8,1.6-1.1c0.7-0.4,1.3-0.7,1.6-1.2
		c0.1-0.1,0-0.3,0-0.4c-0.1-0.1-0.2-0.2-0.3-0.2c-4.9,0.5-6.6-0.5-8-1.4c-0.6-0.4-1.1-0.7-1.9-1c0.5-0.4,0.9-0.8,1.4-1.3
		c1.5-1.6,3.2-3.5,6.9-2.8c0.1,0,0.3,0,0.4-0.2c0.1-0.1,0.1-0.3,0-0.4c-0.3-0.4-0.4-0.7-0.5-1c-0.1-0.4-0.3-0.7-0.6-1.1
		c2.4-0.1,5.9,0.5,7.5,2.5c0.8,0.9,1,2.1,0.6,3.5c-0.1,0-0.1-0.1-0.2-0.1c-0.7-0.3-1.4-0.5-2.1-0.7c-0.1-0.7-0.4-1.4-1-2.1
		c-0.5-0.6-1.1-1.1-1.7-1.5c-0.2-0.1-0.4-0.1-0.5,0.1c-0.1,0.2-0.1,0.4,0.1,0.5c0.6,0.4,1.1,0.9,1.6,1.4c0.3,0.3,0.6,0.8,0.8,1.4
		C23.8,8,21.9,8,20.1,8.4c0,0-0.1,0-0.1,0c-0.3-0.1-0.5-0.3-0.8-0.5c-0.3-0.3-0.6-0.6-1.1-0.7c-0.2-0.1-0.4,0.1-0.5,0.3
		c-0.1,0.2,0.1,0.4,0.3,0.5c0.3,0.1,0.5,0.3,0.8,0.6c0.1,0.1,0.2,0.2,0.3,0.2c-1.1,0.3-2.3,0.6-3.4,1.1c-0.2,0.1-0.3,0.3-0.2,0.5
		c0.1,0.2,0.3,0.3,0.5,0.2c1.7-0.7,3.4-1.2,5.1-1.4c-0.3,0.3-0.6,0.6-0.8,0.9L20,10.1c-0.2,0.3-0.3,0.5-0.5,0.6
		c-0.2,0.1-0.3,0.3-0.2,0.5c0.1,0.1,0.2,0.2,0.3,0.2c0,0,0.1,0,0.1,0c0.4-0.2,0.7-0.5,0.9-0.9l0.1-0.1c0.4-0.6,1-1.1,1.7-1.4
		c0,0,0.1,0,0.1-0.1C24.1,8.8,25.7,9,27,9.4c-0.1,0-0.1,0.1-0.1,0.1c-0.2,0.2-0.4,0.5-0.5,0.8l-1.8,3c-0.1,0.2,0,0.4,0.1,0.5
		c0.1,0,0.1,0.1,0.2,0.1c0.1,0,0.2-0.1,0.3-0.2l1.8-3c0.1-0.2,0.3-0.4,0.4-0.6c0.2-0.2,0.3-0.3,0.5-0.3c0,0,0.1,0,0.1,0
		c0,0,0,0,0.1,0c0.2,0.1,0.3,0.2,0.5,0.2C29.1,10.8,29.2,11.6,29,12.4z M42.7,23.7c0.2-0.1,0.5-0.1,0.7-0.1c1.4,0,2.5,1.2,2.5,2.6
		c0,1.5-1.1,2.6-2.5,2.6c-0.2,0-0.3,0-0.5,0c0,0-0.1,0-0.1,0c-0.3-0.8-0.8-1.5-1.5-2C42.2,26.1,42.7,25,42.7,23.7
		C42.7,23.8,42.7,23.8,42.7,23.7z M38.8,31.7c-0.2-1.1-0.9-2.1-1.8-2.7c0.2-0.4,0.4-0.9,0.4-1.4c0.1,0,0.1,0,0.2-0.1
		c0.4-0.3,0.9-0.4,1.5-0.4c1.6,0,2.9,1.3,2.9,3c0,1.6-1.3,3-2.9,3c-0.1,0-0.2,0-0.3,0C38.9,32.7,38.9,32.2,38.8,31.7z M29.1,46.3
		c0.3,0.1,0.6,0.2,1,0.3c-0.4,0.5-0.7,1.2-0.9,1.9c-0.1-0.1-0.3-0.1-0.4-0.1c0.2-0.5,0.3-1.1,0.3-1.6C29.1,46.6,29.1,46.4,29.1,46.3
		z M28.6,44.6c-0.1-0.2-0.3-0.4-0.4-0.6c-0.2-0.4-0.4-0.9-0.4-1.4c0-1.6,1.3-3,2.9-3c1.3,0,2.5,1,2.8,2.3c0,0.1,0,0.2,0,0.3
		c0,0.1,0,0.3,0,0.4c0,1.6-1.3,3-2.9,3C29.8,45.5,29.1,45.2,28.6,44.6z M32.7,31c0,1.6-1.2,2.9-2.7,2.9c-1.5,0-2.7-1.3-2.7-2.9
		c0-1.6,1.2-2.9,2.7-2.9C31.5,28.2,32.7,29.5,32.7,31z M31.3,27.3c0-0.1,0-0.1,0.1-0.2c0.1-0.8,0.5-1.6,1.2-2
		c0.7-0.4,1.5-0.5,2.3-0.2c0.7,0.3,1.3,0.9,1.5,1.7c0.2,0.7,0.1,1.4-0.3,2c0,0,0,0,0,0c-0.9-0.3-1.9-0.1-2.8,0.3
		C32.7,28.2,32.1,27.6,31.3,27.3z M28.3,34.6c0.5,0.3,1.1,0.4,1.7,0.4c0.7,0,1.3-0.2,1.9-0.5c0.4,0.3,0.8,0.8,1,1.3
		c0.4,1,0.2,2.2-0.5,3.1c-0.5-0.3-1.1-0.4-1.7-0.4c-0.6,0-1.1,0.1-1.6,0.4c-0.4-0.8-1-1.5-1.8-1.9c0-0.3,0-0.6,0.1-0.9
		C27.5,35.5,27.9,35,28.3,34.6z M33.3,39.5c0.6-0.8,0.9-1.8,0.9-2.8c0.8-0.6,1.8-0.8,2.8-0.4c1,0.4,1.7,1.3,1.8,2.3
		c0.2,1-0.2,2.1-1.1,2.8c-0.8,0.7-2.4,0.9-3.2,0.3C34.3,40.8,33.9,40,33.3,39.5z M36.3,34.9c-0.8-0.1-1.7,0.1-2.4,0.5
		c0,0,0-0.1,0-0.1c-0.2-0.6-0.6-1.2-1.1-1.6c0.7-0.7,1.1-1.7,1.1-2.7c0-0.4-0.1-0.8-0.2-1.1c0.6-0.3,1.4-0.4,2-0.2
		c1,0.3,1.8,1.2,2,2.3C37.9,33.1,37.4,34.2,36.3,34.9z M36.4,22C36.4,22,36.4,22,36.4,22c0.6-0.8,1.5-1.2,2.3-1.2
		c1.6,0,2.9,1.3,2.9,3c0,1-0.5,1.9-1.3,2.5c-0.4-0.1-0.8-0.2-1.2-0.2c-0.6,0-1.2,0.1-1.7,0.4c0-0.1,0-0.1,0-0.2
		c-0.3-0.9-0.9-1.7-1.7-2.2C36,23.5,36.3,22.8,36.4,22z M33.9,8C33.9,8,34,8.1,34,8.2c-0.5,0.4-1.1,0.6-1.7,0.4
		C32.7,8.2,33.3,8,33.9,8z M32.6,9.4c0.6,0.1,1.1-0.1,1.6-0.5c1,2.8,1.3,6.5,0.2,9.2c-0.3-0.2-0.7-0.3-1.1-0.4
		C34.1,15,33.9,12,32.6,9.4z M32.6,18.8c1.5,0,2.7,1.3,2.7,2.9c0,0.8-0.3,1.5-0.8,2c-0.8-0.1-1.5-0.1-2.2,0.3
		c-0.3-1.3-1.3-2.3-2.4-2.7C30.1,19.9,31.2,18.8,32.6,18.8z M31.3,24.6c-0.6,0.6-1,1.5-1.1,2.4c0,0,0,0,0,0.1c-0.1,0-0.2,0-0.2,0
		c-0.8,0-1.6,0.3-2.3,0.8c-0.4-0.9-1-1.5-1.7-2c-0.1-0.3-0.1-0.6-0.1-0.9c0-1.6,1.2-2.9,2.7-2.9c0.1,0,0.3,0,0.4,0
		c0.1,0,0.2,0.1,0.2,0.1c0,0,0,0,0,0C30.4,22.5,31.2,23.5,31.3,24.6z M25.8,19.1c0.7-0.6,1.7-0.7,2.5-0.3c0.4,0.2,0.7,0.5,1,0.8
		C29,20,28.9,20.5,28.8,21c-0.1,0-0.1,0-0.2,0c-1.3,0-2.4,0.7-3.1,1.7c-0.3-0.3-0.5-0.7-0.6-1.2C24.7,20.6,25.1,19.7,25.8,19.1z
		 M20.2,23.8c-0.1-0.8,0.1-1.6,0.6-2.2c0.7-1,1.9-1.4,3.1-1.1c-0.1,0.4-0.1,0.9,0,1.3c0.1,0.8,0.5,1.5,1.1,2.1
		c-0.1,0.4-0.2,0.8-0.2,1.2c0,0.1,0,0.3,0,0.4c-0.2,0-0.5-0.1-0.7-0.1c-0.8,0-1.5,0.3-2.2,0.7c-0.2-0.1-0.4-0.2-0.6-0.4
		C20.7,25.2,20.3,24.5,20.2,23.8z M21.2,29.5c0-1.6,1.3-3,2.9-3c1.3,0,2.4,0.8,2.7,2.1c0,0,0,0.1,0,0.1c-0.5,0.7-0.7,1.5-0.7,2.3
		c0,0.2,0,0.3,0,0.5c0,0-0.1,0-0.1,0.1c-0.5,0.5-1.2,0.8-2,0.8C22.5,32.5,21.2,31.1,21.2,29.5z M21.9,34.9c0-0.6,0.2-1.2,0.5-1.7
		c0.5,0.2,1.1,0.4,1.6,0.4c0.9,0,1.7-0.3,2.4-0.9c0.2,0.5,0.5,0.9,0.9,1.2c-0.5,0.5-0.8,1.1-1,1.7c-0.1,0.3-0.1,0.5-0.2,0.8
		c-0.2,0-0.5-0.1-0.7-0.1c-0.9,0-1.7,0.3-2.4,0.8C22.4,36.7,21.9,35.8,21.9,34.9z M22.6,40.6c0-1.6,1.3-3,2.9-3
		c1.2,0,2.2,0.7,2.6,1.8c-0.8,0.8-1.4,1.9-1.4,3.1c0,0.1,0,0.2,0,0.4c-0.5-0.2-1-0.3-1.5-0.3c-0.6,0-1.1,0.1-1.6,0.3
		c0,0-0.1-0.1-0.1-0.1C23,42.2,22.6,41.4,22.6,40.6z M22.3,46.7c0-1.6,1.3-3,2.9-3c0.8,0,1.6,0.4,2.1,0.9c0.1,0.2,0.3,0.4,0.4,0.6
		c0.2,0.4,0.4,0.9,0.4,1.4c0,0.5-0.1,1-0.4,1.5c-1.2,0-2.3,0.6-3.1,1.5c0,0-0.1,0-0.1,0C23.2,49.2,22.3,48.1,22.3,46.7z M27.7,56.4
		c-1.8,0-3.2-1.6-3.2-3.6c0-2,1.4-3.6,3.2-3.6c1.8,0,3.2,1.6,3.2,3.6C30.9,54.8,29.5,56.4,27.7,56.4z M33.1,52.3
		c-0.4,0-0.8-0.1-1.2-0.3c-0.2-1.2-0.8-2.2-1.7-2.9c0.1-1.6,1.4-2.8,2.8-2.8c1.6,0,2.9,1.3,2.9,3C35.9,50.9,34.7,52.3,33.1,52.3z
		 M36.8,47.6c0,0-0.1,0-0.1,0c-0.5-1.2-1.7-2.2-3-2.4c0.5-0.6,0.9-1.4,0.9-2.3c0.4,0.1,0.8,0.2,1.2,0.2c1,0,1.9-0.3,2.6-0.9
		c0,0,0,0,0,0c0.5,0.4,0.9,0.9,1.1,1.5c0,0.1,0,0.1,0,0.2c0.1,0.2,0.1,0.5,0.1,0.8C39.7,46.2,38.4,47.6,36.8,47.6z M43.4,40.9
		c0,1.3-1,2.4-2.3,2.4c-0.2,0-0.4,0-0.6-0.1c-0.3-0.7-0.7-1.4-1.3-1.8c0.5-0.7,0.7-1.5,0.7-2.3c0.1,0,0.3,0,0.4,0
		c0.6,0,1.1-0.1,1.6-0.4C42.8,39,43.4,39.9,43.4,40.9z M40.3,38c-0.2,0-0.4,0-0.5-0.1c-0.3-1.1-1.1-2.1-2.2-2.6
		c0.3-0.3,0.6-0.7,0.8-1.1c0,0,0.1,0,0.1,0c0.2,0,0.4,0,0.5,0c1.3,0,2.4-0.6,3.1-1.6c0.6,0.6,1,1.4,1,2.3C43.2,36.6,41.9,38,40.3,38
		z M47.5,31.9c-0.2,1.6-1.6,2.8-3.2,2.6c0,0,0,0,0,0c-0.1-1.1-0.7-2.1-1.5-2.8c0.2-0.5,0.3-1,0.3-1.6c0-0.1,0-0.1,0-0.2
		c0.1,0,0.2,0,0.4,0c1,0,1.9-0.4,2.6-1.1C47,29.5,47.6,30.7,47.5,31.9z M46.3,31.7c-0.1,0-0.3,0.1-0.3,0.3c0,0.1,0.1,0.3,0.3,0.3
		c0.1,0,0.1,0,0.2,0c0.1,0,0.3-0.1,0.3-0.3c0-0.1-0.1-0.3-0.3-0.3C46.5,31.7,46.4,31.7,46.3,31.7z M42.1,34.7c-0.4,0-0.4,0.6,0,0.6
		l0.1,0c0.4,0,0.4-0.6,0-0.6L42.1,34.7z M46.2,30.6C46.2,30.7,46.1,30.7,46.2,30.6c-0.4,0.3,0,0.7,0.3,0.5c0,0,0.1,0,0.1-0.1
		C46.9,30.8,46.5,30.4,46.2,30.6z M24.3,45.1c-0.1-0.1-0.2-0.1-0.3-0.1c-0.3-0.1-0.5,0.5-0.1,0.5c0.1,0,0.1,0,0.1,0.1
		C24.3,45.8,24.6,45.3,24.3,45.1z M41.2,36.5c-0.1-0.1-0.2-0.2-0.3-0.2c-0.1,0-0.2,0.2-0.2,0.3c0,0,0,0,0,0.1
		c0.1,0.1,0.2,0.2,0.3,0.2C41.2,36.9,41.3,36.8,41.2,36.5C41.2,36.6,41.2,36.6,41.2,36.5z M42.1,35.8c-0.1,0-0.1-0.1-0.2-0.1
		c-0.3-0.2-0.6,0.3-0.3,0.5c0.1,0,0.1,0.1,0.2,0.1C42.1,36.5,42.4,36,42.1,35.8z M42.5,39.9l-0.1,0c-0.4,0-0.4,0.6,0,0.6l0.1,0
		C42.8,40.5,42.8,39.9,42.5,39.9z M42.3,41c-0.1,0-0.1-0.1-0.2-0.1c-0.3-0.2-0.6,0.3-0.3,0.5c0.1,0,0.1,0.1,0.2,0.1
		C42.3,41.7,42.6,41.2,42.3,41z M25.8,53.8c-0.2,0.2-0.1,0.6,0.2,0.5c0.1,0,0.2-0.1,0.2-0.2C26.5,53.8,26,53.6,25.8,53.8z
		 M23.9,45.9c-0.1-0.1-0.3,0-0.3,0.1c-0.1,0.1,0,0.3,0.1,0.4c0.1,0.1,0.1,0.1,0.2,0.1C24.2,46.4,24.2,45.9,23.9,45.9z M21.6,24.5
		c-0.2,0.3,0.1,0.7,0.4,0.4c0,0,0.1-0.1,0.1-0.1C22.3,24.5,21.9,24.1,21.6,24.5C21.7,24.4,21.6,24.5,21.6,24.5z M25.7,21.4
		C25.7,21.4,25.8,21.4,25.7,21.4c0.1,0,0.1,0,0.2,0c0.3,0.1,0.5-0.5,0.1-0.5c0,0,0,0-0.1,0c0,0,0,0-0.1,0c0,0,0,0-0.1,0
		C25.5,20.8,25.4,21.3,25.7,21.4z M21.2,22.8c0.1,0,0.2,0,0.2,0c0.3,0.1,0.5-0.5,0.1-0.5c-0.1,0-0.2,0-0.2,0
		C21,22.2,20.9,22.7,21.2,22.8z M25.8,20.5c0.1,0,0.2,0,0.2,0.1c0.3,0.1,0.5-0.5,0.1-0.5l-0.2-0.1C25.6,19.9,25.4,20.4,25.8,20.5z
		 M33.9,20.6c0.1,0,0.1-0.1,0.2-0.1c0.3-0.2,0-0.7-0.3-0.5c-0.1,0-0.1,0.1-0.2,0.1C33.3,20.3,33.6,20.8,33.9,20.6z M26.8,24.7
		L26.8,24.7c-0.4,0-0.4,0.5,0,0.6l0,0C27.1,25.3,27.1,24.7,26.8,24.7z M21.4,23.1l-0.1,0c-0.3-0.1-0.5,0.4-0.1,0.5l0.1,0
		C21.6,23.8,21.7,23.2,21.4,23.1z M27.4,23.9l-0.2-0.1c-0.3-0.2-0.6,0.3-0.3,0.5l0.2,0.1C27.4,24.6,27.7,24.1,27.4,23.9z M22.9,25.2
		C23,25.2,23,25.2,22.9,25.2c0.2-0.4-0.3-0.7-0.4-0.4c0,0,0,0.1,0,0.1C22.3,25.2,22.8,25.5,22.9,25.2z M24,40.5c0.3,0,0.3-0.6,0-0.6
		c-0.2-0.2-0.6,0.2-0.3,0.4C23.8,40.5,23.9,40.5,24,40.5z M23.6,34.8c0,0,0.1,0,0.1,0c0.1,0,0.3-0.1,0.3-0.3c0-0.2-0.1-0.3-0.3-0.3
		c0,0-0.1,0-0.1,0c-0.1,0-0.3,0.1-0.3,0.3C23.3,34.6,23.4,34.7,23.6,34.8z M24.1,31.6l0-0.2c0.1-0.4-0.5-0.5-0.5-0.1
		c0,0.1,0,0.1,0,0.2C23.5,31.9,24,32,24.1,31.6z M23.8,46.7C23.7,46.7,23.7,46.7,23.8,46.7c-0.4-0.1-0.5,0.4-0.2,0.5c0,0,0,0,0.1,0
		C24,47.4,24.1,46.8,23.8,46.7z M24,41.1L24,41.1c-0.4-0.1-0.5,0.4-0.2,0.5l0.1,0C24.2,41.7,24.4,41.2,24,41.1z M23.3,31.1
		c0,0,0-0.1,0-0.1c0.1-0.3-0.4-0.5-0.5-0.1c0,0,0,0.1,0,0.1C22.7,31.3,23.2,31.4,23.3,31.1z M23.8,35.2
		C23.8,35.2,23.8,35.1,23.8,35.2c-0.2-0.1-0.4,0-0.4,0.2c0,0.2,0.1,0.3,0.2,0.3c0,0,0,0,0.1,0c0.1,0.1,0.3-0.1,0.3-0.2
		C24.1,35.3,24,35.2,23.8,35.2z M22.3,30.6c0.2,0,0.3-0.1,0.3-0.2c0-0.1,0.1-0.2,0.1-0.2c0.1-0.1-0.1-0.3-0.2-0.3
		c-0.2,0-0.3,0.1-0.3,0.2c0,0.1-0.1,0.2-0.1,0.2C22,30.4,22.1,30.5,22.3,30.6z"/>
</g>
</svg>
