<?xml version="1.0" encoding="utf-8"?>
<!-- Generator: Adobe Illustrator 24.0.1, SVG Export Plug-In . SVG Version: 6.00 Build 0)  -->
<svg version="1.1" id="Layer_1" xmlns="http://www.w3.org/2000/svg" xmlns:xlink="http://www.w3.org/1999/xlink" x="0px" y="0px"
	 width="60px" height="60px" viewBox="0 0 60 60" style="enable-background:new 0 0 60 60;" xml:space="preserve">
<path d="M34.5,14.8h-9.1c-3.6,0-6.4,2.9-6.4,6.4v13.7c0,2,1.7,3.7,3.7,3.7h0.8v13.6c0,2,1.7,3.7,3.7,3.7
	c1.1,0,2-0.4,2.7-1.2c0.7,0.8,1.7,1.2,2.7,1.2c2,0,3.7-1.7,3.7-3.7V38.6h0.8c2,0,3.7-1.7,3.7-3.7V21.3C41,17.7,38.1,14.8,34.5,14.8z
	 M39,35c0,1-0.8,1.8-1.8,1.8h-0.8V23.1c0-0.5-0.5-1-1-1c-0.5,0-1,0.5-1,1v29.1c0,0.9-0.6,1.7-1.5,1.8c-1.1,0.2-2-0.6-2-1.7V37.7
	c0-0.5-0.5-1-1-1c-0.5,0-1,0.5-1,1v14.6c0,1.1-1,1.9-2,1.7c-0.9-0.2-1.5-0.9-1.5-1.8V23.1c0-0.5-0.5-1-1-1c-0.5,0-1,0.5-1,1v13.6
	h-0.8c-1,0-1.8-0.8-1.8-1.8V21.3c0-2.5,2-4.5,4.5-4.5h9.1c2.5,0,4.5,2,4.5,4.5L39,35L39,35z"/>
<path d="M30,14.2c2.8,0,5.1-2.3,5.1-5.1C35.1,6.3,32.8,4,30,4s-5.1,2.3-5.1,5.1C24.9,11.9,27.2,14.2,30,14.2z M30,6
	c1.7,0,3.1,1.4,3.1,3.1c0,1.7-1.4,3.1-3.1,3.1c-1.7,0-3.1-1.4-3.1-3.1C26.8,7.4,28.2,6,30,6z"/>
</svg>
