<?xml version="1.0" encoding="utf-8"?>
<!-- Generator: Adobe Illustrator 24.0.1, SVG Export Plug-In . SVG Version: 6.00 Build 0)  -->
<svg version="1.1" id="Layer_1" xmlns="http://www.w3.org/2000/svg" xmlns:xlink="http://www.w3.org/1999/xlink" x="0px" y="0px"
	 width="60px" height="60px" viewBox="0 0 60 60" enable-background="new 0 0 60 60" xml:space="preserve">
<g>
	<path fill="#414241" d="M21.6,32.1c-0.2-0.1-0.5,0-0.7,0.2c-0.1,0.3,0,0.6,0.2,0.7c0.1,0.1,0.3,0.2,0.3,0.3
		c0.1,0.1,0.2,0.2,0.4,0.2c0.1,0,0.2,0,0.3-0.1c0.2-0.2,0.2-0.5,0-0.7C22,32.4,21.8,32.2,21.6,32.1z M43.1,10.8
		c-8.5-5.5-18.9-6.2-27,0.4c-1.1,0.9-2.1,1.9-3.1,3c0,0-0.1,0-0.1,0c-2.3-0.1-3.9-1.7-4.4-3.9C8.4,9.8,7.9,9.7,7.5,9.9
		c-1,0.5-1.8,1.3-2.5,2.1c-0.2,0.2-0.3,0.5-0.2,0.7c1,2.5,3,4.5,5.5,5.4c-3.5,6.2-4.1,13.9,0.2,20.3c6.2,8.7,16.7,17,27.6,14.7
		C47,51.3,53.6,43,55,34C56.5,24.2,50.8,15.9,43.1,10.8z M6.4,12.7c0.3-0.4,0.7-0.7,1-1c0.8,2.1,2.4,3.5,4.5,4
		c-0.3,0.4-0.5,0.8-0.8,1.1C9.1,16.2,7.3,14.7,6.4,12.7z M46.2,20.6c0,0.6,0.1,1.2,0.3,1.7c0.5,0.9,1.3,1,1.9,1.1
		c0.3,0,0.5,0.1,0.8,0.2c1.2,0.5,1.4,1.8,1.6,3.3c0.1,0.5,0.1,0.9,0.2,1.4c0.2,0.8,0.5,1.8,1.5,2.5c0.2,0.2,0.4,0.3,0.7,0.4
		c0.2,0.1,0.4,0.2,0.6,0.3c0,1-0.2,2-0.3,3c-0.5-1.1-1.5-1.9-2.3-2.5c-0.9-0.7-1.7-1.2-2-2.4c-0.1-0.2-0.1-0.5-0.2-0.8
		c0-0.3-0.3-0.5-0.6-0.4c-0.3,0-0.5,0.3-0.4,0.6c0.1,0.4,0.1,0.7,0.2,0.9c0.4,1.5,1.4,2.2,2.4,2.9c1.7,1.2,2.4,2.4,2.3,3.8
		c-0.4,1.4-1,2.8-1.6,4.1c-0.3-0.2-0.7-0.3-0.9-0.3c-0.2,0-0.4-0.1-0.5-0.1c-0.5-0.3-0.4-0.7,0.1-1.8c0.1-0.2,0.1-0.3,0.2-0.5
		c0.4-1,0.4-1.9,0-2.6c-0.5-0.9-1.6-1.5-3.4-1.7c-0.5-0.1-1-0.2-1.5-0.4c-0.5-0.1-1-0.3-1.5-0.4c-0.5-0.1-1,0-1.5,0
		c-0.5,0.1-1,0.1-1.4,0c-0.1,0-0.2-0.1-0.3-0.1c-0.2-0.1-0.5-0.1-0.7,0.2c-0.1,0.2-0.1,0.6,0.2,0.7c0.2,0.1,0.3,0.2,0.6,0.2
		c0.6,0.2,1.2,0.1,1.8,0c0.4-0.1,0.9-0.1,1.2,0c0.5,0.1,0.9,0.2,1.4,0.4c0.5,0.2,1.1,0.3,1.7,0.4c1.5,0.2,2.4,0.6,2.7,1.2
		c0.2,0.4,0.2,1-0.1,1.7c-0.1,0.1-0.1,0.3-0.2,0.4c-0.4,0.9-1,2.3,0.3,3.1c0.2,0.1,0.5,0.2,0.8,0.2c0.4,0.1,0.6,0.1,0.6,0.2
		c-0.3,0.5-0.6,1.1-1,1.6c0,0,0,0,0-0.1c-0.6-0.8-1.9-1-2.5-1c-1.4-0.2-2-0.3-2.2-1.6c-0.1-0.5-0.1-0.9-0.2-1.4
		c-0.2-1.8-0.3-3.5-3.2-3.2l-0.2,0c-1.2,0.1-1.7,0.1-2.3-0.6c-0.2-0.2-0.3-0.4-0.5-0.7c-0.5-0.8-1-1.6-2.3-1.6h0
		c-0.7,0-1.5,0.3-2.2,0.6c-1.6,0.6-2.4,0.8-2.9-0.1c-0.4-0.7-0.4-1.8-0.4-2.8c0-1.3,0-2.7-0.9-3.6c-0.2-0.2-0.5-0.2-0.7,0
		c-0.2,0.2-0.2,0.5,0,0.7c0.6,0.6,0.6,1.6,0.6,2.8c0,1.2,0,2.4,0.6,3.3c1.1,1.7,2.8,1,4.1,0.5c0.7-0.3,1.3-0.5,1.9-0.5h0
		c0.7,0,1,0.4,1.5,1.2c0.2,0.2,0.3,0.5,0.5,0.8c0.9,1.2,2,1.1,3.2,1l0.2,0c2-0.2,2,0.5,2.2,2.3c0,0.4,0.1,0.9,0.2,1.4
		c0.3,2,1.6,2.3,3.1,2.4c0.5,0.1,1.5,0.2,1.9,0.6c0.1,0.1,0.1,0.2,0.1,0.4c-0.9,1.2-2,2.3-3.1,3.3c-0.1,0.1-0.2,0.1-0.2,0
		c-0.1,0-0.4-0.2-0.8-0.9l-0.1-0.2c-0.6-1-1.1-2-2.7-1.9c-0.9,0-1.7,0.4-2.6,0.8c-1.2,0.5-2.3,1-3.2,0.5c-0.3-0.2-0.5-0.5-0.7-1
		c-0.2-0.5-0.5-1-1-1.3c-0.7-0.4-1.3-0.2-1.8-0.1c-0.3,0.1-0.6,0.2-0.9,0.1c-0.7-0.1-0.9-0.6-0.9-2c-0.1-1.1-0.2-2.6-1.4-3.1
		c-1-0.4-2.1-0.1-3.2,0.3c-1.1,0.4-2.1,0.7-2.8,0C23,38.2,23,37.1,23,35.9c0-0.4,0-0.8,0-1.2c0-0.3-0.3-0.5-0.5-0.5
		c-0.3,0-0.5,0.3-0.4,0.6c0,0.3,0,0.7,0,1.1c0,1.3,0,2.8,1.1,3.7c1.1,1,2.5,0.5,3.7,0.2c0.9-0.3,1.8-0.6,2.5-0.3
		c0.6,0.3,0.7,1,0.8,2.2c0.1,1.2,0.2,2.8,1.8,3c0.4,0,0.8-0.1,1.2-0.2c0.5-0.1,0.8-0.2,1.1,0c0.3,0.2,0.4,0.5,0.6,0.9
		c0.3,0.5,0.5,1.1,1.2,1.4c1.3,0.7,2.7,0.1,4-0.5c0.8-0.3,1.5-0.7,2.2-0.7c0.9,0,1.2,0.4,1.8,1.4l0.1,0.2c0.3,0.5,0.6,0.9,0.9,1.1
		c-0.4,0.3-0.8,0.6-1.3,0.9c-0.6,0.1-1.1,0.1-1.7,0.2c-2,0.3-4.2,0.6-6.1,0.4c-1.2-0.1-1.7-0.6-2.5-1.8c-0.5-0.8-1.4-2-3-1.4
		c-0.3,0.1-0.6,0.3-0.9,0.5c-0.7,0.5-0.9,0.5-1.3,0.2c-0.3-0.3-0.4-0.7-0.6-1.2c-0.2-0.6-0.4-1.3-1-1.7c-0.4-0.3-1-0.5-1.8-0.5
		c-0.3,0-0.5,0.2-0.5,0.5c0,0.3,0.2,0.5,0.5,0.5c0.6,0,0.9,0.1,1.2,0.3c0.3,0.3,0.5,0.7,0.6,1.2c0.2,0.5,0.4,1.2,0.9,1.6
		c1,0.9,1.8,0.3,2.4-0.1c0.2-0.2,0.5-0.3,0.7-0.4c0.8-0.3,1.2,0,1.8,1c0.8,1.2,1.5,2.1,3.2,2.2c0.4,0,0.8,0,1.2,0
		c1.3,0,2.7-0.2,4-0.3C30,55.4,18.3,46.7,11.8,37.7C9,33.5,8.4,28.6,9.5,24.1c0,0.6,0,1.2,0,1.7l0,0.3c0,1.4,0,2.8,1.1,3.8
		c0.3,0.3,0.7,0.5,1,0.7c0.6,0.4,1,0.6,1.2,1.4c0.1,0.4,0,0.9-0.1,1.4c-0.1,0.6-0.2,1.3,0,1.9c0.4,1.7,1.7,2.1,2.6,2.2
		c0,0,0,0,0.1,0c0.2,0,0.5-0.2,0.5-0.5c0-0.3-0.2-0.5-0.4-0.6c-1.1-0.1-1.6-0.5-1.8-1.4c-0.1-0.5,0-1,0-1.6c0.1-0.6,0.1-1.1,0.1-1.7
		c-0.2-1.2-0.9-1.7-1.6-2.1c-0.3-0.2-0.6-0.3-0.8-0.6c-0.7-0.7-0.7-1.8-0.8-3l0-0.3c0-1.1,0-2.2,0-3.3l0-1.3
		c0.1-0.3,0.3-0.6,0.4-0.9c0.2,0.4,0.4,0.8,0.5,0.8c0.7,1,1,1.4,0.7,2.7c0,0.2-0.1,0.3-0.1,0.5c-0.2,0.9-0.5,1.9,0.5,2.7
		c0.4,0.4,0.9,0.5,1.4,0.6c0.5,0.1,0.9,0.2,1.2,0.6c0.3,0.5,0.6,1,0.8,1.6c0.5,1.2,1.1,2.6,2.9,2.8c0.3,0,0.6,0.1,0.8,0.1l0.2,0
		c0,0,0,0,0,0c0.3,0,0.5-0.2,0.5-0.5c0-0.3-0.2-0.5-0.4-0.6l-0.2,0c-0.3,0-0.5,0-0.8-0.1c-1.2-0.1-1.5-0.9-2.1-2.2
		c-0.3-0.6-0.5-1.3-0.9-1.8c-0.5-0.7-1.2-0.9-1.8-1c-0.4-0.1-0.7-0.2-1-0.4c-0.4-0.3-0.3-0.7-0.1-1.7c0-0.2,0.1-0.4,0.1-0.5
		c0.3-1.7-0.1-2.4-0.9-3.5c-0.3-0.4-0.6-1-0.6-1.4c0.1-0.2,0.2-0.4,0.3-0.6c0,0,0.1-0.1,0.1-0.1c0.2-0.3,0.5-0.5,0.8-0.5
		c0.6,0,1.2,0.4,1.6,0.8c0.3,0.3,0.5,0.8,0.8,1.2c0.6,1,1.2,2,2.5,2.3c0.6,0.1,1.2,0.1,1.8,0.1c0.6,0,1.2,0,1.8,0.2
		c0.8,0.3,1,1,1.2,2.1c0,0.2,0.1,0.4,0.1,0.6c0.3,1.2,0.8,2,1.7,2.3c0.1,0,0.1,0,0.2,0c0.2,0,0.4-0.1,0.5-0.3c0.1-0.3,0-0.6-0.3-0.7
		c-0.4-0.1-0.9-0.4-1.1-1.5c0-0.2-0.1-0.4-0.1-0.5c-0.2-1.1-0.5-2.4-1.9-2.9c-0.7-0.2-1.4-0.2-2.1-0.2c-0.5,0-1.1,0-1.5-0.1
		c-0.9-0.2-1.4-1-1.9-1.8c-0.3-0.4-0.5-0.9-0.9-1.3c-0.5-0.5-1.3-1.1-2.2-1.2c0.5-0.6,0.9-1.2,1.4-1.8c0.4,0,0.9,0.3,1.2,0.6
		c0.2,0.2,0.4,0.5,0.6,0.8c0.5,0.7,1,1.4,2.2,1.6c0.9,0.1,1.7,0.1,2.5,0c1.4-0.1,2.6-0.2,3.8,0.9c0.4,0.4,0.8,0.8,1,1.4
		c0.1,0.2,0.3,0.3,0.4,0.3c0.1,0,0.1,0,0.2-0.1c0.2-0.1,0.3-0.4,0.2-0.7c-0.3-0.7-0.7-1.2-1.3-1.7c-1.5-1.3-3-1.2-4.5-1.1
		c-0.7,0.1-1.5,0.1-2.3,0c-0.8-0.1-1.1-0.6-1.6-1.2c-0.2-0.3-0.4-0.6-0.7-0.9c-0.3-0.3-0.6-0.6-1.1-0.7c1-1,2-1.8,3.1-2.6
		c0.5,0,0.9,0.2,1.5,0.6c0.1,0.1,0.3,0.2,0.4,0.2c1.4,0.8,2.5,0.8,3.8,0.2c0.3-0.1,0.6-0.3,0.9-0.5c0.8-0.4,1.5-0.8,2.3-0.7
		c1,0.2,1.7,1.2,2.3,2.3c0.1,0.2,0.2,0.3,0.3,0.5c0.5,0.9,1.2,1.8,2.1,2.3c0.1,0,0.2,0.1,0.2,0.1c0.2,0,0.3-0.1,0.4-0.3
		c0.1-0.3,0-0.6-0.2-0.7c-0.7-0.4-1.2-1.2-1.7-1.9c-0.1-0.2-0.2-0.3-0.3-0.5c-0.7-1.1-1.5-2.5-2.9-2.7c-1.1-0.2-2,0.3-2.9,0.8
		c-0.3,0.2-0.6,0.3-0.8,0.4c-1.2,0.5-2,0.3-3-0.2c-0.1-0.1-0.3-0.1-0.4-0.2c-0.2-0.1-0.5-0.3-0.8-0.4c1.5-0.9,3.1-1.6,4.7-2
		c0.3,0,0.6,0.1,0.9,0.1c1.7,0.2,3.5,0.5,4.9,1.2c0.6,0.3,1.1,0.7,1.6,1.2c0.9,0.9,1.9,1.8,3.4,1.7c0.5,0,0.9-0.1,1.3-0.2
		c1.2-0.2,1.6-0.3,2.3,0.8l0.1,0.2c0.5,0.8,0.9,1.5,2,1.8c0.4,0.1,0.8,0.1,1.2,0.2c0.4,0,0.9,0.1,1.2,0.2c1.1,0.4,2,1.3,2.6,2.5
		c0.1,0.2,0.3,0.3,0.4,0.3c0.1,0,0.1,0,0.2-0.1c0.2-0.1,0.3-0.4,0.2-0.7c-0.7-1.4-1.8-2.5-3.1-3c-0.5-0.2-1-0.2-1.5-0.3
		c-0.4,0-0.7-0.1-1-0.2c-0.7-0.2-1-0.6-1.4-1.4L39.5,13c-1.1-1.8-2.2-1.5-3.4-1.3c-0.4,0.1-0.8,0.2-1.2,0.2
		c-1.1,0.1-1.8-0.6-2.7-1.4c-0.6-0.5-1.1-1.1-1.8-1.4c-1-0.5-2-0.7-3.1-0.9c4.2-0.5,8.5,0.4,12.6,2.5c7.2,3.8,13.8,10.8,13.9,19.6
		c-0.1,0-0.1-0.1-0.2-0.1c-0.2-0.1-0.4-0.2-0.5-0.3c-0.6-0.4-0.9-1-1.1-1.9c-0.1-0.4-0.1-0.8-0.2-1.3c-0.2-1.6-0.4-3.4-2.2-4.1
		c-0.3-0.1-0.7-0.2-1-0.2c-0.6-0.1-1-0.2-1.2-0.6c-0.2-0.3-0.2-0.8-0.2-1.3c0-0.2,0-0.5-0.1-0.7c0-0.3-0.3-0.5-0.6-0.4
		c-0.3,0-0.5,0.3-0.4,0.6C46.2,20.1,46.2,20.3,46.2,20.6z M20.8,43.1c-0.2-0.6-0.1-1.4,0-2.2c0.2-1.3,0.5-2.9-1.1-3.8
		c-0.7-0.4-1.5-0.5-2.2-0.5c-0.3,0-0.5,0.2-0.5,0.5c0,0.3,0.2,0.5,0.5,0.5c0.6,0,1.3,0.1,1.8,0.4c0.9,0.5,0.9,1.3,0.6,2.7
		c-0.1,0.9-0.3,1.9,0,2.8c0.5,1.4,1.8,1.6,2.7,1.6c0.2,0,0.4,0,0.5,0c0.3,0,0.5-0.3,0.5-0.5c0-0.3-0.2-0.5-0.5-0.5
		C21.7,44.2,21.1,43.9,20.8,43.1z M34.1,16.8C34.1,16.8,34.2,16.8,34.1,16.8c0.2,0,0.4-0.1,0.5-0.1c0.3-0.1,0.4-0.3,0.4-0.6
		c-0.1-0.3-0.3-0.5-0.6-0.4c-0.1,0-0.3,0.1-0.4,0.1c-0.3,0-0.4,0.3-0.4,0.6C33.7,16.6,33.9,16.8,34.1,16.8z M27.5,26.5
		c-0.2,0-0.4,0-0.6,0c-0.3,0-0.5,0.2-0.5,0.5s0.2,0.5,0.5,0.5c0.2,0,0.3,0,0.5,0c0,0,0,0,0,0c0.3,0,0.5-0.2,0.5-0.5
		C28,26.8,27.8,26.5,27.5,26.5z M44.5,24.3c-0.4-0.2-0.9-0.5-0.7-2.1l0-0.3c0.1-1.6,0.4-4-0.8-4.7c-0.6-0.4-1.3-0.2-2.2,0.5
		c-0.2,0.1-0.3,0.2-0.5,0.4c-0.8,0.7-0.9,0.6-1.2,0.3c-0.2-0.3-0.3-0.6-0.4-1c-0.2-0.7-0.4-1.5-1.4-1.9c-0.4-0.1-0.8-0.2-1.2-0.2
		c-0.3,0-0.5,0.3-0.5,0.5c0,0.3,0.3,0.5,0.5,0.5c0.3,0,0.6,0,0.8,0.1c0.5,0.2,0.6,0.5,0.8,1.2c0.1,0.5,0.3,1,0.7,1.5
		c0.9,1.1,1.9,0.3,2.6-0.2c0.1-0.1,0.3-0.2,0.4-0.3c0.5-0.4,1-0.5,1.2-0.4c0.6,0.4,0.4,2.8,0.3,3.7l0,0.3c-0.1,1.6,0.3,2.7,1.4,3.1
		c0.5,0.2,1.1,0.2,1.5,0.2c0,0,0,0,0.1,0c0.8,0,1.2,0,1.6,0.6c0.2,0.3,0.4,0.7,0.4,1.3c0,0.2,0.2,0.4,0.5,0.4c0,0,0.1,0,0.1,0
		c0.3,0,0.4-0.3,0.4-0.6c-0.1-0.5-0.2-1.1-0.6-1.7c-0.7-1-1.6-1-2.4-1C45.3,24.5,44.9,24.5,44.5,24.3z M39.8,31.7
		C39.8,31.7,39.8,31.7,39.8,31.7c0-0.2,0-0.5,0-0.9c0-0.3-0.2-0.5-0.5-0.5h0c-0.3,0-0.5,0.2-0.5,0.5c0,0.4,0,0.7,0,1
		c0,0.1,0,0.2,0.1,0.4c0,0.2,0.3,0.4,0.5,0.4c0,0,0.1,0,0.1,0c0.3-0.1,0.4-0.3,0.4-0.6C39.9,31.9,39.8,31.8,39.8,31.7z M39.3,29.6
		C39.3,29.6,39.3,29.6,39.3,29.6c0.3,0,0.5-0.3,0.5-0.5c0-0.7-0.2-1.2-0.4-1.6c-0.3-0.6-0.7-0.9-1.1-1c-0.8-0.2-1.5,0.2-2.3,0.6
		c-0.6,0.3-1.1,0.7-1.6,0.6c-0.6,0-0.8-0.6-1.2-1.7c-0.2-0.8-0.4-1.6-1-2.1c-0.8-0.7-1.8-0.4-2.7-0.1c-0.9,0.3-1.4,0.4-1.9-0.1
		c-0.3-0.4-0.4-1.1-0.5-1.8c0-0.2-0.1-0.4-0.1-0.6c-0.1-0.3-0.3-0.5-0.6-0.4c-0.3,0.1-0.4,0.3-0.4,0.6c0,0.2,0.1,0.4,0.1,0.6
		c0.1,0.8,0.2,1.6,0.8,2.3c0.8,1,2,0.7,2.9,0.4c0.8-0.3,1.4-0.4,1.8,0c0.3,0.3,0.5,0.9,0.7,1.5c0.3,1,0.7,2.3,2,2.4
		c0.8,0.1,1.5-0.4,2.1-0.8c0.6-0.3,1.1-0.7,1.5-0.6c0.2,0.1,0.4,0.2,0.5,0.5c0.1,0.3,0.2,0.7,0.3,1.2C38.9,29.4,39.1,29.6,39.3,29.6
		z"/>
</g>
</svg>
