<?xml version="1.0" encoding="utf-8"?>
<!-- Generator: Adobe Illustrator 24.0.1, SVG Export Plug-In . SVG Version: 6.00 Build 0)  -->
<svg version="1.1" id="Layer_1" xmlns="http://www.w3.org/2000/svg" xmlns:xlink="http://www.w3.org/1999/xlink" x="0px" y="0px"
	 width="60px" height="60px" viewBox="0 0 60 60" style="enable-background:new 0 0 60 60;" xml:space="preserve">
<style type="text/css">
	.st0{fill:#3A3A3A;stroke:#3A3A3A;stroke-width:0.5;}
</style>
<path class="st0" d="M14,46.5h17.3v7l4.7-5.3l4.7,5.3v-7h13.6l-0.8-1.1c-5-7.3-0.4-10,1.1-12H14c-3.6,0-6.6,2.9-6.6,6.6
	C7.4,43.6,10.3,46.5,14,46.5z M39.1,49.7L35.9,46l-3.2,3.7v-3.2v-4h6.4v4V49.7z M51.4,45.1H40.5v-2.5h9.7
	C50.5,43.3,50.9,44.2,51.4,45.1z M14,34.8h37.2c-0.6,0.8-1,1.7-1.3,2.5H26.3v1.4h23.4c-0.1,0.7,0,1.5,0.1,2.3H31.9v0h-0.7v4H14
	c-2.8,0-5.1-2.3-5.1-5.1C8.8,37.1,11.1,34.8,14,34.8z"/>
<path class="st0" d="M16.5,25.6c0,3.1,7,4.7,13.9,4.7c6.9,0,13.9-1.6,13.9-4.7v-9l3.9-1.6v8.4c-0.7,0.3-1.2,1-1.2,1.8
	c0,0.6,0.3,1.1,0.7,1.5L47,30.2l0,0.2c0,1.1,0.9,2,2,2c1.1,0,2-0.9,2-2l-0.8-3.7c0.4-0.4,0.7-0.9,0.7-1.5c0-0.8-0.5-1.5-1.2-1.8v-9
	l1.7-0.7L30.5,6L8.9,13.6l7.6,3V25.6z M49.1,25.6c0,0-0.1,0-0.2,0c0,0,0,0,0,0l-0.1-0.1c-0.1-0.1-0.3-0.2-0.3-0.4
	c0-0.2,0.2-0.4,0.5-0.4s0.4,0.2,0.4,0.4C49.4,25.3,49.3,25.5,49.1,25.6z M49,30.9c-0.3,0-0.5-0.2-0.5-0.5L49,28l0.5,2.4
	C49.5,30.7,49.3,30.9,49,30.9z M42.9,25.6c0,1.3-4.9,3.2-12.5,3.2c-7.6,0-12.5-1.9-12.5-3.2v-8.3L30,22.1l0.2,0.1l0.3,0.1l12.4-5.1
	C42.9,17.2,42.9,25.6,42.9,25.6z M30.5,7.5l17,6.2l-4.1,1.7l-12.9,5.3l-17.5-7L30.5,7.5z"/>
</svg>
