<?xml version="1.0" encoding="utf-8"?>
<!-- Generator: Adobe Illustrator 24.0.1, SVG Export Plug-In . SVG Version: 6.00 Build 0)  -->
<svg version="1.1" id="Layer_1" xmlns="http://www.w3.org/2000/svg" xmlns:xlink="http://www.w3.org/1999/xlink" x="0px" y="0px"
	 width="16px" height="16px" viewBox="0 0 16 16" enable-background="new 0 0 16 16" xml:space="preserve">
<g>
	<path fill="#737373" d="M13.3,12H2.7c-0.7,0-1.3-0.6-1.3-1.3V2.5c0-0.7,0.6-1.3,1.3-1.3h10.7c0.7,0,1.3,0.6,1.3,1.3v8.2
		C14.7,11.4,14.1,12,13.3,12z M2.7,2.5l0,8.2h10.7V2.5H2.7z M2.7,1.9l0,0.7c0,0,0,0,0,0V1.9z"/>
	<path fill="#737373" d="M6,1.4h4v1.3c0,0.4-0.3,0.7-0.7,0.7H6.7C6.3,3.4,6,3.1,6,2.7V1.4z"/>
	
		<rect x="3.5" y="12.2" transform="matrix(0.3605 -0.9328 0.9328 0.3605 -8.5763 13.1554)" fill="#737373" width="3.7" height="1.3"/>
	<rect x="10" y="11" transform="matrix(0.9326 -0.3609 0.3609 0.9326 -3.9107 4.7246)" fill="#737373" width="1.3" height="3.7"/>
	<path fill-rule="evenodd" clip-rule="evenodd" fill="#737373" d="M6.7,9.2L10,6.9L6.7,4.5V9.2z"/>
</g>
</svg>
