<?xml version="1.0" encoding="utf-8"?>
<!-- Generator: Adobe Illustrator 24.0.1, SVG Export Plug-In . SVG Version: 6.00 Build 0)  -->
<svg version="1.1" id="Layer_1" xmlns="http://www.w3.org/2000/svg" xmlns:xlink="http://www.w3.org/1999/xlink" x="0px" y="0px"
	 width="24px" height="24px" viewBox="0 0 24 24" style="enable-background:new 0 0 24 24;" xml:space="preserve">
<path d="M2,16.5v3h8v-1.9H3.9v-1.1c0-0.6,3.1-2.1,6.1-2.1c1,0,1.9,0.1,2.8,0.4l1.5-1.5c-1.4-0.5-2.9-0.7-4.4-0.8
	C7.3,12.5,2,13.8,2,16.5z M10,3.5c-2.2,0-4,1.8-4,4s1.8,4,4,4s4-1.8,4-4S12.2,3.5,10,3.5z M10,9.5c-1.1,0-2-0.9-2-2s0.9-2,2-2
	s2,0.9,2,2S11.1,9.5,10,9.5z M21.7,12.9l-1,1l-2.1-2l1-1c0.2-0.2,0.6-0.2,0.8,0l1.3,1.3C21.9,12.4,21.9,12.7,21.7,12.9L21.7,12.9z
	 M12,18.5l6.1-6.1l2.1,2l-6,6.1H12V18.5z"/>
</svg>
