<?xml version="1.0" encoding="utf-8"?>
<!-- Generator: Adobe Illustrator 24.0.1, SVG Export Plug-In . SVG Version: 6.00 Build 0)  -->
<svg version="1.1" id="Layer_1" xmlns="http://www.w3.org/2000/svg" xmlns:xlink="http://www.w3.org/1999/xlink" x="0px" y="0px"
	 width="60px" height="60px" viewBox="0 0 60 60" style="enable-background:new 0 0 60 60;" xml:space="preserve">
<style type="text/css">
	.st0{fill:none;stroke:#3A3A3A;stroke-width:2;stroke-miterlimit:10;}
	.st1{fill:#3A3A3A;}
</style>
<path class="st0" d="M45.1,48.6c-0.3-0.2-0.8-0.9-0.7-1.7C45.8,30,45.2,16,44.6,10.8c0-0.2-0.1-0.5-0.1-0.6l-1.1-1.1
	c-0.1,0-0.2-0.1-0.3-0.1L41,11.1L38.9,9h-0.1l-2.1,2.1L34.5,9h-0.1l-2.1,2.1L30.1,9h-0.1l-2.1,2.1L25.7,9h-0.1l-2.1,2.1L21.2,9h-0.1
	L19,11.1L16.9,9c-0.1,0-0.2,0-0.3,0.1l-1.1,1.1c-0.1,0.2-0.1,0.4-0.2,0.6C14.7,16,14.2,30,15.6,46.9c0.1,0.8-0.4,1.4-0.7,1.7
	c-0.9,0.7-1.4,1.3-1.2,1.8c0.1,0.4,0.5,0.7,0.9,0.6c0.5-0.1,1.7-0.3,2.2-0.3c1.7-0.1,24.8-0.1,26.5,0c0.5,0,1.8,0.3,2.2,0.3
	c0.4,0.1,0.8-0.2,0.9-0.6C46.5,49.8,46,49.2,45.1,48.6z"/>
<path class="st1" d="M15.3,15.5h-0.8V17h0.8V15.5z"/>
<path class="st1" d="M21.6,17h-2v-2h2V17z M17.6,17h-2v-2h2V17z"/>
<path class="st1" d="M44.6,17h-1.9v-2h1.9V17z M40.8,17h-1.9v-2h1.9V17z M37,17h-1.9v-2H37V17z M33.1,17h-1.9v-2h1.9V17z M29.3,17
	h-1.9v-2h1.9V17z M25.5,17h-1.9v-2h1.9V17z"/>
<path class="st1" d="M45.4,15.5h-0.8V17h0.8V15.5z"/>
<path class="st1" d="M30.5,30c-0.5-1.2-1.2-2.3-2.1-3.2c-1.9-1.9-4.6-3-7.4-2.8c-0.4,0-0.7,0.3-0.7,0.7c-0.2,2.8,0.9,5.5,2.8,7.4
	c1.8,1.8,4.1,2.8,6.6,2.8v8c0,0.4,0.3,0.7,0.7,0.7c0.4,0,0.7-0.3,0.7-0.7v-8c2.5-0.1,4.9-1.1,6.7-2.8c1.9-1.9,3-4.6,2.8-7.4
	c0-0.4-0.3-0.7-0.7-0.7c-2.8-0.1-5.5,0.9-7.4,2.8C31.7,27.8,31,28.8,30.5,30z M21.8,25.5c2.1,0.1,4.1,0.9,5.6,2.4
	c1.2,1.2,2,2.8,2.3,4.4l-1.6-1.6c-0.3-0.3-0.8-0.3-1,0c-0.3,0.3-0.3,0.8,0,1l1.6,1.6c-1.7-0.3-3.2-1.1-4.4-2.3
	C22.7,29.6,21.8,27.6,21.8,25.5z M39.3,25.5c-0.1,2.1-0.9,4.1-2.4,5.6c-1.2,1.2-2.8,2-4.4,2.3l1.5-1.5c0.3-0.3,0.3-0.8,0-1
	s-0.8-0.3-1,0l-1.5,1.5c0.3-1.7,1.1-3.2,2.3-4.4C35.1,26.4,37.2,25.5,39.3,25.5z"/>
</svg>
