<?xml version="1.0" encoding="utf-8"?>
<!-- Generator: Adobe Illustrator 24.0.1, SVG Export Plug-In . SVG Version: 6.00 Build 0)  -->
<svg version="1.1" id="Layer_1" xmlns="http://www.w3.org/2000/svg" xmlns:xlink="http://www.w3.org/1999/xlink" x="0px" y="0px"
	 width="60px" height="60px" viewBox="0 0 60 60" style="enable-background:new 0 0 60 60;" xml:space="preserve">
<style type="text/css">
	.st0{fill:#3A3A3A;stroke:#3A3A3A;stroke-width:0.5;}
	.st1{fill:none;stroke:#3A3A3A;stroke-width:2;}
</style>
<path class="st0" d="M49.7,29.1c-0.7-6.4-4.8-10.1-11-10.2c-3.2-0.1-5.5,0.6-7.2,2c0.5-2.8,1.8-7.2,5.2-10.2
	c0.4-0.3,0.4-0.8,0.1-1.1c-0.3-0.4-0.8-0.4-1.2-0.1c-1.3,1.1-2.3,2.4-3.1,3.6c-0.8-2.1-2.3-3.8-4.2-4.9c-2.5-1.4-5.5-1.7-8.5-0.7
	c-0.4,0.1-0.6,0.5-0.5,0.9c0.5,3,2.2,5.5,4.7,6.9c1.9,1.1,4.3,1.6,6.8,1.1c-0.7,1.9-1.1,3.5-1.3,4.9c-1.7-1.8-4.3-2.7-7.8-2.6
	c-6.1,0.3-10,4-10.9,10.3C9.8,38,15.5,50.7,23.7,52.8c2.1,0.5,2.8-0.1,4-1.1l0.3-0.3c1.4-1.1,3.3-1.1,4.5,0l0.3,0.3
	c1.2,1,2,1.6,4,1.1C45.1,50.7,50.8,38,49.7,29.1z M25,14.1c-1.9-1.1-3.2-2.9-3.8-5.1c2.3-0.6,4.5-0.3,6.4,0.8
	c1.9,1.1,3.2,2.9,3.8,5.1C29.1,15.4,26.9,15.2,25,14.1z M36.5,51.2c-1.3,0.4-1.4,0.2-2.5-0.7l-0.3-0.3c-2-1.6-4.7-1.6-6.6,0
	l-0.4,0.3c-1.1,0.9-1.4,1.1-2.5,0.7c-6.7-1.8-12.6-13-11.5-21.9c0.5-3.9,2.4-8.7,9.4-8.8c3.3-0.1,6.2,0.7,7.6,3.6
	c0.1,0.3,0.5,0.4,0.7,0.4c0.3,0,0.6-0.2,0.7-0.4c1.1-2.5,3.7-3.7,7.6-3.6c6.9,0.2,8.9,4.9,9.4,8.8C49.1,38.2,43.2,49.5,36.5,51.2z"
	/>
<path class="st1" d="M17.8,32c0-3.3,2.7-6,6-6"/>
</svg>
