<?xml version="1.0" encoding="utf-8"?>
<!-- Generator: Adobe Illustrator 24.0.1, SVG Export Plug-In . SVG Version: 6.00 Build 0)  -->
<svg version="1.1" id="Layer_1" xmlns="http://www.w3.org/2000/svg" xmlns:xlink="http://www.w3.org/1999/xlink" x="0px" y="0px"
	 width="60px" height="60px" viewBox="0 0 60 60" enable-background="new 0 0 60 60" xml:space="preserve">
<g>
	<g>
		<defs>
			
				<rect id="SVGID_1_" x="-1.3" y="9.2" transform="matrix(0.9681 -0.2507 0.2507 0.9681 -6.5922 8.2406)" width="60.8" height="41.5"/>
		</defs>
		<clipPath id="SVGID_2_">
			<use xlink:href="#SVGID_1_"  overflow="visible"/>
		</clipPath>
		<g clip-path="url(#SVGID_2_)">
			<path fill="#414241" d="M27.5,32.2c-0.4-0.4-1,0.2-0.6,0.6c0.1,0.1,0.1,0.1,0.2,0.2c0.4,0.4,1-0.2,0.6-0.6
				C27.7,32.4,27.6,32.3,27.5,32.2z M26.5,25.9c-0.2-0.1-0.5,0-0.6,0.2c-0.1,0.2,0,0.4,0.1,0.6c0,0,0.1,0.1,0.1,0.1
				c0.2,0.1,0.5,0,0.6-0.2c0.1-0.2,0-0.4-0.1-0.6C26.6,26,26.5,26,26.5,25.9z M28.8,30.7c-0.2-0.1-0.5,0-0.6,0.2
				c-0.1,0.2,0,0.4,0.1,0.6c0.1,0,0.1,0.1,0.2,0.1c0.2,0.1,0.5,0,0.6-0.2c0.1-0.2,0-0.4-0.1-0.6C28.9,30.8,28.8,30.7,28.8,30.7z
				 M29.9,29.8C29.9,29.7,29.9,29.7,29.9,29.8c-0.5-0.3-1,0.4-0.5,0.7c0,0,0,0,0,0C29.9,30.7,30.4,30,29.9,29.8z M28,24.8
				C28,24.8,28.1,24.8,28,24.8c0.3,0.1,0.5,0,0.6-0.3c0.1-0.2-0.1-0.5-0.3-0.5c0,0,0,0-0.1,0c-0.2,0-0.5,0.1-0.5,0.3
				C27.7,24.5,27.8,24.8,28,24.8z M27.5,25.9c0.2-0.1,0.2-0.4,0-0.6c-0.1,0-0.1-0.1-0.2-0.1c-0.2-0.1-0.4-0.2-0.6,0
				c-0.2,0.1-0.2,0.4,0,0.6c0.1,0,0.1,0.1,0.2,0.1C27,26,27.3,26,27.5,25.9z M20.8,37.6c-0.2,0.2-0.4,0.3-0.6,0.5
				c-0.2,0.1-0.3,0.4-0.2,0.6c0.1,0.2,0.4,0.3,0.6,0.1c0.2-0.2,0.4-0.3,0.6-0.5c0.2-0.1,0.3-0.4,0.2-0.6
				C21.2,37.6,20.9,37.5,20.8,37.6z M16.8,29.8c-0.1,0.1-0.2,0.2-0.3,0.2c-0.2,0.1-0.3,0.4-0.2,0.6c0.1,0.2,0.4,0.3,0.6,0.1
				c0.1-0.1,0.2-0.2,0.3-0.2c0.2-0.1,0.3-0.4,0.2-0.6C17.3,29.8,17,29.7,16.8,29.8z M27.7,19.9c0.4-0.3,0.8-0.6,1-1
				c0.3-0.5-0.5-0.9-0.7-0.4c-0.2,0.3-0.4,0.5-0.7,0.7C26.8,19.5,27.3,20.2,27.7,19.9z M34.4,25.1c0.2,0.1,0.5,0.2,0.6,0
				c0.1-0.2,0.3-0.3,0.4-0.5c0.1-0.2,0.2-0.4,0-0.6c-0.2-0.1-0.5-0.2-0.6,0c-0.1,0.2-0.3,0.3-0.4,0.5C34.2,24.7,34.2,25,34.4,25.1z
				 M15.2,31.2c-0.2,0.2-0.5,0.4-0.7,0.6c-0.4,0.4,0.2,0.9,0.6,0.6c0.2-0.2,0.5-0.4,0.7-0.6C16.2,31.5,15.6,30.9,15.2,31.2z
				 M34,37.9c0.3,0.4,1-0.2,0.6-0.6c-0.3-0.3-1.1-1.5-0.7-1.8c0.3-0.2,0.8-0.1,1,0.1c0.2,0.3,0.1,0.7,0,1.1
				c-0.2,0.5,0.7,0.7,0.8,0.2c0.2-0.6,0.3-1.4-0.2-1.9c-0.4-0.5-1.2-0.5-1.8-0.3C32.1,35.3,33.3,37.1,34,37.9z M24.3,34.6
				c-0.4,0.3-0.8,0.7-1.1,1c-0.4,0.4,0.2,1,0.6,0.6c0.4-0.3,0.8-0.7,1.1-1C25.4,34.8,24.8,34.2,24.3,34.6z M32.7,20.7
				c0.1-0.1,0.2-0.3,0.3-0.4c0.3-0.5-0.5-0.9-0.7-0.4c-0.1,0.1-0.2,0.3-0.2,0.4C31.7,20.7,32.4,21.1,32.7,20.7z M50.2,27.3
				c0.5-0.3,0.1-1-0.4-0.7c-1.7,1-3.7,1-5.5,1.8c-0.5,0.2-0.1,0.9,0.4,0.7C46.5,28.2,48.4,28.3,50.2,27.3z M42.6,29.4
				c-0.3,0.2-0.6,0.4-0.9,0.6c-0.5,0.3-0.1,1,0.4,0.7c0.3-0.2,0.6-0.4,0.9-0.6c0.2-0.1,0.3-0.4,0.2-0.6
				C43.1,29.4,42.8,29.3,42.6,29.4z M47.8,32.7c-0.2,0.2-0.3,0.4-0.5,0.5c-0.2,0.2-0.2,0.4,0,0.6c0.2,0.1,0.5,0.2,0.6,0
				c0.2-0.2,0.3-0.4,0.5-0.5c0.1-0.2,0.2-0.4,0-0.6C48.2,32.6,47.9,32.5,47.8,32.7z M52.9,34.1c-0.7,1.2-1.4,2.4-2.6,3.2
				c-1.1,0.8-2.5,1.2-3.8,1.8c-0.5,0.2-0.1,0.9,0.4,0.7c1.4-0.6,2.9-1,4.2-2c1.1-0.9,1.9-2.1,2.6-3.3C53.9,34,53.2,33.6,52.9,34.1z
				 M37.7,38.5c-0.6-0.2-1.2,0.2-1.7,0.4c-0.5,0.2-0.1,0.9,0.4,0.7c0.3-0.1,0.5-0.3,0.8-0.3c0.3-0.1,0.4,0.2,0.5,0.4
				c0.1,0.2,0.3,0.5,0,0.6c-0.2,0.1-0.5-0.1-0.7-0.2c-0.5-0.2-0.7,0.6-0.2,0.8c0.5,0.2,1.1,0.3,1.6,0c0.4-0.3,0.5-0.9,0.3-1.3
				C38.5,39.2,38.1,38.6,37.7,38.5z M52.4,22.7c-3.6-0.1-6.6,1.4-9.6,3.1c-0.7,0.4-1.4,0.8-2.1,1.1c2.1-2.8,3.8-5.8,4.4-9.3
				c0.3-1.8,0.1-3.4-0.3-5.2c-0.4-1.4-0.2-2.6,0.5-3.8c0.3-0.5,0.9-1.1,1-1.6c0.2-1.5-2.8-2.9-3.9-1.7C42,5.7,42,6.1,41.9,6.5
				c-0.4,1.2-0.8,2.3-2.1,2.8c-0.8,0.3-1.9,0.2-2.8,0.5c-1,0.3-2,0.6-2.9,1.1c-4.5,2-7.9,5.4-11.1,8.9c-3.5,3.8-7,7.5-11.4,10.5
				c-3.3,2.3-8,4-10.1,7.7c-0.9,1.6-1.1,3.4-0.5,5c0,0,0,0,0,0.1c0.4,1.2,1.2,2.3,2.3,3.1C7,48.8,12,47.8,16,46.3
				c4.6-1.7,8.8-4.4,12.6-7.4c0.3,2.4,1.3,4.8,2.5,6.4c1.4,1.9,3.5,3.2,5.9,3.5c3.3,0.4,6-1.5,8.6-3.3c2.8-1.9,5.5-4.1,7.8-6.5
				c2-2,4.5-4,5.8-6.5C62,27.5,57.7,22.9,52.4,22.7z M28.4,37.5C25.3,40,22,42.3,18.4,44c-3.7,1.8-8.7,3.7-12.8,1.9
				c-0.3-0.1-0.6-0.3-0.8-0.4c1.8,0.1,3.6-0.4,5.4-1c3.2-1.1,6.1-2.6,8.8-4.6c0.4-0.3,0-1-0.4-0.7c-2.1,1.5-4.3,2.8-6.8,3.8
				c-2.5,1-5.7,2.3-8.4,1.3C3.2,44.1,3.1,44,3,43.8c0.9-1.4,3.6-2,5.1-2.7c1.8-0.9,3.6-1.8,5.4-2.7c0.5-0.3,0.1-1-0.4-0.7
				c-2.3,1.2-4.5,2.3-6.9,3.4C4.9,41.6,3.4,42,2.5,43c-0.1-0.3-0.2-0.6-0.3-0.9c1.2-2.2,2.9-3.2,5.2-4.5c2.1-1.1,4.1-2.5,6.1-3.9
				c0.4-0.3,0-1-0.4-0.7c-2.6,1.8-5.2,3.4-8,4.9c-1.3,0.7-2.2,1.6-2.9,2.7c0.2-1.5,1-3.1,2.5-4.4c2.9-2.4,6.6-4,9.6-6.4
				c3.1-2.3,5.8-5,8.3-7.8c2.7-3,5.4-6.1,8.7-8.3c1.5-1,3.2-1.8,4.9-2.4c-0.8,0.4-1.6,0.8-2.3,1.3c-2,1.3-3.1,3.3-5,4.7
				c-0.4,0.3,0.2,0.9,0.6,0.6c1.7-1.3,2.8-3.2,4.5-4.4c1.7-1.2,3.8-1.9,5.8-2.6c-1.9,2.8-5.2,4.6-7,7.6c-0.3,0.5,0.5,0.9,0.7,0.4
				c2-3.4,5.9-5.2,7.7-8.7c0.7-0.5,1.2-1.6,1.5-2.4c0,0,0.3-1.3,0.4-1.3c0.6-0.5,1.6,0.1,1.6,0.6c0,0.4-0.8,1.2-1,1.7
				c-0.3,0.7-0.5,1.4-0.6,2.2c0,0,0,0,0,0c-0.7,2-2.5,3.4-3.3,5.4c-0.5,1.2-0.7,2.3-1.4,3.4c-0.8,1.2-1.8,2.3-2.9,3.3
				c-0.4,0.4,0.2,1,0.6,0.6c1.8-1.8,3.2-3.5,4-5.9c0.7-1.9,2-3.4,3-5.2c0.2,0.9,0.6,1.8,0.6,2.8c0.1,4.5-2.5,8.7-5.3,12.1
				c-0.1,0.1-0.1,0.2-0.1,0.3c-0.7,0.3-1.3,0.5-2,0.7c-1.8,0.5-3.6,0.6-5.2,1.7c0,0,0,0,0,0c0,0-0.1,0-0.1,0.1
				C29.1,32.1,28.3,34.7,28.4,37.5z M38.7,47.6c-0.4,0.1-0.9,0.1-1.3,0c-3.9-0.3-6.2-3.8-7.1-7.1c-0.8-3.1-1-7,1.6-9.3
				c0.1-0.1,0.2-0.1,0.3-0.2c1.7-0.4,3.5,1.6,4.4,2.7c1.2,1.4,2,3.1,2.6,4.9C40.3,41.5,41,45.2,38.7,47.6z M54,36.6
				c-2.1,2.2-4.2,4.3-6.7,6.2c-2,1.6-4.6,3.7-7.4,4.6c0.6-0.9,0.9-2,1-3c1.9-0.9,3-2.7,4.6-3.8c0.4-0.3,0-1-0.4-0.7
				c-1.5,1.1-2.6,2.7-4.2,3.6c0-1.7-0.4-3.5-1-5c0,0,0,0,0,0c1.1-0.7,2.2-1.4,3.4-1.9c1-0.5,2.1-0.8,3-1.4c0.5-0.3,0-1-0.4-0.7
				c-0.9,0.6-2,0.9-3,1.4c-1.2,0.5-2.3,1.2-3.3,1.9c-0.1-0.2-0.1-0.4-0.2-0.5c-0.5-1.2-1.6-3.1-2.9-4.6c1.1-0.9,2.5-0.9,3.9-1.1
				c0.5-0.1,0.3-0.9-0.2-0.8c-1.5,0.3-3,0.3-4.2,1.3c-0.7-0.6-1.4-1.1-2.1-1.4c0.9-0.2,1.8-0.4,2.7-0.7c1.5-0.4,2.9-1,4.2-1.6
				c2.9-1.3,5.3-3.2,8.5-3.9c1.4-0.3,3-0.3,4.5,0c-1.1,0.3-2.1,0.9-3,1.5c-0.4,0.3,0,1,0.4,0.7c1.4-1,3.3-2.1,4.9-1.2
				c-0.8,1.8-2.8,2.4-4.4,3.4c-1.4,0.7-2.4,1.7-3.3,2.9C48.3,32,49,32.4,49.3,32c1.5-2,3.4-2.7,5.5-4c1-0.6,1.8-1.4,2.3-2.4
				c0.1,0.1,0.2,0.2,0.3,0.3c0.4,0.9,0.1,1.9-0.7,2.7c-0.8,0.7-1.5,1.2-2,2c-0.3,0.4,0.4,0.9,0.7,0.4c0.8-1.1,2.3-1.8,2.8-3
				c0.1-0.2,0.1-0.4,0.2-0.5c0.1,0.3,0.3,0.7,0.3,1.1C59.3,32,56.2,34.4,54,36.6z M33.1,33.1c0-0.1,0-0.2-0.1-0.2
				c-0.1-0.5-1-0.3-0.8,0.2c0,0.1,0,0.2,0.1,0.2C32.4,33.8,33.2,33.6,33.1,33.1z M53.9,32.1c-0.1,0.2-0.2,0.5-0.4,0.7
				c-0.1,0.2-0.1,0.4,0.1,0.6c0.2,0.1,0.5,0.1,0.6-0.2c0.1-0.2,0.2-0.5,0.4-0.7c0.1-0.2,0.1-0.4-0.1-0.6
				C54.3,31.8,54,31.9,53.9,32.1z M32.4,42.5C32.4,42.5,32.4,42.5,32.4,42.5c-0.2,0.1-0.4,0.3-0.3,0.5c0.1,0.2,0.3,0.4,0.5,0.3
				c0,0,0,0,0,0c0.2-0.1,0.4-0.3,0.3-0.5C32.9,42.6,32.6,42.4,32.4,42.5z M33.9,39c-0.5-0.6-1.8-1.6-2.4-0.6
				c-0.2,0.3-0.4,0.9-0.3,1.3c0.1,0.5,0.6,0.7,1.1,0.8c0.5,0.1,0.8-0.7,0.2-0.8c-0.2,0-0.5,0-0.5-0.2c0-0.1,0.1-0.5,0.2-0.6
				c0.1-0.1,0.5,0.2,0.5,0.3c0.2,0.1,0.4,0.3,0.5,0.5C33.7,40,34.3,39.5,33.9,39z M31.9,34.8c0.4,0.4,1-0.2,0.6-0.6
				c0,0-0.1-0.1-0.1-0.1C32.1,33.8,31.4,34.3,31.9,34.8C31.9,34.7,31.9,34.8,31.9,34.8z M35.7,41.6c0,0.3,0,0.5,0,0.8
				c0,0.2,0,0.6-0.3,0.6c-0.6-0.1-0.5-0.9-0.4-1.3c0.2-0.5-0.7-0.7-0.8-0.2c-0.3,0.9-0.1,2.2,1.1,2.4c1.4,0.2,1.4-1.3,1.3-2.2
				C36.5,41.1,35.7,41,35.7,41.6z M38,44.3c-0.1-0.2-0.4-0.3-0.6-0.1c-0.2,0.1-0.3,0.4-0.2,0.6c0.1,0.2,0.2,0.3,0.3,0.4
				C38.1,45.3,38.5,44.6,38,44.3C38,44.3,38.1,44.4,38,44.3z M38.5,42.9c-0.2-0.1-0.5-0.1-0.6,0.2c-0.1,0.2-0.1,0.5,0.1,0.6
				c0,0,0,0,0.1,0c0.2,0.1,0.5,0.1,0.6-0.2C38.9,43.3,38.8,43,38.5,42.9C38.6,42.9,38.6,42.9,38.5,42.9z"/>
		</g>
	</g>
</g>
</svg>
