<?xml version="1.0" encoding="utf-8"?>
<!-- Generator: Adobe Illustrator 24.0.1, SVG Export Plug-In . SVG Version: 6.00 Build 0)  -->
<svg version="1.1" id="Layer_1" xmlns="http://www.w3.org/2000/svg" xmlns:xlink="http://www.w3.org/1999/xlink" x="0px" y="0px"
	 width="60px" height="60px" viewBox="0 0 60 60" style="enable-background:new 0 0 60 60;" xml:space="preserve">
<style type="text/css">
	.st0{fill:#3A3A3A;}
</style>
<path class="st0" d="M47.5,18.1c0,0.6-0.5,1-1,1h-22c-0.6,0-1-0.5-1-1s0.5-1,1-1h22C47.1,17,47.5,17.5,47.5,18.1z M24.5,24.8h6.6
	c0.6,0,1-0.5,1-1c0-0.6-0.5-1-1-1h-6.6c-0.6,0-1,0.5-1,1C23.5,24.3,24,24.8,24.5,24.8z M24.5,30.5h6.6c0.6,0,1-0.5,1-1
	c0-0.6-0.5-1-1-1h-6.6c-0.6,0-1,0.5-1,1C23.5,30,24,30.5,24.5,30.5z M24.5,36.1h6.6c0.6,0,1-0.5,1-1c0-0.6-0.5-1-1-1h-6.6
	c-0.6,0-1,0.5-1,1C23.5,35.7,24,36.1,24.5,36.1z M46.5,39.7h-22c-0.6,0-1,0.5-1,1c0,0.6,0.5,1,1,1h22c0.6,0,1-0.5,1-1
	C47.5,40.2,47.1,39.7,46.5,39.7z M47.5,23.7v11.3c0,0.6-0.5,1-1,1h-9.8c-0.6,0-1-0.5-1-1V23.8c0-0.6,0.5-1,1-1h9.8
	C47.1,22.7,47.5,23.2,47.5,23.7z M45.5,24.8h-7.8V34h7.8V24.8z M6.2,42.4V22.1c0-0.6,0.5-1,1-1c0.6,0,1,0.5,1,1v20.4
	c0.1,2.5,2.1,4.4,4.4,4.3c2.3-0.1,4.1-2,4.2-4.3V11c0-0.6,0.5-1,1-1h35.4c0.6,0,1,0.5,1,1v32.3c0,3.1-2.4,5.6-5.4,5.6c0,0,0,0,0,0
	H12.5C9,49,6.2,46.1,6.2,42.4z M17.1,46.9h31.7c1.9,0,3.4-1.6,3.4-3.5V12.1H18.8v30.3C18.8,44.1,18.2,45.7,17.1,46.9L17.1,46.9z
	 M11.5,22.3v20.1c0,0.6,0.5,1,1,1c0.6,0,1-0.5,1-1V22.3c0-0.6-0.5-1-1-1C12,21.2,11.5,21.7,11.5,22.3z"/>
</svg>
