<svg width="60" height="60" viewBox="0 0 60 60" fill="none" xmlns="http://www.w3.org/2000/svg">
<path d="M54.0073 19.6777L47.9479 8.53951C47.8094 8.20884 47.4978 8 47.1342 8H13.8594C13.5132 8 13.1842 8.20884 13.0457 8.53951L6.98631 19.6777C6.18993 21.2614 6.25918 23.141 7.14212 24.6725C7.81731 25.6645 8.94263 26.2736 10.1372 26.3084V49.4898C10.1372 49.9771 10.5181 50.36 11.0028 50.36H49.9908C50.4755 50.36 50.8564 49.9771 50.8564 49.4898V26.3084C52.051 26.2736 53.1763 25.6645 53.8515 24.6725C54.7517 23.141 54.8037 21.2614 54.0073 19.6777ZM39.811 9.74035L43.2735 20.1824C43.3254 20.4261 43.3774 20.6871 43.412 20.9308C43.5332 21.9402 43.2562 22.9496 42.6156 23.7327C42.0616 24.307 41.2999 24.6377 40.5035 24.6203C38.2875 24.4289 36.4523 22.7929 36.0195 20.6001C36.0195 20.3739 36.0195 20.165 35.933 19.9388L34.773 9.74035H39.811ZM26.8092 20.078L27.9692 9.74035H33.0244L34.1844 20.078C34.2017 20.3216 34.2017 20.5827 34.1844 20.8263C34.1324 22.8625 32.5224 24.5159 30.4968 24.6203C30.2544 24.6203 30.012 24.5855 29.787 24.5333C28.0903 24.0808 26.8785 22.5667 26.8092 20.8089C26.7919 20.5653 26.7919 20.3216 26.8092 20.078ZM26.2206 9.77515L25.0953 19.9388L24.9741 20.6871C24.5066 22.8451 22.7061 24.4463 20.5074 24.6203C19.7111 24.6377 18.932 24.3244 18.378 23.7327C18.2222 23.5587 18.101 23.3672 17.9798 23.1584C17.6335 22.4797 17.495 21.7139 17.5643 20.9656C17.5989 20.7219 17.6509 20.4609 17.7028 20.2172L21.1653 9.77515H26.2206ZM10.8816 24.6029H10.5873C9.80826 24.6551 9.06382 24.307 8.57906 23.6805C8.14625 22.7233 8.47519 21.4529 8.57906 20.339L14.4307 9.74035H19.3994L16.0408 19.7995C15.9715 20.0606 15.885 20.3216 15.7811 20.5653C14.9328 22.6537 13.0976 24.1678 10.8816 24.6029ZM11.8685 48.6197V26.1866C12.2666 26.0648 12.6648 25.9082 13.0284 25.6993H13.1842C13.4958 25.5427 13.7902 25.3686 14.0845 25.1772C14.2057 25.1076 14.3095 25.038 14.3961 24.951C14.6385 24.7943 14.8635 24.6203 15.0713 24.4115L15.3829 24.133L16.0062 23.4717L16.1793 23.2802C16.2485 23.4543 16.3351 23.6283 16.4217 23.7849C16.4563 23.8894 16.5082 23.9938 16.5602 24.0982C16.7333 24.3941 16.9237 24.6551 17.1488 24.8988C18.0317 25.8733 19.2956 26.4129 20.6113 26.3606C20.9229 26.3606 21.2346 26.3258 21.5289 26.2562C21.6154 26.2736 21.7193 26.2736 21.8059 26.2562C22.0309 26.204 22.256 26.1344 22.4811 26.0474L22.7234 25.9604C23.0178 25.8559 23.3121 25.7167 23.5718 25.5427H23.6756L24.3681 25.0554L24.5759 24.8639C24.7663 24.6899 24.9568 24.5159 25.1299 24.3244L25.2857 24.1504C25.4761 23.9068 25.6666 23.6631 25.8224 23.4021C25.9436 23.6457 26.0821 23.8894 26.2379 24.1156L26.3418 24.2374C26.4976 24.4463 26.6707 24.6377 26.8438 24.8291C26.8958 24.8988 26.965 24.9684 27.0343 25.0206C27.2074 25.1946 27.3978 25.3512 27.6056 25.4905L27.7441 25.5949C27.9865 25.7689 28.2462 25.9082 28.5232 26.03L28.7482 26.117C28.956 26.204 29.181 26.2736 29.4061 26.3258H29.6658C30.289 26.4651 30.9123 26.4651 31.5356 26.3258H31.7952C32.0203 26.2736 32.2454 26.204 32.4531 26.117L32.6782 26.03C32.9552 25.9082 33.2149 25.7689 33.4573 25.5949L33.6131 25.4905C33.8035 25.3512 33.9939 25.1946 34.1671 25.0206L34.3748 24.8291C34.5306 24.6551 34.6864 24.4637 34.8249 24.2722C34.8769 24.22 34.9288 24.1678 34.9634 24.0982C35.1193 23.8719 35.2578 23.6457 35.3789 23.4021C35.5348 23.6631 35.7252 23.9068 35.9156 24.1504L36.0715 24.3244C36.2446 24.5159 36.435 24.6899 36.6255 24.8639L36.8332 25.0554L37.5257 25.5427H37.6296C37.8893 25.7167 38.1836 25.8559 38.4779 25.9604L38.7203 26.0474C38.9453 26.1344 39.1704 26.204 39.3955 26.2562C39.482 26.2736 39.5859 26.2736 39.6725 26.2562C39.9668 26.3258 40.2784 26.3606 40.59 26.3606C41.8712 26.378 43.1004 25.8559 43.966 24.8988C44.1911 24.6551 44.3815 24.3941 44.5546 24.0982L44.6931 23.7849C44.7797 23.6283 44.8662 23.4543 44.9355 23.2802L45.1086 23.4717L45.7319 24.1504L46.0262 24.4115C46.2513 24.6203 46.4936 24.8117 46.7533 24.9858L46.9957 25.1598C47.6536 25.6123 48.3807 25.9604 49.1598 26.1692L49.2117 48.6197H11.8685ZM52.4145 23.6979C51.9817 24.3244 51.2546 24.6725 50.4928 24.6203H50.0773C49.835 24.5855 49.5926 24.5333 49.3502 24.4637C47.7055 23.8894 46.3378 22.7233 45.5068 21.1744L45.2125 20.5827C45.1086 20.339 45.0221 20.0954 44.9528 19.8343L41.5942 9.74035H46.5629L52.4145 20.339C52.9685 21.4007 52.9685 22.6363 52.4145 23.6979Z" fill="#007A33"/>
<path fill-rule="evenodd" clip-rule="evenodd" d="M22.4239 31.851H18.9468V30.1445H23.0147C23.3715 30.1445 23.6924 30.3568 23.8251 30.6806L27.6385 39.9908H35.5682L37.1413 34.4789H30.1029V32.7725H38.2911C38.5641 32.7725 38.8213 32.8973 38.9864 33.1098C39.1514 33.3223 39.2053 33.598 39.1319 33.855L37.0718 41.0733C36.9665 41.4421 36.6227 41.6973 36.231 41.6973H27.0477C26.6908 41.6973 26.3699 41.485 26.2372 41.1611L22.4239 31.851Z" fill="#007A33"/>
<path d="M29 45C29.5523 45 30 44.5523 30 44C30 43.4477 29.5523 43 29 43C28.4477 43 28 43.4477 28 44C28 44.5523 28.4477 45 29 45Z" fill="#007A33"/>
<path d="M34 45C34.5523 45 35 44.5523 35 44C35 43.4477 34.5523 43 34 43C33.4477 43 33 43.4477 33 44C33 44.5523 33.4477 45 34 45Z" fill="#007A33"/>
</svg>
