<?xml version="1.0" encoding="utf-8"?>
<!-- Generator: Adobe Illustrator 24.0.1, SVG Export Plug-In . SVG Version: 6.00 Build 0)  -->
<svg version="1.1" id="Layer_1" xmlns="http://www.w3.org/2000/svg" xmlns:xlink="http://www.w3.org/1999/xlink" x="0px" y="0px"
	 width="24px" height="24px" viewBox="0 0 24 24" style="enable-background:new 0 0 24 24;" xml:space="preserve">
<style type="text/css">
	.st0{fill-rule:evenodd;clip-rule:evenodd; }
</style>
<path class="st0" d="M21,20V6c0-0.5-0.2-1-0.6-1.4C20,4.2,19.5,4,19,4h-1V2h-2v2H8V2H6v2H5C4.5,4,4,4.2,3.6,4.6C3.2,5,3,5.5,3,6v14
	c0,1.1,0.9,2,2,2h14c0.5,0,1-0.2,1.4-0.6C20.8,21,21,20.5,21,20z M19,6v1v1v2v1v9H5v-9v-1V8V7V6H19z"/>
<rect x="7" y="8" width="10" height="2"/>
<rect x="7" y="12" width="10" height="2"/>
<rect x="7" y="16" width="10" height="2"/>
</svg>
