<?xml version="1.0" encoding="utf-8"?>
<!-- Generator: Adobe Illustrator 24.0.1, SVG Export Plug-In . SVG Version: 6.00 Build 0)  -->
<svg version="1.1" id="Layer_1" xmlns="http://www.w3.org/2000/svg" xmlns:xlink="http://www.w3.org/1999/xlink" x="0px" y="0px"
	 width="24px" height="24px" viewBox="0 0 24 24" enable-background="new 0 0 24 24" xml:space="preserve">
<path fill="#3A3A3A" d="M13,22.1l-1.6-3.8c1.6-0.6,3-1.4,4.4-2.3L13,22.1z M5.5,12.5l-3.8-1.6l6.1-2.8C6.8,9.4,6.1,10.9,5.5,12.5z
	 M19.1,4c0.3,0,0.5,0,0.7,0.1c0.2,1.4,0,4.3-3.3,7.5c-1.7,1.7-3.7,3-6,3.9l-2.2-2.1c0.9-2.3,2.2-4.3,3.9-6C15,4.5,17.5,4,19.1,4z
	 M19.1,2c-2,0-5,0.7-8.2,3.9c-2.2,2.2-3.5,4.6-4.4,6.7c-0.3,0.8-0.1,1.6,0.5,2.1l2.1,2.1c0.4,0.4,0.9,0.6,1.4,0.6
	c0.2,0,0.5-0.1,0.7-0.1c2.1-0.8,4.5-2.2,6.7-4.3c5.7-5.7,3.5-10.6,3.5-10.6S20.5,2,19.1,2z M14.4,9.4c-0.8-0.8-0.8-2,0-2.8
	s2-0.8,2.8,0c0.8,0.8,0.8,2.1,0,2.8C16.4,10.2,15.2,10.2,14.4,9.4z M8.7,16.5l-1.4-1.4L8.7,16.5z M6.1,22l3.6-3.6
	c-0.3-0.1-0.7-0.2-1-0.5L4.7,22H6.1z M1.8,22h1.4L8,17.2l-1.4-1.4l-4.8,4.8V22z M1.8,19.1L5.9,15c-0.2-0.3-0.4-0.6-0.5-1l-3.6,3.6
	V19.1z"/>
</svg>
