<?xml version="1.0" encoding="utf-8"?>
<!-- Generator: Adobe Illustrator 24.0.1, SVG Export Plug-In . SVG Version: 6.00 Build 0)  -->
<svg version="1.1" id="Layer_1" xmlns="http://www.w3.org/2000/svg" xmlns:xlink="http://www.w3.org/1999/xlink" x="0px" y="0px"
	 width="24px" height="24px" viewBox="0 0 24 24" style="enable-background:new 0 0 24 24;" xml:space="preserve">
<path d="M15,19.9c0,0.3-0.1,0.6-0.3,0.8c-0.4,0.4-1,0.4-1.4,0l-4-4C9.1,16.5,9,16.2,9,15.9v-5.1L4.2,4.6
	C3.9,4.2,3.9,3.6,4.4,3.2C4.6,3.1,4.8,3,5,3h14c0.2,0,0.4,0.1,0.6,0.2c0.4,0.3,0.5,1,0.2,1.4L15,10.8V19.9z M7,5l4,5.1v5.5l2,2v-7.5
	L17,5H7z"/>
</svg>
