<?xml version="1.0" encoding="utf-8"?>
<!-- Generator: Adobe Illustrator 24.0.1, SVG Export Plug-In . SVG Version: 6.00 Build 0)  -->
<svg version="1.1" xmlns="http://www.w3.org/2000/svg" xmlns:xlink="http://www.w3.org/1999/xlink" x="0px" y="0px"
	 width="24px" height="24px" viewBox="0 0 24 24" enable-background="new 0 0 24 24" xml:space="preserve">
<path fill="#007A33" d="M20,15.5c-1.2,0-2.5-0.2-3.6-0.6c-0.1,0-0.2,0-0.3,0c-0.3,0-0.5,0.1-0.7,0.3l-2.2,2.2
	c-2.8-1.5-5.2-3.8-6.6-6.6l2.2-2.2c0.3-0.3,0.4-0.7,0.2-1C8.7,6.5,8.5,5.2,8.5,4c0-0.5-0.5-1-1-1H4C3.5,3,3,3.5,3,4
	c0,9.4,7.6,17,17,17c0.5,0,1-0.5,1-1v-3.5C21,16,20.5,15.5,20,15.5z M5,5h1.5C6.6,5.9,6.8,6.8,7,7.6L5.8,8.8C5.4,7.6,5.1,6.3,5,5z
	 M19,19c-1.3-0.1-2.6-0.4-3.8-0.8l1.2-1.2c0.8,0.2,1.7,0.4,2.6,0.4V19z"/>
</svg>
