<?xml version="1.0" encoding="utf-8"?>
<!-- Generator: Adobe Illustrator 24.0.1, SVG Export Plug-In . SVG Version: 6.00 Build 0)  -->
<svg version="1.1" id="Layer_1" xmlns="http://www.w3.org/2000/svg" xmlns:xlink="http://www.w3.org/1999/xlink" x="0px" y="0px"
	 width="60px" height="60px" viewBox="0 0 60 60" enable-background="new 0 0 60 60" xml:space="preserve">
<g>
	<path fill="#414241" d="M26.1,28.6c-0.1-0.4-0.7-0.3-0.6,0.2c0.6,3-1.5,5.2-3.1,7.4c-0.2-1.9-0.3-3.9-0.7-5.8
		c0-0.2-0.1-0.4-0.1-0.6c0,0,0.1-0.1,0.1-0.1c0.6-1.3,1.8-2,2.6-3.2c0.7-1.1,1-2.2,1.1-3.5c0-0.5-0.6-0.5-0.7,0
		c-0.1,1.6-0.7,2.9-1.7,4c-0.6,0.6-1.2,1.2-1.6,1.9c-0.4-1.6-0.9-3.2-1.5-4.8c0,0,0.1,0,0.1-0.1c1.4-2,2.2-4.2,2.4-6.7
		c0-0.5-0.6-0.5-0.7,0c-0.2,2.2-0.9,4.2-2.1,6c-0.5-1.5-1.1-2.9-1.7-4.3c-0.2-0.6-1-0.1-0.8,0.5c0.8,2,1.6,3.9,2.3,6
		c-0.5,0-1,0-1.5,0c-1.2,0-2.3-0.5-3.3-1.4c-0.3-0.3-0.8,0.2-0.5,0.5c0.7,0.7,1.6,1.2,2.6,1.4c1,0.2,2,0,2.9,0.2
		c0.6,1.8,1,3.5,1.3,5.4c0,0.3,0.1,0.5,0.1,0.8c-0.4-0.3-0.8-0.4-1.3-0.4c-0.8,0-1.5,0.2-2.3-0.1c-0.9-0.3-1.8-1-2.5-1.7
		c-0.3-0.3-0.8,0.2-0.5,0.5c0.8,0.7,1.6,1.4,2.6,1.8c1.1,0.4,3.4-0.3,4.1,0.9c0,0,0,0.1,0.1,0.1c0.2,2.1,0.4,4.3,0.6,6.4
		c-2.6,0.2-4.2-3.1-6.6-4c-0.4-0.1-0.6,0.5-0.2,0.7c2.5,0.9,4,4.2,6.8,4c0.1,0.6,0.2,1.1,0.3,1.7c0.1,0.6,1,0.3,0.8-0.3
		c-0.3-1.5-0.4-3-0.6-4.6C24.1,34.6,26.9,32.2,26.1,28.6z M46.1,22.3c-1.3,1.8-2.8,3-4.6,4.1c-0.7,0.4-1.3,0.8-1.9,1.4
		c0.2-1.1,0.4-2.3,0.6-3.4c0.3-1.3,0.6-2.6,0.9-3.8c1-0.8,2-1.6,2.9-2.4c0.6-0.6,1.1-1.2,1.2-2.1c0.1-0.5-0.6-0.4-0.7,0
		c-0.1,1-1.1,1.6-1.8,2.2c-0.5,0.4-1,0.9-1.6,1.3c0.1-0.7,0.2-1.3,0.2-2c0-1.4-0.1-2.8-0.2-4.2c0.5-1.7,1.7-3,2.2-4.8
		c0.1-0.4-0.5-0.6-0.6-0.2c-0.4,1.3-1.1,2.4-1.7,3.6c-0.4-2.3-0.8-4.7-0.9-7c0-0.6-0.9-0.6-0.9,0c0.2,3.9,1.3,7.8,1.3,11.7
		c0,0.4,0,0.8,0,1.2c-0.8-0.6-1.2-1.9-1.7-2.7c-0.7-1-1.4-1.9-2.2-2.8c-0.3-0.4-0.7,0.2-0.5,0.5c0.9,1.2,2,2.4,2.7,3.7
		c0.5,0.9,0.8,1.7,1.6,2.1c-0.2,1.8-0.7,3.5-1.1,5.2c-0.6-0.6-1.3-1-2-1.6c-1.3-1.1-1.8-2.9-2.3-4.6c-0.1-0.4-0.8-0.2-0.6,0.2
		c0.4,1.4,0.8,2.8,1.7,4c0.8,1.2,2.3,1.7,3.1,2.8c-0.3,1.7-0.6,3.4-0.8,5c-1.4-1.5-3.7-1.9-4.8-3.8c-0.2-0.4-0.8,0-0.6,0.4
		c1.2,2.2,3.9,2.4,5.2,4.4c-0.1,0.5-0.1,0.9-0.2,1.4c-0.1,0.6,0.8,0.8,0.8,0.3c0.1-0.9,0.3-1.9,0.4-2.8c0,0,0.1-0.1,0.1-0.1
		c0.7-1.9,2.9-2.5,4.4-3.6c1.1-0.9,2-1.9,2.8-3.1C46.9,22.3,46.3,21.9,46.1,22.3z M50,21.3c-0.3-2-1.6-3.5-2-5.5
		c-0.4-1.8-0.6-3.6-1-5.4c-0.5-2.5-1.1-6.2-3.2-7.9c-2-1.6-5.5-1.2-7.2,0.6c-1.9,2-1.9,5.7-2.5,8.4c-0.4,1.9-1.1,2.9-2,4.5
		c-1.1,2-0.3,3.6-0.7,5.7c-0.6,3.1-3.3,6.2-0.2,9c1.2,1.1,4.3,0.8,5.1,2.2c0.5,0.8-0.2,2.3-0.5,3.3c-1.1,3.6-2.6,7.7-5,10.5
		c-0.2,0.2-0.2,0.5-0.1,0.7c0.3,0.6,0.7,1.2,1.2,1.7c0.2,0.2,0.6,0.2,0.8,0c3.3-3.5,5.6-9.1,6.4-14c2.9-0.9,7.1,0.6,8.8-3.1
		c0.8-1.7,0.4-3.7,0.8-5.5C49,24.6,50.3,23.2,50,21.3z M47.5,26.9c-0.3,2.7,0.1,5.6-3,6.5c-2,0.6-4,0-5.9,0.7
		c-0.2,0-0.4,0.1-0.4,0.4c-0.7,4.6-2.7,9.9-5.8,13.4c-0.2-0.3-0.4-0.5-0.2-0.9c0.1-0.3,0.5-0.8,0.7-1c0.8-1.2,1.4-2.5,2-3.8
		c1-2.3,1.9-4.7,2.6-7.1c0.4-1.6,0.6-2.5-1-3.4c-1.3-0.7-2.8-0.6-4-1.4c-2.7-1.8-1.2-4.6-0.3-6.9c0.7-1.7,0.3-3.2,0.5-5
		c0.2-1.7,1.6-2.7,2.1-4.3c1-2.7,0.9-5.7,1.8-8.4c0.7-2,2.4-3,4.4-2.9C43,2.8,44,4.2,44.7,6.3c0.9,2.6,1.5,5.4,1.9,8.2
		c0.4,2.3,1,3.8,1.9,5.9C49.4,22.7,47.7,24.6,47.5,26.9z M26.1,46.6c-0.3-1.1-0.9-2.3-1-3.5c-0.1-1.2,0.4-1.5,1.4-2
		c2.2-1.2,2.9-3.3,3.1-5.9c0.2-2.5-0.9-4.7-1.1-7.1c-0.2-2.2-0.7-4.3-1.4-6.4c-1.4-4.1-3.6-7.5-6.3-10.6c-1.7-2-4.3-4.7-6.8-2.5
		c-1.2,1-1.7,2.5-1.9,4c-0.2,1.1-0.2,2.2-0.4,3.3c-0.2,1.2-0.7,2.3-1.1,3.5c-0.6,1.8-0.6,3.4-0.3,5.3c0.5,2.8,0.9,5.1,0.7,8
		c-0.2,4.3,0.1,8.1,3.7,10.6c2.2,1.6,4.8,1.5,7.4,1c1.6,4.6,3.1,9.4,5.2,13.8c0.1,0.2,0.3,0.3,0.5,0.3c1.2,0,2.1-0.5,2.7-1.5
		c0.1-0.2,0.1-0.4,0-0.6C28.4,53.5,27.2,50,26.1,46.6z M28.8,57c-0.4,0.5-1,0.2-1,0.2c-0.3-0.4-0.5-1.2-0.6-1.6
		c-0.7-1.7-1.3-3.4-1.9-5.1c-0.8-2.3-1.7-4.6-2.5-7c-0.1-0.2-0.2-0.3-0.3-0.3c-0.1-0.1-0.2-0.1-0.4-0.1c-3.7,0.7-7.3,0.3-9.4-3.5
		c-1.2-2.3-0.9-5.1-0.7-7.7c0.1-2.4-0.2-4.4-0.6-6.8c-0.6-2.9,0.1-4.7,0.9-7.4c0.7-2.4,0.1-5.8,1.8-7.7c3.6-4.1,9.6,6.7,10.9,9.6
		c1,2.3,1.7,4.7,2.1,7.2c0.2,1.1,0.1,2.3,0.3,3.4c0.3,1.8,1.1,3.1,1,5.1c-0.1,2-0.6,3.8-2.3,4.8c-0.7,0.4-1.5,0.7-1.9,1.5
		C23.3,43,24.5,45.5,25,47c0.5,1.5,1,3,1.6,4.5c0.6,1.5,1.8,3.2,2.2,4.7C29,56.8,29.2,56.5,28.8,57z"/>
</g>
</svg>
