<?xml version="1.0" encoding="utf-8"?>
<!-- Generator: Adobe Illustrator 24.0.1, SVG Export Plug-In . SVG Version: 6.00 Build 0)  -->
<svg version="1.1" id="Layer_1" xmlns="http://www.w3.org/2000/svg" xmlns:xlink="http://www.w3.org/1999/xlink" x="0px" y="0px"
	 width="60px" height="60px" viewBox="0 0 60 60" enable-background="new 0 0 60 60" xml:space="preserve">
<g>
	<path fill="#414241" d="M24.8,32.7c0.3-0.1,0.5-0.3,0.5-0.6c0-0.3-0.2-0.5-0.5-0.5c0,0,0,0-0.1,0c0,0,0,0,0,0c0,0,0,0,0,0
		c0,0-0.1,0-0.1,0c-0.3,0.1-0.5,0.4-0.5,0.7C24.3,32.6,24.6,32.8,24.8,32.7z M25,32.3L25,32.3C24.9,32.3,24.9,32.3,25,32.3
		C24.9,32.3,24.9,32.3,25,32.3z M30.5,33.7c0.3-0.1,0.5-0.3,0.5-0.6c0-0.3-0.2-0.5-0.5-0.5c0,0,0,0-0.1,0c0,0,0,0,0,0c0,0,0,0,0,0
		c0,0-0.1,0-0.1,0c-0.3,0.1-0.5,0.4-0.5,0.7C29.9,33.5,30.2,33.7,30.5,33.7z M30.6,33.2L30.6,33.2C30.6,33.3,30.6,33.3,30.6,33.2
		C30.6,33.3,30.6,33.3,30.6,33.2z M25,29.3c0.3-0.1,0.6-0.4,0.6-0.8c0-0.4-0.3-0.7-0.6-0.7c-0.1,0-0.1,0-0.2,0
		c-0.4,0.2-0.6,0.5-0.5,0.9C24.4,29.1,24.7,29.3,25,29.3z M31.6,30.1c0.3-0.1,0.6-0.4,0.6-0.8c0-0.4-0.3-0.7-0.6-0.7
		c-0.1,0-0.1,0-0.2,0c-0.4,0.2-0.6,0.5-0.5,0.9C31,29.9,31.3,30.2,31.6,30.1z M26.8,39c-0.1-1.5-0.7-2.8-1.9-3.7l-0.1-0.1
		c-1.4-1.1-2.6-2-3.1-4c-0.2-0.7-0.1-2,0-3.2c0.2-1.9,0.3-3.9-0.5-5c-1.2-1.5-3.1-3.1-4.7-2.6c-0.7,0.2-1.5,0.9-1.6,3
		c-0.1,1.9,0.5,4.1,1.3,6.5c0.6,2,1.2,4.2,1.5,6.6c0.1,0.8,0.2,1.7,0.3,2.5c0.3,2.7,0.6,5.5,1.4,8.1c0.6,1.9,2.2,3.1,4.3,3.1
		c0.3,0,0.6,0,1-0.1c2.5-0.4,2.3-5.5,2.1-10C26.9,39.8,26.9,39.4,26.8,39z M24.6,49c-1.9,0.3-3.4-0.5-3.9-2c-0.7-2.5-1-5.3-1.3-7.9
		c-0.1-0.9-0.2-1.7-0.3-2.6c-0.3-2.4-1-4.7-1.6-6.8c-0.7-2.4-1.3-4.4-1.2-6.1c0-0.6,0.2-1.5,0.7-1.7c0.6-0.2,2,0.5,3.3,2.1
		c0.5,0.7,0.3,2.4,0.2,4c-0.1,1.4-0.2,2.7,0,3.7c0.6,2.4,2.1,3.6,3.6,4.7l0.1,0.1c0.8,0.6,1.3,1.6,1.3,2.6c0,0.4,0,0.8,0.1,1.3
		C25.7,43.1,26,48.7,24.6,49z M43.5,20.6L43.5,20.6c-0.6,0-0.6,0.8-0.1,0.8h0.1C44,21.4,44,20.6,43.5,20.6z M27.7,34.4
		c-0.1,0-0.1,0-0.2,0c-0.4,0.2-0.6,0.5-0.5,0.9c0.1,0.4,0.4,0.6,0.7,0.5c0.3-0.1,0.6-0.4,0.6-0.8C28.3,34.7,28,34.4,27.7,34.4z
		 M41.9,18.2c0,0-0.1,0.1-0.1,0.1c-0.4,0.4,0.2,0.9,0.5,0.6c0,0,0.1-0.1,0.1-0.1C42.8,18.4,42.3,17.8,41.9,18.2z M44.4,16.5
		c-1.6-1.4-3.5-2.2-5.5-2.3c-1.8-0.1-4.8,1.6-6.3,0.7c0.7-2.8,2.1-5.2,4.2-7.4c0.2-0.2,0.2-0.6,0.1-0.8c-0.6-1.1-1.3-1.9-2.4-2.6
		c-0.3-0.2-0.5-0.1-0.8,0.1c-2.7,2.3-4.8,6.1-5.7,10.1c-1,0.3-2.1,0.7-2.7,1.5c-1.8-1.7-5.6-1.6-7.5-0.8c-1.6,0.6-2.8,1.6-3.7,2.9
		c-0.1,0.1-0.2,0.2-0.3,0.4c-0.1,0.1-0.1,0.2-0.1,0.3c-1,1.6-1.5,3.6-1.6,5.7c-0.1,6.3,3.5,11.9,4.2,18.1c0.3,2.4,0.3,5.1,1.3,7.4
		c0.9,2.1,1.9,2.5,3.8,2.9c2.4,0.5,4.1,2.5,6.5,3.1c2,0.5,4,0.5,6,0.1c1-0.2,2-0.5,2.9-0.9c0.1,0,0.1,0,0.2,0
		c9.9-3.3,10.6-16.2,11.1-25.4C48.3,24.7,48,19.6,44.4,16.5z M29.1,15.1C29.1,15.1,29.1,15,29.1,15.1c0.3-1.2,0.6-2.3,1-3.3
		c0.5-1.3,3.2-7.5,4.8-5.7c0.9,1-0.3,1.7-0.9,2.6c-0.7,1-1.3,2-1.8,3.1c-1.1,2.4-1.5,4.9-1.4,7.5c-0.1,0-0.1,0-0.2,0.1
		c-0.6,0.2-1.3,0.2-1.9,0.1C28.6,18,28.8,16.5,29.1,15.1z M38.3,52.3c-0.5,0.4-1,0.8-1.6,1.1c-0.1,0-0.1,0-0.2,0.1
		c-0.1,0-0.2,0.1-0.2,0.1c-2.7,1.3-6.2,1.4-8.8,0.6c-1.7-0.5-2.8-1.8-4.3-2.5c-0.5-0.3-1.1-0.3-1.7-0.4c-2.1-0.8-2.8-1.7-3.3-3.9
		c-1-4.2-0.9-8.4-2.3-12.5c-1.6-4.6-4.1-10.2-1.7-15c0.1-0.3,0.3-0.6,0.5-0.9c3.1-3.7,6.9,2.6,9.3,4.4c2.6,1.9,4.9,1.2,7.5-0.3
		c2.1-1.1,4.3-2.3,6.7-1.9c3.2,0.5,4.2,3.8,3.6,6.8c-0.8,3.8-1.4,7.2-1.2,11.1C40.8,43.5,41.9,49.1,38.3,52.3z M46.8,28.9
		c-0.3,6.8-0.7,16.4-5.6,21.6c0.3-0.6,0.5-1.3,0.6-2c0.5-2.6,0.2-5.2,0.1-7.8c-0.3-3.6-0.3-6.9,0.6-10.3c0.8-3.4,1.4-8-2.2-9.9
		c-2.1-1.1-4.9-0.6-7,0.3c-1.2,0.5-2.4,1.3-3.6,1.9c-2.4,1.2-4.3,0.6-6.2-1.3c-1.6-1.6-3.9-4.2-6.3-4.7c0.9-0.5,1.8-0.8,2.8-0.8
		c1-0.1,3.9,0.3,4.6,1.5c0.3,0.5,1,0.4,1.2-0.2c0.2-0.7,1-1.1,1.8-1.3c-0.2,1.1-0.2,2.2-0.2,3.2c-0.4-0.2-0.8-0.5-1.2-0.9
		c-0.6-0.6-1.5,0.4-0.9,1c1.2,1.1,2.7,1.9,4.4,1.8c1.8-0.1,2.8-1,4.2-2c0.7-0.5,0.1-1.6-0.6-1.2c-0.4,0.3-0.8,0.6-1.2,0.9
		c0-0.8,0.1-1.5,0.2-2.3c0.6,0.4,1.1,0.6,1.8,0.4c0.8-0.2,1.5-0.8,2.3-1.1c1.3-0.3,2.7-0.3,3.9,0C46.1,17.4,47,23.5,46.8,28.9z
		 M43.3,19.9c0.4-0.4-0.2-0.9-0.5-0.6c0,0-0.1,0.1-0.1,0.1C42.3,19.8,42.8,20.3,43.3,19.9C43.2,20,43.2,19.9,43.3,19.9z M29.3,30.7
		c0-0.4-0.3-0.7-0.6-0.7c-0.1,0-0.1,0-0.2,0c-0.4,0.2-0.6,0.5-0.5,0.9c0.1,0.4,0.4,0.6,0.7,0.5C29,31.4,29.3,31.1,29.3,30.7z
		 M37.2,22.6c-1.3-0.1-2.5,0.7-3.3,2.2c-0.7,1.3-0.4,3.1-0.2,4.9c0.2,1.5,0.4,3,0,3.9c-0.7,1.6-1.5,2.1-2.2,2.5
		c-1.5,0.8-2.6,2.4-2.6,4.2c-0.2,4-0.1,8.8,2.4,10.7c0.6,0.5,1.4,0.7,2.2,0.7c0.8,0,1.7-0.2,2.7-0.6c3.6-1.6,3.2-5.6,2.8-9.2
		c-0.2-1.5-0.3-2.9-0.2-4.1c0.1-0.9,0.3-2,0.6-3.3c0.6-3.2,1.3-6.7,0.6-9.2C39.5,23.8,38.4,22.8,37.2,22.6z M38,34.2
		c-0.2,1.2-0.5,2.4-0.6,3.4c-0.1,1.3,0,2.8,0.2,4.4c0.4,3.4,0.7,6.6-2,7.8c-1.6,0.7-2.8,0.7-3.7,0.1c-2.2-1.6-1.9-7.3-1.8-9.5
		c0.1-1.3,0.8-2.4,1.9-3c0.8-0.4,1.9-1.2,2.8-3.2c0.6-1.3,0.3-3,0.1-4.7c-0.2-1.5-0.4-3.1,0.1-4c0.5-1,1.2-1.5,1.9-1.5
		c0,0,0.1,0,0.1,0c0.7,0.1,1.4,0.8,1.7,1.8C39.3,27.8,38.6,31.4,38,34.2z M41.2,17.2l-0.3,0.3c-0.4,0.4,0.2,0.9,0.5,0.6l0.3-0.3
		C42.1,17.4,41.6,16.8,41.2,17.2z"/>
</g>
</svg>
