<svg width="60" height="60" viewBox="0 0 60 60" fill="none" xmlns="http://www.w3.org/2000/svg">
<path d="M12.9634 21.6207C12.9634 22.8293 11.9527 23.8364 10.7398 23.8364C10.3355 23.8364 9.98172 24.1889 9.98172 24.5917V35.5191C9.98172 35.922 10.3355 36.2745 10.7398 36.2745C11.9527 36.2745 12.9634 37.2816 12.9634 38.4902C12.9634 38.893 13.3172 39.2455 13.7215 39.2455H47.2785C47.6828 39.2455 48.0366 38.893 48.0366 38.4902C48.0366 37.2816 49.0473 36.2745 50.2602 36.2745C50.6645 36.2745 51.0183 35.922 51.0183 35.5191V24.5917C51.0183 24.1889 50.6645 23.8364 50.2602 23.8364C49.0473 23.8364 48.0366 22.8293 48.0366 21.6207C48.0366 21.2178 47.6828 20.8653 47.2785 20.8653H13.7215C13.3172 20.8653 12.9634 21.2178 12.9634 21.6207ZM46.6215 22.376C46.9247 23.8364 48.0871 24.9946 49.5021 25.2967V34.8645C48.0366 35.1666 46.9247 36.3248 46.6215 37.7348H14.3785C14.0753 36.2745 12.9129 35.1666 11.4473 34.8645V25.2967C12.9129 24.9946 14.0753 23.8364 14.3785 22.376H46.6215ZM30.5 35.5191C33.5323 35.5191 36.0086 33.0516 36.0086 30.0302C36.0086 27.0089 33.5323 24.5414 30.5 24.5414C27.4677 24.5414 24.9914 27.0089 24.9914 30.0302C24.9914 33.0516 27.4677 35.5191 30.5 35.5191ZM30.5 26.0521C32.7237 26.0521 34.4925 27.8146 34.4925 30.0302C34.4925 32.2459 32.7237 34.0084 30.5 34.0084C28.2763 34.0084 26.5075 32.2459 26.5075 30.0302C26.5075 27.8146 28.2763 26.0521 30.5 26.0521ZM53.2419 17.8943H51.0688L48.6935 11.3479C48.5419 10.9451 48.1376 10.7437 47.7333 10.8947L45.7118 11.6501L41.1634 6.26192C40.8602 5.95978 40.4054 5.90943 40.0516 6.16121L26.2548 17.7432C26.2043 17.7936 26.1538 17.8439 26.1032 17.8943H7.75806C7.35376 17.8943 7 18.2468 7 18.6497V41.4612C7 41.8641 7.35376 42.2165 7.75806 42.2165H9.93118L12.3065 48.7629C12.357 48.9643 12.5086 49.1154 12.7108 49.1658C12.8118 49.2161 12.9129 49.2161 13.014 49.2161C13.1151 49.2161 13.1656 49.2161 13.2667 49.1658L15.2882 48.4104L19.786 53.7482C19.9376 53.9496 20.1398 54 20.3419 54C20.4935 54 20.6957 53.9496 20.8473 53.7986L34.9473 42.2165H53.2419C53.6462 42.2165 54 41.8641 54 41.4612V18.6497C54 18.2468 53.6462 17.8943 53.2419 17.8943ZM47.4806 12.5565L49.4516 17.8943H32.7742L47.4806 12.5565ZM40.4559 7.82298L44.1452 12.1536L28.4785 17.8439L40.4559 7.82298ZM13.4688 47.5544L11.5484 42.2165H28.2258L13.4688 47.5544ZM20.5441 52.2879L16.8548 47.9572L32.5215 42.2669L20.5441 52.2879ZM52.4839 40.7059H8.51613V19.405H28.2763C28.3269 19.405 28.3774 19.405 28.428 19.405C28.4785 19.405 28.4785 19.405 28.529 19.405H52.4839V40.7059Z" fill="#007A33" stroke="#007A33" stroke-width="0.2"/>
</svg>
