<?xml version="1.0" encoding="utf-8"?>
<!-- Generator: Adobe Illustrator 24.0.1, SVG Export Plug-In . SVG Version: 6.00 Build 0)  -->
<svg version="1.1" id="Layer_1" xmlns="http://www.w3.org/2000/svg" xmlns:xlink="http://www.w3.org/1999/xlink" x="0px" y="0px"
	 width="65px" height="65px" viewBox="0 0 65 65" style="enable-background:new 0 0 65 65;" xml:space="preserve">
<style type="text/css">
	.st0{fill:#007A33;}
</style>
<g>
	<path class="st0" d="M59.4,38.2l-1.5-8.4c-1-5.4-5.7-9.3-11.3-9.3c-5.5,0-10.3,3.9-11.3,9.3l-1.5,8.4c-0.2,1.1,0.5,2.2,1.7,2.4
		c1.2,0.2,2.3-0.5,2.4-1.7l1.5-8.4c0.2-1,0.5-1.8,1-2.5v6.8l-3.6,13.6c-0.4,1.3,0.6,2.6,1.9,2.6h1.6v10.8c0,1.4,1.2,2.6,2.7,2.6
		s2.7-1.1,2.7-2.6V51h1.5v10.8c0,1.4,1.2,2.6,2.7,2.6s2.7-1.1,2.7-2.6V51h1.6c1.3,0,2.3-1.3,1.9-2.6l-3.6-13.6V28
		c0.5,0.8,0.9,1.6,1,2.6l1.5,8.4c0.2,1,1.1,1.7,2.1,1.7c0.1,0,0.2,0,0.4-0.1C58.8,40.4,59.6,39.3,59.4,38.2z"/>
	<path class="st0" d="M46.6,19c3.2,0,5.8-2.6,5.8-5.8c0-3.2-2.6-5.8-5.8-5.8c-3.2,0-5.8,2.6-5.8,5.8C40.8,16.4,43.4,19,46.6,19z"/>
	<path class="st0" d="M18.7,15.1c-7.2,0-13.1,5.8-13.1,12.9v7.3c0,1.3,1.1,2.4,2.4,2.4c1.3,0,2.4-1.1,2.4-2.4V28
		c0-1.7,0.6-3.4,1.6-4.8v38.2c0,1.6,1.3,3,3,3c1.7,0,3-1.3,3-3V39.4h1.7v22.1c0,1.6,1.3,3,3,3c1.7,0,3-1.3,3-3V23.2
		c1,1.3,1.6,3,1.6,4.8v7.3c0,1.3,1.1,2.4,2.4,2.4c1.3,0,2.4-1.1,2.4-2.4V28C31.9,20.9,26,15.1,18.7,15.1z"/>
	<path class="st0" d="M18.7,13.4c3.6,0,6.6-2.9,6.6-6.5c0-3.6-2.9-6.5-6.6-6.5c-3.6,0-6.6,2.9-6.6,6.5
		C12.2,10.5,15.1,13.4,18.7,13.4z"/>
</g>
</svg>
