<svg width="60" height="60" viewBox="0 0 60 60" fill="none" xmlns="http://www.w3.org/2000/svg">
<path d="M30.3857 37.9344C26.8016 37.9344 23.4339 36.5312 20.9022 33.9888C18.3705 31.4465 16.9731 28.0645 16.9731 24.4653C16.9731 20.8661 18.3705 17.4841 20.9022 14.9417C23.4339 12.3994 26.8016 10.9961 30.3857 10.9961C33.9698 10.9961 37.3375 12.3994 39.8692 14.9417C42.4009 17.4841 43.7983 20.8661 43.7983 24.4653C43.7983 28.0645 42.4009 31.4465 39.8692 33.9888C37.3317 36.537 33.9698 37.9344 30.3857 37.9344ZM30.3857 12.7693C23.9601 12.7693 18.733 18.0184 18.733 24.4711C18.733 30.9239 23.9601 36.173 30.3857 36.173C36.8113 36.173 42.0384 30.9239 42.0384 24.4711C42.0384 18.0184 36.8113 12.7693 30.3857 12.7693Z" fill="#007A33"/>
<path d="M28.3913 29.7549L23.708 25.0518L24.9481 23.8071L28.3913 27.2654L35.8232 19.8086L37.0627 21.0533L28.3913 29.7549Z" fill="#007A33"/>
<path d="M30.3861 45.9557C29.55 45.9557 28.714 45.7502 27.948 45.3392C27.7902 45.257 27.6381 45.1631 27.492 45.0633C27.2172 44.8813 26.9599 44.664 26.726 44.4292L24.4926 42.1863C23.8494 41.5404 22.9899 41.1822 22.0778 41.1822H18.9206C16.0673 41.1822 13.7461 38.8513 13.7461 35.986V32.8154C13.7461 31.9112 13.3836 31.0246 12.7463 30.3905L10.5129 28.1475C8.49571 26.1219 8.49571 22.828 10.5129 20.8023L12.7463 18.5594C13.3836 17.9194 13.7461 17.0328 13.7461 16.1345V12.9639C13.7461 10.0986 16.0673 7.76764 18.9206 7.76764H22.0778C22.9899 7.76764 23.8494 7.40948 24.4926 6.76362L26.726 4.52071C27.7025 3.54018 29.0004 3 30.3861 3C31.7718 3 33.064 3.54018 34.0462 4.52071L36.2797 6.76362C36.9229 7.41535 37.7823 7.76764 38.6944 7.76764H41.8517C44.705 7.76764 47.0261 10.0986 47.0261 12.9639V16.1345C47.0261 17.0505 47.3828 17.9136 48.0259 18.5594L50.2594 20.8023C52.2766 22.828 52.2766 26.1219 50.2594 28.1475L48.0259 30.3905C47.3828 31.0363 47.0261 31.8994 47.0261 32.8154V35.986C47.0261 38.8513 44.705 41.1822 41.8517 41.1822H38.6944C37.7823 41.1822 36.9229 41.5404 36.2797 42.1863L34.0462 44.4292C33.8124 44.664 33.5551 44.8813 33.2803 45.0633C33.14 45.1631 32.9821 45.2512 32.8243 45.3392C32.0583 45.7502 31.2222 45.9557 30.3861 45.9557ZM18.9141 9.52321C17.0315 9.52321 15.4938 11.0615 15.4938 12.958V16.1286C15.4938 17.5143 14.9558 18.8178 13.9794 19.7983L11.746 22.0412C10.4129 23.3799 10.4129 25.5582 11.746 26.8969L13.9794 29.1398C14.9558 30.1204 15.4938 31.4238 15.4938 32.8154V35.986C15.4938 37.8766 17.0256 39.4208 18.9141 39.4208H22.0714C23.4512 39.4208 24.7492 39.961 25.7315 40.9415L27.965 43.1844C28.1228 43.3429 28.2924 43.4838 28.4736 43.6072C28.5672 43.6717 28.6666 43.7305 28.7718 43.7892C29.7833 44.3293 30.9878 44.3293 31.9934 43.7892C32.0987 43.7363 32.1981 43.6717 32.2916 43.613C32.4729 43.4897 32.6483 43.3488 32.8003 43.1903L35.0338 40.9474C36.0102 39.9668 37.3082 39.4267 38.6939 39.4267H41.8511C43.7338 39.4267 45.2715 37.8883 45.2715 35.9918V32.8212C45.2715 31.4356 45.8094 30.1262 46.7858 29.1457L49.0193 26.9028C50.3524 25.5641 50.3524 23.3858 49.0193 22.0471L46.7858 19.8042C45.8094 18.8236 45.2715 17.5202 45.2715 16.1286V12.958C45.2715 11.0674 43.7397 9.52321 41.8511 9.52321H38.6939C37.314 9.52321 36.0102 8.98304 35.0338 8.0025L32.8009 5.7596C31.4678 4.4209 29.2986 4.4209 27.9656 5.7596L25.7321 8.0025C24.7557 8.98304 23.4577 9.52321 22.072 9.52321H18.9141Z" fill="#007A33"/>
<path d="M24.0534 56.9991L20.0191 52.0201L13.6987 52.983L18.9141 39.4258H22.0714C23.4512 39.4258 24.7492 39.966 25.7314 40.9465L27.9649 43.1894C28.1228 43.3479 28.2923 43.4888 28.4736 43.6121L29.0524 44.0055L24.0534 56.9991ZM20.75 50.1236L23.5097 53.5291L26.9359 44.6279C26.8657 44.5633 26.7956 44.4987 26.7313 44.4342L24.4978 42.1912C23.8546 41.5454 22.9951 41.1872 22.083 41.1872H20.1244L16.4292 50.7871L20.75 50.1236Z" fill="#007A33"/>
<path d="M36.7178 57.0011L31.7188 44.0016L32.2976 43.6082C32.4788 43.4849 32.6484 43.344 32.8063 43.1855L35.0397 40.9426C36.0161 39.9621 37.3141 39.4219 38.6998 39.4219H41.8571L47.0724 52.9791L40.752 52.0162L36.7178 57.0011ZM33.8353 44.6299L37.2615 53.5369L40.0212 50.1315L44.342 50.7891L40.6468 41.1892H38.6881C37.776 41.1892 36.9165 41.5474 36.2734 42.1932L34.0399 44.4361C33.9756 44.5007 33.9055 44.5653 33.8353 44.6299Z" fill="#007A33"/>
</svg>
