<?xml version="1.0" encoding="utf-8"?>
<!-- Generator: Adobe Illustrator 24.0.1, SVG Export Plug-In . SVG Version: 6.00 Build 0)  -->
<svg version="1.1" id="Layer_1" xmlns="http://www.w3.org/2000/svg" xmlns:xlink="http://www.w3.org/1999/xlink" x="0px" y="0px"
	 width="60px" height="60px" viewBox="0 0 60 60" style="enable-background:new 0 0 60 60;" xml:space="preserve">
<style type="text/css">
	.st0{fill:#3A3A3A;stroke:#3A3A3A;stroke-width:0.4;}
</style>
<path class="st0" d="M30.8,33.1H16.7c-0.4,0-0.8,0.4-0.8,0.8v12.6c0,0.4,0.4,0.8,0.8,0.8h14.1c0.4,0,0.8-0.4,0.8-0.8V33.9
	C31.5,33.5,31.2,33.1,30.8,33.1z M30,45.7H17.5v-11H30V45.7z"/>
<path class="st0" d="M6.8,49.4c-0.4,0-0.8,0.4-0.8,0.8S6.4,51,6.8,51h5.9h25.2h7h2.9h5.8c0.4,0,0.8-0.4,0.8-0.8s-0.4-0.8-0.8-0.8h-5
	V30.9c0.1,0,0.3,0,0.4,0c3,0,5.4-2.5,5.5-5.7c0,0,0-0.1,0-0.1c0-0.2-0.1-0.3-0.1-0.5l-5.7-12.3V8.8c0-0.4-0.4-0.8-0.8-0.8H12.7
	c-0.4,0-0.8,0.4-0.8,0.8v3.6L6.1,24.8c0,0,0,0,0,0c0,0,0,0,0,0c0,0.1,0,0.2,0,0.2c0,0,0,0,0,0c0,0,0,0,0,0v0c0,3.2,2.5,5.7,5.5,5.7
	c0.1,0,0.3,0,0.4,0v18.6H6.8z M36.3,49.4V35.9h5.5v13.5H36.3z M25.9,13.3l-1,11h-7.6l3.1-11H25.9z M40.2,13.3l3.1,11h-7.6l-1-11
	H40.2z M33.1,13.3l1,11h-7.7l1-11H33.1z M24.7,25.9c-0.3,2-1.9,3.5-3.8,3.5c-1.9,0-3.5-1.5-3.8-3.5H24.7z M34.1,25.9
	c-0.3,2-1.9,3.5-3.8,3.5s-3.5-1.5-3.8-3.5H34.1z M43.5,25.9c-0.3,2-1.9,3.5-3.8,3.5s-3.5-1.5-3.8-3.5H43.5z M49,29.3
	c-0.3,0-0.7,0-1-0.1c-1.4-0.4-2.5-1.6-2.8-3.1c0-0.1,0-0.2-0.1-0.3h7.7C52.5,27.9,50.9,29.3,49,29.3z M44.9,24.3l-3.1-11h5.5l5.1,11
	H44.9z M13.5,9.6h33.6v2.2H13.5V9.6z M13.2,13.3h5.5l-3.1,11H8.1L13.2,13.3z M7.7,25.9h7.7c0,0.1,0,0.2-0.1,0.3
	c-0.3,1.5-1.4,2.7-2.8,3.1c-0.3,0.1-0.6,0.1-0.9,0.1C9.6,29.3,8,27.9,7.7,25.9z M13.5,30.6c1.2-0.5,2.1-1.4,2.7-2.5
	c1,1.7,2.7,2.8,4.7,2.8c2,0,3.7-1.1,4.7-2.8c1,1.7,2.7,2.8,4.7,2.8c2,0,3.7-1.1,4.7-2.8c1,1.7,2.7,2.8,4.7,2.8c2,0,3.7-1.1,4.7-2.8
	c0.6,1.1,1.6,2,2.7,2.5v18.8h-3.7V35.2c0-0.4-0.4-0.8-0.8-0.8h-7c-0.4,0-0.8,0.4-0.8,0.8v14.3H13.5V30.6z"/>
</svg>
