<?xml version="1.0" encoding="utf-8"?>
<!-- Generator: Adobe Illustrator 24.0.1, SVG Export Plug-In . SVG Version: 6.00 Build 0)  -->
<svg version="1.1" id="Layer_1" xmlns="http://www.w3.org/2000/svg" xmlns:xlink="http://www.w3.org/1999/xlink" x="0px" y="0px"
	 width="24px" height="24px" viewBox="0 0 24 24" style="enable-background:new 0 0 24 24;" xml:space="preserve">
<path d="M17,7h5v10h-5v2c0,0.3,0.1,0.5,0.3,0.7c0.2,0.2,0.4,0.3,0.7,0.3h2v2h-2.5C17,22,16,21.6,16,21
	c0,0.6-0.9,1-1.5,1H12v-2h2c0.3,0,0.5-0.1,0.7-0.3c0.2-0.2,0.3-0.4,0.3-0.7V5c0-0.3-0.1-0.5-0.3-0.7S14.3,4,14,4h-2V2h2.5
	C15.1,2,16,2.5,16,3c0-0.5,1-1,1.5-1H20v2h-2c-0.3,0-0.5,0.1-0.7,0.3S17,4.7,17,5V7z M2,7h11v2H4v6h9v2H2V7z M20,15V9h-3v6H20z
	 M8.5,12c0-0.4-0.2-0.8-0.4-1.1c-0.3-0.3-0.7-0.4-1.1-0.4s-0.8,0.2-1.1,0.4c-0.3,0.2-0.4,0.7-0.4,1.1c0,0.4,0.2,0.8,0.4,1.1
	c0.3,0.3,0.7,0.4,1.1,0.4s0.8-0.2,1.1-0.4C8.3,12.8,8.5,12.4,8.5,12z M13,10.9c-0.6-0.6-1.6-0.5-2.1,0.1c-0.6,0.6-0.5,1.5,0.1,2.1
	c0.6,0.5,1.4,0.5,2,0V10.9z"/>
</svg>
