<?xml version="1.0" encoding="utf-8"?>
<!-- Generator: Adobe Illustrator 24.0.1, SVG Export Plug-In . SVG Version: 6.00 Build 0)  -->
<svg version="1.1" id="Layer_1" xmlns="http://www.w3.org/2000/svg" xmlns:xlink="http://www.w3.org/1999/xlink" x="0px" y="0px"
	 width="24px" height="24px" viewBox="0 0 24 24" style="enable-background:new 0 0 24 24;" xml:space="preserve">
<path d="M14,2l6,6v12c0,0.5-0.2,1-0.6,1.4C19,21.8,18.5,22,18,22H6c-0.5,0-1-0.2-1.4-0.6C4.2,21,4,20.5,4,20V4
	c0-0.5,0.2-1,0.6-1.4C5,2.2,5.5,2,6,2H14z M18,20V9h-5V4H6v16H18z M10.9,12.3c-0.2-0.8-0.8-3.2,0.6-3.3s0.5,3.1,0.5,3.1
	c0.4,1.5,2,2.6,2,2.6c0.5-0.2,3.3-0.5,2.9,1c-0.4,1.5-3.5,0.1-3.5,0.1c-1.9,0.1-3.4,0.7-3.4,0.7c-1.1,2.1-2.5,3-3,2.1
	c-0.7-1.1,2.1-2.5,2.1-2.5C10.7,13.7,10.9,12.4,10.9,12.3z M11.6,13.1c-0.4,1.3-1.2,2.7-1.2,2.7c0.9-0.3,2.7-0.7,2.7-0.7
	C11.9,14.1,11.6,13.2,11.6,13.1z M14.7,15.3c0,0,1.7,0.7,1.8,0.4C16.6,15.4,15.2,15.2,14.7,15.3z M9.1,16.8
	c-0.8,0.3-1.5,1.6-1.3,1.6C7.9,18.4,8.6,17.8,9.1,16.8z M11.6,11.3c0-0.1,0.4-1.7,0-1.7C11.3,9.5,11.6,11.2,11.6,11.3z"/>
</svg>
