<?xml version="1.0" encoding="utf-8"?>
<!-- Generator: Adobe Illustrator 24.0.1, SVG Export Plug-In . SVG Version: 6.00 Build 0)  -->
<svg version="1.1" id="Layer_1" xmlns="http://www.w3.org/2000/svg" xmlns:xlink="http://www.w3.org/1999/xlink" x="0px" y="0px"
	 width="60px" height="60px" viewBox="0 0 60 60" enable-background="new 0 0 60 60" xml:space="preserve">
<g>
	<g>
		<defs>
			<rect id="SVGID_1_" x="12.4" y="5" width="35.2" height="50"/>
		</defs>
		<clipPath id="SVGID_2_">
			<use xlink:href="#SVGID_1_"  overflow="visible"/>
		</clipPath>
		<g clip-path="url(#SVGID_2_)">
			<path fill="#414042" d="M36.6,33c-0.5-1.5-1.1-3-1.8-4.5c0,0,0,0,0,0c0,0,0,0,0-0.1c0.1,0,0.2-0.1,0.3-0.2c1.4-1.8-0.1-4.2-2-3.5
				c-0.3-0.6-0.9-1.1-1.7-0.8c-0.8,0.2-1.4,0.9-1.6,1.7c-1,0.1-2,0.4-2.9,0.7c-1.5,0.5-3,1.1-4.3,2c-1.8,1.3-3.5,4.1-1.4,6.1
				c0.9,0.8,2.1,0.6,3.2,0c-0.4,2.2,0,5.3,1.7,6.8c-0.1,0.6,0,1.1,0.1,1.7c0,0.3,0.4,0.4,0.6,0.3c0.4-0.3,1-0.6,1.3-1.1
				c2.1,0.1,4.1-2,4.7-4.1c0.4,0.6,0.8,1.2,1.5,1.5c0.7,0.4,1.8,0.5,2.5-0.1C38.4,37.9,37.2,34.6,36.6,33z M28.4,37.3
				c-1-0.6-1.8-1.4-2.7-2.2c-0.1-0.1-0.1-0.1-0.2-0.1c0-0.5,0.1-1,0.1-1.4c0,0,0,0,0,0c0,0,0.1,0,0.1-0.1c0,0.1,0,0.3,0.1,0.4
				c1.6,1.5,4,2.7,6.2,2.9c-0.1,0.5-0.3,1-0.6,1.6C30.3,38.2,29.3,37.9,28.4,37.3z M26.7,32.7c0.1-0.1,0.2-0.2,0.2-0.2
				c0.3-0.2,0.5-0.5,0.8-0.7c0,0,0,0.1,0.1,0.1c1.1,0.9,2.5,1.4,3.7,2.1c0,0,0.1,0,0.1,0c0.1,0.4,0.1,0.7,0.2,1.1
				C30,34.5,28.4,33.5,26.7,32.7z M25.5,37c0.7,0.8,1.7,1.4,2.5,1.9c0.6,0.3,1.6,0.8,2.5,0.9c-1,1.2-2.5,1.9-3.8,0.5
				C25.9,39.3,25.6,38.2,25.5,37z M30.4,26.7c-0.1,0.1-0.1,0.2-0.2,0.3c-0.1-0.1-0.2-0.2-0.3-0.1c-2.7,0.3-4.8,3.1-6.9,4.6
				c-0.4,0.2,0,0.8,0.3,0.6c1.3-0.7,2.3-1.6,3.5-2.5c0.9-0.7,1.8-1.2,2.8-1.6c-0.8,1.1-1.7,2-2.6,2.9c-0.8,0.8-3.4,3.8-4.8,2.9
				c-0.8-0.5-1-1.9-0.6-2.6c0.6-1.1,1.6-1.8,2.6-2.4C26.2,27.6,28.3,27,30.4,26.7z M32.1,25.1c-0.1,0-0.3,0-0.4,0
				C31.9,25,32,25,32.1,25.1z M34.5,26.3c-0.1-0.2-0.3-0.3-0.4-0.5C34.3,25.9,34.5,26.1,34.5,26.3z M36.3,38.3
				c-0.4,0.8-1.6,0.3-2.1-0.3c-0.8-0.9-1.1-2.2-1.3-3.4c-0.4-2.2-0.2-4.4-0.4-6.6c0.4,1.7,0.6,4,1.6,5.4c0.3,0.4,1,0.2,0.9-0.4
				c-0.2-1-0.6-1.9-0.9-2.8c-0.2-0.9-0.5-1.7-0.9-2.5c-0.2-0.4-0.7-0.2-0.7,0.1c0-0.1,0-0.3,0-0.4c0-0.5-0.8-0.5-0.8,0
				c-0.1,1.4-0.2,2.9-0.1,4.4c-0.3-0.1-0.5-0.2-0.7-0.3c-0.6-0.4-1.2-0.7-1.8-1.1c0.9-1,1.8-2.2,2.5-3.4c0.2-0.3,0-0.6-0.2-0.8
				c0,0,0-0.1,0-0.1c0.6-0.1,1.2-0.1,1.8,0.2c0.1,0.1,0.2,0.1,0.2,0.2C33,26.7,32.9,27,33,27.3c0.9,1.6,1.6,3.4,2.3,5.1
				c0.4,1.1,0.8,2.2,1,3.3C36.4,36.5,36.7,37.6,36.3,38.3z"/>
			<path fill="#414042" d="M47.2,34c-0.4-3.4-0.9-6.1-1.7-8.5c-0.9-2.8-2.2-5.7-3.9-8.9l0-0.1c-0.1-0.6-0.2-1.2-0.1-1.9
				c0,0,0-0.1,0-0.1c0,0,0-0.1,0-0.1c0,0,0,0,0,0c0.1-0.2,0.1-0.3,0.2-0.5c0.1-0.3,0.2-0.5,0.3-0.8c0-0.2,0-0.5-0.1-0.7
				c0-0.1,0-0.3-0.1-0.4c0-0.1-0.1-0.3,0-0.4c0.1-0.4,0.1-1,0-1.5C41.9,10,42,10,42,9.8c0.2-0.2,0.3-0.5,0.2-0.8
				c-0.2-1-1.9-2.1-2.7-2.4c-2.8-1.2-6.2-1.3-9.1-1.5C29.6,5,28.9,5,28.2,5c-2.8,0-5.3,0.3-7.5,1l-0.1,0c-1.6,0.5-4.4,1.3-4.4,3.3
				c-0.5,1-0.5,2.3-0.3,3.2c-0.6,0.7,0,1.6,0.5,2.2c0.8,1,1.1,2.9,0.6,4.1c0,0,0,0.1,0,0.1c-2.8,3.6-3.7,8.3-4.2,12.9
				c-0.3,2.5-0.6,5.4-0.4,8.3c0.1,1.5,0.3,3,0.6,4.3c0.1,0.3,0.1,0.6,0.1,1c0.1,0.9,0.3,1.9,0.6,2.8c0.1,2.3,2.6,3.8,4.7,4.7
				c2.6,1.1,5.7,1.8,9.5,2.1c1.1,0.1,2.3,0.2,3.4,0.2c2.1,0,4.1-0.2,6.1-0.5c2.4-0.4,6.6-1.6,8-4.7c0.2,0,0.4-0.1,0.5-0.3
				C48.2,44.8,47.7,39,47.2,34z M14.5,45.6c-0.1-0.4-0.2-0.8-0.3-1.2c-0.3-1.6-0.5-3-0.6-4.4c-0.2-2.6,0-5.1,0.3-7.7
				c0.4-4.2,1.2-9.1,4-13c0,0,0.1,0,0.1-0.1c0.1-0.1,0.1-0.2,0.2-0.3c0.1-0.1,0.2-0.2,0.3-0.4c0.1-0.2,0.1-0.3,0-0.5
				c0.1-0.9-0.2-1.9-0.4-2.5c1,0.4,2.3,0.6,3.1,0.8c2.3,0.4,4.8,0.5,7.6,0.4c2.4-0.1,4.9-0.3,7.9-0.9c0.3,0,0.6-0.1,0.9-0.1
				c0.8-0.1,1.6-0.2,2.3-0.4l0.1,0c0.1,0,0.2,0,0.2-0.1c0,0.7,0.1,1.5,0.4,2.1c0.1,0.1,0.2,0.2,0.4,0.3c0.3,0.6,0.5,1.2,0.8,1.9
				c0.8,1.9,1.6,3.8,2.2,5.7c0.8,2.5,1.4,5.2,1.8,8.6c0.6,5,1,10.2-0.9,14.6c-0.2,0-0.4,0.1-0.5,0.3c-1.5,3.1-4.8,4.1-7.6,4.6
				c-1.7,0.3-3.4,0.4-5.4,0.4c-1,0-2.1,0-3.2-0.1c-3-0.2-5.8-0.7-8.4-1.6c-2.9-0.9-4.5-2.1-5-3.6v0C15,47.5,14.7,46.5,14.5,45.6z
				 M16.8,13.2c0.3,0.2,0.7,0.3,1.1,0.5c1.2,0.4,2.4,0.7,3.6,0.9c1.9,0.2,4,0.3,6.2,0.3c0.9,0,1.8,0,2.7-0.1
				c1.9-0.1,3.8-0.4,5.6-0.6c0.5-0.1,1.1-0.2,1.6-0.2c0.2,0,0.4-0.1,0.7-0.1c0.8-0.1,1.6-0.2,2.3-0.4c0,0,0,0,0,0.1
				c-0.1,0.2-0.2,0.4-0.2,0.6c-0.2,0-0.5,0.1-0.6,0.2c-0.1,0-0.1,0-0.2,0.1c-0.5,0.1-0.9,0.2-1.4,0.3l-0.1,0
				c-0.4,0.1-0.8,0.1-1.2,0.2c-0.5,0.1-1,0.2-1.5,0.2c-2.4,0.4-5,0.6-7.1,0.7c-0.8,0-1.4,0-2.1,0c-3.8,0-6.7-0.5-8.9-1.6
				c-0.1-0.1-0.1-0.2-0.2-0.2c-0.1-0.1-0.2-0.2-0.3-0.3C16.7,13.4,16.7,13.3,16.8,13.2z M41,9.2c-0.1,0-0.1,0.1-0.2,0.1
				c-1.4,0.6-3,0.8-4.5,1c-0.4,0-0.7,0.1-1.1,0.1c-2.5,0.3-5.1,0.5-7.6,0.5c-2,0-4-0.2-6.1-0.5c-0.2,0-0.3,0-0.5-0.1
				c-1.3-0.2-3-0.4-3.9-1.3c0.5-1.2,2.4-1.7,3.7-2.1c0.1,0,0.3-0.1,0.4-0.1c2-0.6,4.2-0.8,7-0.8c0.2,0,0.4,0,0.7,0
				c2.5,0,4.9,0.3,7.2,0.7c1.3,0.2,2.4,0.6,3.5,1C39.8,7.9,41,8.8,41,9.2C41,9.2,41,9.2,41,9.2z M35.1,11.6c0.4,0,0.8-0.1,1.1-0.1
				c1.6-0.2,3.2-0.4,4.6-0.9c0,0.1,0,0.2,0,0.3c0,0.1,0,0.3,0,0.4c0,0.1,0,0.2-0.1,0.3c-0.1,0.2-0.1,0.4-0.1,0.6
				c-0.3,0.2-0.8,0.3-1.2,0.4c-0.1,0-0.2,0-0.3,0c-0.5,0.1-1.1,0.2-1.6,0.2c-0.1,0-0.3,0-0.4,0.1c-0.6,0.1-1.1,0.2-1.7,0.3
				c-1.5,0.2-3.1,0.5-4.6,0.6C30,13.7,29,13.7,28,13.7c-1.5,0-3-0.1-4.2-0.1c-1.3-0.1-2.5-0.2-3.7-0.4c-0.6-0.1-1.2-0.3-1.8-0.5
				c-0.1,0-0.2-0.1-0.4-0.1c-0.4-0.1-0.7-0.2-0.9-0.5c0-0.1-0.1-0.1-0.1-0.1c0-0.1,0-0.1,0-0.2c0-0.3-0.1-0.6-0.1-0.8
				c0-0.3,0-0.5,0.1-0.8c0.9,0.8,2.4,1.1,3.6,1.3l0.1,0c1.9,0.4,4,0.6,6.4,0.6C29.4,12.2,32.1,12,35.1,11.6z"/>
			<path fill="#414042" d="M17.5,48.4c0.1,0.2,0.3,0.2,0.5,0.2c0.2,0,0.4-0.1,0.5-0.3c0-0.1,0.1-0.2,0-0.4l0,0
				c-0.8-1.8-1.5-3.5-1.9-5.4c-0.4-1.9-0.6-4.1-0.6-6.5c0.1-4.5,1-8.7,2.6-12.3c0-0.1,0-0.2,0-0.3c-0.1-0.1-0.2-0.1-0.3-0.1
				c-0.1,0-0.2,0.1-0.2,0.1c-2,3.1-3,7.1-3.2,12.3c-0.1,2.3,0.1,4.6,0.5,6.9C15.7,44.1,16.3,46.6,17.5,48.4z"/>
			<path fill="#414042" d="M23.6,51c0.9,0.5,2.1,0.7,3.5,0.7c0.8,0,1.6-0.1,2.4-0.1c0.5,0,1-0.1,1.5-0.1c0.6,0,1.1,0,1.7-0.1
				c1.5,0,3-0.1,4.4-0.3c3.6-0.5,6.1-2.7,7.1-6.1c0.8-2.8,0.9-5.9,0.3-9.9c-0.2-1.4-0.5-2.8-0.9-4.2c-0.2-0.6-0.3-1.1-0.5-1.7
				c-0.5-1.8-0.9-3.7-1.9-5.2c-0.1-0.1-0.2-0.2-0.3-0.2c-0.1,0-0.3,0.1-0.3,0.2c-0.1,0.1-0.1,0.2,0,0.3c0.3,0.9,0.6,1.8,0.9,2.6
				c0.4,1.2,0.8,2.4,1.1,3.7c0.1,0.3,0.1,0.6,0.2,0.8c0.2,1,0.5,2,0.6,3c0.6,3.6,0.6,6.7,0,9.3c-0.2,1-0.8,2.5-1.9,3.8
				c-1,1.1-2.4,1.8-4.4,2.2c-1.5,0.3-3,0.3-4.5,0.4c-0.4,0-0.9,0-1.3,0.1c-0.7,0-1.3,0.1-2,0.1c-0.6,0.1-1.2,0.1-1.8,0.1
				c-0.3,0-0.5,0-0.8,0c-0.7,0-1.3,0-2-0.1c-0.3,0-0.7,0-1-0.1c-0.1,0-0.2,0.1-0.3,0.2C23.4,50.9,23.5,51,23.6,51z"/>
			<path fill="#414042" d="M36.6,7c-0.1,0-0.1,0-0.2,0C36.2,7,36,7.2,36,7.4c0,0.2,0,0.3,0.2,0.4c0.2,0.1,0.4,0.2,0.7,0.3
				c0.3,0.1,0.6,0.2,0.8,0.4c0,0,0,0,0,0.1c0,0.2-0.7,0.4-1.1,0.6c-1.5,0.5-3.2,0.5-4.7,0.6c-1.1,0-2.2,0.1-3.2,0.1
				c-0.4,0-0.7,0-1.1,0c-0.7,0-1.5,0-2.1,0c-0.2,0-0.4,0-0.6,0c-0.3,0-0.5,0-0.8,0c-0.2,0-0.4,0-0.6,0.1c-0.1,0-0.1,0.1-0.1,0.1
				c0,0.1,0,0.1,0.1,0.2c0.6,0.4,1.4,0.5,2.1,0.5c0.1,0,0.2,0,0.3,0c0.6,0,1.1,0.1,1.9,0.1c0.3,0,0.6,0,1,0l1,0c1.9,0,3.9,0,5.8-0.3
				l0,0c1-0.2,2.9-0.4,3.2-1.6c0.1-0.3,0-0.5-0.2-0.8C38.2,7.3,37.3,7,36.6,7z"/>
		</g>
	</g>
</g>
</svg>
