<?xml version="1.0" encoding="utf-8"?>
<!-- Generator: Adobe Illustrator 24.0.1, SVG Export Plug-In . SVG Version: 6.00 Build 0)  -->
<svg version="1.1" id="Layer_1" xmlns="http://www.w3.org/2000/svg" xmlns:xlink="http://www.w3.org/1999/xlink" x="0px" y="0px"
	 width="60px" height="60px" viewBox="0 0 60 60" style="enable-background:new 0 0 60 60;" xml:space="preserve">
<path d="M55,34.5c0-0.1,0-0.2,0.1-0.2l1.4-1.2l-2.1-3.8l-2.4-1.5c-0.1-0.1-0.1-0.2-0.1-0.3l1-3.7c0-0.1,0.1-0.1,0.1-0.2
	l3.9-2.2l-0.5-1.4l-2.2-1.3c0,0-0.1-0.1-0.1-0.1l-1.5-2.4l-2.1,1c-0.1,0-0.2,0-0.2,0l-2.5-1.2c-0.1,0-0.1-0.1-0.1-0.2V14l-2-0.7
	c0,0-0.1,0-0.1-0.1l-2.4-2.8l-3.5,1c-0.1,0-0.1,0-0.2,0l-2.5-0.8l-1.6,1.2c-0.1,0-0.1,0.1-0.2,0.1c-0.1,0-0.1-0.1-0.2-0.1l-1-1.8
	c0-0.1,0-0.2,0-0.3l0.9-1.4l-3.1-3.2l-3,0.7c-0.1,0-0.2,0-0.2,0l-1.9-1.3l-3.7,2.2c-0.1,0-0.2,0.1-0.2,0l-2.5-1.1l-8.9,1.3v0.9
	l1.2,1c0.1,0.1,0.1,0.1,0.1,0.2l-0.2,5.9l1.4,1.4c0.1,0.1,0.1,0.2,0.1,0.3l-0.5,1.9l2.7,4.5c0.1,0.1,0.1,0.2,0,0.3
	c-0.1,0.1-0.2,0.1-0.2,0.1l-8-0.7l-6,2.7l0.7,3.5l0.6,0.9l1.9-1c0.1,0,0.1,0,0.2,0l2.1,0.7c0.1,0,0.2,0.1,0.2,0.3v3.6l2,1.1
	c0.1,0,0.1,0.1,0.1,0.2l0.6,3.3l1.4-0.5c0.1,0,0.2,0,0.3,0.1l2.7,3.1c0.1,0.1,0.1,0.2,0,0.3l-1.5,3.1c0,0.1-0.1,0.1-0.1,0.1
	l-2.8,1.3v0.4l2.6-0.9c0.1,0,0.2,0,0.3,0.1l0.7,0.8c0.1,0.1,0.1,0.2,0,0.3l-0.6,1.7l5.3,2.3c0.1,0,0.1,0.1,0.2,0.2l0.5,2.4l1.8,1.2
	l0.2-0.3l1,0.3l0.4-3l1.4,3.1h1.3l-0.3,1.6l1.5-3l-2.1-1.8V46l2.3,4.5l2.5,0.4l2.2-2.9l2.3-1.4l1.4-1.7l5.8-0.5l1.6,0.8l2.7-4
	l4.9-0.8l1.9,2l0.5-1.4l0.2-2l1.7-1.6l0.8-0.4L55,34.5z"/>
</svg>
