<?xml version="1.0" encoding="utf-8"?>
<!-- Generator: Adobe Illustrator 24.0.1, SVG Export Plug-In . SVG Version: 6.00 Build 0)  -->
<svg version="1.1" id="Layer_1" xmlns="http://www.w3.org/2000/svg" xmlns:xlink="http://www.w3.org/1999/xlink" x="0px" y="0px"
	 width="24px" height="24px" viewBox="0 0 24 24" style="enable-background:new 0 0 24 24;" xml:space="preserve">
<style type="text/css">
	.st0{fill:#3A3A3A;}
</style>
<path class="st0" d="M12,4c2.2,0,4,1.8,4,4s-1.8,4-4,4s-4-1.8-4-4S9.8,4,12,4z M12,6c-1.1,0-2,0.9-2,2s0.9,2,2,2s2-0.9,2-2
	S13.1,6,12,6z M12,13c2.7,0,8,1.3,8,4v3H4v-3C4,14.3,9.3,13,12,13z M12,14.9c-3,0-6.1,1.5-6.1,2.1v1.1h12.2V17
	C18.1,16.4,15,14.9,12,14.9z"/>
</svg>
