<svg id="Layer_1" width="24" height="24" viewBox="0 0 24 24" fill="none" xmlns="http://www.w3.org/2000/svg">
<path d="M21.5545 8.526L18.3636 6.627V3.9C18.3636 3.405 17.9545 3 17.4545 3H6.54545C6.04545 3 5.63636 3.405 5.63636 3.9V6.627L2.44545 8.526C2.16364 8.688 2 8.985 2 9.3V18.3C2 19.785 3.22727 21 4.72727 21H19.2727C20.7727 21 22 19.785 22 18.3V9.3C22 8.985 21.8364 8.688 21.5545 8.526ZM15.3091 13.782L20.1818 10.893V17.4L15.3091 13.782ZM19.3273 9.3L18.3636 9.867V8.733L19.3273 9.3ZM16.5455 4.8V10.947L12 13.647L7.45455 10.947V4.8H16.5455ZM3.81818 17.409V10.893L8.72727 13.809L3.81818 17.409ZM5.63636 9.867L4.67273 9.3L5.63636 8.733V9.867ZM4.72727 19.2C4.64545 19.2 4.57273 19.173 4.5 19.155L10.4182 14.808L11.5364 15.474C11.6727 15.555 11.8364 15.6 12 15.6C12.1636 15.6 12.3273 15.555 12.4636 15.474L13.6273 14.781L19.5091 19.146C19.4364 19.173 19.3545 19.2 19.2727 19.2H4.72727Z"/>
</svg>
