<svg id="Layer_1" width="16" height="16" viewBox="0 0 16 16" fill="none" xmlns="http://www.w3.org/2000/svg">
<path fill-rule="evenodd" clip-rule="evenodd" d="M4.83099 9.94811L4.10677 12.5999L7.55103 11.1574L7.90449 11.193C8.09942 11.2126 8.29811 11.2228 8.5 11.2228C11.4682 11.2228 13.6 9.10443 13.6 6.81139C13.6 4.51835 11.4682 2.4 8.5 2.4C5.5318 2.4 3.4 4.51835 3.4 6.81139C3.4 7.75916 3.7463 8.64898 4.36255 9.38706L4.83099 9.94811ZM2 15L3.28789 10.2843C2.47894 9.31546 2 8.11343 2 6.81139C2 3.60185 4.91015 1 8.5 1C12.0899 1 15 3.60185 15 6.81139C15 10.0209 12.0899 12.6228 8.5 12.6228C8.25121 12.6228 8.00569 12.6103 7.76417 12.586L2 15Z" fill="#737373"/>
</svg>
