<?xml version="1.0" encoding="utf-8"?>
<!-- Generator: Adobe Illustrator 24.0.1, SVG Export Plug-In . SVG Version: 6.00 Build 0)  -->
<svg version="1.1" id="Layer_1" xmlns="http://www.w3.org/2000/svg" xmlns:xlink="http://www.w3.org/1999/xlink" x="0px" y="0px"
	 width="60px" height="60px" viewBox="0 0 60 60" enable-background="new 0 0 60 60" xml:space="preserve">
<g>
	<defs>
		<rect id="SVGID_1_" x="5" y="4" width="51" height="51"/>
	</defs>
	<clipPath id="SVGID_2_">
		<use xlink:href="#SVGID_1_"  overflow="visible"/>
	</clipPath>
	<g clip-path="url(#SVGID_2_)">
		<path fill="#007A33" d="M53.9,4H7.1C5.9,4,5,4.9,5,6.2v21.4c0,1.1,0.9,2.2,2.1,2.2h46.8c1.1,0,2.1-0.9,2.1-2.2V6.2
			C56,4.9,55.1,4,53.9,4z M10.7,19.2c-1.2,0-2.3-1.1-2.3-2.3c0-1.3,1-2.3,2.3-2.3c1.2,0,2.3,1.1,2.3,2.3C13,18.2,12,19.2,10.7,19.2z
			 M30.5,26c-4.4,0-7.9-4.1-7.9-9.2s3.5-9.1,7.9-9.1s7.9,4.1,7.9,9.2S34.9,26,30.5,26z M50.3,19.2c-1.2,0-2.3-1.1-2.3-2.3
			c0-1.3,1-2.3,2.3-2.3c1.2,0,2.3,1.1,2.3,2.3C52.6,18.2,51.5,19.2,50.3,19.2z"/>
		<path fill="#007A33" d="M53.9,34.5H7.1c-0.6,0-1.1-0.1-1.6-0.4C5.3,34,5,34.2,5,34.5v1.6c0,1.4,0.9,2.4,2.1,2.4h46.8
			c1.1,0,2.1-1.1,2.1-2.4v-1.6c0-0.3-0.2-0.5-0.5-0.4C55.1,34.4,54.5,34.5,53.9,34.5z"/>
		<path fill="#007A33" d="M53.9,42.8H7.1c-0.6,0-1.1-0.1-1.6-0.4C5.3,42.3,5,42.5,5,42.8v1.6c0,1.4,0.9,2.4,2.1,2.4h46.8
			c1.1,0,2.1-1.1,2.1-2.4v-1.6c0-0.3-0.2-0.5-0.5-0.4C55.1,42.6,54.5,42.8,53.9,42.8z"/>
		<path fill="#007A33" d="M53.9,51H7.1c-0.6,0-1.1-0.1-1.6-0.4C5.3,50.5,5,50.7,5,51v1.6C5,53.9,5.9,55,7.1,55h46.8
			c1.1,0,2.1-1.1,2.1-2.4V51c0-0.3-0.2-0.5-0.5-0.4C55.1,50.8,54.5,51,53.9,51z"/>
	</g>
</g>
</svg>
