<?xml version="1.0" encoding="utf-8"?>
<!-- Generator: Adobe Illustrator 24.0.1, SVG Export Plug-In . SVG Version: 6.00 Build 0)  -->
<svg version="1.1" id="Layer_1" xmlns="http://www.w3.org/2000/svg" xmlns:xlink="http://www.w3.org/1999/xlink" x="0px" y="0px"
	 width="60px" height="60px" viewBox="0 0 60 60" enable-background="new 0 0 60 60" xml:space="preserve">
<path fill="#007A33" d="M49.2,3.5c0.1-0.2,0-0.4-0.3-0.4C46.1,2.9,30.3,2,32.3,13.6C41.7,20.4,48.1,6.1,49.2,3.5z"/>
<path fill="#007A33" d="M24.9,14.1c2.3,1.7,3.6,3.9,4.3,6.1c0.9,0.2,1.9,0.2,2.8-0.2c-0.5-3.2-1.6-5.8-4.3-8.1
	c-0.4-0.4-0.8-0.4-1.3-0.1l-1.4,0.9C24.2,13.2,24.2,13.6,24.9,14.1z"/>
<path fill="#007A33" d="M32.2,21.6c-1,0.6-2.4,0.6-3.4,0c-11.4-7-23.7,2.5-18.6,17.2c2.8,8.1,9,21.3,19.6,16c0.4-0.2,1-0.2,1.4,0
	c10.6,5.3,16.8-7.9,19.6-16C55.9,24.2,43.6,14.6,32.2,21.6z"/>
</svg>
