<svg id="Layer_1" width="24" height="24" viewBox="0 0 24 24" xmlns="http://www.w3.org/2000/svg">
    <path d="M17 17H8V10.5C8 8 10 6 12.5 6C15 6 17 8 17 10.5V17ZM19 16V10.5C19 7.43 16.86 4.86 14 4.18V3.5C14 3.10218 13.842 2.72064 13.5607 2.43934C13.2794 2.15804 12.8978 2 12.5 2C12.1022 2 11.7206 2.15804 11.4393 2.43934C11.158 2.72064 11 3.10218 11 3.5V4.18C8.13 4.86 6 7.43 6 10.5V16L4 18V19H21V18L19 16ZM12.5 22C13.0304 22 13.5391 21.7893 13.9142 21.4142C14.2893 21.0391 14.5 20.5304 14.5 20H10.5C10.5 20.5304 10.7107 21.0391 11.0858 21.4142C11.4609 21.7893 11.9696 22 12.5 22Z"/>
    <path d="M19.75 3L18.33 4.42C20.04 6.11 21 8.41 21 10.81H23C23 7.88 21.84 5.06 19.75 3ZM2 10.81H4C4 8.41 4.96 6.11 6.67 4.42L5.25 3C3.16 5.06 2 7.88 2 10.81Z"/>
</svg>
