<?xml version="1.0" encoding="utf-8"?>
<!-- Generator: Adobe Illustrator 24.0.1, SVG Export Plug-In . SVG Version: 6.00 Build 0)  -->
<svg version="1.1" id="Layer_1" xmlns="http://www.w3.org/2000/svg" xmlns:xlink="http://www.w3.org/1999/xlink" x="0px" y="0px"
	 width="60px" height="60px" viewBox="0 0 60 60" enable-background="new 0 0 60 60" xml:space="preserve">
<g>
	<path fill="#414241" d="M25.6,42.8c-0.2,0.1-0.4,0.3-0.5,0.4c-0.1,0.1-0.1,0.3,0,0.4c0.1,0.1,0.3,0.1,0.4,0
		c0.2-0.2,0.4-0.3,0.5-0.4c0.1-0.1,0.1-0.3,0-0.4C25.9,42.7,25.7,42.7,25.6,42.8z M23.8,44.4L23.8,44.4c-0.4,0.3,0.1,0.8,0.3,0.5
		l0.1-0.1C24.5,44.5,24.1,44.1,23.8,44.4z M46.1,37.5C46.1,37.5,46.1,37.5,46.1,37.5c0.1-0.2,0.1-0.3,0.1-0.5
		c-0.5-1.8-1.6-3.3-3-4.3c-0.9-0.6-1.9-1-3-1.2c2.3-2.5,4.8-4.8,7.4-6.9c0.2-0.1,0.2-0.4,0.2-0.6c-0.1-0.2-0.3-0.3-0.5-0.3
		c-1.5,0.3-2.8,0.7-4.2,1.3c0,0,0,0,0-0.1c0-0.1,0-0.2,0-0.3c0.8-0.1,1.6-0.9,1.6-1.8c0-0.1,0-0.2,0-0.3c0.7-0.2,1.3-0.9,1.3-1.6
		c0.7-0.1,1.4-0.8,1.4-1.6c0.7-0.2,1.4-0.9,1.3-1.7c0.6-0.1,1.2-0.7,1.2-1.4c0-0.1,0-0.3,0-0.4c0.5-0.2,0.9-0.8,0.9-1.4
		c0-0.2-0.1-0.3-0.1-0.4c0.4-0.2,0.8-0.7,0.8-1.2c0-0.1,0-0.2,0-0.3c0.5-0.2,0.9-0.7,1-1.2c0.1-0.5-0.2-0.9-0.6-1.2
		c0.3-0.2,0.5-0.5,0.7-0.8c0.3-0.7-0.3-1.2-0.8-1.6c-0.3-0.3-0.6-0.6-1-0.6c-0.1-0.2-0.2-0.4-0.4-0.6c-0.3-0.4-0.7-0.9-1.2-1
		c-0.6-0.2-1.1,0.2-1.3,0.8c0,0-0.1,0-0.1,0c-0.6-0.1-1.1,0.4-1.4,0.9c-0.6-0.2-1.3,0.2-1.6,0.9C44,7.8,43.3,8.2,43,8.9
		c-0.8-0.2-1.6,0.5-1.7,1.2c-0.8,0-1.5,0.6-1.6,1.4c-0.8-0.1-1.4,0.6-1.6,1.4c-0.7,0-1.3,0.6-1.5,1.4c-0.1,0-0.1,0-0.2,0
		c-0.9,0-1.7,0.8-1.8,1.7c-0.1,0-0.1,0-0.2,0c-0.9,0-1.8,0.9-1.9,1.8c-0.1,0-0.2,0-0.3,0c-0.6,0-1.2,0.5-1.5,1
		c0.9-3,1.2-6.2,0.8-9.2c0-0.2-0.2-0.4-0.5-0.4c-0.2,0-0.4,0.2-0.5,0.4c-0.7,3.5-2,7.1-3.8,10.5c-0.5-1.9-1.4-4-4.9-4.9c0,0,0,0,0,0
		c0,0-0.1,0-0.1,0c0,0-0.1,0-0.1,0c0,0-0.1,0-0.1,0c0,0-0.1,0-0.1,0c0,0,0,0-0.1,0.1c0,0-0.1,0-0.1,0.1c0,0,0,0.1,0,0.1
		c0,0,0,0,0,0.1c0,0,0,0,0,0c0,0,0,0,0,0c0,0,0,0.1,0,0.1c0,0,0,0.1,0,0.1c0,0,0,0.1,0,0.1c0,0,0,0.1,0,0.1c0,0,0,0,0.1,0.1
		c0,0,0,0.1,0.1,0.1c0,0,0.1,0,0.1,0.1c0,0,0,0,0.1,0c0,0,0,0,0,0c1.9,0.5,2.3,2.9,2.4,4.8c-1.8,4.3-4.6,7.7-8.3,10.4
		c-4.7,3.3-7.2,7-7.4,11c-0.1,2.1,0.3,4.1,1.2,5.7c-0.6,0.9-1.8,1-2,2.4c-0.1,1.1,0.4,2.1,1.1,2.8c0.5,0.6,1.5,1.5,2.4,1.3
		c0.4-0.1,0.6-0.4,0.8-0.7c0.5-0.8,1-1.4,1.8-2c4.9,2,9.5-0.3,13.1-4.1c2.3-2.5,4.4-5.2,6.9-7.5c2.5-2.3,9.1-7.4,11.7-2.7
		c0,0,0,0,0,0.1c0,0,0,0,0,0c0,0,0.1,0.1,0.1,0.1c0,0,0,0,0,0c0,0,0.1,0,0.1,0c0.1,0,0.2,0,0.2,0C45.9,37.7,46,37.6,46.1,37.5
		C46.1,37.5,46.1,37.5,46.1,37.5z M38.5,30c-0.3,0.4-0.7,0.8-1.2,0.7c-0.2-0.3-0.5-0.6-0.7-0.9c-0.4-0.4-0.8-0.9-1.2-1.3
		c0.6-0.4,1.2-1,1.4-1.7c0.6,0.5,1.2,1.1,1.7,1.7C38.8,29.1,38.8,29.6,38.5,30z M28.3,36.5c0.3,0.2,0.6,0.5,0.9,0.8
		c-0.5,0.2-0.9,0.4-1.4,0.6c-0.7,0.3-1.3,0.7-1.9,1.1c0-0.1,0.1-0.2,0.1-0.3C26.9,38.6,28,37.6,28.3,36.5z M28.6,35.7
		c0.8-0.3,1.5-0.8,1.8-1.6c0.8,0.5,1.6,1.5,2.2,2.3c-0.8,0.2-1.6,0.4-2.4,0.6C29.6,36.6,29.1,36.1,28.6,35.7z M30.8,33.5
		c0.8-0.4,1.6-1.1,1.8-2c0.6,0.5,1.3,1.1,1.7,1.7c0.9,1.1,0.1,2.4-1,2.9c0,0,0,0,0,0C32.7,35.2,31.8,34.1,30.8,33.5z M35.2,33
		c-0.2-0.3-0.5-0.6-0.8-0.9c-0.4-0.4-0.9-0.9-1.4-1.3c0.8-0.3,1.5-0.9,1.7-1.7c0.7,0.5,1.3,1.3,1.7,1.9c0.4,0.5,0.4,1.1,0,1.7
		C36.1,33,35.7,33.3,35.2,33z M23.5,40.5c-0.2-0.6-0.7-1.1-1.2-1.6c-0.5-0.5-1.1-1.1-1.8-1.5c-0.6-1.2,0.9-2.1,1.8-1.9
		c0.1,0.1,0.2,0.1,0.3,0.1c0.5,0.3,1.1,1,1.5,1.4c0.5,0.5,1.2,1,1.1,1.8C25.1,39.5,24.2,40.3,23.5,40.5z M22.8,41.2
		c-0.9,0.6-2.2,1.6-3.6,2.2c-0.3-1.9,0.1-3.7,0.6-5.4C20.9,38.3,22.8,40.2,22.8,41.2z M36.9,22.8c0.4,0.4,1.1,0.9,1,1.5
		c-0.1,0.6-0.8,1.1-1.3,1.2c-0.4-0.7-1.1-1.3-1.6-1.7c-0.2-0.2-0.4-0.4-0.6-0.5c-0.3-0.5,0-1.3,0.6-1.5
		C35.7,21.5,36.4,22.4,36.9,22.8z M36.9,19.9c0.7-0.3,1.3,0.4,1.7,0.9c0.3,0.3,1,0.9,1.1,1.3c0,0,0,0.1,0,0.1c0,0.5-0.6,1.1-1.1,1.4
		c-0.3-0.8-1.2-1.5-1.8-2c-0.2-0.2-0.4-0.3-0.6-0.5C36.1,20.7,36.5,20.1,36.9,19.9z M34.8,24.8c0.3,0.4,1.1,1,1.2,1.6
		c0.1,0.6-0.8,1.5-1.4,1.7c-0.4-0.9-1.4-1.7-2-2.2c-0.2-0.2-0.5-0.4-0.7-0.5c-0.1-0.6,0.3-1.3,0.9-1.5
		C33.7,23.4,34.3,24.3,34.8,24.8z M32.9,27.1c0.4,0.4,1.2,1,1.1,1.7c-0.1,0.7-0.9,1.2-1.5,1.4c-0.4-0.8-1.2-1.5-1.7-1.9
		c-0.2-0.2-0.5-0.4-0.7-0.6c-0.3-0.6,0-1.5,0.7-1.7C31.5,25.5,32.3,26.5,32.9,27.1z M28.5,28.1c0.4-0.2,0.7-0.1,1,0.1c0,0,0,0,0,0
		c0.4,0.2,0.8,0.7,1.1,1c0.4,0.4,1.2,1.1,1.3,1.7c0.1,0.7-0.8,1.6-1.5,1.9c-0.4-1-1.5-1.9-2.1-2.4c-0.2-0.2-0.5-0.4-0.7-0.6
		C27.4,29.1,27.8,28.4,28.5,28.1z M28.5,31.7c0.5,0.5,1.3,1.1,1.2,1.9c-0.1,0.7-0.9,1.3-1.6,1.5c-0.5-1-1.7-1.9-2.3-2.4
		c-0.1-0.1-0.3-0.2-0.4-0.3c-0.4-0.7,0-1.6,0.7-1.9C27,30,27.9,31.1,28.5,31.7z M24,32.8c0.3-0.1,0.5,0,0.8,0.1c0,0,0.1,0,0.1,0.1
		c0.5,0.3,1,0.9,1.4,1.3c0.5,0.5,1.3,1.2,1.2,2c-0.1,0.7-1,1.5-1.6,1.7c-0.4-1.1-1.7-2.1-2.4-2.7c-0.2-0.2-0.4-0.3-0.6-0.5
		C22.5,34,23.3,33,24,32.8z M40.3,27.8c-0.3,0.4-0.7,0.7-1.2,0.4C39,28.1,39,28,38.9,27.9c-0.5-0.6-1.1-1.3-1.7-1.7
		c0.7-0.3,1.2-0.8,1.5-1.5c0.6,0.4,1.1,1.1,1.5,1.6C40.5,26.8,40.6,27.2,40.3,27.8z M42,25.6c-0.2,0.4-0.6,0.7-1,0.6
		c-0.2-0.3-0.4-0.6-0.6-0.8c-0.4-0.4-0.7-0.9-1.2-1.2c0.5-0.3,1-0.9,1.2-1.4c0.6,0.4,1.2,1.1,1.6,1.6C42.2,24.7,42.3,25.1,42,25.6z
		 M43.6,23.6c-0.3,0.3-0.6,0.5-1,0.2c-0.1-0.2-0.3-0.4-0.4-0.5c-0.4-0.4-0.9-0.9-1.4-1.3c0.6-0.2,1.1-0.7,1.3-1.3
		c0.6,0.3,1.2,1.2,1.5,1.6C43.9,22.8,43.9,23.2,43.6,23.6z M44.3,22c-0.2-0.3-0.5-0.6-0.7-0.9c-0.3-0.4-0.6-0.7-1-1
		c0.3-0.2,0.6-0.6,0.8-0.9c0.5,0.1,1.3,1,1.6,1.4C45.3,21.2,44.9,21.9,44.3,22z M46.4,19.8c-0.1,0.3-0.4,0.5-0.7,0.5
		c-0.2-0.4-0.6-0.7-0.9-1c-0.3-0.3-0.6-0.6-1-0.8c0.4-0.2,0.7-0.5,0.9-0.9c0.5,0.1,1.1,0.9,1.4,1.3C46.4,19.2,46.6,19.5,46.4,19.8z
		 M47.6,18.4c-0.1,0.2-0.3,0.3-0.6,0.3c-0.2-0.4-0.5-0.7-0.8-0.9c-0.3-0.3-0.6-0.6-0.9-0.8c0.3-0.2,0.6-0.5,0.8-0.9
		c0.3,0.1,0.6,0.4,0.8,0.6c0.2,0.2,0.5,0.5,0.7,0.7C47.8,17.8,47.9,18,47.6,18.4z M49,16.6c-0.1,0.3-0.5,0.4-0.7,0.3
		c-0.2-0.2-0.4-0.4-0.6-0.6c-0.4-0.4-0.7-0.7-1.2-0.9c0.4-0.2,0.7-0.5,1-0.8c0.5,0.2,0.9,0.8,1.3,1.2C49,16,49.2,16.2,49,16.6z
		 M49.9,14.9c-0.1,0.2-0.2,0.3-0.4,0.4c-0.1-0.1-0.2-0.2-0.3-0.3c-0.3-0.4-0.7-0.9-1.2-1.1c0.2-0.2,0.5-0.4,0.6-0.7
		c0.4,0.3,0.8,0.7,1.1,1C49.8,14.4,50,14.6,49.9,14.9z M51,10.6c0.1,0.1,0.3,0.3,0.4,0.4c0.1,0.1,0.2,0.2,0.2,0.4
		c-0.1,0.2-0.3,0.5-0.6,0.6c-0.2-0.2-0.4-0.4-0.6-0.6C50.6,11.1,50.8,10.8,51,10.6z M50.6,12.8c0,0.3-0.3,0.5-0.5,0.6
		c-0.3-0.3-0.6-0.7-1-0.9c0.3-0.2,0.5-0.4,0.7-0.7C50.1,12.1,50.6,12.5,50.6,12.8z M41.4,20.3c-0.1,0.5-0.7,0.9-1.2,1
		c-0.4-0.6-1-1.1-1.4-1.5c-0.2-0.1-0.3-0.3-0.5-0.4c0,0,0,0,0,0c-0.3-0.5,0-1.1,0.5-1.3c0.2-0.1,0.4-0.1,0.6,0c0,0,0.1,0.1,0.2,0.1
		c0.4,0.2,0.7,0.6,1,0.9c0.3,0.3,0.7,0.6,0.8,1c0,0.1,0,0.1,0,0.2C41.4,20.3,41.4,20.3,41.4,20.3z M42,19.5
		c-0.4-0.6-1.1-1.2-1.5-1.6c-0.2-0.1-0.3-0.2-0.5-0.3c0-0.4,0.3-0.9,0.7-0.9c0.5-0.1,1,0.6,1.3,0.9c0.2,0.2,0.6,0.5,0.7,0.9
		c0,0.1,0,0.1,0,0.2c0,0,0,0,0,0.1C42.7,18.9,42.3,19.3,42,19.5z M43.3,17.8c-0.3-0.5-0.7-0.9-1.1-1.2c-0.2-0.2-0.5-0.4-0.7-0.6
		c0-0.5,0.4-1,0.9-0.8c0.4,0.1,0.8,0.6,1,0.9c0.3,0.3,0.7,0.6,0.6,1C44.1,17.4,43.7,17.7,43.3,17.8z M44.8,16.4
		c-0.2-0.5-0.7-0.9-1-1.2c-0.2-0.2-0.5-0.5-0.8-0.6c0-0.3,0.2-0.7,0.5-0.8c0.5-0.2,0.9,0.4,1.2,0.7c0.2,0.2,0.8,0.7,0.8,1
		C45.6,15.7,45.1,16.2,44.8,16.4z M46.2,11.3c0.1,0,0.1-0.1,0.2-0.1c0.3-0.1,0.7,0.4,0.9,0.7c0.2,0.2,0.6,0.5,0.5,0.8
		c0,0.2-0.3,0.4-0.5,0.6c-0.3-0.5-0.8-0.9-1.1-1.2c-0.1-0.1-0.2-0.2-0.3-0.3C46,11.6,46.1,11.5,46.2,11.3
		C46.2,11.3,46.2,11.3,46.2,11.3C46.2,11.3,46.2,11.3,46.2,11.3z M47.9,9.9c0.3,0.1,0.6,0.5,0.7,0.7c0.2,0.2,0.5,0.4,0.5,0.7
		c0,0.2-0.4,0.6-0.6,0.6c-0.2-0.4-0.6-0.7-0.8-0.9c-0.1-0.1-0.3-0.2-0.4-0.3c0,0,0-0.1,0-0.1C47.2,10.2,47.6,9.8,47.9,9.9z
		 M45.3,12.3c0,0,0.1,0.1,0.2,0.1c0.3,0.2,0.5,0.5,0.7,0.6c0.2,0.2,0.5,0.4,0.6,0.7c0,0.1,0,0.1,0,0.2c0,0,0,0,0,0
		c0,0.3-0.5,0.6-0.8,0.7c-0.3-0.5-0.7-0.8-1-1.1c-0.1-0.1-0.2-0.2-0.4-0.3c-0.2-0.3,0-0.8,0.3-0.9C45.1,12.3,45.2,12.3,45.3,12.3z
		 M50.5,7.9C50.5,7.9,50.5,7.9,50.5,7.9c0.1,0,0.1,0,0.2,0c0.2,0,0.5,0.4,0.6,0.6c0.1,0.1,0.4,0.4,0.4,0.5c0,0.2-0.3,0.5-0.5,0.5
		c0,0-0.1,0-0.1,0c-0.2-0.4-0.6-0.8-0.9-1.1c0,0,0-0.1,0-0.1C50.2,8.2,50.3,8,50.5,7.9z M49.8,9.2c0.2,0.2,0.6,0.5,0.5,0.8
		c0,0.2-0.4,0.6-0.6,0.7c-0.2-0.3-0.5-0.6-0.7-0.9c-0.2-0.2-0.4-0.3-0.5-0.5c0,0,0,0,0-0.1c0-0.3,0.2-0.6,0.5-0.7
		C49.3,8.5,49.6,9,49.8,9.2z M48.7,6.3c0.2,0,0.4,0.2,0.5,0.3c0.1,0.1,0.6,0.5,0.7,0.8c-0.2,0.2-0.3,0.3-0.4,0.6
		c-0.1-0.1-0.3-0.1-0.4-0.1c0-0.2-0.2-0.5-0.4-0.7c-0.1-0.1-0.2-0.2-0.3-0.4C48.4,6.5,48.5,6.3,48.7,6.3z M47.5,7.1
		c0.2,0,0.9,0.6,0.9,0.9c-0.2,0.2-0.4,0.4-0.5,0.7c-0.2-0.4-0.5-0.8-0.9-1C47.1,7.4,47.3,7.1,47.5,7.1z M46.3,8.1
		c0.3,0.3,1.1,0.9,0.7,1.4c-0.2,0.2-0.3,0.4-0.4,0.6c0-0.1-0.1-0.1-0.1-0.2c-0.3-0.5-0.7-1-1.1-1.4C45.5,8,45.9,7.7,46.3,8.1z
		 M44.2,8.8c0.3,0,0.5,0.3,0.7,0.5c0.3,0.3,1.2,1,0.8,1.5c0,0,0,0,0,0c-0.2,0.2-0.3,0.4-0.4,0.6c0-0.2-0.1-0.4-0.2-0.7
		c-0.3-0.5-0.8-1-1.3-1.4C43.8,9,44,8.8,44.2,8.8z M42.4,9.7c0.4-0.2,0.7,0.1,0.9,0.3c0.4,0.4,1.5,1.2,0.9,1.8c0,0,0,0.1,0,0.1
		c-0.2,0.2-0.4,0.5-0.4,0.9c-0.1-0.6-0.5-1.1-0.9-1.5c-0.2-0.2-0.4-0.5-0.7-0.7C42,10.2,42.1,9.9,42.4,9.7z M40.7,11.2
		c0.3-0.3,0.6-0.2,0.9,0c0.3,0.2,0.5,0.5,0.7,0.8c0.2,0.2,0.6,0.6,0.6,0.9c0,0.1,0,0.1,0.1,0.2c0,0,0,0,0,0
		c-0.3,0.2-0.6,0.6-0.8,0.9c-0.1-0.5-0.5-0.9-0.8-1.3c-0.3-0.3-0.6-0.7-1-1C40.4,11.5,40.6,11.3,40.7,11.2z M39.5,12.3
		c0.3-0.1,0.6,0.2,0.8,0.4c0.4,0.4,1.2,0.9,1.2,1.5c0,0.1,0,0.1,0.1,0.2c-0.4,0.2-0.7,0.6-0.8,1c-0.1-0.5-0.5-0.8-0.8-1.2
		c-0.3-0.3-0.7-0.8-1.1-1.1C38.9,12.8,39.1,12.4,39.5,12.3z M37.6,14c0.4-0.3,0.6-0.3,1,0c0.3,0.2,0.5,0.5,0.8,0.8
		c0.2,0.3,0.6,0.6,0.6,1c0,0.1,0,0.2,0.1,0.2c-0.4,0.2-0.7,0.6-0.8,1c-0.2-0.6-0.7-1.1-1.1-1.5c-0.3-0.3-0.6-0.6-0.9-0.8
		C37.3,14.4,37.4,14.2,37.6,14z M35.9,15.2c0.5-0.3,0.8-0.1,1.2,0.2c0.5,0.4,1.4,1.1,1.6,1.8c-0.1,0.1-0.3,0.1-0.5,0.3
		c-0.4,0.3-0.6,0.7-0.7,1.1c-0.3-0.6-0.8-1.1-1.2-1.5c-0.2-0.2-0.5-0.5-0.7-0.7C35.3,16,35.5,15.5,35.9,15.2z M35.2,17.2
		c0.5,0.5,1.3,1.2,1.6,1.9c-0.1,0-0.2,0.1-0.4,0.2c-0.4,0.3-0.7,0.7-0.9,1.1c-0.3-0.6-0.9-1.2-1.4-1.6c-0.2-0.2-0.5-0.5-0.8-0.7
		c0-0.4,0.2-0.7,0.4-0.9C34.2,16.7,34.7,16.8,35.2,17.2z M31.7,18.9c0.5-0.5,1-0.3,1.5,0.1c0.6,0.5,1.4,1.2,1.7,1.9
		c-0.2,0.1-0.4,0.2-0.6,0.3c-0.4,0.3-0.7,0.7-0.8,1.2c-0.3-0.6-0.8-1.1-1.2-1.5c-0.3-0.3-0.6-0.6-0.9-0.9
		C31.2,19.6,31.3,19.2,31.7,18.9z M31.1,20.9c0.6,0.5,1.4,1.2,1.7,2c-0.2,0-0.3,0.1-0.5,0.2c-0.5,0.3-0.8,0.8-1,1.3
		c-0.4-0.7-1-1.2-1.5-1.7c-0.3-0.3-0.6-0.5-0.9-0.8c0-0.4,0.2-0.8,0.5-1.1C30,20.3,30.6,20.4,31.1,20.9z M30.5,19.6
		C30.5,19.6,30.5,19.6,30.5,19.6C30.5,19.6,30.5,19.6,30.5,19.6C30.5,19.6,30.5,19.6,30.5,19.6z M27.1,22.8c0.6-0.5,1.2-0.3,1.7,0.1
		c0.6,0.5,1.5,1.3,1.9,2.1c-0.2,0-0.5,0.2-0.8,0.4c-0.4,0.3-0.8,0.8-0.9,1.3c-0.5-1-1.5-1.9-2.3-2.5C26.6,23.7,26.7,23.2,27.1,22.8z
		 M26.8,28.9c-0.6-1-1.6-1.9-2.5-2.6c0.1-0.4,0.2-0.8,0.2-1.2c0,0,0,0,0.1,0c1-0.9,1.7-0.4,2.5,0.5c0.5,0.5,1,1.1,1.4,1.7
		c-0.2,0-0.4,0.1-0.6,0.3C27.4,27.8,27,28.3,26.8,28.9z M26.2,29.5c-0.3,0-0.6,0.2-0.8,0.4c-0.5,0.3-0.8,0.8-0.9,1.4
		c-0.3-0.5-0.8-1-1.2-1.4c0.3-0.9,0.6-1.8,0.8-2.7C24.9,27.8,25.8,28.6,26.2,29.5z M23.9,32c-0.3,0.1-0.6,0.2-0.9,0.5
		c-0.4,0.4-0.8,0.9-1,1.4c-0.1-0.2-0.2-0.3-0.3-0.5c0.3-0.6,0.5-1.1,0.8-1.7c0.1-0.3,0.3-0.7,0.4-1C23.3,31.1,23.7,31.5,23.9,32z
		 M21.5,34.6c-0.1,0-0.2,0.1-0.3,0.1c0.1-0.1,0.1-0.3,0.2-0.4C21.4,34.4,21.5,34.5,21.5,34.6z M30.8,13.1c-0.1,2.3-0.6,4.6-1.4,6.8
		c0,0,0,0,0,0c-0.6,0.4-1.1,1.1-1.2,1.8c-0.1,0-0.2,0-0.3,0c-0.2,0-0.3,0-0.5,0.1c0-0.1-0.1-0.2-0.1-0.3
		C28.7,18.8,29.9,15.9,30.8,13.1z M24.9,21.4c0-0.1,0-0.1,0.1-0.2c0-0.1,0-0.1,0-0.2c0-1.4-0.2-2.6-0.6-3.5c1,1,1.3,2.2,1.7,3.4
		c0.1,0.5,0.2,0.9,0.4,1.3c0,0,0,0,0,0c-0.4,0.4-0.6,0.9-0.6,1.5c-0.4-0.1-0.8,0-1.2,0.3C24.8,23.2,24.9,22.3,24.9,21.4z M36.6,36.6
		c-3.5,1.2-6.7,3-9.7,5.2c-0.3,0.2,0,0.8,0.3,0.5c2.3-1.7,4.8-3.2,7.5-4.3c-1.3,1-2.5,2.1-3.3,2.9c-4.8,5-9.8,13.3-17.6,9.8
		c-0.2-0.1-0.4,0-0.6,0.1c-0.6,0.5-1.2,1.1-1.7,1.7c-0.2,0.3-0.4,0.8-0.9,0.8c-0.4,0-0.9-0.6-1.1-0.8c-0.8-0.8-1.4-2-0.4-2.9
		c0.3-0.3,0.7-0.5,1-0.8c0.2,0.3,0.5,0.7,0.8,1c0.2,0.2,0.5,0.5,0.7,0.7c0.2,0.2,0.5,0.1,0.7-0.1c0.2-0.2,0.1-0.5-0.1-0.7
		c-2-1.7-3.1-4.4-2.9-7.4c0.2-3.6,2.5-7.1,7-10.2c3.3-2.3,5.9-5.3,7.7-8.8c-0.4,3.7-1.7,7.1-3.3,10.5c-0.5,1.1-1,2.3-1.4,3.5
		c0,0,0,0,0,0.1c-0.7,2-1.1,4.1-0.8,6.3c-0.8,0.3-1.6,0.3-2.2-0.1c-0.4-0.3-0.8,0.4-0.4,0.7c1,0.7,2.1,0.4,3.2-0.1
		c1.5-0.6,2.9-1.5,4.2-2.4c0.1,0,0.1-0.1,0.2-0.1c0.6-0.4,1.2-0.8,1.8-1.2c2.1-1.4,4.2-2.6,6.6-3.2C33.5,37,35.1,36.8,36.6,36.6
		C36.7,36.6,36.6,36.6,36.6,36.6z M38.9,35.3C38.9,35.3,38.9,35.3,38.9,35.3c-1.4,0.3-2.8,0.5-4.1,0.7c0.5-0.6,0.9-1.3,0.8-2.1
		c1,0,1.9-1,2-2c0-0.1,0-0.2,0-0.4c1-0.1,1.8-1,1.9-2.1c0-0.1,0-0.3,0-0.4c0.9-0.1,1.7-0.9,1.8-1.9c0-0.1,0-0.2,0-0.3
		c0.4-0.1,0.8-0.3,1.1-0.6c0.1,0,0.2,0,0.3,0c0.9-0.4,1.7-0.8,2.5-1c-2.2,1.9-4.4,4-6.4,6.2c-0.2,0-0.5,0-0.7,0
		c-0.3,0-0.5,0.3-0.4,0.6c0,0.1,0.1,0.2,0.1,0.3c0.1,0.1,0.2,0.2,0.4,0.1c1.5-0.2,3.1,0.2,4.3,1c0.5,0.3,0.9,0.8,1.3,1.2
		C42.5,34.2,40.7,34.5,38.9,35.3z M17.1,38.7c0.1-0.4-0.5-0.5-0.6-0.2c0,0.1-0.1,0.2-0.1,0.3c-0.1,0.4,0.5,0.5,0.6,0.2
		C17.1,38.9,17.1,38.8,17.1,38.7z M14.7,35.8c-0.1,0-0.2-0.1-0.3-0.1c-0.3-0.2-0.6,0.4-0.3,0.5l0.3,0.1C14.7,36.5,15,35.9,14.7,35.8
		z M13.5,37.4c-0.1,0-0.2-0.1-0.2-0.1c-0.4-0.1-0.5,0.5-0.2,0.6c0.1,0,0.2,0.1,0.2,0.1C13.7,38.1,13.9,37.5,13.5,37.4z M15.6,34.9
		c0.1-0.2,0-0.3-0.1-0.4c-0.1-0.1-0.2-0.2-0.4-0.3c-0.1-0.1-0.3,0-0.4,0.1c-0.1,0.2,0,0.3,0.1,0.4c0.1,0.1,0.2,0.2,0.4,0.3
		C15.3,35.1,15.5,35,15.6,34.9z M16.8,40.3c0.1-0.4-0.5-0.5-0.6-0.2c-0.1,0.8-0.2,1.5-0.3,2.3c0,0.4,0.5,0.4,0.6,0
		C16.5,41.8,16.6,41,16.8,40.3z M12.3,40.7L12.3,40.7c-0.3-0.3-0.7,0.1-0.4,0.4l0,0C12.2,41.4,12.6,41,12.3,40.7z M12.9,39.2
		l-0.1-0.1c-0.3-0.3-0.7,0.2-0.4,0.4l0.1,0.1C12.7,39.9,13.1,39.5,12.9,39.2z"/>
</g>
</svg>
