<svg width="60" height="60" viewBox="0 0 60 60" fill="none" xmlns="http://www.w3.org/2000/svg">
<path d="M49.3381 17.7051C48.0427 17.7051 46.8355 18.0894 45.8133 18.7416L42.5792 14.1936C43.5397 13.3358 44.1654 12.0938 44.1654 10.691C44.1654 8.10871 42.0946 6 39.5391 6C36.9836 6 34.9127 8.09978 34.9127 10.691C34.9127 12.5674 36.0142 14.1757 37.5828 14.9263L36.2962 18.5987L30.5596 16.1057C30.8063 15.3909 30.9473 14.6404 30.9473 13.863C30.9473 10.1459 27.96 7.1169 24.2942 7.1169C20.6284 7.1169 17.6411 10.1459 17.6411 13.863C17.6411 14.7833 17.8261 15.6679 18.161 16.4631L12.5301 19.3135C11.7106 17.9911 10.2742 17.1065 8.62633 17.1065C6.07084 17.1065 4 19.2063 4 21.7885C4 24.3708 6.07084 26.4795 8.62633 26.4795C8.78495 26.4795 8.93476 26.4438 9.09337 26.4348L10.1684 31.9032C7.33977 32.6806 5.25131 35.2986 5.25131 38.408C5.25131 42.1251 8.2386 45.1541 11.9044 45.1541C13.7814 45.1541 15.4821 44.3589 16.6894 43.0812L20.8663 46.6463C20.3464 47.4058 20.0468 48.3172 20.0468 49.309C20.0468 51.8913 22.1176 54 24.6731 54C27.2286 54 29.2994 51.9002 29.2994 49.309C29.2994 47.5488 28.3301 46.0298 26.9114 45.2256L28.7355 40.9814C29.74 41.3745 30.8327 41.589 31.9695 41.589C37.01 41.589 41.1076 37.4341 41.1076 32.3232C41.1076 31.1794 40.8961 30.0894 40.5172 29.0797L43.5486 27.7573C44.5179 29.5086 46.2362 30.7684 48.263 31.108L47.7607 36.3261H47.7519C45.2052 36.3261 43.1256 38.4259 43.1256 41.0171C43.1256 43.6083 45.1964 45.7081 47.7519 45.7081C50.3074 45.7081 52.3782 43.6083 52.3782 41.0171C52.3782 38.7386 50.7656 36.8444 48.6419 36.4244L49.1442 31.2063C49.2147 31.2063 49.2764 31.2152 49.3469 31.2152C53.0127 31.2152 56 28.1861 56 24.4691C55.9912 20.7342 53.0039 17.7051 49.3381 17.7051ZM51.4882 41.0082C51.4882 43.099 49.8139 44.8057 47.7431 44.8057C45.6723 44.8057 43.998 43.108 43.998 41.0082C43.998 38.9174 45.6811 37.2107 47.7431 37.2107C49.8051 37.2107 51.4882 38.9174 51.4882 41.0082ZM35.8027 10.691C35.8027 8.59121 37.477 6.89352 39.5391 6.89352C41.6011 6.89352 43.2842 8.59121 43.2842 10.691C43.2842 12.7818 41.6011 14.4885 39.5391 14.4885C37.477 14.4885 35.8027 12.7818 35.8027 10.691ZM38.4199 15.2211C38.7812 15.3105 39.1513 15.373 39.5391 15.373C40.3938 15.373 41.1781 15.1229 41.8654 14.7118L45.0995 19.2599C44.3416 19.9032 43.7248 20.7163 43.3018 21.6366L37.1157 18.9471L38.4199 15.2211ZM31.9607 23.0573C26.9202 23.0573 22.8226 27.2122 22.8226 32.3232C22.8226 33.0916 22.9283 33.8332 23.0957 34.548L18.1257 36.0581C17.597 34.6195 16.5924 33.4133 15.3147 32.6359L21.6682 20.064C22.4789 20.4214 23.3689 20.618 24.303 20.618C26.8144 20.618 29.088 19.1794 30.2159 16.9278L36.0054 19.4475L34.5955 23.4594C33.7672 23.1914 32.8771 23.0573 31.9607 23.0573ZM24.303 8.01042C27.4842 8.01042 30.0749 10.6374 30.0749 13.863C30.0749 14.6672 29.9163 15.4356 29.6079 16.1683C28.6914 18.3217 26.6118 19.7156 24.303 19.7156C21.1218 19.7156 18.5311 17.0886 18.5311 13.863C18.5311 10.6374 21.1218 8.01042 24.303 8.01042ZM4.88121 21.7885C4.88121 19.6977 6.56431 17.9911 8.62633 17.9911C10.6884 17.9911 12.3715 19.6888 12.3715 21.7885C12.3715 23.8794 10.6972 25.586 8.62633 25.586C6.5555 25.586 4.88121 23.8883 4.88121 21.7885ZM9.95696 26.2561C11.8516 25.6754 13.2439 23.9062 13.2439 21.7885C13.2439 21.1988 13.1205 20.6359 12.9266 20.1087L18.5663 17.2584C19.1303 18.2323 19.9322 19.0544 20.8927 19.6351L14.5392 32.207C13.7285 31.8496 12.8385 31.653 11.9044 31.653C11.6048 31.653 11.3228 31.6798 11.032 31.7156L9.95696 26.2561ZM11.9044 44.2606C8.72327 44.2606 6.13252 41.6337 6.13252 38.408C6.13252 35.1824 8.72327 32.5555 11.9044 32.5555C15.0856 32.5555 17.6763 35.1824 17.6763 38.408C17.6763 41.6337 15.0856 44.2606 11.9044 44.2606ZM28.4094 49.3001C28.4094 51.3909 26.7351 53.0975 24.6643 53.0975C22.5935 53.0975 20.9192 51.3998 20.9192 49.3001C20.9192 47.2092 22.6023 45.5026 24.6643 45.5026C26.7263 45.5026 28.4094 47.2092 28.4094 49.3001ZM26.0918 44.8593C25.6424 44.7074 25.1666 44.6091 24.6643 44.6091C23.4042 44.6091 22.2674 45.1273 21.4303 45.9583L17.2533 42.3932C18.0641 41.2762 18.5487 39.9002 18.5487 38.408C18.5487 37.8898 18.487 37.3894 18.3813 36.9069L23.3425 35.3969C24.1356 37.6754 25.7922 39.5518 27.9071 40.615L26.0918 44.8593ZM31.9607 40.6955C27.4048 40.6955 23.7038 36.9427 23.7038 32.3232C23.7038 27.7036 27.4048 23.9509 31.9607 23.9509C36.5165 23.9509 40.2176 27.7036 40.2176 32.3232C40.2176 36.9337 36.5165 40.6955 31.9607 40.6955ZM40.1647 28.2576C39.1866 26.2293 37.5035 24.6121 35.4326 23.7543L36.8249 19.787L42.9846 22.4676C42.7907 23.0931 42.685 23.7632 42.685 24.4512C42.685 25.3358 42.8612 26.1757 43.1608 26.9442L40.1647 28.2576ZM49.3381 30.3038C46.1569 30.3038 43.5662 27.6768 43.5662 24.4512C43.5662 21.2256 46.1569 18.5987 49.3381 18.5987C52.5192 18.5987 55.11 21.2256 55.11 24.4512C55.11 27.6768 52.5192 30.3038 49.3381 30.3038Z" fill="#007A33" stroke="#007A33"/>
</svg>
