<svg width="60" height="60" viewBox="0 0 60 60" fill="none" xmlns="http://www.w3.org/2000/svg">
<path d="M30.0002 13.5157H29.813C22.455 13.6197 16.579 19.6725 16.683 27.0253C16.7246 30.0725 17.8114 33.0105 19.7614 35.3557C20.2814 35.9849 20.6974 37.4357 21.0978 38.8709C21.6178 40.7169 22.1118 42.4589 23.0166 43.4001C22.8242 43.6601 22.7306 43.9825 22.7462 44.3049L23.1414 48.1217C23.1414 50.5605 23.7134 52.2817 24.8678 53.4153C26.199 54.7153 28.0814 54.9753 29.6882 54.9753H30.2082C32.1062 54.9233 33.6506 54.8141 34.8882 53.8885C36.2558 52.8485 36.8954 50.9869 36.9006 48.0177L37.2906 44.3777V44.3361C37.2958 44.1593 37.2646 43.9825 37.2074 43.8161L37.3842 43.5769C38.3618 42.2509 38.835 40.2905 39.251 38.5641C39.589 37.1601 39.9114 35.8393 40.395 35.2361C45.0334 29.5265 44.165 21.1337 38.4502 16.4953C36.0634 14.5557 33.0786 13.5053 30.0002 13.5157ZM24.509 48.0957L24.457 47.5757C26.329 47.8461 28.2218 47.9813 30.1146 47.9813C31.9242 47.9917 33.739 47.8617 35.5278 47.5861L35.4966 47.8721V47.9449C35.4966 48.4649 35.4758 48.9849 35.4238 49.5049C33.661 49.7441 31.8878 49.8897 30.1094 49.9365C28.2634 49.8897 26.4174 49.7493 24.587 49.5049C24.535 49.0369 24.509 48.5689 24.509 48.0957ZM35.793 44.1853C35.8138 44.1749 35.845 44.1749 35.8658 44.1853C35.871 44.2009 35.871 44.2217 35.8658 44.2373L35.6578 46.1717C33.8274 46.4837 31.971 46.6449 30.1146 46.6397C28.1698 46.6397 26.2302 46.4941 24.3114 46.1977L24.1086 44.2529C24.1086 44.2321 24.119 44.2113 24.1398 44.2009C24.1554 44.1905 24.1814 44.1905 24.197 44.2009C25.237 44.4401 29.7558 44.3933 30.3226 44.3829C30.8894 44.3725 34.8102 44.4245 35.793 44.1853ZM30.1458 53.5869C28.019 53.6441 26.6826 53.2905 25.8194 52.4533C25.393 52.0113 25.081 51.4757 24.899 50.8933C26.6254 51.1065 28.3622 51.2365 30.099 51.2729C31.789 51.2365 33.479 51.1065 35.1534 50.8881C34.4358 53.4777 32.5482 53.5245 30.1458 53.5869ZM39.2978 34.3469C38.6166 35.1893 38.2578 36.5881 37.8886 38.2105C37.5194 39.8329 37.0618 41.6425 36.2402 42.7553L36.1622 42.8645C35.9386 42.8073 35.6994 42.8073 35.4758 42.8645C33.765 43.0101 32.0542 43.0569 30.3382 42.9945C28.4454 42.9945 25.1954 42.9945 24.5298 42.8437C24.431 42.8229 24.3322 42.8125 24.2334 42.8125L24.093 42.6929C23.391 42.0689 22.8814 40.0929 22.4342 38.5329C21.987 36.9729 21.545 35.3661 20.8326 34.5133C16.5946 29.4485 17.2602 21.9033 22.325 17.6653C24.431 15.9025 27.0778 14.9197 29.8286 14.8781H30.0002C36.6042 14.8781 41.9602 20.2341 41.955 26.8433C41.955 29.5785 41.0138 32.2305 39.2978 34.3573V34.3469Z" fill="#007A33" stroke="#007A33" stroke-width="0.5"/>
<path d="M29.9694 11.279C30.349 11.279 30.6506 10.9774 30.6558 10.5978V5.72016C30.6246 5.34056 30.2918 5.06496 29.9122 5.09616C29.5794 5.12736 29.3194 5.38736 29.2882 5.72016V10.5874C29.283 10.9618 29.5846 11.2738 29.959 11.279C29.9642 11.279 29.9642 11.279 29.9694 11.279Z" fill="#007A33" stroke="#007A33" stroke-width="0.5"/>
<path d="M20.4116 13.3604C20.6248 13.6776 21.046 13.7608 21.3632 13.5476C21.6492 13.3552 21.748 12.9808 21.5972 12.674L19.1636 8.46199C18.9764 8.13439 18.5552 8.02519 18.2276 8.21239C17.9 8.39959 17.7908 8.82079 17.978 9.14839L20.4116 13.3604Z" fill="#007A33" stroke="#007A33" stroke-width="0.5"/>
<path d="M14.7956 19.021L10.5836 16.5874C10.256 16.4002 9.84002 16.5094 9.65282 16.837C9.46562 17.1646 9.57482 17.5806 9.90242 17.7678L14.1144 20.2014C14.2184 20.2638 14.338 20.295 14.4576 20.295C14.702 20.295 14.9256 20.165 15.0504 19.9518C15.2376 19.6242 15.1232 19.2082 14.7956 19.021Z" fill="#007A33" stroke="#007A33" stroke-width="0.5"/>
<path d="M50.3479 16.7354C50.1607 16.4078 49.7447 16.2934 49.4171 16.4806L45.2051 18.9142C44.8723 19.1014 44.7527 19.5226 44.9451 19.8606C45.1375 20.1986 45.5535 20.313 45.8915 20.1206L50.1035 17.6922C50.4364 17.505 50.5507 17.089 50.3687 16.7562C50.3583 16.751 50.3531 16.7406 50.3479 16.7354Z" fill="#007A33" stroke="#007A33" stroke-width="0.5"/>
<path d="M38.6114 13.5501C38.9338 13.7373 39.3498 13.6333 39.537 13.3109C39.537 13.3057 39.5422 13.3057 39.5422 13.3005L41.9602 9.0885C42.1474 8.7609 42.0382 8.3449 41.7106 8.1577C41.383 7.9705 40.967 8.0797 40.7798 8.4073L38.3462 12.6193C38.1642 12.9469 38.2786 13.3629 38.6062 13.5449C38.6062 13.5501 38.6114 13.5501 38.6114 13.5501Z" fill="#007A33" stroke="#007A33" stroke-width="0.5"/>
</svg>
