<?xml version="1.0" encoding="utf-8"?>
<!-- Generator: Adobe Illustrator 24.0.1, SVG Export Plug-In . SVG Version: 6.00 Build 0)  -->
<svg version="1.1" id="Layer_1" xmlns="http://www.w3.org/2000/svg" xmlns:xlink="http://www.w3.org/1999/xlink" x="0px" y="0px"
	 width="60px" height="60px" viewBox="0 0 60 60" style="enable-background:new 0 0 60 60;" xml:space="preserve">
<path d="M39.2,19.8c-0.7-2.9-3.3-5-6.2-5h-5.5c-3,0-5.5,2-6.2,4.9l-3.3,13.7c-0.5,2,0.8,4,2.7,4.5l0.8,0.2l-0.9,3.9
	c0,0.1,0,0.1,0,0.1c0,0.1,0,0.2,0,0.4c0,0.2,0.1,0.3,0.2,0.4c0.1,0.1,0.2,0.2,0.4,0.3c0.1,0.1,0.2,0.1,0.4,0.1c0.1,0,0.1,0,0.1,0
	h2.2v9c0,2,1.7,3.7,3.7,3.7c1.1,0,2-0.4,2.7-1.2c0.7,0.8,1.7,1.2,2.7,1.2c2,0,3.7-1.7,3.7-3.7v-9.1h2.2c0.1,0,0.1,0,0.1,0
	c0.1,0,0.2-0.1,0.4-0.1c0.1-0.1,0.2-0.2,0.4-0.3s0.2-0.2,0.2-0.4c0-0.1,0.1-0.2,0-0.4c0-0.1,0-0.1,0-0.1L38.9,38l0.9-0.2
	c0.9-0.2,1.8-0.8,2.3-1.7c0.5-0.8,0.7-1.8,0.5-2.8L39.2,19.8z M40.3,35.2c-0.2,0.4-0.6,0.7-1.1,0.8l-0.9,0.2l-3.2-13.4
	c-0.1-0.5-0.6-0.9-1.2-0.7c-0.5,0.1-0.9,0.6-0.7,1.2l4.2,17.9h-2.9v1.9v9c0,0.9-0.6,1.7-1.5,1.8c-1.1,0.2-2-0.6-2-1.7v-10
	c0-0.5-0.5-1-1-1c-0.5,0-0.9,0.4-0.9,1v10c0,1.1-1,1.9-2,1.7c-0.9-0.2-1.5-1-1.5-1.8v-11h-2.9L27,23.3c0.1-0.5-0.2-1.1-0.8-1.2
	c-0.5-0.1-1.1,0.2-1.2,0.8l-3.2,13.2l-0.8-0.2c-0.5-0.1-0.8-0.4-1.1-0.8c-0.2-0.4-0.4-0.9-0.2-1.3L23,20.2l0.2-0.6
	c0.6-1.8,2.3-2.9,4.1-2.9h5.5c2.1,0,3.9,1.4,4.4,3.4l3.3,13.6C40.6,34.3,40.5,34.8,40.3,35.2z"/>
<path d="M30.1,14.2c2.8,0,5.1-2.3,5.1-5.1c0-2.8-2.3-5.1-5.1-5.1C27.3,4,25,6.3,25,9.1C25,11.9,27.3,14.2,30.1,14.2z
	 M30.1,6c1.7,0,3.1,1.4,3.1,3.1c0,1.7-1.4,3.1-3.1,3.1c-1.7,0-3.1-1.4-3.1-3.1C27,7.4,28.4,6,30.1,6z"/>
</svg>
