<?xml version="1.0" encoding="utf-8"?>
<!-- Generator: Adobe Illustrator 24.0.1, SVG Export Plug-In . SVG Version: 6.00 Build 0)  -->
<svg version="1.1" id="Layer_1" xmlns="http://www.w3.org/2000/svg" xmlns:xlink="http://www.w3.org/1999/xlink" x="0px" y="0px"
	 width="24px" height="24px" viewBox="0 0 24 24" enable-background="new 0 0 24 24" xml:space="preserve">
<path fill="#3A3A3A" d="M6.8,12h2v2h-2V12z M20.8,6v14c0,0.5-0.2,1-0.6,1.4c-0.4,0.4-0.9,0.6-1.4,0.6h-14c-1.1,0-2-0.9-2-2V6
	c0-0.5,0.2-1,0.6-1.4C3.8,4.2,4.3,4,4.8,4h1V2h2v2h8V2h2v2h1c0.5,0,1,0.2,1.4,0.6C20.6,4.9,20.8,5.4,20.8,6z M4.8,8h14V6h-14V8z
	 M18.8,20V10h-14v10H18.8z M14.8,14v-2h2v2H14.8z M10.8,14v-2h2v2H10.8z M6.8,16h2v2h-2V16z M14.8,18v-2h2v2H14.8z M10.8,18v-2h2v2
	H10.8z"/>
</svg>
