<?xml version="1.0" encoding="utf-8"?>
<!-- Generator: Adobe Illustrator 24.0.1, SVG Export Plug-In . SVG Version: 6.00 Build 0)  -->
<svg version="1.1" id="Layer_1" xmlns="http://www.w3.org/2000/svg" xmlns:xlink="http://www.w3.org/1999/xlink" x="0px" y="0px"
	 width="65px" height="65px" viewBox="0 0 65 65" style="enable-background:new 0 0 65 65;" xml:space="preserve">
<style type="text/css">
	.st0{fill:#007A33;}
</style>
<g>
	<path class="st0" d="M56.8,48.8l-0.9-5c-0.6-3.2-3.4-5.5-6.7-5.5c-3.3,0-6.1,2.3-6.7,5.5l-0.9,5c-0.1,0.7,0.3,1.3,1,1.4
		c0.7,0.1,1.3-0.3,1.5-1l0.9-5c0.1-0.6,0.3-1.1,0.6-1.5v4.1l-2.1,8.1c-0.2,0.8,0.4,1.5,1.2,1.5h1v6.5c0,0.9,0.7,1.6,1.6,1.6
		c0.9,0,1.6-0.7,1.6-1.6v-6.5h0.9v6.5c0,0.9,0.7,1.6,1.6,1.6s1.6-0.7,1.6-1.6v-6.5h1c0.8,0,1.4-0.8,1.2-1.5l-2.1-8.1v-4.1
		c0.3,0.5,0.5,1,0.6,1.5l0.9,5c0.1,0.6,0.7,1,1.2,1c0.1,0,0.1,0,0.2,0C56.5,50.1,56.9,49.5,56.8,48.8z"/>
	<path class="st0" d="M49.2,37.4c1.9,0,3.5-1.5,3.5-3.4c0-1.9-1.6-3.4-3.5-3.4c-1.9,0-3.5,1.5-3.5,3.4
		C45.7,35.8,47.3,37.4,49.2,37.4z"/>
	<path class="st0" d="M21.3,15.1c-7.2,0-13.1,5.8-13.1,12.9v7.3c0,1.3,1.1,2.4,2.4,2.4s2.4-1.1,2.4-2.4V28c0-1.7,0.6-3.4,1.6-4.8
		v38.2c0,1.6,1.3,3,3,3c1.7,0,3-1.3,3-3V39.4h1.7v22.1c0,1.6,1.3,3,3,3s3-1.3,3-3V23.2c1,1.3,1.6,3,1.6,4.8v7.3
		c0,1.3,1.1,2.4,2.4,2.4c1.3,0,2.4-1.1,2.4-2.4V28C34.4,20.9,28.6,15.1,21.3,15.1z"/>
	<path class="st0" d="M21.3,13.4c3.6,0,6.6-2.9,6.6-6.5c0-3.6-2.9-6.5-6.6-6.5c-3.6,0-6.6,2.9-6.6,6.5
		C14.7,10.5,17.7,13.4,21.3,13.4z"/>
</g>
</svg>
