<svg width="60" height="60" viewBox="0 0 60 60" fill="none" xmlns="http://www.w3.org/2000/svg">
<path d="M21.8152 6.51087V11.6196C21.8152 11.9005 22.0451 12.1304 22.3261 12.1304H23.3478V23.1908L9.34489 40.6932C7.83272 42.5834 7 44.9589 7 47.3804C7 50.4814 9.51859 53 12.6196 53H48.3804C51.4814 53 54 50.4814 54 47.3804C54 44.9589 53.1673 42.5834 51.6551 40.6932L37.6522 23.1908V12.1304H38.6739C38.9549 12.1304 39.1848 11.9005 39.1848 11.6196V6.51087C39.1848 6.22989 38.9549 6 38.6739 6H22.3261C22.0451 6 21.8152 6.22989 21.8152 6.51087ZM52.9783 47.3804C52.9783 49.9143 50.9143 51.9783 48.3804 51.9783H12.6196C10.0857 51.9783 8.02174 49.9143 8.02174 47.3804C8.02174 47.0382 8.04728 46.6959 8.08304 46.3587H52.917C52.9527 46.6959 52.9783 47.0382 52.9783 47.3804ZM22.837 7.02174H38.163V11.1087H37.1413C36.8603 11.1087 36.6304 11.3386 36.6304 11.6196V23.3696C36.6304 23.4871 36.6713 23.5995 36.7428 23.6914L50.8582 41.3317C51.793 42.5016 52.4367 43.881 52.7535 45.337H42.25V42.2411C44.5438 41.9857 46.337 40.0341 46.337 37.6739C46.337 37.3929 46.1071 37.163 45.8261 37.163C44.0483 37.163 42.5054 38.1797 41.7391 39.6612C40.9728 38.1797 39.43 37.163 37.6522 37.163C37.3712 37.163 37.1413 37.3929 37.1413 37.6739C37.1413 40.0392 38.9345 41.9857 41.2283 42.2411V45.337H31.0109V42.2411C33.3047 41.9857 35.0978 40.0341 35.0978 37.6739C35.0978 37.3929 34.8679 37.163 34.587 37.163C32.8091 37.163 31.2612 38.1797 30.5 39.6612C29.7388 38.1797 28.1909 37.163 26.413 37.163C26.1321 37.163 25.9022 37.3929 25.9022 37.6739C25.9022 40.0392 27.6953 41.9857 29.9891 42.2411V45.337H19.7717V42.2411C22.0655 41.9857 23.8587 40.0341 23.8587 37.6739C23.8587 37.3929 23.6288 37.163 23.3478 37.163C21.57 37.163 20.0221 38.1797 19.2609 39.6612C18.4946 38.1797 16.9517 37.163 15.1739 37.163C14.8929 37.163 14.663 37.3929 14.663 37.6739C14.663 40.0392 16.4562 41.9857 18.75 42.2411V45.337H8.25163C8.56837 43.881 9.20696 42.5016 10.147 41.3317L24.2623 23.6914C24.3287 23.5995 24.3696 23.4871 24.3696 23.3696V11.6196C24.3696 11.3386 24.1397 11.1087 23.8587 11.1087H22.837V7.02174ZM42.2909 41.2091C42.531 39.6816 43.7417 38.4709 45.2692 38.2308C45.0342 39.7583 43.8235 40.969 42.2909 41.2091ZM41.1874 41.2091C39.6599 40.969 38.4491 39.7583 38.209 38.2308C39.7365 38.4658 40.9473 39.6765 41.1874 41.2091ZM31.0517 41.2091C31.2918 39.6816 32.5026 38.4709 34.0301 38.2308C33.7951 39.7583 32.5843 40.969 31.0517 41.2091ZM29.9483 41.2091C28.4208 40.969 27.21 39.7583 26.9699 38.2308C28.4974 38.4658 29.7082 39.6765 29.9483 41.2091ZM19.8126 41.2091C20.0527 39.6816 21.2635 38.4709 22.791 38.2308C22.556 39.7583 21.3452 40.969 19.8126 41.2091ZM18.7091 41.2091C17.1816 40.969 15.9709 39.7583 15.7308 38.2308C17.2583 38.4658 18.469 39.6765 18.7091 41.2091Z" fill="#007A33" stroke="#007A33" stroke-width="0.7"/>
<path d="M12.2757 52.042C13.067 52.042 13.7145 50.9629 13.7145 49.6441C13.7145 48.3252 13.067 47.2461 12.2757 47.2461C11.4844 47.2461 10.8369 48.3252 10.8369 49.6441C10.8369 50.9629 11.4844 52.042 12.2757 52.042ZM12.2757 48.8447C12.5395 48.8447 12.7553 49.2044 12.7553 49.6441C12.7553 50.0837 12.5395 50.4434 12.2757 50.4434C12.0119 50.4434 11.7961 50.0837 11.7961 49.6441C11.7961 49.2044 12.0119 48.8447 12.2757 48.8447Z" fill="#007A33"/>
<path d="M27.143 51.0828C28.1981 51.0828 29.0613 50.2196 29.0613 49.1645C29.0613 48.1094 28.1981 47.2461 27.143 47.2461C26.0879 47.2461 25.2246 48.1094 25.2246 49.1645C25.2246 50.2196 26.0879 51.0828 27.143 51.0828ZM27.143 48.525C27.4947 48.525 27.7824 48.8128 27.7824 49.1645C27.7824 49.5162 27.4947 49.8039 27.143 49.8039C26.7913 49.8039 26.5035 49.5162 26.5035 49.1645C26.5035 48.8128 26.7913 48.525 27.143 48.525Z" fill="#007A33"/>
<path d="M46.3266 51.0828C47.3817 51.0828 48.2449 50.2196 48.2449 49.1645C48.2449 48.1094 47.3817 47.2461 46.3266 47.2461C45.2715 47.2461 44.4082 48.1094 44.4082 49.1645C44.4082 50.2196 45.2715 51.0828 46.3266 51.0828ZM46.3266 48.525C46.6783 48.525 46.966 48.8128 46.966 49.1645C46.966 49.5162 46.6783 49.8039 46.3266 49.8039C45.9749 49.8039 45.6871 49.5162 45.6871 49.1645C45.6871 48.8128 45.9749 48.525 46.3266 48.525Z" fill="#007A33"/>
<path d="M40.5712 47.2461H38.6528V49.1645H40.5712V47.2461Z" fill="#007A33"/>
<path d="M20.4286 51.082H18.5103V52.0412H20.4286V51.082Z" fill="#007A33"/>
<path d="M16.5917 47.2461H14.6733V49.1645H16.5917V47.2461Z" fill="#007A33"/>
<path d="M33.8573 51.082H31.939V52.0412H33.8573V51.082Z" fill="#007A33"/>
</svg>
