<?xml version="1.0" encoding="utf-8"?>
<!-- Generator: Adobe Illustrator 24.0.1, SVG Export Plug-In . SVG Version: 6.00 Build 0)  -->
<svg version="1.1" id="Layer_1" xmlns="http://www.w3.org/2000/svg" xmlns:xlink="http://www.w3.org/1999/xlink" x="0px" y="0px"
	 width="24px" height="24px" viewBox="0 0 24 24" style="enable-background:new 0 0 24 24;" xml:space="preserve">
<style type="text/css">
	.st0{fill:#3A3A3A;}
</style>
<path class="st0" d="M16.4,14c0.1-0.7,0.1-1.3,0.1-2s-0.1-1.3-0.1-2h3.4c0.2,0.6,0.3,1.3,0.3,2s-0.1,1.4-0.3,2H16.4z M14.6,19.6
	c0.6-1.1,1.1-2.3,1.4-3.6h2.9C18,17.6,16.4,18.9,14.6,19.6z M14.3,14H9.7c-0.1-0.7-0.2-1.3-0.2-2s0.1-1.4,0.2-2h4.7
	c0.1,0.6,0.2,1.3,0.2,2S14.4,13.3,14.3,14z M12,20c-0.8-1.2-1.5-2.5-1.9-4h3.8C13.5,17.4,12.8,18.8,12,20z M8,8H5.1
	c1-1.7,2.5-2.9,4.3-3.6C8.8,5.6,8.4,6.8,8,8z M5.1,16H8c0.4,1.3,0.8,2.5,1.4,3.6C7.6,18.9,6,17.6,5.1,16z M4.3,14
	C4.1,13.4,4,12.7,4,12s0.1-1.4,0.3-2h3.4c-0.1,0.7-0.1,1.3-0.1,2s0.1,1.3,0.1,2H4.3z M12,4c0.8,1.2,1.5,2.5,1.9,4h-3.8
	C10.5,6.6,11.2,5.2,12,4z M18.9,8H16c-0.3-1.3-0.8-2.4-1.4-3.6C16.4,5.1,18,6.3,18.9,8z M12,2C6.5,2,2,6.5,2,12
	c0,2.7,1.1,5.2,2.9,7.1c0.9,0.9,2,1.7,3.2,2.2C9.4,21.7,10.7,22,12,22c2.7,0,5.2-1.1,7.1-2.9c1.9-1.9,2.9-4.4,2.9-7.1
	c0-1.3-0.3-2.6-0.8-3.8C20.7,7,20,5.9,19.1,4.9c-0.9-0.9-2-1.7-3.2-2.2C14.6,2.3,13.3,2,12,2z"/>
</svg>
