<?xml version="1.0" encoding="utf-8"?>
<!-- Generator: Adobe Illustrator 24.0.1, SVG Export Plug-In . SVG Version: 6.00 Build 0)  -->
<svg version="1.1" id="Layer_1" xmlns="http://www.w3.org/2000/svg" xmlns:xlink="http://www.w3.org/1999/xlink" x="0px" y="0px"
	 width="24px" height="24px" viewBox="0 0 24 24" style="enable-background:new 0 0 24 24;" xml:space="preserve">
<style type="text/css">
	.st0{clip-path:url(#SVGID_2_);}
	.st1{clip-path:url(#SVGID_4_);}
	.st2{fill:#3A3A3A;}
</style>
<g>
	<defs>
		<rect id="SVGID_1_" x="3.5" y="1" width="17" height="22"/>
	</defs>
	<clipPath id="SVGID_2_">
		<use xlink:href="#SVGID_1_"  style="overflow:visible;"/>
	</clipPath>
	<g class="st0">
		<g>
			<defs>
				<rect id="SVGID_3_" x="3.6" y="1.5" width="16.9" height="21"/>
			</defs>
			<clipPath id="SVGID_4_">
				<use xlink:href="#SVGID_3_"  style="overflow:visible;"/>
			</clipPath>
			<g class="st1">
				<path class="st2" d="M11.9,22.5l-0.7-0.7c-4.2-4-7.7-7.7-7.7-12c0-4.6,3.8-8.3,8.4-8.3c4.7,0,8.4,3.7,8.4,8.3s-4.3,8.7-7.7,12
					L11.9,22.5z M11.9,3.5c-3.5,0-6.4,2.8-6.4,6.3c0,3.3,2.8,6.5,6.4,9.9c3.6-3.5,6.4-6.6,6.4-9.9C18.5,6.3,15.6,3.5,11.9,3.5z"/>
				<circle class="st2" cx="12" cy="9.6" r="2"/>
			</g>
		</g>
	</g>
</g>
</svg>
