<?xml version="1.0" encoding="utf-8"?>
<!-- Generator: Adobe Illustrator 24.0.1, SVG Export Plug-In . SVG Version: 6.00 Build 0)  -->
<svg version="1.1" id="Layer_1" xmlns="http://www.w3.org/2000/svg" xmlns:xlink="http://www.w3.org/1999/xlink" x="0px" y="0px"
	 width="60px" height="60px" viewBox="0 0 60 60" enable-background="new 0 0 60 60" xml:space="preserve">
<g>
	<defs>
		<rect id="SVGID_1_" x="6" y="4" width="48" height="53"/>
	</defs>
	<clipPath id="SVGID_2_">
		<use xlink:href="#SVGID_1_"  overflow="visible"/>
	</clipPath>
	<g clip-path="url(#SVGID_2_)">
		<path fill="#007A33" d="M16.9,16.1c-6,0-10.9,4.8-10.9,10.7v6.1c0,1.1,0.9,2,2,2c1.1,0,2-0.9,2-2v-6.1c0-1.4,0.5-2.8,1.3-4v31.7
			c0,1.3,1.1,2.5,2.5,2.5s2.5-1.1,2.5-2.5V36.2h1.4v18.3c0,1.3,1.1,2.5,2.5,2.5c1.4,0,2.5-1.1,2.5-2.5V22.8c0.8,1.1,1.3,2.5,1.3,4
			v6.1c0,1.1,0.9,2,2,2c1.1,0,2-0.9,2-2v-6.1C27.7,20.9,22.9,16.1,16.9,16.1z"/>
		<path fill="#007A33" d="M16.9,14.7c3,0,5.4-2.4,5.4-5.4c0-3-2.4-5.4-5.4-5.4c-3,0-5.4,2.4-5.4,5.4C11.4,12.3,13.9,14.7,16.9,14.7z
			"/>
		<path fill="#007A33" d="M54,32.5l-1.4-7.8c-0.9-5-5.3-8.6-10.5-8.6c-5.2,0-9.6,3.6-10.5,8.6l-1.4,7.8c-0.2,1.1,0.5,2.1,1.6,2.2
			c1.1,0.2,2.1-0.5,2.3-1.6l1.4-7.8c0.2-0.9,0.5-1.7,0.9-2.3v6.4l-3.3,12.7c-0.3,1.2,0.6,2.4,1.8,2.4h1.5v10.1
			c0,1.3,1.1,2.5,2.5,2.5s2.5-1.1,2.5-2.5V44.5h1.4v10.1c0,1.3,1.1,2.5,2.5,2.5s2.5-1.1,2.5-2.5V44.5h1.5c1.2,0,2.2-1.2,1.8-2.4
			l-3.3-12.7v-6.4c0.5,0.7,0.8,1.5,0.9,2.4l1.4,7.8c0.2,0.9,1,1.6,1.9,1.6c0.1,0,0.2,0,0.3-0.1C53.5,34.6,54.2,33.6,54,32.5z"/>
		<path fill="#007A33" d="M42.1,14.7c3,0,5.4-2.4,5.4-5.4c0-3-2.4-5.4-5.4-5.4c-3,0-5.4,2.4-5.4,5.4C36.7,12.3,39.1,14.7,42.1,14.7z
			"/>
	</g>
</g>
</svg>
