<?xml version="1.0" encoding="utf-8"?>
<!-- Generator: Adobe Illustrator 24.0.1, SVG Export Plug-In . SVG Version: 6.00 Build 0)  -->
<svg version="1.1" id="Layer_1" xmlns="http://www.w3.org/2000/svg" xmlns:xlink="http://www.w3.org/1999/xlink" x="0px" y="0px"
	 width="30px" height="30px" viewBox="0 0 30 30" enable-background="new 0 0 30 30" xml:space="preserve">
<g>
	<path fill="#007A33" d="M15.6,25.6l-0.4-3.1l0.6-0.2c1.3-0.4,2.3-1,3.1-1.6c1.1-0.9,1.8-2.1,2.2-3.7l0,0c-3.6-0.1-6.6-2.9-7.2-6.5
		c-0.7-4.2,2.2-8.1,6.3-8.8c2.2-0.3,4.3,0.2,6,1.3c1.9,1.3,3.2,3.5,3.7,6.2c1,8.3-4.7,15.2-13.6,16.4L15.6,25.6z M16.8,23.5l0.1,0.4
		c7.6-1.3,12.4-7.4,11.6-14.6c-0.4-2.3-1.5-4.1-3.1-5.1c-1.4-1-3.2-1.4-4.9-1.1c-3.3,0.6-5.6,3.7-5.1,7.1c0.4,3,2.8,5.2,5.7,5.3
		l1.9,0.1l-0.5,1.8c-0.5,1.8-1.4,3.3-2.6,4.4C19,22.5,18,23,16.8,23.5z"/>
	<defs>
		<filter id="Adobe_OpacityMaskFilter" filterUnits="userSpaceOnUse" x="0" y="0" width="19" height="26.7">
			<feColorMatrix  type="matrix" values="1 0 0 0 0  0 1 0 0 0  0 0 1 0 0  0 0 0 1 0"/>
		</filter>
	</defs>
	<mask maskUnits="userSpaceOnUse" x="0" y="0" width="19" height="26.7" id="path-2-inside-1_1_">
		<path fill-rule="evenodd" clip-rule="evenodd" fill="#FFFFFF" filter="url(#Adobe_OpacityMaskFilter)" d="M8.8,16.7
			c-3.5-0.2-6.7-2.8-7.2-6.4C1,6.1,3.8,2.3,8,1.6c3-0.4,6.2,0.6,8.1,3.4c-1.1,1.5-1.6,3.5-1.2,5.5c0.3,1.8,1.1,3.3,2.4,4.4
			c-1.7,5.5-6.8,9.5-13.5,10.3c-0.3,0-0.4-0.2-0.4-0.2l-0.4-2.6c0,0,0-0.3,0.2-0.3C5.8,21.3,7.9,20,8.8,16.7z"/>
	</mask>
	<path mask="url(#path-2-inside-1_1_)" fill="#007A33" d="M1.6,10.3l1.5-0.2l0,0L1.6,10.3z M8.8,16.7l1.4,0.4l0.5-1.8l-1.9-0.1
		L8.8,16.7z M8,1.6L7.8,0.1l0,0l0,0L8,1.6z M16.1,5l1.2,0.9L18,5l-0.6-0.9L16.1,5z M14.9,10.5l1.5-0.2l0,0l0,0L14.9,10.5z
		 M17.3,14.9l1.4,0.4l0.3-0.9l-0.7-0.6L17.3,14.9z M3.7,25.2l-0.2-1.5l0,0l0,0L3.7,25.2z M3.4,25l-1.5,0.2l0,0l0,0L3.4,25z
		 M2.9,22.4l1.5-0.2l0,0L2.9,22.4z M3.1,22.1l-0.4-1.4l0,0l0,0L3.1,22.1z M0.1,10.5c0.7,4.4,4.4,7.5,8.6,7.7l0.1-3
		C6,15.1,3.5,13,3.1,10.1L0.1,10.5z M7.7,0.1c-5,0.8-8.4,5.4-7.6,10.4l3-0.4c-0.5-3.3,1.8-6.5,5.2-7L7.7,0.1z M17.4,4.2
		c-2.3-3.3-6.1-4.5-9.6-4.1l0.4,3c2.5-0.4,5.1,0.5,6.7,2.8L17.4,4.2z M14.9,4.2C13.6,6,13,8.3,13.4,10.7l3-0.5
		c-0.3-1.6,0.1-3.1,1-4.3L14.9,4.2z M13.4,10.7c0.3,2.1,1.4,4,2.9,5.3l2-2.2c-1-0.9-1.7-2.1-1.9-3.5L13.4,10.7z M3.9,26.7
		c7.3-0.8,13-5.2,14.8-11.4l-2.9-0.9c-1.5,4.8-6,8.5-12.3,9.3L3.9,26.7z M3.4,25c-1.5,0.3-1.5,0.3-1.5,0.3c0,0,0,0,0,0c0,0,0,0,0,0
		c0,0,0,0,0,0c0,0,0,0,0,0c0,0,0,0,0,0c0,0,0,0.1,0,0.1c0,0.1,0,0.1,0.1,0.2c0.1,0.2,0.2,0.4,0.4,0.5c0.4,0.4,1,0.5,1.5,0.4l-0.4-3
		c0.2,0,0.5,0,0.9,0.3c0.1,0.1,0.2,0.3,0.3,0.4c0,0.1,0.1,0.1,0.1,0.2c0,0,0,0.1,0,0.1c0,0,0,0,0,0c0,0,0,0,0,0c0,0,0,0,0,0
		c0,0,0,0,0,0c0,0,0,0,0,0C4.8,24.7,4.8,24.7,3.4,25z M1.5,22.7l0.4,2.6l3-0.5l-0.4-2.6L1.5,22.7z M2.7,20.7c-0.7,0.2-1,0.7-1.2,1.2
		c-0.1,0.2-0.1,0.4-0.1,0.5c0,0.1,0,0.1,0,0.2c0,0,0,0,0,0.1c0,0,0,0,0,0c0,0,0,0,0,0c0,0,0,0,0,0c0,0,0,0,0,0c0,0,0,0,0,0
		c0,0,0,0,1.5-0.2c1.5-0.2,1.5-0.2,1.5-0.2c0,0,0,0,0,0c0,0,0,0,0,0c0,0,0,0,0,0c0,0,0,0,0,0c0,0,0,0,0,0c0,0,0,0,0,0
		c0,0,0,0.1,0,0.1c0,0.1,0,0.2,0,0.3c0,0.1-0.1,0.3-0.3,0.5c-0.2,0.2-0.3,0.3-0.5,0.3L2.7,20.7z M7.3,16.4c-0.4,1.4-1,2.3-1.7,2.9
		c-0.7,0.6-1.7,1.1-2.9,1.4l0.8,2.9c1.4-0.4,2.8-1,4-2c1.2-1,2.1-2.5,2.6-4.4L7.3,16.4z"/>
</g>
</svg>
