<?xml version="1.0" encoding="utf-8"?>
<!-- Generator: Adobe Illustrator 24.0.1, SVG Export Plug-In . SVG Version: 6.00 Build 0)  -->
<svg version="1.1" id="Layer_1" xmlns="http://www.w3.org/2000/svg" xmlns:xlink="http://www.w3.org/1999/xlink" x="0px" y="0px"
	 width="24px" height="24px" viewBox="0 0 24 24" style="enable-background:new 0 0 24 24;" xml:space="preserve">
<path d="M12,12.7c0.6,0,1.2-0.2,1.7-0.5s0.9-0.8,1.1-1.3c0.2-0.5,0.3-1.2,0.2-1.7c-0.1-0.6-0.4-1.1-0.8-1.5
	c-0.4-0.4-1-0.7-1.5-0.8c-0.6-0.1-1.2-0.1-1.7,0.2c-0.5,0.2-1,0.6-1.3,1.1C9.2,8.5,9,9.1,9,9.7c0,0.8,0.3,1.6,0.9,2.1
	C10.4,12.4,11.2,12.7,12,12.7z M12,8.7c0.2,0,0.4,0.1,0.6,0.2C12.8,9,12.9,9.2,13,9.3c0,0.2,0,0.4,0,0.6s-0.1,0.4-0.3,0.5
	c-0.1,0.1-0.3,0.2-0.5,0.3c-0.2,0-0.4,0-0.6-0.1c-0.2-0.1-0.3-0.2-0.4-0.4C11.1,10,11,9.8,11,9.6c0-0.3,0.1-0.5,0.3-0.7
	C11.5,8.8,11.7,8.7,12,8.7z M21.6,17.9c-0.5-1.6-1.4-3.1-2.6-4.3c0.7-1.2,1-2.6,1-4s-0.4-2.8-1.1-4S17.2,3.5,16,2.8s-2.6-1.1-4-1.1
	S9.2,2.1,8,2.8S5.8,4.5,5.1,5.7S4,8.2,4,9.6s0.3,2.8,1,4c-1.2,1.2-2.1,2.6-2.6,4.3c-0.1,0.4-0.2,0.9-0.1,1.4
	c0.1,0.5,0.3,0.9,0.5,1.3c0.3,0.4,0.6,0.7,1.1,0.9c0.4,0.2,0.9,0.3,1.4,0.3h13.4c0.5,0,0.9-0.1,1.4-0.3c0.4-0.2,0.8-0.5,1.1-0.9
	c0.3-0.4,0.5-0.8,0.5-1.3C21.7,18.8,21.7,18.3,21.6,17.9z M12,3.7c1.2,0,2.3,0.4,3.3,1s1.8,1.6,2.2,2.7c0.5,1.1,0.6,2.3,0.3,3.5
	c-0.2,1.2-0.8,2.2-1.6,3.1s-1.9,1.4-3.1,1.6s-2.4,0.1-3.5-0.3c-1.1-0.5-2-1.2-2.7-2.2s-1-2.1-1-3.3C6,8.1,6.6,6.6,7.8,5.5
	C8.9,4.3,10.4,3.7,12,3.7z M19.5,19.3c-0.1,0.1-0.2,0.2-0.4,0.3c-0.1,0.1-0.3,0.1-0.5,0.1H5.3c-0.2,0-0.3,0-0.5-0.1
	c-0.1-0.1-0.3-0.2-0.4-0.3c-0.1-0.1-0.2-0.3-0.2-0.4c0-0.2,0-0.3,0-0.5c0.4-1.2,1-2.3,1.9-3.2C6.8,16,7.7,16.6,8.7,17
	s2.1,0.6,3.1,0.6c1.1,0,2.2-0.2,3.1-0.6c1-0.4,1.9-1.1,2.6-1.8c0.9,0.9,1.5,2,1.9,3.2c0,0.1,0.1,0.3,0,0.5
	C19.7,19,19.6,19.2,19.5,19.3z"/>
</svg>
