<?xml version="1.0" encoding="utf-8"?>
<!-- Generator: Adobe Illustrator 24.0.1, SVG Export Plug-In . SVG Version: 6.00 Build 0)  -->
<svg version="1.1" id="Layer_1" xmlns="http://www.w3.org/2000/svg" xmlns:xlink="http://www.w3.org/1999/xlink" x="0px" y="0px"
	 width="60px" height="60px" viewBox="0 0 60 60" enable-background="new 0 0 60 60" xml:space="preserve">
<g>
	<path fill="#414241" d="M38.3,29.8c0.4,0.3,0.9-0.2,0.6-0.6c0,0-0.1-0.1-0.1-0.1C38.3,28.8,37.8,29.4,38.3,29.8
		C38.2,29.7,38.2,29.8,38.3,29.8z M25.8,35.1c0.3,0.4,0.9,0,0.7-0.4c0,0-0.1-0.1-0.1-0.1c-0.3-0.4-0.9,0-0.7,0.4
		C25.7,35,25.7,35.1,25.8,35.1z M38.8,28.5c0.1,0,0.1,0.1,0.2,0.1c0.5,0.2,0.9-0.5,0.4-0.7c-0.1,0-0.1-0.1-0.2-0.1
		C38.8,27.6,38.4,28.3,38.8,28.5z M16.3,30.7c-0.1,0-0.2,0-0.4,0c-0.5,0-0.5,0.8,0,0.8c0.1,0,0.2,0,0.4,0
		C16.8,31.5,16.8,30.7,16.3,30.7z M16.3,30.4c0.1,0,0.2,0,0.3,0c0.2,0,0.4-0.2,0.4-0.4c0-0.2-0.2-0.4-0.4-0.4c-0.1,0-0.2,0-0.3,0
		c-0.2,0-0.4,0.2-0.4,0.4C15.9,30.2,16,30.3,16.3,30.4z M34.6,35.7c0.1,0.5,0.9,0.3,0.8-0.2c0,0,0-0.1,0-0.1
		c-0.1-0.5-0.9-0.3-0.8,0.2C34.6,35.6,34.6,35.7,34.6,35.7z M24.5,35.8c0.2,0.5,0.9,0.3,0.8-0.2c0-0.1-0.1-0.2-0.1-0.3
		c-0.2-0.5-0.9-0.3-0.8,0.2C24.4,35.6,24.5,35.7,24.5,35.8z M33.4,35.8c0,0.1,0,0.1,0,0.2c0.1,0.5,0.9,0.3,0.8-0.2
		c0-0.1,0-0.1,0-0.2C34,35.1,33.3,35.3,33.4,35.8z M26.8,51.2c-0.1-0.2-0.3-0.3-0.5-0.1c-0.2,0.1-0.3,0.4-0.1,0.6
		c0,0.1,0.1,0.1,0.1,0.2c0.1,0.2,0.3,0.3,0.5,0.1c0.2-0.1,0.3-0.4,0.1-0.6C26.9,51.4,26.9,51.3,26.8,51.2z M32.5,47.6
		c-0.1-0.2-0.4-0.1-0.6,0c-0.2,0.2-0.1,0.4,0,0.6c0,0,0.1,0.1,0.1,0.1c0.1,0.2,0.4,0.1,0.6,0c0.2-0.2,0.1-0.4,0-0.6
		C32.6,47.7,32.6,47.6,32.5,47.6z M38.8,41.1C38.8,41,38.7,41,38.8,41.1c-0.5-0.4-0.9,0.3-0.5,0.6c0,0,0.1,0,0.1,0.1
		C38.8,42,39.2,41.3,38.8,41.1z M38.1,42.5c-0.1,0-0.1-0.1-0.2-0.1c-0.4-0.3-0.8,0.4-0.4,0.7c0.1,0,0.1,0.1,0.2,0.1
		C38.1,43.5,38.5,42.8,38.1,42.5z M46.6,16.1c0.1-0.2,0-0.5-0.1-0.6s-0.4-0.3-0.6-0.2c-1.6,0.2-3.2-0.2-4.8-0.6
		c-0.4-0.1-0.7-0.2-1.1-0.3c-1.8-0.4-3.9-0.8-5.9-0.4c0.7-1.8,1.6-3.5,2.7-5C37,8.8,37,8.5,36.9,8.3C36.5,7,35.1,6,33.7,6h0
		c-0.2,0-0.4,0.1-0.6,0.3c-1.2,2.1-2.1,4.3-2.6,6.5c-2.2-2.2-5.3-3.5-8.4-3.3c-0.2,0-0.5,0.2-0.6,0.4c-0.1,0.2-0.1,0.5,0.1,0.7
		c0.7,0.9,1.2,1.9,1.4,3.1c-3,0.3-6.1,1.5-8.8,3.2c-0.2,0.2-0.4,0.4-0.3,0.7c0.1,0.3,0.3,0.5,0.6,0.5c1.8,0.2,3.6,0.6,5.5,1.3
		c-0.2,0.1-0.4,0.2-0.6,0.2c-1.1,0.5-2.2,1.2-3,2.1c-0.4,0.4-0.8,0.9-1.2,1.4c-0.4,0.6-0.6,1.3-0.7,2c-0.1,0.6,0.1,1.2,0.3,1.7
		c-0.3,0.4-0.5,0.8-0.7,1.3c-0.6,1.3-0.8,2.8-0.6,4.6c0.1,1.4,0.6,2.4,1.3,3c0.3,0.3,0.8,0.5,1.2,0.6c-0.7,0.9-0.9,2.1-0.6,3.4
		c0.2,1.3,0.7,2.4,1.4,3.2c0.4,0.5,0.9,0.9,1.5,1.2c-0.5,1.7,0.9,3.9,2,4.7c0.6,0.5,1.2,0.8,2,1c0.2,1.2,0.9,2.3,1.9,3.1
		c0.8,0.6,1.8,1,2.8,1c0.3,0,0.5,0,0.8-0.1c1.8-0.3,3.4-1.7,4.1-3.5c0.2,0,0.4,0,0.5,0c0.1,0,0.2,0,0.4,0c1-0.1,1.9-0.4,2.7-0.9
		c1.4-0.8,2.4-2.2,2.8-3.8c1.2-0.5,2.3-1.3,3.1-2.5c1.2-1.7,1.4-3.9,0.7-5.8c0,0,0.1,0,0.1,0l0.1,0c0.6-0.2,1-0.3,1.5-1
		c0.5-0.6,0.9-1.4,1-2.2c0-0.2,0.1-0.3,0.1-0.5c0.2-1,0.4-2-0.1-3.1c0-0.1-0.1-0.2-0.1-0.2c0.1-0.1,0.1-0.1,0.2-0.2
		c0.7-1.7,0.8-3.8,0.1-5.6c-0.6-1.7-1.9-3.3-3.6-3.3c0.9-0.2,1.9-0.6,2.8-1.2C45.2,19.2,46.1,17.8,46.6,16.1z M34,7.4
		c0.6,0.1,1.2,0.6,1.5,1.1c-2.2,2.9-3.6,6.7-3.9,10.5c-0.2,0.1-0.4,0.1-0.6,0.2C30.9,15.2,32,11.1,34,7.4z M15.7,25.3
		c0.1-0.5,0.2-1,0.5-1.4c0.3-0.4,0.6-0.9,1-1.2c0.8-0.8,1.7-1.4,2.6-1.8c0.7-0.3,1.4-0.5,2.1-0.6c0,0,0,0,0.1,0
		c0.2,0.1,0.3,0.1,0.5,0.2c-1.2,1.1-3,2-4.7,2.3c-0.2,0-0.5,0.2-0.5,0.5c-0.1,0.2,0,0.5,0.2,0.7c0.7,0.6,1.4,1,2.2,1.4c0,0,0,0,0,0
		c0,0.1,0,0.1,0,0.2c-0.9-0.5-2.2-0.6-3.2-0.1c-0.3,0.1-0.5,0.3-0.7,0.5C15.7,25.7,15.7,25.5,15.7,25.3z M15.5,34.7
		c-0.5-0.4-0.7-1.1-0.9-2.1c-0.2-1.5,0-2.8,0.5-3.9c0.4-0.9,1.1-1.7,1.9-2.1c0.6-0.3,1.6-0.3,2.1,0.2c0.1,0.1,0.2,0.1,0.3,0.1
		c0,1.3,0.4,2.6,1.2,3.7c-1,1.2-1.4,2.5-1.3,3.7c-0.1,0-0.2,0.1-0.3,0.1c-0.2,0.1-0.4,0.1-0.6,0.2l-0.3,0.1C17.7,34.8,17.4,35,17,35
		C16.4,35.1,15.9,35,15.5,34.7z M25.9,30.6c-1.4,1-2.6,0.6-3.3,0c-1.5-1.1-2.2-3.3-1.6-5c0,0,0,0,0,0c1.5,0.4,3.1,0.4,4.5,0
		C24.9,27.4,25.2,29.2,25.9,30.6z M21.5,31.5c0.1,0.1,0.2,0.2,0.3,0.2c0.8,0.6,1.6,0.9,2.4,0.9c0.8,0,1.6-0.3,2.4-0.8
		c0.3,0.4,0.7,0.8,1.1,1.1c0.2,0.2,0.5,0.3,0.7,0.4c-0.1,0.5-0.2,1-0.2,1.5c-0.4,1.4-1.3,2-2.2,2.3c-1.8,0.5-4.1-0.3-5.1-1.8
		c-0.1-0.2-0.2-0.5-0.3-0.7c0-0.1,0-0.2-0.1-0.4C20.5,33.4,20.8,32.4,21.5,31.5z M34.8,26c0.9,0.4,2,0.6,3.3,0.7
		c0.8,0,1.5-0.1,2.2-0.3c0.1,0.3,0.2,0.6,0.2,0.9c0.1,1.6-0.5,2.8-1.7,3.5c-1.3,0.7-2.9,0.6-4.2-0.4c0,0,0,0-0.1,0
		C35.1,29,35.2,27.4,34.8,26z M37.1,32.7c0.2,0,0.4,0,0.6,0c0.3,1.2,0.2,2.3-0.3,3.1c0,0,0,0,0,0c0,0.1-0.1,0.1-0.1,0.2
		c-0.2,0.4-0.5,0.7-0.9,1c-1.6,1.2-4.2,1.2-5.8,0.1c-0.5-0.4-1.1-1-1.2-2c0.1-0.4,0.1-0.8,0.2-1.3c0.1,0,0.3,0,0.4,0
		c1.2,0,2.3-0.5,3.4-1.6c0.2-0.2,0.3-0.3,0.4-0.5C34.9,32.3,36,32.7,37.1,32.7z M32.8,39.1c-0.2,1.3-0.7,2.3-1.2,3
		c-0.1,0.1-0.2,0.1-0.2,0.2c-0.7,0.8-1.4,1.1-2,1.3c-1.7,0.5-3.6,0.1-4.7-1.1c-1-1-1.2-2.5-0.6-4.1c0.3,0,0.5,0.1,0.8,0.1
		c0.5,0,1-0.1,1.5-0.2c1-0.3,1.8-0.9,2.3-1.6c0.3,0.5,0.7,1,1.2,1.3C30.7,38.7,31.8,39,32.8,39.1z M32.5,31.1
		c-1.3,1.4-2.7,1.6-4,0.6c-1.2-0.9-2.1-2.8-1.9-4.7c0.7,1.4,1.7,2.7,3.1,4.2c0.1,0.1,0.3,0.2,0.5,0.2c0.1,0,0.1,0,0.2,0
		c0.2-0.1,0.4-0.3,0.5-0.5c0.3-2,1.3-3.8,2.7-5.3C34,27.4,33.9,29.6,32.5,31.1z M17.7,42.1c-0.5-0.7-0.9-1.5-1.1-2.6
		c-0.2-1.3,0.1-2.3,1-2.9c0.5-0.4,1.2-0.6,1.8-0.9c0.1,0,0.2-0.1,0.2-0.2c0.1,0.2,0.2,0.3,0.3,0.5c0.6,1,1.7,1.8,3,2.2
		c-0.3,1-0.4,2-0.3,2.8c0,0,0,0.1,0,0.1c-0.3,1-1.2,1.9-2,2C19.5,43.4,18.4,43,17.7,42.1z M21,47.9c-0.8-0.6-1.8-2.3-1.5-3.3
		c0.2,0,0.3,0,0.5,0c0.2,0,0.4,0,0.7-0.1c1.1-0.2,1.9-0.9,2.5-1.8c0.2,0.3,0.4,0.5,0.6,0.8c0.8,0.9,2,1.4,3.2,1.6
		c0.2,0.7,0.1,1.4-0.3,2c-0.4,0.7-1.1,1.2-2,1.4C23.5,49,22,48.7,21,47.9z M27.4,52.6c-0.9,0.2-1.8-0.1-2.6-0.7
		c-0.6-0.5-1.1-1.1-1.3-1.8c0,0,0.1,0,0.1,0c0.5,0,1-0.1,1.5-0.2c1-0.3,1.9-0.9,2.5-1.7c0.7,1.1,2,1.6,2.5,1.8
		c0.1,0,0.2,0.1,0.3,0.1C29.9,51.4,28.7,52.4,27.4,52.6z M34.7,48.5c-0.6,0.4-1.4,0.6-2.2,0.7c-0.7,0.1-1.2-0.1-1.9-0.4
		c-1.5-0.6-2.2-1.3-2.2-2.3c0-0.1,0-0.2-0.1-0.3c0-0.3,0-0.7,0-1c0.5,0,1-0.1,1.5-0.3c0.8-0.2,1.4-0.6,2-1.1
		c0.9,1.5,2.5,2.5,4.3,2.5c0.2,0,0.3,0,0.5,0C36.2,47.2,35.5,48,34.7,48.5z M40.2,42.6c-1,1.3-2.3,2.2-3.7,2.3
		c-1.6,0.2-3.1-0.7-3.7-2.2c0.7-1,1.2-2.2,1.4-3.6c0,0,0-0.1,0-0.1c1.1-0.1,2.2-0.5,3.1-1.1c0.3-0.2,0.6-0.5,0.9-0.9
		c0.7,0.4,1.5,0.6,2.3,0.6c0,0,0.1,0,0.1,0C41.3,39.3,41.2,41.2,40.2,42.6z M43.5,33.6c0,0.2-0.1,0.3-0.1,0.5
		c-0.1,0.6-0.4,1.2-0.8,1.6c-0.2,0.3-0.4,0.4-0.9,0.5l-0.1,0c-1,0.3-2,0.2-2.9-0.2c0.4-0.9,0.5-2.1,0.2-3.7c0.2-0.1,0.3-0.1,0.5-0.2
		c0.9-0.5,1.6-1.3,2-2.3c0.9,0.1,1.7,0.7,2.1,1.5C43.9,32,43.7,32.7,43.5,33.6z M43.6,25.1c0.5,1.4,0.5,2.9,0.1,4.2
		c-0.5-0.5-1.2-0.8-1.8-0.9c0.1-0.4,0.1-0.8,0.1-1.2c0-0.4-0.1-0.8-0.2-1.2c0.4-0.1,0.8-0.2,1.2-0.4l0.3-0.1
		C43.4,25.6,43.5,25.4,43.6,25.1z M43.3,24.4c0,0-0.1-0.1-0.1-0.1c-0.6-0.2-1.1-0.6-1.7-1.5c-0.1-0.1-0.1-0.1-0.2-0.2
		C42.2,22.7,42.9,23.7,43.3,24.4z M43.2,19c-1.1,0.8-2.4,1.2-3.6,1.2c-0.2,0-0.4,0.1-0.6,0.3c-0.1,0.2-0.1,0.5,0,0.7
		c0.4,0.8,0.8,1.8,1.4,2.6c0.3,0.4,0.6,0.8,1,1.1c-1.1,0.3-2.1,0.6-3.2,0.6c-1.8,0-3.2-0.5-3.9-1.4c-0.2-0.3-0.6-0.3-0.9-0.1
		c-1.7,1.5-3,3.5-3.6,5.6c-1.5-1.8-2.4-3.4-2.8-4.9c0-0.2-0.2-0.4-0.3-0.4c-0.2-0.1-0.4-0.1-0.6,0c-2.1,0.9-4.6,0.7-6.6-0.4
		c1.8-0.6,3.5-1.7,4.7-3c0.1-0.2,0.2-0.4,0.2-0.6c0-0.2-0.2-0.4-0.4-0.5c-2.7-1.3-5-2.1-7.3-2.6c2.4-1.2,4.9-1.9,7.3-2.1
		c0.2,0,0.3-0.1,0.5-0.2c0.1-0.1,0.2-0.3,0.1-0.5c-0.2-1.2-0.5-2.3-1.1-3.3c2.5,0.2,5,1.5,6.7,3.5c0,0,0,0,0,0
		c-0.3,1.4-0.4,2.9-0.4,4.3c-1.1-0.8-2.5-1.4-3.8-1.7c-0.4-0.1-0.7,0.2-0.8,0.5c-0.1,0.4,0.2,0.7,0.5,0.8c1.6,0.3,3.1,1.2,4.3,2.3
		c0.1,0.1,0.3,0.2,0.5,0.2c0.1,0,0.2,0,0.3-0.1c0,0,0,0,0,0c2.2-0.7,4.5-1.1,6.8-1.2c0.4,0,0.6-0.3,0.6-0.7c0-0.4-0.3-0.7-0.7-0.6
		c-1.5,0-3,0.2-4.5,0.5c0.1-1.1,0.3-2.1,0.6-3.2c0.1,0,0.2,0,0.2,0c1.9-0.6,4-0.2,5.8,0.2c0.4,0.1,0.7,0.2,1.1,0.3
		c1.4,0.4,2.8,0.7,4.3,0.7C44.6,17.6,43.9,18.4,43.2,19z M41.9,33.3c-0.1,0-0.2,0-0.3,0c-0.2,0-0.4,0.2-0.4,0.4
		c0,0.2,0.2,0.4,0.4,0.4c0.1,0,0.2,0,0.3,0c0.2,0,0.4-0.2,0.4-0.4C42.3,33.4,42.1,33.3,41.9,33.3z M24.2,46.5
		C24.1,46.5,24.1,46.5,24.2,46.5c-0.5-0.3-0.9,0.4-0.5,0.7c0,0,0,0,0.1,0C24.2,47.5,24.6,46.8,24.2,46.5z M29.3,41.1
		c-0.1,0.2,0.1,0.4,0.3,0.5c0.1,0,0.1,0.1,0.2,0.1c0.2,0.1,0.4-0.1,0.5-0.3c0.1-0.2-0.1-0.4-0.3-0.5c-0.1,0-0.1-0.1-0.2-0.1
		C29.5,40.7,29.3,40.9,29.3,41.1z M28.6,41.8c-0.3-0.4-1,0-0.7,0.4c0,0.1,0.1,0.1,0.1,0.2c0.3,0.4,1,0,0.7-0.4
		C28.6,42,28.6,41.9,28.6,41.8z M20.6,41.3c0.2,0,0.4-0.2,0.4-0.4c0,0,0-0.1,0-0.1c0-0.2-0.2-0.4-0.4-0.4c-0.2,0-0.4,0.2-0.4,0.4
		c0,0,0,0.1,0,0.1C20.2,41.1,20.3,41.3,20.6,41.3z M23.2,47c-0.2-0.5-0.9-0.1-0.7,0.4c0,0.1,0.1,0.1,0.1,0.2
		c0.2,0.5,0.9,0.1,0.7-0.4C23.3,47.1,23.3,47.1,23.2,47z M19.7,40.9c-0.2-0.5-0.9-0.3-0.8,0.2c0,0.1,0,0.1,0.1,0.2
		c0.2,0.5,0.9,0.3,0.8-0.2C19.7,41,19.7,41,19.7,40.9z"/>
</g>
</svg>
