<svg id="Layer_1" width="24" height="24" viewBox="0 0 24 24" fill="none" xmlns="http://www.w3.org/2000/svg">
    <path d="M23 19V20L15 22.5L8 20.56V22H2V11H9.97L16.13 13.3C17.25 13.72 18 14.8 18 16H20C21.66 16 23 17.34 23 19ZM6 20V13H4V20H6ZM20.9 18.57C20.74 18.24 20.39 18 20 18H14.65C14.11 18 13.58 17.92 13.07 17.75L10.69 16.96L11.32 15.06L13.7 15.85C14 15.95 16 16 16 16C16 15.63 15.77 15.3 15.43 15.17L9.61 13H8V18.5L14.97 20.41L20.9 18.57Z"/>
    <path d="M17.5 1L19.0194 4.40869L22.7308 4.80041L19.9585 7.29881L20.7328 10.9496L17.5 9.085L14.2672 10.9496L15.0415 7.29881L12.2692 4.80041L15.9806 4.40869L17.5 1Z"/>
</svg>
