<?xml version="1.0" encoding="utf-8"?>
<!-- Generator: Adobe Illustrator 24.0.1, SVG Export Plug-In . SVG Version: 6.00 Build 0)  -->
<svg version="1.1" id="Layer_1" xmlns="http://www.w3.org/2000/svg" xmlns:xlink="http://www.w3.org/1999/xlink" x="0px" y="0px"
	 width="60px" height="60px" viewBox="0 0 60 60" enable-background="new 0 0 60 60" xml:space="preserve">
<g>
	<path fill="#414241" d="M42.2,30.7c-0.4,0.9-0.9,1.8-1.4,2.7c-0.2,0.4,0.4,0.8,0.6,0.4c0.5-0.9,1-1.8,1.4-2.7
		C43,30.7,42.4,30.3,42.2,30.7z M43.5,28.4c-0.2-0.1-0.4,0.1-0.4,0.3c-0.1,0.3-0.2,0.5-0.3,0.8c-0.1,0.2,0,0.4,0.1,0.5
		c0.1,0.1,0.4,0.1,0.5-0.1c0.1-0.3,0.3-0.6,0.4-1C43.8,28.7,43.6,28.5,43.5,28.4z M54.3,7.9c-1.7-0.1-3.5,1.1-5,2.1
		c0.2-1,0.4-1.9,0.5-2.9C50,5.7,50.4,2.7,48.9,2c-3-1.3-3.6,6.1-4.3,9.3c-0.3-1.1-0.8-1.9-1.7-1.8c-1.2,0.2-1.6,1.6-1.6,2.8
		c0,2.2,1.1,4.7,0.5,6.9c0,0-0.1,0-0.1,0c0,0,0,0-0.1,0c0,0-0.1,0-0.1,0c-5.9-0.5-8.8,5.8-10.3,10.9c-2.3,7.8-4.3,15.6-7.2,23.1
		c-0.6,1.7-0.7,4.5,1.4,4.9c1.2,0.2,2.6-0.8,3.6-1.5c1.3-0.9,2.6-2.1,3.7-3.3c2.3-2.6,3.4-5.9,5.4-8.7c2.2-3.1,4.1-6.5,6.1-9.8
		c1.8-2.9,3.6-6.2,3.1-9.8c-0.3-2-1.2-3.5-2.6-4.5c1.4-2.5,4-4.2,6.2-5.8c1.3-1,3.5-2.1,4.4-3.7C56,9.7,55.9,8,54.3,7.9z M44.8,22.1
		c1,1.1,1.5,2.5,1.5,4.3c-0.1,3.1-1.7,5.7-3.2,8.1c-0.6,1-1.2,2-1.8,3c-1-1.2-2.2-2.1-3.6-2.6c-0.4-0.2-0.6,0.6-0.2,0.7
		c1.3,0.5,2.5,1.3,3.4,2.5c-0.8,1.3-1.6,2.6-2.4,3.9c-0.7,1.1-1.4,2.1-2.1,3.2c-0.1,0.1-0.1,0.2-0.2,0.3c-1.2-1.3-2.6-2.1-4.3-2.5
		c-0.4-0.1-0.6,0.6-0.2,0.7c1.6,0.3,3,1.2,4.1,2.4c-0.5,0.9-0.8,1.9-1.3,2.8c-1.4,2.6-3.4,4.8-5.7,6.5c-0.5,0.3-1.2,1-1.8,1.1
		c-0.4,0-0.7-0.1-1.1-0.1c-0.8,0.3-1.2,0.1-1.2-0.7c-0.2-0.6-0.1-1.1,0.1-1.6c0.3-1.2,1-2.4,1.4-3.5c0.3-0.9,0.7-1.8,1-2.7
		c0.9,0.2,1.6,0.5,2.4,1c0.4,0.3,0.7-0.4,0.4-0.7c-0.8-0.5-1.6-0.9-2.5-1.1c1.2-3.7,2.1-7.4,3.1-11.1c0.8,0.2,1.6,0.6,2.3,1.1
		c0.4,0.3,0.7-0.4,0.4-0.7c-0.7-0.6-1.6-1-2.4-1.2c0.2-0.6,0.3-1.2,0.5-1.8c0.5-1.7,1-3.7,1.8-5.7c1.8,0.4,3.5,1.2,5.1,2.3
		c0.4,0.3,0.7-0.4,0.4-0.7c-1.6-1.1-3.3-1.9-5.2-2.3c1.5-3.7,3.6-6.9,7.5-6.9c-0.8,0.3-1.6,0.8-2.2,1.5c-0.3,0.3,0.2,0.9,0.5,0.5
		c0.9-0.9,2-1.5,3.3-1.6c0.1,0,0.2-0.1,0.2-0.1c0.5,0.2,1,0.4,1.4,0.7c0.6,1.8,0.5,3.8-0.3,5.6c-0.2,0.4,0.4,0.8,0.6,0.4
		C44.9,25.6,45.1,23.8,44.8,22.1z M54.3,10.8c-0.5,0.6-1.2,1-1.8,1.5c-2.9,2.2-6.6,4.4-8.6,7.7c-0.4-0.2-0.9-0.5-1.4-0.6
		c0.3-1.1,0.1-2.3,0-3.4c-0.2-1.3-1-3.7-0.3-5c1.2-2.1,1.8,3.3,1.8,4.2c0,0.6,0.9,0.6,0.9,0c0-0.5,0-1.3-0.1-2.3
		c0,0,0.1-0.1,0.1-0.1c0.7-1.3,1.7-10.7,3.6-9.9c1.3,0.5,0.4,4.6,0.2,5.6c-0.3,1.5-0.6,3-1,4.5c-0.1,0.6,0.7,0.8,0.8,0.3
		c0.2-0.7,0.3-1.3,0.5-2c1.4-0.9,3.2-2.3,4.8-2.4C55.1,8.9,55,9.9,54.3,10.8z"/>
	<path fill-rule="evenodd" clip-rule="evenodd" fill="#414241" d="M14.9,44.7c1.4-0.5,2.9-0.9,4.4-1.1c0.5-0.1,0.5,0.8,0,0.9
		c-1.4,0.2-2.8,0.5-4.2,1C14.6,45.8,14.4,44.9,14.9,44.7z M12.9,41.2c0.5-0.2,1.1-0.5,1.6-0.7c0.5-0.2,0.7,0.7,0.2,0.9
		c-0.5,0.2-0.9,0.4-1.4,0.6c-0.2,0.1-0.4,0.1-0.6-0.2C12.6,41.6,12.7,41.3,12.9,41.2z M11.1,37.4c1.9-1,3.9-1.8,6-2.3
		c0.5-0.1,0.7,0.7,0.2,0.9c-2,0.5-3.9,1.3-5.8,2.2C11.1,38.4,10.7,37.6,11.1,37.4z M21.9,34.7c1.7,0.2,3.3,0.7,4.9,1.4
		c0.5,0.2,0.1,1-0.4,0.8c-1.4-0.7-3-1.1-4.5-1.3C21.3,35.6,21.3,34.7,21.9,34.7z M24.6,40.5c-0.1,0.2-0.3,0.4-0.5,0.3
		c-0.3-0.1-0.5-0.1-0.8-0.2c-0.2,0-0.3-0.3-0.3-0.6c0.1-0.3,0.3-0.4,0.5-0.3c0.3,0,0.5,0.1,0.8,0.2C24.5,40,24.7,40.3,24.6,40.5z
		 M18.2,26.4c4-0.8,8.2-0.5,11.2,2.8c1.4,1.6,2.4,3.4,2.9,5.4l-0.8,3c0-0.9-0.1-1.8-0.4-2.7c-1.3-1.1-2.7-1.9-4.2-2.5
		c-0.5-0.2-0.3-1.1,0.2-0.9c1.2,0.5,2.4,1.1,3.5,1.9c-0.8-1.9-2.1-3.5-3.7-4.7c-3.3-2.3-7.3-1.4-10.8-0.3c-3.8,1.1-7.4,3.5-8.9,7
		c1.9-1.8,4.2-2.9,6.6-3.8c0.5-0.2,0.7,0.7,0.2,0.9c-2.7,1-5.5,2.4-7.4,4.8c-0.2,1.1-0.2,2.2,0,3.4c0.8-1,1.8-1.7,2.9-2.4
		c0.5-0.3,0.9,0.5,0.4,0.8c-1.2,0.7-2.2,1.6-3.1,2.7c0,0.2,0.1,0.4,0.2,0.6c0.2,0.8,0.6,1.6,1,2.4c1.1-1.2,2.3-2.2,3.7-3
		c0.5-0.3,0.9,0.5,0.4,0.8c-1.3,0.8-2.6,1.8-3.7,3c0.6,0.8,1.2,1.5,2,2c0.1,0,0.1,0.1,0.2,0.1c0,0,0.1,0,0.1,0.1
		c0.6-0.9,1.4-1.6,2.3-2.2c0.5-0.3,0.9,0.5,0.4,0.8c-0.8,0.5-1.4,1-1.9,1.8c0.7,0.3,1.5,0.5,2.3,0.7c0.6,0.2,1.3,0.3,1.9,0.5
		c2.4,0.9,4.2,2.7,4.6,5.3c0.1-0.3,0.2-0.9,0.2-1.3c0-0.1,0-0.3,0-0.3c0.2-0.7,0.5-1.4,0.8-2c0.7-1.3,1.6-2,2.8-2.7
		c1-0.6,2-1.2,2.9-2c-0.4-0.3-0.8-0.6-1.3-0.8c-0.5-0.3-0.1-1,0.4-0.8c0.5,0.3,1,0.6,1.5,1c0,0,0,0,0,0c0,0,0,0,0,0
		c0.6-0.6,1.2-1.2,1.8-2c0,0-0.1-0.1-0.1-0.1c-0.8-1.3-1.9-2-3.2-2.5c-0.5-0.2-0.3-1.1,0.2-0.9c1.4,0.6,2.7,1.4,3.6,2.8
		c0-0.1,0.1-0.1,0.1-0.2l-0.6,2.2l-0.3,1.1c-0.8,0.9-1.8,1.7-2.8,2.3c-0.4,0.3-0.8,0.5-1.1,0.7c-1.3,0.8-2.4,1.5-3.2,3
		c-0.2,0.5-0.3,1.1-0.3,1.7c0,0.9-0.1,1.7-0.7,2.2c-0.7,0.5-1.3,0.3-1.8-0.4c0-0.1-0.1-0.1-0.1-0.2c0,0,0,0,0,0c0,0,0,0,0,0
		c0,0,0,0,0,0c0,0,0,0,0,0c0-0.1,0-0.1,0-0.2c-0.2-3.7-3-4.5-5.8-5.4c-1.6-0.5-3.2-0.9-4.3-1.9c-2.4-2.1-3.7-5.5-3.7-8.8
		c0-0.5,0-1,0.1-1.4c0,0,0-0.1,0-0.2c0.6-4.8,3.9-8.1,8.1-9.8c0.5-0.2,1-0.4,1.5-0.6c-0.2-1.7-0.6-2.6-2.1-3.5
		c-0.1-0.1-0.2-0.1-0.3-0.2c-0.7-0.4-1.4-0.9-2.2-1.3c-1-0.6-1.7-1.3-1.7-2.2c-1.3,0.3-2.7,0-3.2-1.6c-0.5-1.6,0.3-3.2,1.3-4.3
		c-3-0.8-3.2-5.8-0.6-7.6C5.1,5.5,4.7,3.7,6.1,2.4c1.8-1.6,3.2,0.7,3.6,2.4c0.3,1.3,0.5,2.6,0.7,3.9c0.1,1,0.3,2,0.5,3
		c0.4,1.9,1.4,3.6,2.4,5.2c-0.7-3.3-1.1-7-0.7-10.2c0.1-1.1,0.8-3.4,2.2-2.6c0.6,0.4,0.9,1.3,1,2c0,0.2,0,0.4,0,0.5
		c0,0.4,0,0.7,0.2,1c0.1,0.2,0.3,0.3,0.5,0.5c0.2,0.1,0.4,0.3,0.6,0.5c1.1,1.5,0.9,3.6-0.1,5c2,0.8,1,4,0.2,6.6
		c-0.3,1.1-0.6,2-0.7,2.6c0,0,0,0,0,0c0,0,0,0,0,0c0.1,0.4,0.3,0.8,0.3,1.2c0.4-1.3,0.9-2.4,1.5-3.6c0.7-1.6,1.5-3.2,1.8-5
		c0.2-1.2,0.1-2.4,0-3.6c-0.1-1-0.2-2,0-3c0.1-0.6,0.2-1.2,0.7-1.5c1.4-0.9,2.6,1.7,2.9,2.8c0.9,2.9,1.2,6-1,8
		c2.1,2.2-0.7,4.7-2.9,6.7C19.2,25.4,18.6,25.9,18.2,26.4z M30.8,40.1l0.3-1c-0.8-0.8-1.7-1.5-2.7-2.1c-0.5-0.3-0.9,0.5-0.4,0.8
		C29,38.5,30,39.2,30.8,40.1z M21.3,11.4c0,0.7,0.1,1.3,0.1,2c0,2.5-1,4.7-2,6.9c-0.8,1.7-1.5,3.4-1.8,5.2c0.3-0.3,0.7-0.7,1.2-1.1
		c2.1-1.9,5-4.4,3-6c-0.3-0.2-0.3-0.7,0-1c1.9-1.4,1.8-3.3,1.4-5.4c0,0,0-0.1,0-0.1c-0.2-1-0.4-2.3-1-3.1c-0.9-1.1-0.9-0.2-0.9,0.8
		v0C21.2,10.3,21.3,10.8,21.3,11.4z M14.8,7.9c0-0.7-0.1-3.8-1-2c-0.4,0.9-0.3,2.3-0.2,3.4c0,0.2,0,0.5,0.1,0.7
		c0.2,3.3,0.6,6.6,1.5,9.8c0.3,0.4,0.5,0.9,0.7,1.3c0.1-0.6,0.3-1.2,0.5-1.9c0-0.1,0.1-0.2,0.2-0.4c0.5-1.4,1.7-4.2-0.5-4.2
		c-0.4,0-0.7-0.6-0.4-1c1.5-1.4,1.8-4.3-0.5-5.1C14.9,8.4,14.8,8.2,14.8,7.9z M11.7,21.9c0.8,0.5,1.6,1,2.3,1.5
		c1.3,0.9,1.6,2.2,1.8,3.7c0.1,0,0.2-0.1,0.3-0.1c0.1-2.5-0.8-4.6-1.9-6.6c0-0.1-0.1-0.1-0.1-0.2c-0.4-0.6-0.7-1.2-1.1-1.8
		c-1-1.5-1.9-3-2.6-4.7c-0.6-1.5-0.8-3.1-1-4.8C9.3,8.1,9.2,7.3,9,6.6c0-0.1,0-0.2,0-0.3C8.8,5.1,8.3,2.5,6.8,3.2
		C5.4,3.9,6.6,5.8,7.3,6.3c0.4,0.3,0.3,0.9-0.1,1C4.4,8.5,4.6,13.7,8,13.3c0.6-0.1,0.6,0.8,0.3,1.1c-0.9,0.7-2.1,2.1-2,3.5
		c0.2,1.9,2,1.4,3.2,0.9c0.5-0.2,0.9,0.6,0.5,0.9c-0.9,1,0.3,1.6,1.2,2C11.4,21.7,11.5,21.8,11.7,21.9z M22.9,43.8
		c0.6,0.1,1.1,0.3,1.7,0.5c0.5,0.2,0.3,1-0.2,0.9c-0.6-0.2-1.1-0.3-1.7-0.5C22.2,44.6,22.4,43.7,22.9,43.8z M21.9,39.6l0.2,0
		c0.2,0,0.4,0.2,0.4,0.5c0,0.2-0.2,0.5-0.4,0.5l-0.2,0c-0.2,0-0.4-0.2-0.4-0.5C21.4,39.8,21.6,39.5,21.9,39.6z M25.3,31.9
		c-0.7-0.2-1.4-0.3-2.1-0.4c-0.5-0.1-0.3-0.9,0.2-0.9c0.7,0.1,1.4,0.2,2.1,0.4C26,31.2,25.8,32.1,25.3,31.9z"/>
</g>
</svg>
