<?xml version="1.0" encoding="utf-8"?>
<!-- Generator: Adobe Illustrator 24.0.1, SVG Export Plug-In . SVG Version: 6.00 Build 0)  -->
<svg version="1.1" id="Layer_1" xmlns="http://www.w3.org/2000/svg" xmlns:xlink="http://www.w3.org/1999/xlink" x="0px" y="0px"
	 width="24px" height="24px" viewBox="0 0 24 24" style="enable-background:new 0 0 24 24;" xml:space="preserve">

<path class="path_eye_off" d="M2,5.3L3.3,4L20,20.7L18.7,22l-3.1-3.1c-1.1,0.4-2.4,0.6-3.6,0.6c-5,0-9.3-3.1-11-7.5c0.7-1.8,1.8-3.3,3.2-4.5
	L2,5.3z M12,9c0.8,0,1.6,0.3,2.1,0.9c0.6,0.6,0.9,1.3,0.9,2.1c0,0.3-0.1,0.7-0.2,1L11,9.2C11.3,9.1,11.6,9,12,9z M12,4.5
	c5,0,9.3,3.1,11,7.5c-0.8,2.1-2.2,3.9-4,5.2l-1.4-1.4c1.4-0.9,2.5-2.2,3.2-3.8c-1.6-3.4-5.1-5.5-8.8-5.5c-1.1,0-2.2,0.2-3.2,0.5
	L7.3,5.5C8.7,4.9,10.3,4.5,12,4.5z M3.2,12c1.6,3.4,5.1,5.5,8.8,5.5c0.7,0,1.4-0.1,2-0.2L11.7,15c-1.4-0.2-2.6-1.3-2.7-2.7L5.6,8.9
	C4.6,9.7,3.8,10.8,3.2,12z"/>

<path class="path_eye_on" d="M12,9c0.8,0,1.6,0.3,2.1,0.9c0.6,0.6,0.9,1.3,0.9,2.1s-0.3,1.6-0.9,2.1S12.8,15,12,15s-1.6-0.3-2.1-0.9
	C9.3,13.6,9,12.8,9,12s0.3-1.6,0.9-2.1C10.4,9.3,11.2,9,12,9L12,9z M12,4.5c5,0,9.3,3.1,11,7.5c-1.7,4.4-6,7.5-11,7.5S2.7,16.4,1,12
	C2.7,7.6,7,4.5,12,4.5z M3.2,12c1.6,3.4,5.1,5.5,8.8,5.5s7.2-2.1,8.8-5.5c-1.6-3.4-5.1-5.5-8.8-5.5S4.8,8.6,3.2,12z"/>
</svg>
