<?xml version="1.0" encoding="utf-8"?>
<!-- Generator: Adobe Illustrator 24.0.1, SVG Export Plug-In . SVG Version: 6.00 Build 0)  -->
<svg version="1.1" id="Layer_1" xmlns="http://www.w3.org/2000/svg" xmlns:xlink="http://www.w3.org/1999/xlink" x="0px" y="0px"  width="787px" height="535px" viewBox="0 0 787 535" style="enable-background:new 0 0 787 535;" xml:space="preserve">

	<path id="map-region-zaporizha" fill="#eeeeee" d="M669.3,349.1c0-0.2,0.1-0.4,0.2-0.6l3.5-2.9l-5.1-9.2l-5.8-3.6c-0.2-0.2-0.4-0.4-0.3-0.7 l2.4-8.9c0-0.2,0.2-0.3,0.3-0.4l9.5-5.4l-1.2-3.4l-5.4-3.1c-0.1-0.1-0.2-0.1-0.2-0.2l-3.6-5.8l-5.1,2.4c-0.2,0.1-0.4,0.1-0.6,0 l-6.1-3c-0.2-0.1-0.4-0.3-0.4-0.6v-4.3l-4.8-1.8c-0.1,0-0.2-0.1-0.3-0.2l-5.8-6.8l-8.5,2.5c-0.1,0-0.3,0-0.4,0l-6-1.9l-3.9,3 c-0.2,0.1-0.3,0.2-0.5,0.1c-0.2,0-0.3-0.2-0.4-0.3l-2.4-4.3c-0.1-0.2-0.1-0.5,0-0.7l2.1-3.5l-7.6-7.8l-7.2,1.7c-0.2,0-0.4,0-0.5-0.1 l-4.6-3.2l-9,5.4c-0.2,0.1-0.4,0.1-0.6,0l-6.1-2.7l-21.6,3.1v2.2l2.8,2.4c0.2,0.1,0.2,0.3,0.2,0.5l-0.4,14.5l3.5,3.5 c0.2,0.2,0.2,0.4,0.2,0.6l-1.2,4.5l6.6,11.1c0.1,0.2,0.1,0.5,0,0.7c-0.1,0.2-0.4,0.3-0.6,0.3l-19.6-1.7l-14.6,6.5l1.6,8.5l1.4,2.2 l4.7-2.5c0.2-0.1,0.4-0.1,0.5,0l5,1.7c0.3,0.1,0.4,0.3,0.4,0.6v8.7l4.9,2.6c0.2,0.1,0.3,0.3,0.3,0.5l1.4,8.1l3.4-1.2 c0.3-0.1,0.5,0,0.7,0.2l6.5,7.6c0.2,0.2,0.2,0.5,0.1,0.7l-3.5,7.6c-0.1,0.1-0.2,0.3-0.3,0.3l-6.7,3.1v1.1l6.2-2.1 c0.3-0.1,0.5,0,0.7,0.2l1.6,2c0.1,0.2,0.2,0.4,0.1,0.6l-1.4,4.2l13,5.6c0.2,0.1,0.3,0.3,0.4,0.5l1.1,5.8l4.4,3l0.4-0.8l2.5,0.7 l1-7.4l3.5,7.5h3.3l-0.8,3.9l3.7-7.3l-5.2-4.5V377l5.6,10.9l6,0.9l5.3-7.2l5.6-3.5l3.5-4.2l14-1.3l3.9,1.8l6.5-9.8l12.1-2l4.6,4.8 l1.3-3.4l0.5-4.9l4.1-3.8l2-1.1L669.3,349.1z"/>
	<path id="map-region-herson" fill="#eeeeee" d="M583.1,403.4l2.8-5.9l-4.7-3.2c-0.1-0.1-0.2-0.2-0.3-0.4l-1.1-5.7l-13.2-5.7 c-0.3-0.1-0.5-0.5-0.4-0.8l1.5-4.4l-1.1-1.3l-6.7,2.2c-0.2,0.1-0.4,0-0.6-0.1c-0.2-0.1-0.3-0.3-0.3-0.5v-2.4c0-0.3,0.1-0.5,0.4-0.6 l6.9-3.2l3.3-7l-5.9-6.9l-3.7,1.4c-0.2,0.1-0.4,0-0.6,0c-0.2-0.1-0.3-0.3-0.3-0.5l-1.5-8.6l-4.9-2.7c-0.2-0.1-0.3-0.3-0.3-0.6v-8.7 l-4.3-1.5l-5,2.7c-0.3,0.2-0.7,0.1-0.9-0.2l-1.7-2.8c0-0.1-0.1-0.1-0.1-0.2l-1.7-8.7l-15.9-2.5l-7,2.8c-0.2,0.1-0.5,0-0.7-0.1 l-5.4-5l-4.1,1l-4.9,3.8c-0.2,0.1-0.4,0.2-0.6,0.1l-11.1-4.2l1.6,10c0,0.1,0,0.2,0,0.2l-1,5.2l3.1,5.9c0.1,0.2,0.1,0.6-0.1,0.8 l-9.1,9.5l3.7,3.9c0.2,0.2,0.2,0.4,0.1,0.7l-2,5.6c-0.1,0.2-0.2,0.3-0.4,0.4l-2.7,1.1l2,5.9c0.1,0.3,0,0.7-0.3,0.8l-4.8,2.2 c-0.2,0.1-0.3,0.1-0.5,0l-12.1-4.6l-1.9,3c-0.1,0.1-0.2,0.2-0.3,0.2l-13.3,6.5c-0.2,0.1-0.3,0.1-0.5,0l-3.1-1v5 c0,0.2-0.1,0.4-0.2,0.5l-4.6,4.3v0.5l5.5,3.5l1.2,2.5l4.5-2.5l10,1.4l-2,6.7l-23.5-3.6l-8.1,2l-3.9-2.7l-2.6,2l4.2,3.8l11.2-0.7 l6.7,2l0.3,3.9l-6.7,3l-4.8,1.9l0.3,2.2l6.4-1.2l16.9,6.1l-2.2,1.2l-26.2-4.8l-6.1-6.2l-2,2.6l7.7,4.9l43.6,9.4h13.3l-13.2-2.6 l6.2-3.5l8.8,1.4l4.3-4.5l11.2,1.9v2.7l5.1,0.1l3.3,2.5l3.8-3.6l-2.2-2.7l3-0.6l1.1-6.1c0-0.2,0.1-0.3,0.3-0.4l1.9-1.2 c0.2-0.1,0.4-0.1,0.6-0.1l4.5,1.5l0.7-1.7l8.1,0.7l6.1,6.2l5.1-0.9l0.4-1.9l-1.6-6.5l3.8,5.9l-0.4,4.1h4.6l-2.2-6.2l7.5,0.3l2.3,2 l3.2-2.5l0.1,5.6l-3.5-0.7l-3,5.4l4.6,3.2l7-12.7l3.6-1l1.4,0.2l1,4.6l-3.6,0.1c0,0-2.2,3.5-1.7,3.5c0.4,0,8.5,4.1,8.5,4.1 l-3.5-13.5l4.9-4.5L583.1,403.4z"/>
	<path id="map-region-mikolaiv" fill="#eeeeee" d="M438.9,386.2v-4.1l3.9,3v2l3.5-3.3v-5.6c0-0.2,0.1-0.4,0.3-0.5c0.2-0.1,0.4-0.2,0.6-0.1l3.7,1.2 l12.8-6.3l2.1-3.3c0.2-0.3,0.5-0.4,0.8-0.3l12.3,4.7l4-1.8l-2-6c-0.1-0.3,0.1-0.7,0.4-0.8l3-1.2l1.7-5l-3.9-4.1 c-0.2-0.3-0.2-0.6,0-0.9l9.2-9.6l-3-5.7c-0.1-0.1-0.1-0.3-0.1-0.4l1.1-5.3l-1.7-10.6l-6.6-2.7c-0.2-0.1-0.3-0.2-0.4-0.4 s0-0.4,0.1-0.6l3.5-5.1l-3.7-7c0-0.1-0.1-0.2-0.1-0.3l-0.2-12.2l-2.9-1.2l-2.7,3.3c-0.1,0.1-0.3,0.2-0.5,0.2h-3.9v3.7 c0,0.2-0.1,0.5-0.3,0.6l-4,2.2v2.9c0,0.3-0.2,0.6-0.5,0.6l-17.9,4.3l-3.3,3.3c-0.1,0.1-0.3,0.2-0.5,0.2c-0.2,0-0.3-0.1-0.4-0.2 l-2.7-2.5l-3.9-1.8l-2.5,1.6c-0.2,0.1-0.4,0.1-0.6,0.1c-0.2-0.1-0.3-0.2-0.4-0.4l-3-8.1l-4.2-4.2c-0.1-0.1-0.2-0.3-0.2-0.5v-7.7 l-25.3-3c-0.2,0-0.4-0.1-0.5-0.3l-3.4-5.9l-2.5,1.5l-2.4,4.6c-0.1,0.2-0.2,0.3-0.4,0.3l-7.2,2.4c-0.2,0.1-0.4,0-0.5,0l-3.8-2 l-4.9,2.5c-0.1,0-0.1,0-0.2,0.1l-12.1,2.3l-1.8,4c-0.1,0.1-0.1,0.2-0.2,0.3l-3.7,2.4l5.2,6.2c0.2,0.3,0.2,0.6,0,0.9l-1.8,1.8 l8.4,4.6c0.3,0.1,0.4,0.5,0.3,0.8l-2.2,7.4l8,2c0.1,0,0.2,0.1,0.3,0.2l3.2,3.6l3-3.6c0.1-0.2,0.3-0.2,0.5-0.2c0.2,0,0.4,0.1,0.5,0.3 l6.7,9.6c0.1,0.2,0.1,0.4,0.1,0.6l-2,6.7c-0.1,0.2-0.2,0.3-0.4,0.4l-4.4,2v3.6l9.3-1c0.3,0,0.5,0.1,0.6,0.3l1.7,3l6.8,1.7 c0.3,0.1,0.5,0.4,0.5,0.7l-0.2,4.4l6.2,1.4c0.3,0.1,0.5,0.3,0.5,0.6v5.6c0,0.2-0.1,0.4-0.3,0.5l-7.7,5.1l6.4,9.2 c0.1,0.1,0.1,0.2,0.1,0.4v10.2l1.7,5.1l7.4-0.7l2.6-2.9l1.7,2.6l16.4-1.7L438.9,386.2z"/>
	<path id="map-region-odessa" fill="#eeeeee" d="M405.1,378.5l-6.6-9.6c-0.1-0.1-0.1-0.3-0.1-0.5c0-0.2,0.1-0.3,0.3-0.4l8-5.2V358l-6.2-1.4 c-0.3-0.1-0.5-0.3-0.5-0.7l0.2-4.5l-6.6-1.6c-0.2,0-0.3-0.2-0.4-0.3l-1.6-2.9l-9.6,1c-0.2,0-0.4,0-0.5-0.2c-0.1-0.1-0.2-0.3-0.2-0.5 v-4.8c0-0.3,0.1-0.5,0.4-0.6l4.5-2l1.8-6.1l-6.1-8.6l-2.9,3.5c-0.1,0.1-0.3,0.2-0.5,0.2c-0.2,0-0.4-0.1-0.5-0.2l-3.6-4l-8.5-2.1 c-0.2,0-0.3-0.2-0.4-0.3c-0.1-0.2-0.1-0.3-0.1-0.5l2.2-7.5l-8.7-4.7c-0.2-0.1-0.3-0.3-0.3-0.5c0-0.2,0-0.4,0.2-0.6l2-2l-5.3-6.3 c-0.1-0.1-0.2-0.3-0.1-0.5c0-0.2,0.1-0.3,0.3-0.5l4.2-2.7l1.5-3.3l-13-1.4c-0.3,0-0.6-0.3-0.6-0.6v-4.6l-6.4,4.3 c-0.1,0.1-0.2,0.1-0.4,0.1h-2.4l-24.3,8.4c-0.2,0.1-0.4,0-0.6-0.1c-0.2-0.1-0.3-0.3-0.3-0.5v-5l-6-0.2l-2.3,8.6 c0,0.2-0.2,0.3-0.3,0.4l-4.1,2l1.4,2h6.1l4.1-2.6l6.5,7.8l-3.2,2l0.4,2l3.9,0.7l-4.3,15.2l-4.1,0.9l0.1,2.3h2.9l1,6.5l5.6-1.6 l5.2,10.7l3.2-0.6v-3.9l4.3-0.6v7.7l-1.7,1.6l-0.3,5.9l-2.6,1.4l0.7,2.9l5.5-1.3l-2.2,9l6.4,1.6l2.8,4.3l10.6,2.2l-1.4,7.5l4.3,14.8 l7.8,2.5l-1.6,2h-10.9l-4.1,3.5l-3.9-6.8l-4.5,2.9l0.9,4.8h-3.6l-7.1-7.1l-2,2.6l-3.6-5.4l-1.9,1.4v5.8l-2.2,0.1l-0.1-9.7l-12.2,6.8 l1.2,10.7l4.5,4.9l-5.8,6.7l2.2,4.5l-2.9,3.8H300l-0.4,9.3l-2.8,2.3l-4.1,1.7l-0.9,3.3l-5.1-1.7l-1.6,4.1l5.1,2.3l-2.3,5.6l-2.5,2 l1,2.9l-10.7-1.3l-2.2,3.8l1.9,2l2.5,6.8l17.8,8.8l5.4-1.6l-0.9-5.8l2.3,0.1l4.2,2.5l17.4-9.6l4.6,0.9l11,5.2l1.9,6.2l1.9-0.3 l1.2-5.4l1.4-0.9l-1.4-2.9v-4.2l-4.9-0.9l-0.9-1.7l4.3-3.5l-7.1-0.4l1.9-4.6c0,0-1.9-3.3-1.9-3.8c0-0.4,2.3-3,2.3-3l-0.1-2.5l2-2 l-0.4,4.3l4.9,9.4l0.6,1l6.4-6.2l-4.3-2.3l0.7-3l3.8,2.2l3.9-10.6l3.3,4.2l-3.6,4.6l1,0.3l7.1-6.5l3-5.5l10.9-12.7l-3.8-1.6 l-0.7-5.8l-6.4-2.3l-5.8-5.5l2.6-5.6l4.1,6.8l2.5-3.5l0.9,4.6l3.8,3l1.3,4.1l3.3,3.3l1.7-5.2l11.7-16.2v-8.5l10.7-4.2l1.5-5.4 L405.1,378.5L405.1,378.5z"/>

	<path fill="#eeeeee" d="M368.3,71.6l-0.9,5.8l-1,1.3l4.7,1.3l-4.8,3l-1.8-0.5l3.1,16.4l5.3,2.3c0.3,0.1,0.4,0.4,0.4,0.7l-1,6.2l7.8,8.5 h13.5c0.3,0,0.6,0.3,0.6,0.6l1,10.3l14.2,1.4l4.1-2.8l7.4-4.7c0.2-0.1,0.5-0.1,0.7,0l9.3,5.6c0.2,0.1,0.3,0.3,0.3,0.4 c0,0.2,0,0.4-0.1,0.5l-3.3,4l9.9,6.9h3.7l1.4-3.3c0.1-0.2,0.3-0.4,0.6-0.4h6.5c0.2,0,0.3,0.1,0.4,0.2l1.9,1.6l9.7-1.8l11.4-8.9 l1.5-22.6c0-0.1,0-0.2,0.1-0.2l2.4-5.4l-5-3.4c-0.1-0.1-0.2-0.2-0.3-0.4l-0.6-2l-4.9-1.4c-0.2-0.1-0.3-0.2-0.4-0.3l-2.2-4.3 c-0.1-0.2-0.1-0.5,0.1-0.7l4.6-5.6l-1.5-7.3c0-0.2,0-0.4,0.2-0.6l1.6-1.8l0.6-8.7c0-0.1,0-0.2,0.1-0.3l3.5-5.8l-6-16.2 c-0.1-0.3,0-0.6,0.2-0.7l10-8.3v-3.8c0-0.2,0.1-0.4,0.3-0.5l4.9-3.3v-2.9h-6.7c-0.2,0-0.4-0.1-0.5-0.3c-0.1-0.2-0.1-0.4-0.1-0.6 l3.6-9.4l-0.4-6.9l-5.5-1.6l-10,9l-3.8-0.5l-5,4l-5.3-5.8l-7.6-0.3l-4.3,3.5l1.6,4l-2,1.7l1.7,2.6l-8.1,7.9l-7,0.4l-2-2.5l-16.8,0.3 l-3.1-2.8l-2.7,0.8l0.4,7.7l-3.4-0.1l-4.3-3.9c0,0-3.5,0.3-4.1,0.4c-0.7,0.1-11.2,11.6-11.2,11.6l-4.7,2.2l-5,8.4l-0.2,5.8l-2,0.4v4 l-2.1,2.2l3.1,7.8L368.3,71.6z"/>
	<path fill="#eeeeee" d="M250.1,187.5l-6.6-2c-0.2-0.1-0.4-0.3-0.4-0.5l-3.5-16.5c-0.1-0.3,0.1-0.7,0.4-0.8l2.9-0.9l-2.2-13.2H235 c-0.3,0-0.5-0.2-0.6-0.4l-4.8-13.2h-2.2c-0.2,0-0.4-0.1-0.6-0.3l-2.9-4.9h-11.2l-3.1,4.7c-0.1,0.2-0.3,0.3-0.5,0.3h-5v4.3 c0,0.2-0.1,0.4-0.3,0.5l-11.2,7.3l-6.5,7l-1.3,7.2c0,0.1-0.1,0.2-0.2,0.3l-4.5,4.7l2.1,7c0.1,0.2,0,0.5-0.2,0.7l-1.6,1.4l4.6,11.1 c0.1,0.1,0.1,0.3,0,0.4l-2.8,10l2.5,6.1c0,0.1,0.1,0.2,0,0.3l-0.6,4.8l2.5,5c0.1,0.3,0.1,0.6-0.1,0.8l-5.9,5.9l1.9,20.1l0.9,5.4 c0,0.1,0,0.2,0,0.3l-1.5,5.2l4.7,9.5c0.1,0.2,0.1,0.5-0.1,0.7l-0.9,1.2l0.8,1.7h7.4c0.2,0,0.4,0.1,0.5,0.3l2.7,3.9l3.7-2.1V267 c0-0.3,0.2-0.5,0.4-0.6l5.9-2.2c0.3-0.1,0.7,0,0.8,0.4l1.5,3.6l7.9-1.8c0.1,0,0.2,0,0.3,0l9.7,1.8v-5.1c0-0.4,0.3-0.7,0.7-0.7h2.5 l2.7-10.6l-3-9.6c0-0.1,0-0.2,0-0.3l2-9.1c0-0.2,0.2-0.4,0.4-0.5l3.5-1.6v-2.2c0-0.3,0.2-0.6,0.5-0.6l5.4-1.3c0,0,0.1,0,0.2,0h6.5 l2.3-1.8c0.1-0.1,0.2-0.1,0.3-0.1l3.1-0.7l-7.4-21.5c-0.1-0.2,0-0.4,0-0.5l4.1-7.4l-2-2c-0.2-0.2-0.2-0.4-0.2-0.6L250.1,187.5z"/>
	<path fill="#eeeeee" d="M252.8,65.6l-0.7,6.1l-5.8,0.1l0.6-1.9l-3.1,1.7l-7.6,13.8v5.3c0,0.1,0,0.2-0.1,0.3l-7.4,12.3l2.1,6.2 c0,0.1,0,0.3,0,0.4l-2.7,8l2.7,7.4c0.1,0.2,0,0.4-0.1,0.6l-5.6,8.1l2.6,4.5h2.2c0.3,0,0.5,0.2,0.6,0.4l4.8,13.2h5.8 c0.3,0,0.6,0.2,0.6,0.5l2.4,14.3c0.1,0.3-0.1,0.6-0.4,0.7l-2.9,0.9l3.3,15.5l6.7,2l14.7-1.9l4.7-2.8c0.2-0.1,0.4-0.1,0.5-0.1 l5.9,1.9l18.4-3.2l4.4-3.8c0.2-0.1,0.4-0.2,0.6-0.1c0.2,0.1,0.4,0.2,0.4,0.4l3.9,10c0.1,0.2,0.1,0.4-0.1,0.6l-2.3,3.2l13.2,5.1 l1.3-2.7c0.1-0.2,0.3-0.4,0.6-0.4h4.3v-6.9c0-0.2,0.1-0.4,0.3-0.5l11-8.2l-3.8-17.8c0-0.2,0-0.3,0.1-0.5l3.7-6.3L322.1,140 c-0.1-0.2-0.2-0.4-0.1-0.6l1.7-6.7l0.2-7.7c0-0.1,0.1-0.3,0.1-0.4l2.7-3.2l-5.9-6.1c-0.2-0.2-0.2-0.4-0.2-0.7l1.6-5.1l-3.7-5.4 c-0.1-0.2-0.1-0.4-0.1-0.6l1.9-4.9l-3.3-6.8l-4.9-3.4c-0.3-0.2-0.4-0.5-0.2-0.8l5.3-12.1l-4.4-9.2l-3.9-1.1l-1.2-2.8l-5.6,0.5 l-3.5,4.9l-3.6,1l-0.7,6.4l-3.5-2.7l-3.8-0.1l0.1-6.1l-8.9-3l-2.2,4.2l-2.6-1.7l-2.2-5.8l-8.9,5.8l-7.8-2.5L252.8,65.6z"/>
	<path fill="#eeeeee" d="M161.3,52c0,0.2-0.2,0.3-0.3,0.4l-5,2.9l-0.9,2.9l5.2,6.2c0.1,0.1,0.2,0.3,0.1,0.5l-1.3,11.2l6.1,2.5l6.3-1.7 c0.2,0,0.3,0,0.5,0.1c0.2,0.1,0.3,0.2,0.3,0.4l3.7,14.5c0,0.1,0,0.3,0,0.4l-3.6,7.4l3.6,10.4c0.1,0.3,0,0.6-0.2,0.7l-5,3.7v5.8 c0,0.2-0.1,0.3-0.2,0.4l-2.8,3.3c-0.2,0.2-0.5,0.3-0.7,0.2l-7.4-3.2l-13.2,3.5l-2.3,5.6c-0.1,0.2-0.3,0.4-0.6,0.4h-4.9l-1.1,5.1 l3.6,7.6c0.1,0.2,0.1,0.5-0.1,0.7l-2.7,3v5.1l4.1,11l2.7,2l4.1-3.4v-5.4c0-0.2,0.1-0.4,0.3-0.5c0.2-0.1,0.4-0.2,0.6-0.1l4.4,1.5 l8.1-0.4l9.2-9.8c0.1-0.1,0.3-0.2,0.5-0.2c0.2,0,0.4,0.1,0.5,0.3l4.4,5.6l5.1-0.2c0.2,0,0.5,0.1,0.6,0.3l2.6,4.7l6.1-6.5 c0,0,0.1-0.1,0.1-0.1l11-7.2v-4.6c0-0.4,0.3-0.7,0.7-0.7h5.3l3.1-4.7c0.1-0.2,0.3-0.3,0.5-0.3H224l5.5-7.9l-2.7-7.3 c-0.1-0.1-0.1-0.3,0-0.4l2.8-8l-2.1-6.3c-0.1-0.2,0-0.4,0.1-0.5l7.5-12.4v-5.2c0-0.1,0-0.2,0.1-0.3l7.8-14.1 c0.1-0.1,0.1-0.2,0.3-0.3l3.8-2.1c0.1-0.1,0.2-0.1,0.3-0.1h0.2l1.3-3.8l-9.7-3.8l-5.4,4.9l-5-1.1l1.6-4l-4.9-5.9h-6.3L204,49.3 l-8.6-0.3l-3.2-3.6l-8.3,1.7l-3.1-1.8l0.7-5.8l-4.2-0.5l-5.5,2.5l-7.7-0.3L161.3,52z"/>
	<path fill="#eeeeee" d="M125.5,221l-2.5,1.9l4.1,14.4l6.4,1.6c0.3,0.1,0.5,0.3,0.5,0.6l0.4,3.4l4.5-0.9c0.3-0.1,0.7,0.1,0.8,0.5 l1.6,6.9l9.1-3.4c0.3-0.1,0.7,0,0.8,0.3l5.2,11.9l12.3,4.1l2.8-2c0.3-0.2,0.6-0.1,0.9,0.1l4.2,4.8l8.3,1l0.6-0.9l-4.6-9.4 c-0.1-0.1-0.1-0.3,0-0.5l1.5-5.3l-0.8-5.2c0,0,0,0,0,0l-2-20.5c0-0.2,0.1-0.4,0.2-0.5l5.8-5.7l-2.4-4.8c-0.1-0.1-0.1-0.2-0.1-0.4 l0.6-4.8l-2.5-6.1c-0.1-0.1-0.1-0.3,0-0.4l2.8-10l-4.7-11.3c-0.1-0.3,0-0.6,0.2-0.7l1.6-1.5l-2.1-7c-0.1-0.2,0-0.5,0.2-0.6l4.6-4.9 l1.2-7l-2.7-4.9l-5,0.2c-0.2,0-0.4-0.1-0.5-0.3l-4.1-5.3l-8.8,9.4c-0.1,0.1-0.3,0.2-0.4,0.2l-8.5,0.4c-0.1,0-0.2,0-0.2,0l-3.7-1.2 v4.8c0,0.2-0.1,0.4-0.2,0.5l-4.3,3.5l4.9,7.1c0.2,0.2,0.2,0.5,0,0.8l-2.6,3.5c-0.1,0.2-0.3,0.3-0.5,0.3h-3.4l-1.3,1.9 c-0.2,0.2-0.5,0.3-0.8,0.2l-4.7-1.9l-3.5,0.2v7.6c0,0.2-0.1,0.4-0.3,0.5l-14.1,10.9c-0.1,0.1-0.3,0.1-0.4,0.1H117v2.9l8.6,20.1 C125.8,220.5,125.7,220.8,125.5,221z"/>
	<path fill="#eeeeee" d="M431.2,302.1c0.1,0.1,0.1,0.1,0.1,0.2l2.8,7.5l2.1-1.3c0.2-0.1,0.4-0.1,0.6,0l4.3,2c0.1,0,0.1,0.1,0.2,0.1 l2.4,2.2l3-3c0.1-0.1,0.2-0.1,0.3-0.2l17.5-4.2v-2.7c0-0.2,0.1-0.5,0.3-0.6l4-2.2v-4c0-0.4,0.3-0.7,0.7-0.7h4.3l2.8-3.5 c0.2-0.2,0.5-0.3,0.7-0.2l3.9,1.6l6.6-8.1c0.1-0.1,0.3-0.2,0.5-0.2h5.7l7.7-11.2l-3.6-12.7c0-0.2,0-0.3,0.1-0.5l3.7-6.9 c0.1-0.2,0.3-0.3,0.6-0.3h3.5l2.2-3.8c0.1-0.2,0.3-0.3,0.6-0.3h4.7l0.3-1.6l-8.9-3.7c-0.2-0.1-0.4-0.3-0.4-0.6v-2.8 c0-0.2,0.1-0.4,0.2-0.5c0.1-0.1,0.3-0.2,0.5-0.1l8.1,1.4l5.1-6.9l-10.3-2.5l-7.8,4.4c-0.2,0.1-0.4,0.1-0.6,0l-8.9-4.1 c-0.2-0.1-0.3-0.3-0.4-0.5l-1.2-7.8l-14.4-2.4c0,0.1,0,0.2,0,0.2l-2,9.6c-0.1,0.3-0.3,0.5-0.5,0.5l-15,2.8c-0.2,0-0.5,0-0.6-0.2 l-6.9-9l-6,2.1l-2.7,10.3c-0.1,0.3-0.4,0.5-0.8,0.5l-6.4-1.5l-1.7,1.3c-0.2,0.2-0.6,0.2-0.8,0l-3-2.4c-0.2-0.1-0.2-0.3-0.2-0.5v-3.2 l-2.6,0.1v5.5c0,0.3-0.2,0.6-0.5,0.6l-5.9,1.6l-1,5.3c0,0.1-0.1,0.2-0.2,0.3l-5.4,5.4c-0.1,0.1-0.3,0.2-0.5,0.2h-11.4l-3.8,1.7 c-0.2,0.1-0.3,0.1-0.5,0l-4.1-1.7l-5.9,1.7c-0.1,0-0.3,0-0.4,0l-8.4-3.1l-3.9,7.3l1,3.2c0.1,0.3,0,0.6-0.3,0.8l-15.4,8.1 c-0.1,0-0.2,0.1-0.3,0.1h-5.4v3.1c0,0.4-0.3,0.7-0.7,0.7H348v2c0,0.3-0.2,0.6-0.5,0.6l-6,1.2l-2.3,5.4v7.2h1.6l7.2-4.9 c0.2-0.1,0.5-0.1,0.7,0c0.2,0.1,0.3,0.3,0.3,0.6v5.3l13.2,1.4l12.2-2.4l5.1-2.6c0.2-0.1,0.4-0.1,0.6,0l3.9,2l6.7-2.2l2.3-4.5 c0.1-0.1,0.1-0.2,0.2-0.3l3.2-2c0.2-0.1,0.3-0.1,0.5-0.1c0.2,0,0.3,0.2,0.4,0.3l3.5,6.2l25.5,3c0.3,0,0.6,0.3,0.6,0.6v8L431.2,302.1 z"/>
	<path fill="#eeeeee" d="M649.7,247.5l1.4-6.7l-8-1.6l-3,1.8c-0.2,0.1-0.4,0.1-0.6,0l-7.6-3.6l-2.4,7.6c-0.1,0.3-0.3,0.5-0.6,0.5h-5 c-0.3,0-0.6-0.2-0.6-0.6l-1.3-10.5l-5.5-2c-0.2-0.1-0.3-0.2-0.4-0.3c-0.1-0.2-0.1-0.3,0-0.5l1.5-4l-5.9-2.6 c-0.2-0.1-0.4-0.3-0.4-0.6v-2.8l-3.8-4l-6.3,3c-0.1,0-0.2,0.1-0.3,0.1h-13.7c-0.1,0-0.3,0-0.4-0.1l-10.5-7.5l-13.7-1.5h-7.4 l-1.2,2.5c-0.1,0.3-0.4,0.4-0.7,0.3l-4.5-0.9l-4.5,5.3c-0.1,0.1-0.3,0.2-0.5,0.2h-3.6l-5.2,2.3l4.2,12.2c0.1,0.2,0,0.4,0,0.5l-4.3,8 c-0.1,0.2-0.2,0.3-0.4,0.3c-0.1,0-0.1,0-0.2,0c-0.1,0-0.2,0-0.3-0.1l-14.1-7.8l-5.5,7.6c-0.1,0.2-0.4,0.3-0.6,0.3l-7.7-1.4v1.6 l8.9,3.7c0.3,0.1,0.4,0.4,0.4,0.7l-0.4,2.6c-0.1,0.3-0.3,0.5-0.6,0.5h-4.8l-2.2,3.8c-0.1,0.2-0.3,0.3-0.6,0.3H503l-3.4,6.4l3.6,12.8 c0.1,0.2,0,0.4-0.1,0.5l-8,11.7c-0.1,0.2-0.3,0.3-0.5,0.3h-5.8l-6.8,8.2c-0.1,0.1-0.3,0.2-0.4,0.2l0.1,11.6l3.8,7.2 c0.1,0.2,0.1,0.5,0,0.7l-3.2,4.8l6.2,2.5l11.8,4.4l4.7-3.7c0.1-0.1,0.2-0.1,0.3-0.1l4.6-1.1c0.2,0,0.4,0,0.6,0.2l5.3,4.9l6.8-2.7 c0.1,0,0.2-0.1,0.3,0l16.3,2.6l15-6.7c0.1,0,0.2-0.1,0.3-0.1l18.5,1.6l-6.1-10.2c-0.1-0.2-0.1-0.3-0.1-0.5l1.2-4.4l-3.4-3.4 c-0.1-0.1-0.2-0.3-0.2-0.5l0.4-14.4l-2.8-2.4c-0.1-0.1-0.2-0.3-0.2-0.5v-3c0-0.3,0.2-0.6,0.6-0.6l22.4-3.3c0.1,0,0.2,0,0.4,0l6,2.7 l9-5.5c0.2-0.1,0.5-0.1,0.7,0l4.8,3.3l7.3-1.7c0.2-0.1,0.5,0,0.6,0.2l8.3,8.5c0.2,0.2,0.2,0.5,0.1,0.8l-2.2,3.6l1.8,3.3l3.5-2.8 c0.2-0.1,0.4-0.2,0.6-0.1l6.1,1.9l8.3-2.4l2.1-14.8c0-0.3,0.3-0.5,0.6-0.6l10.7-0.8v-12.4l-3.7-3.5c-0.1-0.1-0.2-0.3-0.2-0.5v-9.1 C649.7,247.6,649.7,247.6,649.7,247.5z"/>
	<path fill="#eeeeee" d="M76.4,72.1l0.3,2.9l-2.6,6.8l4.1,4.2l3.7,7.5l2.6,4.6l1.6,7.2l9.8,6.2l-12.1,2.6l2,3.3l6.2,4.9l-0.8,2.4l16.9,2 c0.3,0,0.5,0.2,0.6,0.5l2.7,11.4l8.7,3.7h9.4c0.1,0,0.2,0,0.3,0.1l7.1,4.3l2.8-3.2l-3.5-7.4c-0.1-0.1-0.1-0.3,0-0.4l1.3-5.9 c0.1-0.3,0.3-0.5,0.6-0.5h5l2.2-5.5c0.1-0.2,0.2-0.3,0.4-0.4l13.7-3.7c0.1,0,0.3,0,0.4,0l7.2,3.1l2.4-2.7v-5.8 c0-0.2,0.1-0.4,0.3-0.5l4.8-3.6l-3.5-10.2c-0.1-0.2,0-0.3,0-0.5l3.6-7.4l-3.5-13.7l-5.9,1.6c-0.1,0-0.3,0-0.4,0l-6.7-2.8 c-0.3-0.1-0.4-0.4-0.4-0.7l1.3-11.4l-5.3-6.3c-0.1-0.2-0.2-0.4-0.1-0.6l1.1-3.5c0.1-0.2,0.2-0.3,0.3-0.4l5-2.9l2.6-10.2l-4.1-0.1 l-1.7-1.7l-5.2,1.2l-4.8-4.7l-3.2,0.1l-4.3,3.4l-10,1.3l-3.5-1.8l-9.8,4.6l-8-2.1l-4.3,2.3l1.3,9.8l-17.2,7.4l-3.4-5.2L71.8,65.9 l6.4,4.2L76.4,72.1z"/>
	<path fill="#eeeeee" d="M480.5,9.5c0,0.1,0,0.2,0,0.3l-3.4,8.7h6.4c0.4,0,0.7,0.3,0.7,0.7V23c0,0.2-0.1,0.4-0.3,0.5l-4.9,3.3v3.8 c0,0.2-0.1,0.4-0.2,0.5l-9.9,8.2l5.9,16.1c0.1,0.2,0,0.4-0.1,0.6l-3.6,5.9l-0.6,8.7c0,0.1-0.1,0.3-0.2,0.4l-1.5,1.7l1.5,7.3 c0,0.2,0,0.4-0.1,0.5l-4.5,5.5l1.9,3.7l4.9,1.4c0.2,0.1,0.4,0.2,0.4,0.5l0.6,2.2l5.2,3.6c0.3,0.2,0.4,0.5,0.2,0.8l-2.6,5.8 l-1.5,22.1h2.9l2.4-3.3c0.1-0.2,0.3-0.2,0.5-0.3c0.2,0,0.4,0,0.5,0.2l4.8,4.4h22.1V123c0-0.4,0.3-0.7,0.7-0.7h3.9 c0.4,0,0.7,0.3,0.7,0.7v1.6h4l4.4-5.5c0.1-0.1,0.3-0.2,0.5-0.2c0.2,0,0.4,0.1,0.5,0.2l9.8,9.8c0.1,0.1,0.2,0.3,0.2,0.5v3.8l8,5.5 c0.2,0.2,0.3,0.5,0.3,0.7l-1.7,5.6l4.6,0.8l1.6-4.5c0.1-0.2,0.2-0.3,0.4-0.4c0.2-0.1,0.4-0.1,0.5,0l6.4,3.1l15.8-8.2l2.3-7.3 c0.1-0.3,0.3-0.4,0.6-0.5l3.5-0.2c0.3,0,0.5,0.1,0.6,0.4l2.4,5.9l7.3-3.5l0.7-5.9l-0.6,0.2l-4.7-3.4l-5.1-2.1l-2.6-10.6l3.8-4.3 L567.9,89l2.3-4.6l-2.2-2.8H561l-3.3-5.6v-4.5l-2.2-0.3l-3,2.6l-3.7,0.1l-5.4,4.2l-3.9-0.7l-1.5-4.3l-3.9,0.3l-3.3,1.6l-3.6,0.1 l-3.9,2.4l-2.2-3.3l1.1-5.5l-3-2.9l2.1-1.5L519.7,54l-6.4-7.2l2.2-1.5h7.5l2.9-4l-13.6-15.8l-4.7-3.4l1-9.6l-3.8-4.3l-4.1-0.8 L499,3.6h-7.8l-4.2,2.7l-4.2-0.7L482,2.6h-1.9L480.5,9.5z"/>
	<path fill="#eeeeee" d="M586.3,131.1c0,0.2-0.2,0.4-0.4,0.5l-8.3,3.9c-0.2,0.1-0.4,0.1-0.5,0c-0.2-0.1-0.3-0.2-0.4-0.4l-2.4-6.1 l-2.6,0.2l-2.3,7.2c-0.1,0.2-0.2,0.3-0.3,0.4l-14.9,7.8l3.3,5.9c0.1,0.3,0.1,0.6-0.1,0.8l-3,2.7l5.4,4.3c0,0,0.1,0.1,0.1,0.1 l2.8,3.5h5.8c0.3,0,0.6,0.2,0.6,0.5l2.3,9.8l8.5,1.7c0.1,0,0.2,0.1,0.3,0.2l4.1,4.1c0.1,0.1,0.2,0.3,0.2,0.5v6.7 c0,0.2-0.1,0.4-0.3,0.5c-0.2,0.1-0.4,0.1-0.6,0l-5.5-2.4l-2,2l3.5,8.9c0.1,0.2,0.1,0.4-0.1,0.6l-2.6,3.7c-0.1,0.1-0.2,0.2-0.3,0.2 l-7.9,2.6c-0.1,0-0.1,0-0.2,0h-5.8l0.4,8.7l13.3,1.5c0.1,0,0.2,0.1,0.3,0.1l10.5,7.5h13.3l6.6-3.2c0.3-0.1,0.6-0.1,0.8,0.1l4.3,4.6 c0.1,0.1,0.2,0.3,0.2,0.4v2.6l6.1,2.7c0.3,0.1,0.5,0.5,0.3,0.8l-1.5,3.9l5.3,1.9c0.2,0.1,0.4,0.3,0.4,0.5l1.2,10.3h3.9l2.5-7.8 c0.1-0.2,0.2-0.3,0.4-0.4c0.2-0.1,0.4-0.1,0.5,0l7.9,3.8l2.7-1.6l1.5-12.3c0-0.2,0.1-0.4,0.3-0.5l5.6-3.3c0.2-0.1,0.5-0.1,0.7,0 l4.5,3.2l1.5-5c0.1-0.3,0.4-0.5,0.7-0.5l6.2,1.2l7.4-15.2c0.1-0.1,0.2-0.2,0.3-0.3l4-2.1l4.4-7.1v-5c0-0.2,0.1-0.4,0.2-0.5 c0.1-0.1,0.3-0.2,0.5-0.2l7.8,0.6l-1.1-2.3c-0.1-0.3,0-0.7,0.2-0.8l3.7-2.3l-4.8-11.9c-0.1-0.3,0-0.7,0.3-0.8l4.5-2.3l-3.5-8.8 c-0.1-0.1-0.1-0.3,0-0.5l6.1-17.4l-0.1,0l-9.3-7.2l-10.9-4.8l-0.5-3.3l-4.3-4.2l-0.4-5l-5.4-3.1l-0.7-4.2l-3.3-0.7l-11.4,7.7 l-7.4,0.9l-2.7,2.9l-3.6,0.1l-0.8,5.8l-8.4,0.4l-3.5-2.9l-6.8,1.6l-9.7-8l-7.8,1l-9.4,3L586.3,131.1z"/>
	<path fill="#eeeeee" d="M509.4,123.7v3.9c0,0.4-0.3,0.7-0.7,0.7h-23c-0.2,0-0.3-0.1-0.4-0.2l-4.5-4.1l-2.2,3c-0.1,0.2-0.3,0.3-0.5,0.3 h-3.7l-11.6,9.1c-0.1,0.1-0.2,0.1-0.3,0.1l-10.2,1.8c-0.2,0-0.4,0-0.5-0.1l-2-1.7H444l-1.4,3.3c-0.1,0.2-0.3,0.4-0.6,0.4h-3.9 l-3.5,7.3l13.8,14c0.1,0.1,0.2,0.3,0.2,0.5v9.8l5.9,2.7c0.2,0.1,0.3,0.2,0.4,0.4l1.4,4.9l6.1,3.1c0.2,0.1,0.3,0.3,0.3,0.5L465,202 l4.2,3.7c0.1,0.1,0.1,0.2,0.2,0.3l5,13.9l15.6,2.6c0.3,0,0.5,0.3,0.5,0.5l1.3,7.9l8.3,3.8l7.7-4.4c0.1-0.1,0.3-0.1,0.5-0.1l11.5,2.8 c0.1,0,0.1,0,0.2,0.1l14,7.7l3.9-7.2l-4.3-12.5c-0.1-0.3,0-0.7,0.4-0.8l5.9-2.6c0.1,0,0.2-0.1,0.3-0.1h3.4l4.6-5.3 c0.2-0.2,0.4-0.3,0.6-0.2l4.4,0.9l1.2-2.4c0.1-0.2,0.3-0.4,0.6-0.4h7.1l-0.4-9.3c0-0.2,0.1-0.4,0.2-0.5c0.1-0.1,0.3-0.2,0.5-0.2h6.4 l7.6-2.5l2.3-3.2l-3.6-9c-0.1-0.2,0-0.5,0.1-0.7l2.6-2.6c0.2-0.2,0.5-0.2,0.7-0.1l4.9,2.2v-5.5l-3.8-3.8l-8.7-1.7 c-0.3,0-0.5-0.2-0.5-0.5l-2.3-9.7h-5.6c-0.2,0-0.4-0.1-0.5-0.2l-3-3.6l-5.9-4.7c-0.1-0.1-0.2-0.3-0.2-0.5c0-0.2,0.1-0.4,0.2-0.5 l3.2-2.9l-3-5.5l-0.2,0.1c-0.2,0.1-0.4,0.1-0.6,0l-6.1-2.9l-1.5,4.3c-0.1,0.3-0.3,0.4-0.6,0.4c0,0-0.1,0-0.1,0l-5.9-1.1 c-0.2,0-0.3-0.1-0.4-0.3c-0.1-0.2-0.1-0.4-0.1-0.5l1.8-5.8l-7.9-5.4c-0.2-0.1-0.3-0.3-0.3-0.5v-3.9l-9.1-9.1l-4.1,5.2 c-0.1,0.2-0.3,0.2-0.5,0.2h-5c-0.4,0-0.7-0.3-0.7-0.7v-1.6L509.4,123.7L509.4,123.7z"/>
	<path fill="#eeeeee" d="M396.1,203.8c-0.1,0.2-0.3,0.3-0.5,0.4l-6.1,1.2l-1.6,5.1c-0.1,0.2-0.2,0.3-0.3,0.4l-3.5,2 c-0.2,0.1-0.4,0.1-0.6,0l-5.6-3.2l-11,4.5l-2.5,4.6c-0.1,0.2-0.3,0.3-0.6,0.3l-16.2-0.4l-7,6.3c-0.1,0.1-0.3,0.2-0.4,0.2 c-0.1,0-0.1,0-0.2,0l-4.6-1.1v3.7c0,0.2-0.1,0.4-0.3,0.5l-4.6,3.4l2.3,9.6l2.3,1.8c0.1,0.1,0.2,0.2,0.2,0.3l2.3,6.5l4.2,2.9 c0.1,0.1,0.2,0.2,0.3,0.4l1.5,5.5l4.2,4c0.1,0.1,0.2,0.3,0.2,0.5v8.5h3.9v-3.1c0-0.4,0.3-0.7,0.7-0.7h5.9l14.8-7.8l-0.9-3 c-0.1-0.2,0-0.3,0-0.5l4.3-8c0.2-0.3,0.5-0.4,0.8-0.3l8.7,3.2l5.9-1.7c0.1,0,0.3,0,0.4,0l4.1,1.6l3.7-1.6c0.1,0,0.2-0.1,0.3-0.1 h11.2l5.1-5l1-5.5c0-0.2,0.2-0.4,0.5-0.5l5.8-1.6v-5.6c0-0.3,0.3-0.6,0.6-0.6l3.9-0.2c0.2,0,0.4,0.1,0.5,0.2 c0.1,0.1,0.2,0.3,0.2,0.5v3.6l2.4,1.9l1.6-1.2c0.2-0.1,0.4-0.2,0.5-0.1l6.1,1.4l2.7-10c0.1-0.2,0.2-0.4,0.4-0.4l6.7-2.4 c0.3-0.1,0.6,0,0.7,0.2l6.9,9l14.2-2.7l1.8-8.9l-5.3-14.9l-4.2-3.8c-0.1-0.1-0.2-0.2-0.2-0.4l-2.3-18.5l-6-3.1 c-0.2-0.1-0.3-0.2-0.3-0.4l-1.4-4.9l-6-2.7c-0.2-0.1-0.4-0.3-0.4-0.6v-9.9l-13.5-13.7l-6.4,6.4l1.6,6.1c0.1,0.3-0.1,0.7-0.4,0.8 l-4.6,1.6v3.9c0,0.2-0.1,0.4-0.2,0.5l-7.6,6.9c-0.2,0.2-0.5,0.2-0.8,0.1l-5.1-2.9l-11.1,5.7v6.1c0,0.1,0,0.1,0,0.2l-2.3,7.1l2.3,5.2 c0.1,0.2,0.1,0.4,0,0.5L396.1,203.8z"/>
	<path fill="#eeeeee" d="M319.8,76l-1.8,1.1l0,0l-4.6,10.5l4.6,3.2c0.1,0.1,0.2,0.2,0.2,0.3l3.5,7.2c0.1,0.2,0.1,0.3,0,0.5l-1.8,4.9 l3.7,5.4c0.1,0.2,0.1,0.4,0.1,0.6l-1.6,5.1l6,6.2c0.2,0.2,0.2,0.6,0,0.9l-2.9,3.5l-0.2,7.6c0,0,0,0.1,0,0.1l-1.7,6.4l10.6,12.6 c0.2,0.2,0.2,0.5,0.1,0.7l-3.8,6.5l3.9,18c0.1,0.2,0,0.5-0.2,0.7l-11,8.3v7l5,4.8c0.1,0.1,0.2,0.2,0.2,0.4l1.5,10.2 c0,0.3-0.1,0.5-0.3,0.6l-4.3,2.7l1,1.9l4.7,2.1c0.1,0.1,0.2,0.1,0.3,0.2l4.2,6.5l4.8,1.2l6.9-6.3c0.1-0.1,0.3-0.2,0.5-0.2l16.1,0.4 l2.4-4.4c0.1-0.1,0.2-0.2,0.3-0.3l11.5-4.7c0.2-0.1,0.4-0.1,0.6,0l5.5,3.2l2.9-1.6l1.7-5.2c0.1-0.2,0.3-0.4,0.5-0.4l6.2-1.2l2.8-6.4 l-2.3-5.2c-0.1-0.1-0.1-0.3,0-0.5l2.4-7.3v-6.4c0-0.2,0.1-0.5,0.4-0.6l11.7-6.1c0.2-0.1,0.4-0.1,0.6,0l5,2.8l7-6.4V163 c0-0.3,0.2-0.5,0.4-0.6l4.4-1.5l-1.6-5.9c-0.1-0.2,0-0.5,0.2-0.6l7.1-7.1l3.6-7.4l-10.2-7.1c-0.1-0.1-0.2-0.3-0.3-0.4 c0-0.2,0-0.4,0.1-0.5l3.2-4l-8.4-5l-7,4.5l-4.3,2.9c-0.1,0.1-0.3,0.1-0.4,0.1l-15-1.5c-0.3,0-0.6-0.3-0.6-0.6l-1-10.3h-13.1 c-0.2,0-0.4-0.1-0.5-0.2l-8.3-8.9c-0.1-0.1-0.2-0.4-0.2-0.6l1-6l-5.2-2.2c-0.2-0.1-0.3-0.3-0.4-0.5l-3.2-17l-0.1-0.4l-3.6-1 l-6.4-11.6l-4,1.8l-3.8-2.2l-7.5,4.7l-5.2-3.8l-5.3,2.1l-2.9,5L319.8,76z"/>
	<path fill="#eeeeee" d="M589.8,408.4h-3l-5.2,5.1l2,2.6l7-3.8l4.1-6.2l-0.9-3.9L589.8,408.4z"/>
	<path fill="#eeeeee" d="M29,201.7l1.3,2.8l-0.7,6l0.9,4l0.2,5.3l5.4,4.6l-2.4,4.6l4.3,10.2h5.9c0.2,0,0.4,0.1,0.5,0.3l5.7,8.6l8.3-0.4 c0.1,0,0.2,0,0.3,0l4.4,1.7l1.4-15c0-0.2,0.1-0.4,0.3-0.5l5.2-2.9l1.5-6.7c0-0.2,0.2-0.3,0.3-0.4s0.4-0.1,0.5,0l6,2.3l3.6-2.2 c0.1,0,0.1-0.1,0.2-0.1l20.8-5.3v-4.7l-3.6-4.6c-0.1-0.1-0.2-0.3-0.1-0.5c0-0.2,0.1-0.3,0.3-0.4l6.2-4.4v-7.3c0-0.2,0.1-0.4,0.3-0.5 c0.2-0.1,0.4-0.1,0.6-0.1l9.1,3.4v-2.8c0-0.4,0.3-0.7,0.7-0.7h2.8l13.7-10.5v-7.9c0-0.3,0.3-0.6,0.6-0.7l4.3-0.2c0.1,0,0.2,0,0.3,0 l4.3,1.8l1.2-1.7c0.1-0.2,0.3-0.3,0.5-0.3h3.4l2.1-2.8l-4.9-7.1l-3.2-2.3c-0.1-0.1-0.2-0.2-0.2-0.3l-4.2-11.3c0-0.1,0-0.1,0-0.2 v-4.1c-0.1,0-0.2,0-0.3-0.1l-7.4-4.5h-9.4c-0.1,0-0.2,0-0.3-0.1l-9.1-3.9c-0.2-0.1-0.3-0.2-0.4-0.4l-2.7-11.3l-16.7-2l-3.1,10 L77,137.6l-2.6,6.8L35,185.7l-5.2,3.3v5.2h-1.6l1.3,2.9L29,201.7z"/>
	<path fill="#eeeeee" d="M747.3,265.6l-6.3-1.5c-0.2-0.1-0.4-0.2-0.5-0.5l-1-3.8l-6-2.3c-0.1,0-0.2-0.1-0.2-0.1l-8.7-8.5 c-0.1-0.1-0.1-0.2-0.2-0.3l-2.9-8.9h-5.8c-0.2,0-0.4-0.1-0.5-0.3l-7.4-10c-0.2-0.2-0.2-0.5,0-0.8l5.2-7.6l-6.9-9.1h-6.2 c-0.3,0-0.5-0.2-0.6-0.4l-2.2-6.5c-0.1-0.2,0-0.5,0.1-0.6l2-2.2l-0.9-7.6l-3.8,1.4c-0.2,0.1-0.4,0.1-0.6-0.1l-5.1-3.4l-8-0.6v4.5 c0,0.1,0,0.2-0.1,0.3l-4.6,7.4c-0.1,0.1-0.1,0.2-0.3,0.2l-3.9,2.1l-7.5,15.4c-0.1,0.3-0.4,0.4-0.7,0.4l-6.2-1.2l-1.6,5.3 c-0.1,0.2-0.2,0.4-0.4,0.4c-0.2,0.1-0.4,0-0.6-0.1l-4.9-3.4l-5,2.9l-1.4,11.7l8.3,1.6c0.2,0,0.3,0.1,0.4,0.3 c0.1,0.1,0.1,0.3,0.1,0.5l-1.5,7.3v8.8l3.7,3.5c0.1,0.1,0.2,0.3,0.2,0.5v13.2c0,0.3-0.3,0.6-0.6,0.6l-10.8,0.8l-2.1,14.4l5.8,6.8 l5.1,1.9c0.3,0.1,0.4,0.3,0.4,0.6v4.4l5.4,2.7l5.4-2.5c0.3-0.1,0.7,0,0.8,0.2l3.8,6.2l5.5,3.2c0.1,0.1,0.2,0.2,0.3,0.3l1.5,4.1 c0.1,0.3,0,0.6-0.3,0.8l-9.8,5.5l-2.2,8.2l5.5,3.4c0.1,0.1,0.2,0.1,0.2,0.2l5.4,9.8c0.2,0.3,0.1,0.6-0.2,0.8l-3.6,3l0.6,4.4l9.5-5 l4.1,2.7l1.5-2.8l1-4.6l8.1-8.5l7.3-0.5l3.6-1.6l9.2-1.6l3.3,3.3l5.8-5.9l-1.2-4.1l3.6-5.4l-0.5-4.1l-5.4,1.4l0.8-4l1.7-6.2l1.2-9.3 l7.2-4.6l6,0.1v-4.7l4.9-3.1v-7.3l2.2-2l1.2,0.8l3.1-3.8l3.2-0.5L747.3,265.6z"/>
	<path fill="#eeeeee" d="M776.9,190.7l4.1-9.2l5.9-1.6v-2.1l-2.4-1.6l-1.2-7.7l-3.6-5.9l3.8-8.9l-1.8-2.5l-4.8,1.4l-4.5,4.9l-5.8-0.9 l-3.6-2.8l-3.3,0.4l-4-6.6l-10.4,2.2l-3.2-2.7l-3.3-6.6l-3,0.9l-1.2,3.9L729,145l-3.8-3c0,0-4.3-0.1-4.8,0.1c-0.4,0.2-3-6.2-3-6.2 l-9.6,0.1l-4.9,2.3l-3.9-6.5l-4.3,2.1l3.1,8.1l-3,1.6l0,0.3c0,0.1,0,0.2,0,0.3l-6.2,17.8l3.6,9.1c0.1,0.3,0,0.7-0.3,0.8l-4.5,2.3 l4.8,11.8c0.1,0.3,0,0.6-0.3,0.8l-3.6,2.3l1.2,2.6l4.8,3.2l4.3-1.6c0.2-0.1,0.4-0.1,0.6,0.1c0.2,0.1,0.3,0.3,0.3,0.5l1.1,8.7 c0,0.2,0,0.4-0.2,0.5l-1.9,2.1l1.9,5.7h6c0.2,0,0.4,0.1,0.5,0.3l7.4,9.8c0.2,0.2,0.2,0.5,0,0.8l-5.2,7.7l6.9,9.4h6 c0.3,0,0.5,0.2,0.6,0.5l3,9.2l8.5,8.3l6.2,2.3c0.2,0.1,0.3,0.2,0.4,0.4l1,3.7l6.1,1.4c0.1,0,0.3,0.1,0.4,0.2l5.6,7.5l11.8-1.9 l3.3,2.1l5.9-1.4l7.5,1.4l2.6-2.1l-4.1-9.3l1.6-2.8l2.5-0.2l1.4-3.9l-2.8-11.6l1.8-5.2l-4.3-7.4l-0.9-6.9h-2.4l-2.8,1.2l-1.6-2.4 l-0.2-13.7l3.1-1.3l9-0.3l-0.2-2.4l-8.1-3.1l-8.1-6.5l1-3.1L776.9,190.7z"/>
	<path fill="#eeeeee" d="M104,290.3c0,0,0-0.1,0-0.1v-2.9l-6.7-12.8H91c-0.3,0-0.6-0.2-0.6-0.6l-1.3-8.4l-2-1.5l-6.1,4.9 c-0.2,0.1-0.4,0.2-0.6,0.1l-4.1-1.5c-0.2-0.1-0.3-0.2-0.4-0.4c-0.1-0.2-0.1-0.3,0-0.5l1.8-4.2l-4.9-5.7l-9.4-6l-5-1.9l-8.6,0.4 c-0.2,0-0.5-0.1-0.6-0.3l-5.7-8.6h-5.9c-0.3,0-0.5-0.2-0.6-0.4l-4.7-11.1l-0.8-1.1l-8.4-4.6l-9.7,14.5l1,4.3v2.6l-4.9,5.8L6.9,251 l-4.1,6.1v3.5L0,265.7l2,2.2l4.5-1l3,8l4.3,4.6l4.3,1.2l1.7,4.6l0.4,3.7l8.6,0.4l0.6,5.4c0,0,4.2,4.1,4.3,3.8 c0.1-0.3,2.9-2.9,2.9-2.9l3.3,2.2l4.2-8.2l4.8-0.2l3.4,7.5l10.9,2.7l1.4-1.2l3.3,0.7l4-0.1l2.5,2.9h3.4l1.3,1.1l5.6-1.1l5.6,4.2h4.3 l5.8-2.4h5.7L104,290.3z"/>
	<path fill="#eeeeee" d="M120.5,316.5l3.2-2.9l-3.3-8c0-0.1,0-0.2,0-0.2V296c0-0.2,0.1-0.5,0.3-0.6l10.3-5.6l7.1-13.3 c0.1-0.2,0.3-0.3,0.5-0.3l11.6-1.9l2.3-4.8l-2.5-4.7c-0.1-0.3-0.1-0.6,0.2-0.8l5.5-4.2l-5.4-12.4l-9.2,3.5c-0.2,0.1-0.4,0.1-0.5,0 c-0.2-0.1-0.3-0.2-0.3-0.4l-1.6-7l-4.6,1c-0.2,0-0.4,0-0.5-0.1c-0.1-0.1-0.2-0.3-0.3-0.5l-0.4-3.7l-6.3-1.6 c-0.2-0.1-0.4-0.2-0.5-0.5l-4.3-15.2c-0.1-0.3,0-0.5,0.2-0.7l2.4-1.9l-8.4-19.5l-8.9-3.3v6.7c0,0.2-0.1,0.4-0.3,0.5l-6,4.2l3.3,4.2 c0.1,0.1,0.1,0.3,0.1,0.4v5.4c0,0.3-0.2,0.6-0.5,0.6L82.5,225l-3.8,2.3c-0.2,0.1-0.4,0.1-0.6,0.1l-5.6-2.1l-1.4,6.2 c0,0.2-0.2,0.3-0.3,0.4l-5.1,2.9l-1.4,15.1l9.2,5.9c0.1,0,0.1,0.1,0.1,0.1l5.2,6.1c0.2,0.2,0.2,0.5,0.1,0.7l-1.7,3.9l3.1,1.2l6.2-5 c0.2-0.2,0.6-0.2,0.8,0l2.6,2c0.1,0.1,0.2,0.3,0.3,0.4l1.2,8.1h6.2c0.2,0,0.5,0.1,0.6,0.3l7,13.2c0,0.1,0.1,0.2,0.1,0.3v3l2.2,13.9 h1.7l5.8,8l3.3,1.9L120.5,316.5z"/>
	<path fill="#eeeeee" d="M277.7,290l-1.7,4.5l1.7,1.2l2.8-2l1,1v3.9l3.3,0.7l3.3-6.7l12,3.5v7l3.8-1.8l2.3-8.8c0.1-0.3,0.3-0.5,0.6-0.5 l7.2,0.2c0.4,0,0.6,0.3,0.6,0.7v4.7l23.1-8v-7.6c0-0.1,0-0.2,0.1-0.3l2.5-5.9c0.1-0.2,0.3-0.3,0.5-0.4l5.8-1.2v-10.9l-4.1-3.9 c-0.1-0.1-0.1-0.2-0.2-0.3l-1.5-5.4l-4.2-2.9c-0.1-0.1-0.2-0.2-0.2-0.3l-2.3-6.6l-2.3-1.8c-0.1-0.1-0.2-0.2-0.2-0.4l-2.5-10.2 c-0.1-0.3,0-0.5,0.2-0.7l4.7-3.5v-4l-4.1-6.4l-4.7-2.1c-0.1-0.1-0.2-0.2-0.3-0.3l-1.4-2.6c-0.2-0.3-0.1-0.7,0.2-0.9l4.4-2.8 l-1.4-9.6l-4.9-4.7h-4.3l-1.3,2.9c-0.1,0.2-0.3,0.4-0.6,0.4c-0.1,0-0.2,0-0.2,0l-14.6-5.6c-0.2-0.1-0.3-0.2-0.4-0.4 c-0.1-0.2,0-0.4,0.1-0.6l2.6-3.6l-3.4-8.8l-3.9,3.3c-0.1,0.1-0.2,0.1-0.3,0.1l-18.7,3.3c-0.1,0-0.2,0-0.3,0l-5.8-1.9l-4.5,2.7 c-0.1,0-0.2,0.1-0.2,0.1l-14.6,1.9l-1.1,4.2l2.1,2.1c0.2,0.2,0.3,0.5,0.1,0.8l-4.2,7.6l7.5,21.9c0.1,0.2,0,0.4,0,0.5 c-0.1,0.2-0.2,0.3-0.4,0.3l-3.7,0.8l-2.4,1.9c-0.1,0.1-0.3,0.1-0.4,0.1h-6.7l-4.9,1.2v2.1c0,0.3-0.2,0.5-0.4,0.6l-3.6,1.6l-1.9,8.6 l3,9.6c0,0.1,0,0.2,0,0.4l-2.8,11.3h3.3c0.2,0,0.4,0.1,0.6,0.3l5.3,8.9l3.3-1.5l2.6,3h4.9l4.3,2.6l2.6,6.2h5.2l1.9,5.8l3.6-1.6 l1.4,2.2l5.2-1.4L277.7,290z"/>
	<path fill="#eeeeee" d="M234.6,264.6h-3.8c-0.2,0-0.4-0.1-0.5-0.3c-0.1-0.2-0.2-0.4-0.1-0.6l0-0.1h-1.6v5.2c0,0.2-0.1,0.4-0.2,0.5 c-0.2,0.1-0.3,0.2-0.5,0.1l-10.3-1.9l-8.3,1.9c-0.3,0.1-0.6-0.1-0.7-0.4l-1.5-3.6l-4.9,1.8v3.7c0,0.2-0.1,0.4-0.3,0.6l-4.6,2.6 c-0.1,0.1-0.2,0.1-0.3,0.1c-0.2,0-0.4-0.1-0.5-0.3l-2.8-4.1h-7.5c-0.3,0-0.5-0.2-0.6-0.4l-0.9-2.1l-8.5-1c-0.2,0-0.3-0.1-0.4-0.2 l-4-4.5l-2.6,1.8c-0.2,0.1-0.4,0.2-0.6,0.1l-11.6-3.8c0.1,0.3,0,0.5-0.2,0.7l-5.4,4.2l2.4,4.5c0.1,0.2,0.1,0.4,0,0.6l-2.6,5.4 c-0.1,0.2-0.3,0.3-0.5,0.4l-11.6,1.9l-7,13.2c-0.1,0.1-0.2,0.2-0.3,0.3l-10.1,5.5v8.8l3.4,8.3c0.1,0.3,0,0.5-0.2,0.7l-3.6,3.2l2.5,3 c0,0,5.6-0.2,5.6-0.4c0-0.2,2.2-4.5,2.2-4.5l4.6-0.3l2.9-2.2l2.6-0.2l1.1-3.1l6.9-0.4l2.2-1.2l4.6,0.1l1.4-1l3.5,0.9l5.9-2.3 l4.1,1.4l7.5-2.5l3.5-0.1l6.2-13.7l8.3-2.8l3.3-1.2l3.6-5.3l4.9,2.2l2.1-1.4l-4.6-4.6l1.8-1.6l5.6,0.1v3l6.1-0.1l2.3-4.3l2.2,3.3 h7.5l2.2-2.9l3.2,1.2l2.7-3.1L234.6,264.6z"/>
	<path fill="#eeeeee" d="M645.6,448.4l-7.7,2.3l-1.5,6.1l-6.4,0.6l-3.2-6.4l-6.7,10.6l-9.1,2.8L589,441.1l-5.8-6.4l-0.4-1.1l-3.2-8 l-2.9,0.9l0.1,7.1l2.2-2.9l2.9,4.2v3.3l14.6,13.6l11.3,15.8l-12.9-4.3l-8-0.1l-0.1-5.8l5.4-1.3l-0.7-5.1l-11.9-9.4l-0.1-3.2 l-7.8,1.7l3.2-4.1l-2.2-1.7l-1.9-0.1l2.8-3.5l-2.2-1.3l-7.7,6.8l-0.6-1.7l4.6-6.7l-3.2-2.9l-2.6,4.3l-6.7-0.1l-1.9-6.5l-9.1-0.1 l0.9,2.9l-6.1-5.6l-3.8,1.2l-4.3-2.3l-0.7-2.2l-5.1,0.6l-1-2.7l0.6-1.4l-4.1-1.4l-1.4,0.9l-1.1,5.9l2.5,2.8l-1.4,2.2l1.4,5.9 l3.5,0.3v6.7l-6.4-0.9l-13.3,9.4l-2.6-3.3l-2.6,1.4l-0.6,3.8l-13.5,8.7v2.9l-3.3,0.6l-11.9,10.1l0.3,3.6l9.6,3.6l4.9-4.5l13.9,5.5 l9.3,9.6l4.9-4.2l8.1,5.4l4.3,7.4v6.7l-3.3,4.1l0.6,11.4l-5.8,4.2l4.3,4.2h5.9l7.8,9.4l2.9-1.7l2.3-1.7l7.8,0.1l6.7-1.9v-4.9l3.6-1 l6.5-8.7l0.7-5.5l11.6-7.2l9.8-1l3.8-3l3,1.9l3-2.6l1.3-3l4.3-5.4l5.5,0.6v-3.5l1.2-1.4v-3.6l5.6-4.2l11.4-0.3l4.8,6.2l8.5-5.1 l6.5,2.3l3-2.7l8.4-2.9l-1.7-7.8l0.4-2.6l-1.2-2.9l4.6-3.9l4.3-2.5v-4.3l-12-0.6L645.6,448.4z"/>
</svg>