<?xml version="1.0" encoding="utf-8"?>
<!-- Generator: Adobe Illustrator 24.0.1, SVG Export Plug-In . SVG Version: 6.00 Build 0)  -->
<svg version="1.1" id="Layer_1" xmlns="http://www.w3.org/2000/svg" xmlns:xlink="http://www.w3.org/1999/xlink" x="0px" y="0px"
	 width="60px" height="60px" viewBox="0 0 60 60" style="enable-background:new 0 0 60 60;" xml:space="preserve">
<path d="M36.4,51.3v-1.7l1.7,1.3v0.8l1.5-1.4v-2.4c0-0.1,0-0.2,0.1-0.2c0.1-0.1,0.2-0.1,0.3,0l1.6,0.5l5.5-2.7l0.9-1.4
	c0.1-0.1,0.2-0.2,0.3-0.1l5.3,2l1.7-0.8l-0.9-2.5c0-0.1,0-0.3,0.2-0.3l1.3-0.5l0.7-2.1L55,37.9c-0.1-0.1-0.1-0.3,0-0.4l4-4.1
	L57.7,31c0-0.1,0-0.1,0-0.2l0.5-2.3L57.4,24l-2.9-1.1c-0.1,0-0.1-0.1-0.2-0.2c0-0.1,0-0.2,0-0.2l1.5-2.2l-1.6-3c0,0,0-0.1,0-0.1
	l-0.1-5.2L53,11.4l-1.2,1.4c-0.1,0.1-0.1,0.1-0.2,0.1h-1.7v1.6c0,0.1-0.1,0.2-0.1,0.2L48,15.7v1.2c0,0.1-0.1,0.2-0.2,0.3L40.1,19
	l-1.4,1.4c-0.1,0.1-0.1,0.1-0.2,0.1c-0.1,0-0.1,0-0.2-0.1l-1.2-1.1l-1.7-0.8l-1.1,0.7c-0.1,0-0.2,0.1-0.2,0c-0.1,0-0.1-0.1-0.2-0.2
	l-1.3-3.5l-1.8-1.8c-0.1-0.1-0.1-0.1-0.1-0.2v-3.3L19.8,9.1c-0.1,0-0.2-0.1-0.2-0.1l-1.5-2.5L17,7.1l-1,2c0,0.1-0.1,0.1-0.2,0.1
	l-3.1,1c-0.1,0-0.2,0-0.2,0l-1.7-0.9l-2.1,1c0,0,0,0-0.1,0l-5.2,1l-0.8,1.7c0,0-0.1,0.1-0.1,0.1l-1.6,1l2.2,2.6
	c0.1,0.1,0.1,0.3,0,0.4l-0.8,0.8l3.6,2c0.1,0.1,0.2,0.2,0.1,0.3l-0.9,3.2l3.5,0.9c0.1,0,0.1,0,0.1,0.1l1.4,1.5l1.3-1.5
	c0.1-0.1,0.1-0.1,0.2-0.1c0.1,0,0.2,0,0.2,0.1l2.9,4.1c0,0.1,0.1,0.2,0,0.2l-0.8,2.9c0,0.1-0.1,0.1-0.2,0.2L12,32.7v1.6l4-0.4
	c0.1,0,0.2,0,0.3,0.1l0.7,1.3l3,0.7c0.1,0,0.2,0.2,0.2,0.3l-0.1,1.9l2.7,0.6c0.1,0,0.2,0.1,0.2,0.3v2.4c0,0.1,0,0.2-0.1,0.2
	l-3.3,2.2l2.7,3.9c0,0,0,0.1,0,0.2v4.4l0.7,2.2l3.2-0.3l1.1-1.2l0.7,1.1l7.1-0.7L36.4,51.3z"/>
</svg>
