<?xml version="1.0" encoding="utf-8"?>
<!-- Generator: Adobe Illustrator 24.0.1, SVG Export Plug-In . SVG Version: 6.00 Build 0)  -->
<svg version="1.1" id="Layer_1" xmlns="http://www.w3.org/2000/svg" xmlns:xlink="http://www.w3.org/1999/xlink" x="0px" y="0px"
	 width="60px" height="60px" viewBox="0 0 60 60" style="enable-background:new 0 0 60 60;" xml:space="preserve">
<path d="M48.6,27.8L46.7,25c0,0,0-0.1,0-0.1c0-0.1,0-0.1,0.1-0.1l2.3-1.5v-1.4l-1.8-0.4c-0.1,0-0.1-0.1-0.1-0.2l0.1-1.3
	l-1.9-0.5c-0.1,0-0.1,0-0.1-0.1l-0.5-0.9l-2.7,0.3c-0.1,0-0.1,0-0.1,0s-0.1-0.1-0.1-0.1v-1.4c0-0.1,0-0.1,0.1-0.2l1.3-0.6l0.5-1.8
	l-1.7-2.5l-0.8,1c0,0-0.1,0.1-0.1,0.1c-0.1,0-0.1,0-0.1-0.1l-1-1.2l-2.4-0.6c0,0-0.1,0-0.1-0.1c0,0,0-0.1,0-0.2l0.6-2.2l-2.5-1.4
	c-0.1,0-0.1-0.1-0.1-0.1c0-0.1,0-0.1,0.1-0.2l0.6-0.6l-1.5-1.9c0,0,0-0.1,0-0.2c0-0.1,0-0.1,0.1-0.1l1.2-0.8l0.4-1L32.3,2
	c-0.1,0-0.2-0.1-0.2-0.2V0.5l-1.8,1.3c0,0-0.1,0-0.1,0h-0.7l-7,2.5c-0.1,0-0.1,0-0.2,0c0,0-0.1-0.1-0.1-0.2V2.6l-1.7-0.1L20,5.1
	c0,0.1,0,0.1-0.1,0.1l-1.2,0.6l0.4,0.6h1.7L22,5.6L23.9,8L23,8.6l0.1,0.6l1.1,0.2L23,13.9l-1.2,0.3l0,0.7h0.8l0.3,1.9l1.6-0.5
	l1.5,3.2l0.9-0.2v-1.2l1.2-0.2v2.3l-0.5,0.5l-0.1,1.8l-0.7,0.4l0.2,0.9l1.6-0.4L28.1,26l1.8,0.5l0.8,1.3l3,0.6l-0.4,2.2l1.2,4.4
	l2.2,0.7l-0.5,0.6h-3.1l-1.2,1l-1.1-2l-1.3,0.9l0.2,1.4h-1l-2-2.1l-0.6,0.8l-1-1.6l-0.5,0.4v1.7l-0.6,0l0-2.9l-3.5,2l0.3,3.2
	l1.3,1.5l-1.7,2l0.6,1.3l-0.8,1.1h-1.7l-0.1,2.7l-0.8,0.7L16.5,49l-0.2,1l-1.4-0.5l-0.5,1.2l1.4,0.7L15.1,53l-0.7,0.6l0.3,0.9
	l-3.1-0.4L11,55.2l0.5,0.6l0.7,2l5.1,2.6l1.5-0.5l-0.2-1.7l0.7,0l1.2,0.7l5-2.8l1.3,0.3l3.1,1.5l0.5,1.8l0.5-0.1l0.3-1.6l0.4-0.3
	l-0.4-0.9v-1.2l-1.4-0.3l-0.2-0.5l1.2-1l-2-0.1l0.5-1.4c0,0-0.5-1-0.5-1.1c0-0.1,0.7-0.9,0.7-0.9l0-0.7l0.6-0.6L30,50.5l1.4,2.8
	l0.2,0.3l1.8-1.8L32.1,51l0.2-0.9l1.1,0.6l1.1-3.1l1,1.2l-1,1.4l0.3,0.1l2-1.9l0.9-1.6l3.1-3.8l-1.1-0.5l-0.2-1.7l-1.8-0.7L36,38.5
	l0.7-1.7l1.2,2l0.7-1l0.2,1.4l1.1,0.9l0.4,1.2l1,1l0.5-1.5l3.4-4.8v-2.5l3.1-1.2l0.4-1.6L48.6,27.8L48.6,27.8z"/>
</svg>
