<svg width="80" height="80" viewBox="0 0 80 80" fill="none" xmlns="http://www.w3.org/2000/svg">
    <path d="M11 34.1712V44.8288L18.7139 46.6993C19.0654 47.7726 19.4985 48.8145 20.0069 49.8062L15.8644 56.5974L23.3963 64.1231L30.1813 59.9931C31.1855 60.5015 32.2274 60.9408 33.2945 61.2861L35.1712 69H45.8288L47.6993 61.2861C48.7663 60.9346 49.8082 60.5015 50.8124 59.9931L57.5974 64.1231L65.1294 56.5974L60.9868 49.8062C61.4952 48.8145 61.9283 47.7726 62.2798 46.6993L70 44.8288V34.1712L62.2861 32.3007C61.9346 31.2337 61.5015 30.1918 60.9931 29.1876L65.1356 22.4026L57.6037 14.8706L50.8187 19.0132C49.8145 18.5048 48.7726 18.0654 47.7055 17.7202L45.8288 10H35.1712L33.3007 17.7139C32.2337 18.0654 31.1918 18.4985 30.1876 19.0069L23.4026 14.8644L15.8706 22.3963L20.0132 29.1813C19.5048 30.1855 19.0654 31.2337 18.7202 32.2945L11 34.1712ZM21.256 29.4512L21.4191 29.1436L17.421 22.5909L23.5846 16.4272L30.1373 20.4254C30.4072 20.2936 31.7065 19.4965 33.9974 18.7872L34.3301 18.6868L36.1378 11.2365H44.8622L46.6699 18.6868L47.0026 18.7872C49.0236 19.4149 50.7999 20.4003 50.8627 20.4254L57.4154 16.4272L63.579 22.5909L59.5746 29.1436C59.7064 29.4135 60.5035 30.719 61.2128 33.0037L61.3132 33.3364L68.7635 35.144V43.8622L61.3132 45.6699L61.2128 46.0026C60.8299 47.2328 60.334 48.419 59.7378 49.5426L59.5746 49.8501L63.5728 56.4154L57.4091 62.5728L50.8564 58.5809C50.5865 58.7127 49.2872 59.5098 46.9963 60.219L46.6636 60.3195L44.856 67.7698H36.1315L34.3238 60.3195C34.0414 60.219 32.5601 59.8613 30.4386 58.7378L30.1311 58.5746L23.5783 62.5665L17.4147 56.4091L21.4129 49.8438C21.2811 49.5739 20.4902 48.2998 19.7747 45.9963L19.6743 45.6636L12.2302 43.8622V35.1378L19.6805 33.3301C19.781 33.0539 20.1324 31.5852 21.256 29.4512Z"
          fill="#007A33" stroke="#007A33" stroke-width="0.8"/>
    <path d="M40.5001 56.9364C50.1159 56.9364 57.9365 49.1158 57.9365 39.5001C57.9365 34.2026 55.5702 29.2566 51.4402 25.9238L50.6682 26.8778C54.5032 29.9722 56.7063 34.5729 56.7063 39.5001C56.7063 48.4379 49.438 55.7062 40.5001 55.7062C31.5622 55.7062 24.2939 48.4379 24.2939 39.5001C24.2939 30.5622 31.5622 23.2939 40.5001 23.2939C42.6906 23.2939 44.8121 23.7207 46.8081 24.568L47.2851 23.4382C45.1322 22.5281 42.8538 22.0699 40.5001 22.0699C30.8844 22.0699 23.0637 29.8906 23.0637 39.5063C23.0637 49.1221 30.8844 56.9364 40.5001 56.9364Z"
          fill="#007A33" stroke="#007A33" stroke-width="0.8"/>
    <path d="M27.7396 32.9974C27.6831 33.964 27.6956 34.9244 27.7835 35.847L29.0074 35.734C28.9258 34.8679 28.9133 33.9703 28.9698 33.0665L27.7396 32.9974Z"
          fill="#007A33" stroke="#007A33" stroke-width="0.8"/>
    <path d="M32.2902 43.8811C30.8466 42.1362 29.8549 40.1088 29.3402 37.8618L28.1414 38.138C28.7 40.5733 29.7795 42.7701 31.3424 44.6656L32.2902 43.8811Z"
          fill="#007A33" stroke="#007A33" stroke-width="0.8"/>
    <path d="M34.9641 48.8584L35.0143 49.304L35.4411 49.417C37.0228 49.8312 38.5857 50.0447 40.0795 50.0447C43.8957 50.0447 47.3038 48.645 49.6764 46.1092C52.2875 43.3161 53.5553 39.2677 53.2415 34.667L53.2038 34.2339L52.7896 34.1209C49.9526 33.374 47.1971 33.305 44.7367 33.8887C41.9938 30.424 37.4182 28.6415 32.1459 28.9992H31.6751L31.5559 29.4574C30.2064 34.5477 31.0098 39.2175 33.8154 42.6069C34.2611 43.1404 34.7444 43.6174 35.2465 44.0442C34.9452 45.5506 34.8448 47.1637 34.9641 48.8584ZM36.9537 48.5006L41.0837 45.0861L47.2223 46.6365C44.5296 48.5885 40.9394 49.2664 36.9537 48.5006ZM36.1503 47.5717C36.1252 43.6362 37.3806 40.2908 39.7406 37.9685L40.2992 44.1447L36.1503 47.5717ZM51.1012 41.4708L46.695 40.4477L52.049 36.0227C52.049 37.9936 51.7288 39.8326 51.1012 41.4708ZM51.302 35.0436L45.8791 39.5251L45.5715 34.9683C47.3541 34.6356 49.2935 34.6544 51.302 35.0436ZM45.5087 41.4332L50.5991 42.6194C50.1095 43.5986 49.5069 44.4961 48.7851 45.2744C48.6596 45.4125 48.5278 45.5381 48.396 45.6636L42.27 44.1195L45.5087 41.4332ZM44.3601 35.2695L44.7116 40.498L41.4415 43.2032L40.8766 36.9956C41.9123 36.2173 43.086 35.6461 44.3601 35.2695ZM34.7569 41.8223C32.2965 38.8409 31.5496 34.7298 32.6354 30.2043C37.2048 29.9972 41.0021 31.4283 43.4626 34.2653C42.0629 34.7486 40.7762 35.4516 39.6527 36.3805C37.7007 37.9936 36.3261 40.1527 35.5729 42.701C35.2904 42.4249 35.0143 42.1361 34.7569 41.8223Z"
          fill="#007A33" stroke="#007A33" stroke-width="0.8"/>
</svg>