<svg width="69" height="17" viewBox="0 0 69 17" fill="none" xmlns="http://www.w3.org/2000/svg">
<g clip-path="url(#clip0)">
<path fill-rule="evenodd" clip-rule="evenodd" d="M13.4626 0.816655C12.9807 1.05349 12.8357 1.71742 12.3538 1.43288C11.7755 1.14862 10.4745 0.769513 9.99231 0.674385C9.26932 0.532115 8.40197 0.485253 7.6302 0.579819C5.46124 0.816655 3.67803 2.04938 2.47315 3.61323C1.02718 5.50933 0.882812 7.21601 0.882812 9.1121C0.882812 12.9994 4.20843 16.4594 7.7272 16.4122C10.5706 16.3654 13.3179 15.8911 14.5713 11.293L14.1376 11.0565C13.1256 14.7535 10.7156 15.9863 8.4984 15.6071C3.48601 14.7532 3.72653 10.9136 3.72653 7.88022C3.72653 5.1305 5.31687 1.19632 8.40168 1.19632C10.3778 1.19632 11.6306 1.38602 13.6067 6.03127L13.9442 6.12639L13.4626 0.816655ZM27.9696 8.73328C28.3551 7.83251 28.5962 6.97945 30.2832 6.93175C32.2593 6.88433 32.5486 8.92297 32.5486 10.0603V13.3785C32.5004 14.6113 32.6933 15.464 31.2473 15.6069L31.2955 15.938H36.2115V15.6537C34.8137 15.2272 34.6212 14.6587 34.6691 13.3782V9.68147C34.6691 8.82812 34.4762 8.06963 33.9464 7.21657C33.3681 6.41065 32.1632 6.22124 31.4402 6.22124C30.2835 6.22124 28.645 6.64777 27.8738 7.45369C27.8738 7.45369 27.777 6.74262 27.2472 6.22124C27.2472 6.12611 24.2106 6.7429 24.2106 6.7429V7.07486C25.5119 7.07486 25.753 8.30731 25.8492 9.30292V13.3794C25.8492 14.4698 25.801 15.3229 24.4999 15.7026V15.9391H29.5123L29.5605 15.6549C28.4039 15.3706 27.9702 15.1338 27.9702 13.3794L27.9696 8.73328Z" fill="#0C0E0F"/>
<path fill-rule="evenodd" clip-rule="evenodd" d="M20.1145 14.1358C20.0663 14.7997 19.8252 15.3685 18.4274 15.5582C17.5116 15.7005 16.4996 14.942 16.4996 13.9935C16.4996 12.382 18.765 11.1495 20.2589 10.9118L20.1145 14.1358ZM19.8731 10.2493C18.5718 11.482 14.5229 10.439 14.4268 13.8515C14.4268 15.2262 15.7763 16.127 17.2705 16.127C18.5236 16.127 19.3909 15.8904 20.3553 15.1788C20.4035 15.9373 22.09 16.317 22.9579 16.2693C23.8738 16.1747 24.0661 15.8904 24.6926 15.2742L24.4036 14.8477C24.1628 15.132 23.7771 15.653 22.9579 15.4631C22.3314 15.3685 22.3314 14.1835 22.3314 13.7095V9.20627C22.3314 8.40035 22.3314 7.59472 21.5602 6.97849C20.8372 6.45684 19.777 6.31457 18.909 6.31457C17.5113 6.31457 14.8604 6.50426 14.8604 8.11581C14.8604 8.68461 15.1497 9.064 15.7281 9.064C16.4511 9.064 16.6921 8.59005 16.8847 7.9741C17.1255 7.12076 17.5592 6.7888 18.62 6.7888C19.8731 6.7888 20.0657 8.1638 20.0657 9.11142C20.066 9.49081 20.1621 9.49081 19.8731 10.2493ZM53.9484 12.9508C53.6117 15.1785 52.4545 15.6056 51.5871 15.6056C49.1289 15.6056 48.3577 12.6665 48.3577 11.0549C48.3577 9.49025 49.225 6.78852 51.2976 6.78852C52.1649 6.78852 53.6112 7.21505 53.9478 9.6328V12.951H53.9484V12.9508ZM53.9008 7.21533C53.0325 6.50426 51.9723 6.17258 50.7677 6.17258C49.2738 6.17258 46.0929 7.26303 46.0444 11.2446C45.9959 13.8995 48.1166 16.1273 50.9603 16.1273C52.069 16.1273 53.2254 15.843 54.0451 15.0845L54.2856 16.1273L57.6595 15.7008L57.5148 15.4634C56.0694 15.2742 56.1171 13.9941 56.0694 13.2356V0.578857L52.0685 0.673424V0.957964C53.5624 1.05253 53.8999 1.90615 53.8999 3.75482V7.21533H53.9008Z" fill="#0C0E0F"/>
<path fill-rule="evenodd" clip-rule="evenodd" d="M65.082 0.815674H67.106V5.41378H65.082V0.815674ZM57.2256 0.815674H59.2502V5.41378H57.2256V0.815674Z" fill="#FF0000"/>
<path fill-rule="evenodd" clip-rule="evenodd" d="M42.0922 14.1357C42.0437 14.7996 41.8032 15.3684 40.4051 15.5581C39.5369 15.7004 38.4767 14.9419 38.4767 13.9934C38.4767 12.3818 40.7418 11.1494 42.2363 10.9117L42.0922 14.1357ZM41.8505 10.2492C40.5495 11.4819 36.5009 10.4389 36.4524 13.8514C36.4047 15.2261 37.7543 16.1269 39.2482 16.1269C40.5016 16.1269 41.3686 15.8903 42.333 15.1787C42.43 15.9372 44.0683 16.3169 44.9356 16.2692C45.8515 16.1746 46.0444 15.8903 46.6709 15.2741L46.3819 14.8476C46.1405 15.1318 45.7553 15.6529 44.9356 15.463C44.3091 15.3684 44.3091 14.1834 44.3091 13.7094V9.20616C44.3091 8.40024 44.3091 7.5946 43.5379 6.97838C42.8152 6.45672 41.7549 6.31445 40.8867 6.31445C39.4898 6.31445 36.8869 6.50415 36.8869 8.1157C36.8869 8.6845 37.1274 9.06389 37.7058 9.06389C38.477 9.06389 38.7184 8.58993 38.863 7.97399C39.1035 7.12065 39.5372 6.78869 40.5977 6.78869C41.8511 6.78869 42.044 8.16369 42.044 9.11131C42.0437 9.4907 42.1396 9.4907 41.8505 10.2492ZM63.5398 14.1357C63.4913 14.7996 63.2023 15.3684 61.8527 15.5581C60.9369 15.7004 59.9251 14.9419 59.9251 13.9934C59.9251 12.3818 62.1902 11.1494 63.6842 10.9117L63.5398 14.1357ZM63.2987 10.2492C61.9968 11.4819 57.9482 10.4389 57.8521 13.8514C57.8521 15.2261 59.2013 16.1269 60.6478 16.1269C61.9489 16.1269 62.7683 15.8903 63.7327 15.1787C63.8288 15.9372 65.5156 16.3169 66.3838 16.2692C67.2511 16.1746 67.4917 15.8903 68.1185 15.2741L67.8295 14.8476C67.589 15.1318 67.2029 15.6529 66.3841 15.463C65.7575 15.3684 65.709 14.1834 65.709 13.7094V9.20616C65.709 8.40024 65.709 7.5946 64.9863 6.97838C64.2628 6.45672 63.2028 6.31445 62.287 6.31445C60.9377 6.31445 58.2863 6.50415 58.2863 8.1157C58.2863 8.6845 58.5268 9.06389 59.106 9.06389C59.8772 9.06389 60.1177 8.58993 60.3109 7.97399C60.5514 7.12065 60.9859 6.78869 61.998 6.78869C63.2513 6.78869 63.4918 8.16369 63.4918 9.11131C63.4913 9.4907 63.5877 9.4907 63.2987 10.2492Z" fill="#0C0E0F"/>
<path fill-rule="evenodd" clip-rule="evenodd" d="M62.0458 5.65062L62.092 4.55876L62.0532 4.52031L60.7445 4.75041L60.793 4.22876V4.18133V4.13391L59.7812 3.23315L60.1179 3.04345H60.1664V2.99603L59.9736 2.28496L60.6971 2.47465H60.7448V2.42723L60.9376 2.09526L61.4198 2.75863C61.4683 2.80605 61.4198 2.80605 61.4683 2.80605V2.75863L61.2269 1.43134L61.7091 1.7633H61.7576V1.71644L62.0943 0.815674L62.4318 1.71644C62.4803 1.76386 62.4318 1.76386 62.4803 1.76386H62.5288L63.011 1.4319L62.7211 2.75919C62.7211 2.80662 62.7211 2.80662 62.7696 2.80662H62.8181L63.3003 2.09554L63.445 2.42751C63.445 2.47493 63.445 2.47493 63.4926 2.47493L64.2162 2.28524L64.0715 2.99631V3.09088L64.4082 3.23315L63.4447 4.13391C63.4447 4.18133 63.4447 4.18133 63.3962 4.18133V4.22876L63.4447 4.75041L62.1428 4.51358V5.65118L62.0458 5.65062Z" fill="#FF0000"/>
</g>
<defs>
<clipPath id="clip0">
<rect width="67.2353" height="15.8824" fill="white" transform="translate(0.882812 0.529297)"/>
</clipPath>
</defs>
</svg>
