<svg width="71" height="15" viewBox="0 0 71 15" fill="none" xmlns="http://www.w3.org/2000/svg">
<path d="M0 0.117676H2.98226V7.72978C2.98226 8.93764 3.01904 9.72075 3.09302 10.0785C3.22059 10.6536 3.52449 11.1156 4.00493 11.4637C4.48516 11.8121 5.14172 11.9863 5.9746 11.9863C6.82094 11.9863 7.45901 11.8219 7.88901 11.4925C8.3188 11.1634 8.57751 10.7592 8.66473 10.2799C8.75195 9.80054 8.79567 9.00483 8.79567 7.89276V0.117676H11.7779V7.49961C11.7779 9.18701 11.6972 10.3791 11.536 11.0756C11.3748 11.7723 11.0776 12.3602 10.6443 12.8396C10.2109 13.3189 9.63171 13.7009 8.90621 13.9852C8.18072 14.2696 7.23371 14.4118 6.06498 14.4118C4.65434 14.4118 3.58459 14.2568 2.85595 13.9468C2.12709 13.6369 1.55124 13.2343 1.12796 12.739C0.704897 12.2439 0.426007 11.7245 0.291711 11.1812C0.0973069 10.3757 0 9.18701 0 7.61459V0.117676Z" fill="#007A33"/>
<path d="M14.9316 14.1722V0.117676H17.9139V5.64942H23.7576V0.117676H26.7398V14.1722H23.7576V8.02695H17.9139V14.1722H14.9316Z" fill="#007A33"/>
<path d="M29.833 0.117676H35.7372C36.9059 0.117676 37.7775 0.16407 38.3519 0.256659C38.9263 0.349449 39.4401 0.542826 39.8935 0.836591C40.3468 1.13056 40.7247 1.52211 41.0269 2.01105C41.3291 2.5 41.4802 3.04813 41.4802 3.65526C41.4802 4.31358 41.2938 4.91751 40.921 5.46725C40.5481 6.01698 40.0427 6.42933 39.4046 6.7039C40.3045 6.95307 40.9966 7.37822 41.4802 7.97895C41.9638 8.57968 42.2057 9.286 42.2057 10.0977C42.2057 10.7368 42.0495 11.3584 41.7372 11.9623C41.4249 12.5662 40.9983 13.049 40.4578 13.4099C39.917 13.7711 39.2503 13.9932 38.4578 14.0762C37.9606 14.1274 36.7616 14.1594 34.8608 14.172H29.8332V0.117676H29.833ZM32.8155 2.4568V5.70682H34.77C35.932 5.70682 36.6542 5.69102 36.9362 5.65882C37.4465 5.60123 37.8481 5.43345 38.1402 5.15548C38.4324 4.87752 38.5784 4.51176 38.5784 4.05781C38.5784 3.62326 38.4526 3.27011 38.2006 2.99854C37.9486 2.72697 37.5741 2.56239 37.0772 2.5048C36.7815 2.4728 35.932 2.4568 34.5281 2.4568H32.8155V2.4568ZM32.8155 8.04614V11.8043H35.5762C36.6508 11.8043 37.3326 11.7755 37.6216 11.7181C38.0648 11.6415 38.4259 11.4545 38.7048 11.1574C38.9834 10.8602 39.123 10.4623 39.123 9.96372C39.123 9.54197 39.0154 9.18401 38.8006 8.89004C38.5856 8.59608 38.275 8.3819 37.8687 8.24772C37.4623 8.11354 36.5806 8.04634 35.224 8.04634H32.8155V8.04614Z" fill="#007A33"/>
<path d="M44.7148 0.117676H50.1657C51.395 0.117676 52.3319 0.207265 52.9767 0.386044C53.8432 0.629016 54.5853 1.06036 55.2034 1.68029C55.8213 2.30022 56.2916 3.05933 56.614 3.95722C56.9364 4.85532 57.0976 5.96259 57.0976 7.27903C57.0976 8.4359 56.9465 9.43298 56.6443 10.2701C56.2748 11.2928 55.7475 12.1203 55.0624 12.7532C54.5452 13.2325 53.8466 13.6065 52.9666 13.8749C52.3081 14.073 51.4284 14.172 50.3269 14.172H44.7148V0.117676ZM47.6973 2.4952V11.8041H49.924C50.7569 11.8041 51.358 11.7595 51.7275 11.6699C52.211 11.5549 52.6123 11.36 52.9315 11.0852C53.2505 10.8104 53.5109 10.3583 53.7123 9.72855C53.9138 9.09902 54.0145 8.24112 54.0145 7.15445C54.0145 6.06798 53.9138 5.23387 53.7123 4.65234C53.5107 4.07081 53.2287 3.61686 52.8659 3.2909C52.5032 2.96494 52.0431 2.74437 51.4856 2.62938C51.069 2.53999 50.2529 2.4952 49.0371 2.4952H47.6973V2.4952Z" fill="#007A33"/>
<path d="M59.627 14.1722V0.117676H64.4129C66.2264 0.117676 67.4086 0.188067 67.9594 0.328651C68.8058 0.539626 69.5144 0.998172 70.0852 1.70429C70.6561 2.41061 70.9417 3.3229 70.9417 4.44137C70.9417 5.30427 70.7771 6.02958 70.448 6.61751C70.1189 7.20564 69.7006 7.66719 69.1935 8.00275C68.6864 8.33831 68.1708 8.56048 67.6469 8.66907C66.9349 8.80325 65.9038 8.87045 64.5537 8.87045H62.6092V14.172H59.627V14.1722ZM62.6094 2.4952V6.48333H64.2416C65.417 6.48333 66.2028 6.40994 66.5992 6.26275C66.9954 6.11577 67.306 5.8858 67.5311 5.57243C67.756 5.25927 67.8686 4.89511 67.8686 4.47956C67.8686 3.96822 67.7108 3.54647 67.3951 3.21411C67.0792 2.88195 66.6797 2.67417 66.1961 2.59098C65.8401 2.52719 65.1247 2.4952 64.0501 2.4952H62.6094V2.4952Z" fill="#007A33"/>
</svg>
