<svg width="216" height="17" viewBox="0 0 216 17" fill="none" xmlns="http://www.w3.org/2000/svg">
<g clip-path="url(#clip0)">
<path d="M0 2.11768H2.98226V9.72978C2.98226 10.9376 3.01904 11.7207 3.09302 12.0785C3.22059 12.6536 3.52449 13.1156 4.00493 13.4637C4.48516 13.8121 5.14172 13.9863 5.9746 13.9863C6.82094 13.9863 7.45901 13.8219 7.88901 13.4925C8.3188 13.1634 8.57751 12.7592 8.66473 12.2799C8.75195 11.8005 8.79567 11.0048 8.79567 9.89276V2.11768H11.7779V9.49961C11.7779 11.187 11.6972 12.3791 11.536 13.0756C11.3748 13.7723 11.0776 14.3602 10.6443 14.8396C10.2109 15.3189 9.63171 15.7009 8.90621 15.9852C8.18072 16.2696 7.23371 16.4118 6.06498 16.4118C4.65434 16.4118 3.58459 16.2568 2.85595 15.9468C2.12709 15.6369 1.55124 15.2343 1.12796 14.739C0.704897 14.2439 0.426007 13.7245 0.291711 13.1812C0.0973069 12.3757 0 11.187 0 9.61459V2.11768Z" fill="#007A33"/>
<path d="M14.9316 16.1722V2.11768H17.9139V7.64942H23.7576V2.11768H26.7398V16.1722H23.7576V10.0269H17.9139V16.1722H14.9316Z" fill="#007A33"/>
<path d="M29.833 2.11768H35.7372C36.9059 2.11768 37.7775 2.16407 38.3519 2.25666C38.9263 2.34945 39.4401 2.54283 39.8935 2.83659C40.3468 3.13056 40.7247 3.52211 41.0269 4.01105C41.3291 4.5 41.4802 5.04813 41.4802 5.65526C41.4802 6.31358 41.2938 6.91751 40.921 7.46725C40.5481 8.01698 40.0427 8.42933 39.4046 8.7039C40.3045 8.95307 40.9966 9.37822 41.4802 9.97895C41.9638 10.5797 42.2057 11.286 42.2057 12.0977C42.2057 12.7368 42.0495 13.3584 41.7372 13.9623C41.4249 14.5662 40.9983 15.049 40.4578 15.4099C39.917 15.7711 39.2503 15.9932 38.4578 16.0762C37.9606 16.1274 36.7616 16.1594 34.8608 16.172H29.8332V2.11768H29.833ZM32.8155 4.4568V7.70682H34.77C35.932 7.70682 36.6542 7.69102 36.9362 7.65882C37.4465 7.60123 37.8481 7.43345 38.1402 7.15548C38.4324 6.87752 38.5784 6.51176 38.5784 6.05781C38.5784 5.62326 38.4526 5.27011 38.2006 4.99854C37.9486 4.72697 37.5741 4.56239 37.0772 4.5048C36.7815 4.4728 35.932 4.4568 34.5281 4.4568H32.8155V4.4568ZM32.8155 10.0461V13.8043H35.5762C36.6508 13.8043 37.3326 13.7755 37.6216 13.7181C38.0648 13.6415 38.4259 13.4545 38.7048 13.1574C38.9834 12.8602 39.123 12.4623 39.123 11.9637C39.123 11.542 39.0154 11.184 38.8006 10.89C38.5856 10.5961 38.275 10.3819 37.8687 10.2477C37.4623 10.1135 36.5806 10.0463 35.224 10.0463H32.8155V10.0461Z" fill="#007A33"/>
<path d="M44.7148 2.11768H50.1657C51.395 2.11768 52.3319 2.20727 52.9767 2.38604C53.8432 2.62902 54.5853 3.06036 55.2034 3.68029C55.8213 4.30022 56.2916 5.05933 56.614 5.95722C56.9364 6.85532 57.0976 7.96259 57.0976 9.27903C57.0976 10.4359 56.9465 11.433 56.6443 12.2701C56.2748 13.2928 55.7475 14.1203 55.0624 14.7532C54.5452 15.2325 53.8466 15.6065 52.9666 15.8749C52.3081 16.073 51.4284 16.172 50.3269 16.172H44.7148V2.11768ZM47.6973 4.4952V13.8041H49.924C50.7569 13.8041 51.358 13.7595 51.7275 13.6699C52.211 13.5549 52.6123 13.36 52.9315 13.0852C53.2505 12.8104 53.5109 12.3583 53.7123 11.7285C53.9138 11.099 54.0145 10.2411 54.0145 9.15445C54.0145 8.06798 53.9138 7.23387 53.7123 6.65234C53.5107 6.07081 53.2287 5.61686 52.8659 5.2909C52.5032 4.96494 52.0431 4.74437 51.4856 4.62938C51.069 4.53999 50.2529 4.4952 49.0371 4.4952H47.6973V4.4952Z" fill="#007A33"/>
<path d="M59.627 16.1722V2.11768H64.4129C66.2264 2.11768 67.4086 2.18807 67.9594 2.32865C68.8058 2.53963 69.5144 2.99817 70.0852 3.70429C70.6561 4.41061 70.9417 5.3229 70.9417 6.44137C70.9417 7.30427 70.7771 8.02958 70.448 8.61751C70.1189 9.20564 69.7006 9.66719 69.1935 10.0027C68.6864 10.3383 68.1708 10.5605 67.6469 10.6691C66.9349 10.8033 65.9038 10.8704 64.5537 10.8704H62.6092V16.172H59.627V16.1722ZM62.6094 4.4952V8.48333H64.2416C65.417 8.48333 66.2028 8.40994 66.5992 8.26275C66.9954 8.11577 67.306 7.8858 67.5311 7.57243C67.756 7.25927 67.8686 6.89511 67.8686 6.47956C67.8686 5.96822 67.7108 5.54647 67.3951 5.21411C67.0792 4.88195 66.6797 4.67417 66.1961 4.59098C65.8401 4.52719 65.1247 4.4952 64.0501 4.4952H62.6094V4.4952Z" fill="#007A33"/>
</g>
<g clip-path="url(#clip1)">
<path fill-rule="evenodd" clip-rule="evenodd" d="M100.463 0.816655C99.9807 1.05349 99.8357 1.71742 99.3538 1.43288C98.7755 1.14862 97.4745 0.769513 96.9923 0.674385C96.2693 0.532115 95.402 0.485253 94.6302 0.579819C92.4612 0.816655 90.678 2.04938 89.4732 3.61323C88.0272 5.50933 87.8828 7.21601 87.8828 9.1121C87.8828 12.9994 91.2084 16.4594 94.7272 16.4122C97.5706 16.3654 100.318 15.8911 101.571 11.293L101.138 11.0565C100.126 14.7535 97.7156 15.9863 95.4984 15.6071C90.486 14.7532 90.7265 10.9136 90.7265 7.88022C90.7265 5.1305 92.3169 1.19632 95.4017 1.19632C97.3778 1.19632 98.6306 1.38602 100.607 6.03127L100.944 6.12639L100.463 0.816655ZM114.97 8.73328C115.355 7.83251 115.596 6.97945 117.283 6.93175C119.259 6.88433 119.549 8.92297 119.549 10.0603V13.3785C119.5 14.6113 119.693 15.464 118.247 15.6069L118.296 15.938H123.211V15.6537C121.814 15.2272 121.621 14.6587 121.669 13.3782V9.68147C121.669 8.82812 121.476 8.06963 120.946 7.21657C120.368 6.41065 119.163 6.22124 118.44 6.22124C117.284 6.22124 115.645 6.64777 114.874 7.45369C114.874 7.45369 114.777 6.74262 114.247 6.22124C114.247 6.12611 111.211 6.7429 111.211 6.7429V7.07486C112.512 7.07486 112.753 8.30731 112.849 9.30292V13.3794C112.849 14.4698 112.801 15.3229 111.5 15.7026V15.9391H116.512L116.561 15.6549C115.404 15.3706 114.97 15.1338 114.97 13.3794L114.97 8.73328Z" fill="#0C0E0F"/>
<path fill-rule="evenodd" clip-rule="evenodd" d="M107.114 14.1358C107.066 14.7997 106.825 15.3685 105.427 15.5582C104.512 15.7005 103.5 14.942 103.5 13.9935C103.5 12.382 105.765 11.1495 107.259 10.9118L107.114 14.1358ZM106.873 10.2493C105.572 11.482 101.523 10.439 101.427 13.8515C101.427 15.2262 102.776 16.127 104.27 16.127C105.524 16.127 106.391 15.8904 107.355 15.1788C107.404 15.9373 109.09 16.317 109.958 16.2693C110.874 16.1747 111.066 15.8904 111.693 15.2742L111.404 14.8477C111.163 15.132 110.777 15.653 109.958 15.4631C109.331 15.3685 109.331 14.1835 109.331 13.7095V9.20627C109.331 8.40035 109.331 7.59472 108.56 6.97849C107.837 6.45684 106.777 6.31457 105.909 6.31457C104.511 6.31457 101.86 6.50426 101.86 8.11581C101.86 8.68461 102.15 9.064 102.728 9.064C103.451 9.064 103.692 8.59005 103.885 7.9741C104.126 7.12076 104.559 6.7888 105.62 6.7888C106.873 6.7888 107.066 8.1638 107.066 9.11142C107.066 9.49081 107.162 9.49081 106.873 10.2493ZM140.948 12.9508C140.612 15.1785 139.454 15.6056 138.587 15.6056C136.129 15.6056 135.358 12.6665 135.358 11.0549C135.358 9.49025 136.225 6.78852 138.298 6.78852C139.165 6.78852 140.611 7.21505 140.948 9.6328V12.951H140.948V12.9508ZM140.901 7.21533C140.033 6.50426 138.972 6.17258 137.768 6.17258C136.274 6.17258 133.093 7.26303 133.044 11.2446C132.996 13.8995 135.117 16.1273 137.96 16.1273C139.069 16.1273 140.225 15.843 141.045 15.0845L141.286 16.1273L144.659 15.7008L144.515 15.4634C143.069 15.2742 143.117 13.9941 143.069 13.2356V0.578857L139.068 0.673424V0.957964C140.562 1.05253 140.9 1.90615 140.9 3.75482V7.21533H140.901Z" fill="#0C0E0F"/>
<path fill-rule="evenodd" clip-rule="evenodd" d="M152.082 0.815674H154.106V5.41378H152.082V0.815674ZM144.226 0.815674H146.25V5.41378H144.226V0.815674Z" fill="#FF0000"/>
<path fill-rule="evenodd" clip-rule="evenodd" d="M129.092 14.1357C129.044 14.7996 128.803 15.3684 127.405 15.5581C126.537 15.7004 125.477 14.9419 125.477 13.9934C125.477 12.3818 127.742 11.1494 129.236 10.9117L129.092 14.1357ZM128.851 10.2492C127.549 11.4819 123.501 10.4389 123.452 13.8514C123.405 15.2261 124.754 16.1269 126.248 16.1269C127.502 16.1269 128.369 15.8903 129.333 15.1787C129.43 15.9372 131.068 16.3169 131.936 16.2692C132.851 16.1746 133.044 15.8903 133.671 15.2741L133.382 14.8476C133.141 15.1318 132.755 15.6529 131.936 15.463C131.309 15.3684 131.309 14.1834 131.309 13.7094V9.20616C131.309 8.40024 131.309 7.5946 130.538 6.97838C129.815 6.45672 128.755 6.31445 127.887 6.31445C126.49 6.31445 123.887 6.50415 123.887 8.1157C123.887 8.6845 124.127 9.06389 124.706 9.06389C125.477 9.06389 125.718 8.58993 125.863 7.97399C126.104 7.12065 126.537 6.78869 127.598 6.78869C128.851 6.78869 129.044 8.16369 129.044 9.11131C129.044 9.4907 129.14 9.4907 128.851 10.2492ZM150.54 14.1357C150.491 14.7996 150.202 15.3684 148.853 15.5581C147.937 15.7004 146.925 14.9419 146.925 13.9934C146.925 12.3818 149.19 11.1494 150.684 10.9117L150.54 14.1357ZM150.299 10.2492C148.997 11.4819 144.948 10.4389 144.852 13.8514C144.852 15.2261 146.201 16.1269 147.648 16.1269C148.949 16.1269 149.768 15.8903 150.733 15.1787C150.829 15.9372 152.516 16.3169 153.384 16.2692C154.251 16.1746 154.492 15.8903 155.119 15.2741L154.829 14.8476C154.589 15.1318 154.203 15.6529 153.384 15.463C152.758 15.3684 152.709 14.1834 152.709 13.7094V9.20616C152.709 8.40024 152.709 7.5946 151.986 6.97838C151.263 6.45672 150.203 6.31445 149.287 6.31445C147.938 6.31445 145.286 6.50415 145.286 8.1157C145.286 8.6845 145.527 9.06389 146.106 9.06389C146.877 9.06389 147.118 8.58993 147.311 7.97399C147.551 7.12065 147.986 6.78869 148.998 6.78869C150.251 6.78869 150.492 8.16369 150.492 9.11131C150.491 9.4907 150.588 9.4907 150.299 10.2492Z" fill="#0C0E0F"/>
<path fill-rule="evenodd" clip-rule="evenodd" d="M149.046 5.65062L149.092 4.55876L149.053 4.52031L147.744 4.75041L147.793 4.22876V4.18133V4.13391L146.781 3.23315L147.118 3.04345H147.166V2.99603L146.974 2.28496L147.697 2.47465H147.745V2.42723L147.938 2.09526L148.42 2.75863C148.468 2.80605 148.42 2.80605 148.468 2.80605V2.75863L148.227 1.43134L148.709 1.7633H148.758V1.71644L149.094 0.815674L149.432 1.71644C149.48 1.76386 149.432 1.76386 149.48 1.76386H149.529L150.011 1.4319L149.721 2.75919C149.721 2.80662 149.721 2.80662 149.77 2.80662H149.818L150.3 2.09554L150.445 2.42751C150.445 2.47493 150.445 2.47493 150.493 2.47493L151.216 2.28524L151.072 2.99631V3.09088L151.408 3.23315L150.445 4.13391C150.445 4.18133 150.445 4.18133 150.396 4.18133V4.22876L150.445 4.75041L149.143 4.51358V5.65118L149.046 5.65062Z" fill="#FF0000"/>
</g>
<g clip-path="url(#clip2)">
<path d="M209.809 2.60693L208.11 2.60942L202.122 16.3181H203.91L206.557 10.1408H211.415L214.16 16.2766H215.935L209.809 2.60693ZM207.148 8.64827L208.965 4.55797L210.767 8.64827H207.148Z" fill="#00874B"/>
<path d="M209.809 2.60693L208.11 2.60942L202.122 16.3181H203.91L206.557 10.1408H211.415L214.16 16.2766H215.935L209.809 2.60693ZM207.148 8.64827L208.965 4.55797L210.767 8.64827H207.148Z" stroke="#00853F" stroke-width="0.0763428"/>
<path d="M196.138 4.10352L196.185 4.0745L196.143 4.03802C196.12 4.01729 196.093 3.99324 196.062 3.96505C195.749 3.6823 195.014 3.02063 193.989 2.57453L193.93 2.54883V4.53055L193.973 4.52972C194.034 4.52889 195.492 4.49904 196.138 4.10352Z" fill="#00853F"/>
<path d="M196.363 4.00166L196.384 4.02653L196.443 4C196.891 3.801 197.641 3.4685 198.014 2.95276L198.049 2.9055L197.991 2.88891C197.309 2.69572 196.719 2.52822 194.631 2.60202L194.479 2.60699L194.611 2.67913C194.624 2.68659 195.806 3.33335 196.363 4.00166Z" fill="#00853F"/>
<path d="M196.652 4.13754L196.584 4.15826L196.636 4.20719C197.822 5.33071 198.569 6.97496 198.97 7.85802L198.999 7.92021L199.037 7.90528C200.12 7.47412 201.167 6.45672 201.861 5.72871L201.884 5.70467L201.865 5.6773C200.788 4.08115 199.319 3.37221 198.307 2.97753L198.277 2.96509L198.258 2.99162C197.65 3.83074 196.663 4.13505 196.652 4.13754Z" fill="#00853F"/>
<path d="M198.704 8.06945L198.736 8.05204L198.723 8.01804C198.522 7.49152 197.759 5.66818 196.39 4.31331L196.373 4.2959L196.349 4.30253C196.265 4.32492 196.173 4.35145 196.072 4.38047C195.545 4.53304 194.821 4.74282 193.964 4.72541L193.92 4.72624V9.14323L193.963 9.1424C193.993 9.14157 196.888 9.04787 198.704 8.06945Z" fill="#00853F"/>
<path d="M198.834 8.28931L198.793 8.30589C198.739 8.32745 198.679 8.35149 198.613 8.37803C197.816 8.70058 196.158 9.37137 193.971 9.38049H193.929V14.261L193.969 14.2626C193.973 14.2626 194.024 14.2643 194.116 14.2643C194.75 14.2643 197.306 14.1988 199.438 13.2021L199.461 13.1914L199.462 13.1665C199.529 11.2926 199.322 9.66573 198.847 8.33159L198.834 8.28931Z" fill="#00853F"/>
<path d="M199.429 13.5039L199.353 13.5346C197.685 14.2029 195.872 14.5221 193.963 14.4807L193.92 14.4798V16.3529L193.958 16.3571C193.971 16.3587 194.539 16.4135 195.312 16.4135C196.387 16.4135 197.859 16.3073 198.788 15.8032L198.797 15.7982L198.803 15.7891C198.821 15.7609 198.84 15.7335 198.858 15.7062C199.05 15.4226 199.267 15.1009 199.422 13.5736L199.429 13.5039Z" fill="#00853F"/>
<path d="M199.745 13.3074L199.713 13.3165V13.348C199.713 13.3621 199.722 14.7269 199.241 15.4956L199.3 15.5528L199.316 15.5428C200.465 14.8555 202.387 13.7046 202.965 10.6466L202.89 10.6143C202.13 11.6035 200.976 12.96 199.745 13.3074Z" fill="#00853F"/>
<path d="M205.392 0.0248751L205.361 0L205.329 0.0232168C204.921 0.326693 204.652 0.527352 204.182 0.833316C203.584 1.2222 202.052 2.37226 201.769 2.80757C201.129 3.79345 201.255 4.69642 202.124 5.35064L202.156 5.37468L202.182 5.344C202.37 5.12013 202.673 4.61682 202.942 4.17238C203.134 3.85315 203.301 3.57704 203.364 3.50739C203.475 3.38467 203.577 3.26196 203.664 3.15333C203.363 3.7437 203.299 3.84072 203.295 3.84818C203.287 3.8631 202.52 5.31084 202.343 5.51232C202.315 5.54383 202.282 5.59358 202.236 5.6624C201.969 6.06621 201.261 7.13833 199.104 8.15489L199.066 8.1723L199.083 8.20879C199.09 8.22454 199.797 9.80079 199.741 12.9724L199.74 13.0478L199.805 13.0089C199.881 12.9632 199.958 12.9185 200.035 12.8737C200.891 12.3745 201.862 11.809 203.044 9.8721L203.05 9.86215V9.71207C203.052 8.84725 203.054 7.868 202.338 6.42607L202.862 5.63421C203.079 5.61846 204.809 5.43936 205.65 3.78848C205.987 3.12846 206.305 1.05139 205.392 0.0248751Z" fill="#00853F"/>
<path d="M186.779 10.2287H192.676L192.673 8.67732L186.75 8.6823V4.17741L192.831 4.16746V2.59204L184.259 2.59453L179.422 13.7535L174.466 2.59536H172.059V16.3596H173.805V5.29514L178.708 16.3073L178.719 16.3314H180.155L184.976 5.21719L184.968 16.3563H192.922L192.927 14.8082L186.779 14.8132V10.2287Z" fill="#00853F"/>
</g>
<defs>
<clipPath id="clip0">
<rect width="70.9412" height="14.2941" fill="white" transform="translate(0 2.11768)"/>
</clipPath>
<clipPath id="clip1">
<rect width="67.2353" height="15.8824" fill="white" transform="translate(87.8828 0.529297)"/>
</clipPath>
<clipPath id="clip2">
<rect width="43.9412" height="16.4118" fill="white" transform="translate(172.059)"/>
</clipPath>
</defs>
</svg>
