<svg width="80" height="80" viewBox="0 0 80 80" fill="none" xmlns="http://www.w3.org/2000/svg">
<path d="M67.2012 10H45.1839C43.9873 10 43.03 10.9573 43.03 12.1539V20.6497H16.8247C14.7905 20.6497 13.1153 22.3249 13.1153 24.3591V58.7012L9.76484 66.838C9.40586 67.4363 9.40586 68.1543 9.76484 68.7526C10.1238 69.4705 10.8418 69.8295 11.5597 69.8295H67.4405C68.1584 69.8295 68.8764 69.4705 69.2354 68.7526C69.5943 68.1543 69.5943 67.4363 69.2354 66.838L65.7653 58.7012V27.3506H67.2012C68.3978 27.3506 69.355 26.3933 69.355 25.1967V12.1539C69.355 10.9573 68.3978 10 67.2012 10ZM42.8984 46.9746C41.4625 46.7353 40.0266 46.6157 38.5907 46.496V43.9832C40.3856 42.0686 41.5822 39.1968 41.5822 35.966C41.5822 35.0087 41.4625 34.1711 41.3429 33.3335C41.2232 32.8549 40.7446 32.6156 40.2659 32.6156C39.9069 32.6156 39.7873 32.7352 39.3087 32.6156C37.1548 32.4959 35.8385 30.9403 35.8385 30.9403C35.7189 30.701 35.4796 30.5814 35.2402 30.5814C35.0009 30.5814 34.7616 30.5814 34.5223 30.8207C32.8471 32.2566 30.5735 32.8549 29.018 33.0942H28.8983C27.8214 33.2138 27.1034 33.2139 26.7445 33.2139C26.2658 33.2139 25.9068 33.5728 25.7872 33.9318C25.6675 34.6498 25.6675 35.2481 25.6675 35.966C25.6675 39.1968 26.8641 42.0686 28.659 43.9832V46.496C27.2231 46.6157 25.7872 46.7353 24.3513 46.9746V37.6412C24.3513 32.1369 28.4197 27.5899 33.4454 27.5899C35.8385 27.5899 38.1121 28.6668 39.9069 30.5814C41.7018 32.4959 42.6591 35.0087 42.6591 37.7609V46.9746H42.8984ZM33.6966 44.3421C32.5001 44.3421 31.3035 43.8635 30.3462 43.0259C28.671 41.4703 27.594 38.9575 27.594 35.966C27.594 35.607 27.594 35.2481 27.594 34.8891C27.953 34.8891 28.5513 34.8891 29.1496 34.7694H29.2693C31.5428 34.4104 33.4573 33.6925 35.0129 32.6156C35.7308 33.3335 37.2864 34.2908 39.201 34.4104C39.3206 34.4104 39.4403 34.4104 39.6796 34.4104C39.7993 34.8891 39.7993 35.3677 39.7993 35.966C39.7873 40.6327 37.0351 44.3421 33.6966 44.3421ZM30.7052 47.214C30.7052 46.9746 30.7052 46.855 30.7052 46.6157V45.2994C31.6624 45.778 32.6197 46.137 33.6966 46.137C34.7736 46.137 35.8505 45.8977 36.6881 45.2994V46.6157C36.6881 46.855 36.6881 46.9746 36.6881 47.214C36.4488 48.6499 35.1326 49.7268 33.6966 49.7268C32.2488 49.7268 31.0522 48.6499 30.7052 47.214ZM23.2743 49.0088C25.3085 48.6499 27.2231 48.4105 29.2573 48.2909C29.9752 50.2054 31.6505 51.5217 33.8043 51.5217C35.9582 51.5217 37.6334 50.2054 38.3514 48.2909C40.3856 48.4105 42.3001 48.6499 44.3343 49.0088C45.7702 49.2482 46.9668 50.3251 47.4455 51.5217L48.4027 57.7439H19.2179L20.1752 51.6413C20.5222 50.3251 21.7188 49.2482 23.2743 49.0088ZM12.1461 67.4363L15.1375 60.1371H63.7191L66.7106 67.4363H12.1461ZM63.3721 57.7439H50.2096L49.1327 51.1627V51.043C48.5344 49.1285 46.8591 47.5729 44.7053 47.214V37.6412C44.7053 34.5301 43.6283 31.5386 41.5941 29.2651C39.5599 26.9916 36.8078 25.795 33.8163 25.795C27.8334 25.795 22.9273 31.1796 22.9273 37.6412V47.214C20.7735 47.5729 19.0982 49.1285 18.4999 51.1627L17.423 57.7439H15.5085V24.3591C15.5085 23.6411 16.1068 23.0428 16.8247 23.0428H43.03V25.077C43.03 26.2736 43.9873 27.2309 45.1839 27.2309H46.5002V32.1369C46.5002 32.6156 46.7395 32.9745 47.0985 33.2139C47.2181 33.3335 47.4574 33.3335 47.6967 33.3335C47.9361 33.3335 48.1754 33.2138 48.4147 33.0942L56.4319 27.2309H63.3721V57.7439ZM66.9618 24.9574H56.0729C55.8336 24.9574 55.5942 25.077 55.3549 25.1967L48.8933 29.8634V26.154C48.8933 25.436 48.4147 24.9574 47.6967 24.9574H45.4232V21.9659V12.3932H66.9618V24.9574Z" fill="#007A33"/>
<path d="M49.9703 20.7694C51.1598 20.7694 52.1241 19.8051 52.1241 18.6155C52.1241 17.426 51.1598 16.4617 49.9703 16.4617C48.7807 16.4617 47.8164 17.426 47.8164 18.6155C47.8164 19.8051 48.7807 20.7694 49.9703 20.7694Z" fill="#007A33"/>
<path d="M56.1924 20.7694C57.382 20.7694 58.3463 19.8051 58.3463 18.6155C58.3463 17.426 57.382 16.4617 56.1924 16.4617C55.0029 16.4617 54.0386 17.426 54.0386 18.6155C54.0386 19.8051 55.0029 20.7694 56.1924 20.7694Z" fill="#007A33"/>
<path d="M62.5345 20.7694C63.724 20.7694 64.6883 19.8051 64.6883 18.6155C64.6883 17.426 63.724 16.4617 62.5345 16.4617C61.3449 16.4617 60.3806 17.426 60.3806 18.6155C60.3806 19.8051 61.3449 20.7694 62.5345 20.7694Z" fill="#007A33"/>
</svg>
