<svg width="80" height="80" viewBox="0 0 80 80" fill="none" xmlns="http://www.w3.org/2000/svg">
<path d="M12.5465 14C10.5959 14 9 15.5959 9 17.5465V53.0116C9 54.9622 10.5959 56.5581 12.5465 56.5581H33.8256V63.6512H30.9884C30.5983 63.6512 30.2791 63.9703 30.2791 64.3605C30.2791 64.7506 30.5983 65.0698 30.9884 65.0698H48.0116C48.4017 65.0698 48.7209 64.7506 48.7209 64.3605C48.7209 63.9703 48.4017 63.6512 48.0116 63.6512H45.1744V56.5581H66.4535C68.4041 56.5581 70 54.9622 70 53.0116V17.5465C70 15.5959 68.4041 14 66.4535 14H12.5465ZM12.5465 15.4186H66.4535C67.6451 15.4186 68.5814 16.3549 68.5814 17.5465V46.6279H10.4186V17.5465C10.4186 16.3549 11.3549 15.4186 12.5465 15.4186ZM39.4787 18.9651C39.3794 18.9722 39.273 18.9935 39.2376 19.0077L19.3771 26.81C18.8664 27.0228 18.8664 27.9023 19.3771 28.1151L20.3488 28.4981V33.3498C19.9233 33.598 19.6395 34.052 19.6395 34.5698C19.6395 35.3429 20.285 35.9884 21.0581 35.9884C21.8313 35.9884 22.4767 35.3429 22.4767 34.5698C22.4767 34.052 22.193 33.598 21.7674 33.3498V29.0514L26.0658 30.7608C26.0374 30.8459 26.0162 30.9381 26.0233 31.0304V38.1234C26.0233 38.9533 26.5765 39.6058 27.3071 40.1662C28.0377 40.7265 29.0307 41.2231 30.2365 41.6486C32.641 42.4998 35.8897 43.0885 39.5 43.0885C43.1103 43.0885 46.359 42.4998 48.7635 41.6486C49.9622 41.2231 50.9552 40.7194 51.6929 40.1662C52.4235 39.6058 52.9767 38.9604 52.9767 38.1234V31.0304C52.9767 30.9381 52.9626 30.8459 52.9342 30.7608L59.63 28.1222C60.1407 27.9094 60.1407 27.0299 59.63 26.8171L39.7695 19.0148C39.6844 18.9651 39.578 18.958 39.4787 18.9651ZM39.5 20.4263L57.4312 27.4767L39.5 34.506L21.5688 27.4767L39.5 20.4263ZM27.4419 31.2928L39.2376 35.9246C39.4078 35.9955 39.5993 35.9955 39.7695 35.9246L51.5581 31.2928V38.1234C51.5581 38.2652 51.3808 38.6057 50.8276 39.0313C50.2743 39.4569 49.409 39.9037 48.3024 40.2938C46.0894 41.0812 42.9614 41.6699 39.5 41.6699C36.0386 41.6699 32.9106 41.0812 30.6976 40.2938C29.591 39.9037 28.7257 39.4569 28.1724 39.0313C27.6192 38.6057 27.4419 38.2652 27.4419 38.1234V31.2928ZM10.4186 48.0465H68.5814V53.0116C68.5814 54.2033 67.6451 55.1395 66.4535 55.1395H12.5465C11.3549 55.1395 10.4186 54.2033 10.4186 53.0116V48.0465ZM39.5 50.1744C38.7198 50.1744 38.0814 50.8128 38.0814 51.593C38.0814 52.3733 38.7198 53.0116 39.5 53.0116C40.2802 53.0116 40.9186 52.3733 40.9186 51.593C40.9186 50.8128 40.2802 50.1744 39.5 50.1744ZM35.2442 56.5581H43.7558V63.6512H35.2442V56.5581Z" fill="#007A33" stroke="#007A33" stroke-width="0.7"/>
</svg>
