<svg width="80" height="80" viewBox="0 0 80 80" fill="none" xmlns="http://www.w3.org/2000/svg">
<path d="M64.1667 28.4H53.5333V23.5667C53.5333 23.5473 53.5237 23.528 53.5237 23.5087C53.5237 23.4217 53.5043 23.3443 53.4753 23.2573C53.4657 23.2283 53.456 23.1993 53.4463 23.1703C53.398 23.064 53.3303 22.9673 53.253 22.89L41.653 11.29C41.566 11.2127 41.479 11.145 41.3727 11.0967C41.3437 11.087 41.3147 11.0773 41.2857 11.0677C41.1987 11.0387 41.1213 11.0193 41.0343 11.0193C41.0053 11.0097 40.986 11 40.9667 11H15.8333C13.1653 11 11 13.1653 11 15.8333V60.3C11 62.968 13.1653 65.1333 15.8333 65.1333H36.23C36.694 67.3857 38.666 69 40.9667 69H64.1667C66.8347 69 69 66.8347 69 64.1667V33.2333C69 30.5653 66.8347 28.4 64.1667 28.4ZM50.237 22.6H42.9C42.3683 22.6 41.9333 22.165 41.9333 21.6333V14.2963L50.237 22.6ZM12.9333 60.3V15.8333C12.9333 14.2287 14.2287 12.9333 15.8333 12.9333H40V21.6333C40 23.238 41.2953 24.5333 42.9 24.5333H51.6V28.4H40.9667C38.2987 28.4 36.1333 30.5653 36.1333 33.2333V63.2H15.8333C14.2287 63.2 12.9333 61.9047 12.9333 60.3ZM67.0667 64.1667C67.0667 65.7713 65.7713 67.0667 64.1667 67.0667H40.9667C39.362 67.0667 38.0667 65.7713 38.0667 64.1667V33.2333C38.0667 31.6287 39.362 30.3333 40.9667 30.3333H64.1667C65.7713 30.3333 67.0667 31.6287 67.0667 33.2333V64.1667Z" fill="#007A33" stroke="#007A33" stroke-width="0.2"/>
<path d="M60.3 32.2667H44.8333C42.1653 32.2667 40 34.4321 40 37.1001V40.9667C40 43.6347 42.1653 45.8001 44.8333 45.8001H60.3C62.968 45.8001 65.1333 43.6347 65.1333 40.9667V37.1001C65.1333 34.4321 62.968 32.2667 60.3 32.2667ZM63.2 40.9667C63.2 42.5714 61.9047 43.8667 60.3 43.8667H44.8333C43.2287 43.8667 41.9333 42.5714 41.9333 40.9667V37.1001C41.9333 35.4954 43.2287 34.2001 44.8333 34.2001H60.3C61.9047 34.2001 63.2 35.4954 63.2 37.1001V40.9667Z" fill="#007A33" stroke="#007A33" stroke-width="0.2"/>
<path d="M43.8667 47.7333C41.7303 47.7333 40 49.4636 40 51.5999C40 53.7363 41.7303 55.4666 43.8667 55.4666C46.003 55.4666 47.7333 53.7363 47.7333 51.5999C47.7333 49.4636 46.003 47.7333 43.8667 47.7333ZM43.8667 53.5333C42.8033 53.5333 41.9333 52.6633 41.9333 51.5999C41.9333 50.5366 42.8033 49.6666 43.8667 49.6666C44.93 49.6666 45.8 50.5366 45.8 51.5999C45.8 52.6633 44.93 53.5333 43.8667 53.5333Z" fill="#007A33" stroke="#007A33" stroke-width="0.2"/>
<path d="M52.5666 47.7333C50.4303 47.7333 48.7 49.4636 48.7 51.5999C48.7 53.7363 50.4303 55.4666 52.5666 55.4666C54.703 55.4666 56.4333 53.7363 56.4333 51.5999C56.4333 49.4636 54.703 47.7333 52.5666 47.7333ZM52.5666 53.5333C51.5033 53.5333 50.6333 52.6633 50.6333 51.5999C50.6333 50.5366 51.5033 49.6666 52.5666 49.6666C53.63 49.6666 54.5 50.5366 54.5 51.5999C54.5 52.6633 53.63 53.5333 52.5666 53.5333Z" fill="#007A33" stroke="#007A33" stroke-width="0.2"/>
<path d="M43.8667 57.4C41.7303 57.4 40 59.1304 40 61.2667C40 63.403 41.7303 65.1334 43.8667 65.1334C46.003 65.1334 47.7333 63.403 47.7333 61.2667C47.7333 59.1304 46.003 57.4 43.8667 57.4ZM43.8667 63.2C42.8033 63.2 41.9333 62.33 41.9333 61.2667C41.9333 60.2034 42.8033 59.3334 43.8667 59.3334C44.93 59.3334 45.8 60.2034 45.8 61.2667C45.8 62.33 44.93 63.2 43.8667 63.2Z" fill="#007A33" stroke="#007A33" stroke-width="0.2"/>
<path d="M52.5666 57.4C50.4303 57.4 48.7 59.1304 48.7 61.2667C48.7 63.403 50.4303 65.1334 52.5666 65.1334C54.703 65.1334 56.4333 63.403 56.4333 61.2667C56.4333 59.1304 54.703 57.4 52.5666 57.4ZM52.5666 63.2C51.5033 63.2 50.6333 62.33 50.6333 61.2667C50.6333 60.2034 51.5033 59.3334 52.5666 59.3334C53.63 59.3334 54.5 60.2034 54.5 61.2667C54.5 62.33 53.63 63.2 52.5666 63.2Z" fill="#007A33" stroke="#007A33" stroke-width="0.2"/>
<path d="M61.2666 47.7333C59.1302 47.7333 57.3999 49.4636 57.3999 51.5999V61.2666C57.3999 63.4029 59.1302 65.1333 61.2666 65.1333C63.4029 65.1333 65.1332 63.4029 65.1332 61.2666V51.5999C65.1332 49.4636 63.4029 47.7333 61.2666 47.7333ZM63.1999 61.2666C63.1999 62.3299 62.3299 63.1999 61.2666 63.1999C60.2032 63.1999 59.3332 62.3299 59.3332 61.2666V51.5999C59.3332 50.5366 60.2032 49.6666 61.2666 49.6666C62.3299 49.6666 63.1999 50.5366 63.1999 51.5999V61.2666Z" fill="#007A33" stroke="#007A33" stroke-width="0.2"/>
<path d="M17.7667 18.7334H23.5667C24.0984 18.7334 24.5334 18.2984 24.5334 17.7667C24.5334 17.235 24.0984 16.8 23.5667 16.8H17.7667C17.235 16.8 16.8 17.235 16.8 17.7667C16.8 18.2984 17.235 18.7334 17.7667 18.7334Z" fill="#007A33" stroke="#007A33" stroke-width="0.2"/>
<path d="M17.7667 22.6H29.3667C29.8984 22.6 30.3334 22.165 30.3334 21.6333C30.3334 21.1016 29.8984 20.6666 29.3667 20.6666H17.7667C17.235 20.6666 16.8 21.1016 16.8 21.6333C16.8 22.165 17.235 22.6 17.7667 22.6Z" fill="#007A33" stroke="#007A33" stroke-width="0.2"/>
<path d="M34.8862 31.5804C34.5092 31.2034 33.9002 31.2034 33.5232 31.5804L29.9369 35.1667H24.5332C24.2722 35.1667 24.0306 35.273 23.8469 35.447L19.9802 39.3137C19.5936 39.681 19.5839 40.2997 19.9609 40.6767C20.3379 41.0537 20.9469 41.073 21.3239 40.696C21.3336 40.6864 21.3432 40.6767 21.3432 40.6767L24.9296 37.1H30.3332C30.5942 37.1 30.8359 36.9937 31.0196 36.8197L34.8862 32.953C35.2632 32.576 35.2632 31.9574 34.8862 31.5804Z" fill="#007A33" stroke="#007A33" stroke-width="0.2"/>
<path d="M33.2334 42.9H18.7334V28.4C18.7334 27.8683 18.2984 27.4333 17.7667 27.4333C17.235 27.4333 16.8 27.8683 16.8 28.4V43.8667C16.8 44.3983 17.235 44.8333 17.7667 44.8333H33.2334C33.765 44.8333 34.2 44.3983 34.2 43.8667C34.2 43.335 33.765 42.9 33.2334 42.9Z" fill="#007A33" stroke="#007A33" stroke-width="0.2"/>
</svg>
